<svg width="162" height="224" viewBox="0 0 162 224" fill="none" xmlns="http://www.w3.org/2000/svg" xmlns:xlink="http://www.w3.org/1999/xlink">
<path d="M47.687,59.237C30.528,59.237 16.569,45.274 16.569,28.119C16.569,16.834 22.604,6.935 31.616,1.478C34.113,0.83 36.731,0.484 39.428,0.484C56.591,0.484 70.55,14.443 70.55,31.607C70.55,42.886 64.515,52.785 55.503,58.243C53.004,58.891 50.385,59.237 47.687,59.237Z" clip-rule="evenodd" fill-rule="evenodd" fill="#00E499"/>
<path d="M43.027,39.878C42.376,39.878 41.754,39.619 41.294,39.163L31.979,29.848C31.025,28.89 31.025,27.341 31.979,26.388C32.936,25.43 34.485,25.43 35.443,26.388L43.027,33.971L59.93,17.068C60.888,16.11 62.437,16.11 63.394,17.068C64.347,18.025 64.347,19.574 63.394,20.527L44.763,39.163C44.299,39.619 43.678,39.878 43.027,39.878Z" clip-rule="evenodd" fill-rule="evenodd" fill="#ECEFF1"/>
<path d="M18.18,93.562C13.813,93.562 9.626,92.06 6.217,89.247C2.336,86.043 -0.06,81.523 -0.537,76.51C-1.018,71.5 0.484,66.607 3.689,62.725C6.894,58.848 11.417,56.448 16.422,55.972C21.431,55.491 26.329,56.997 30.206,60.202C34.088,63.402 36.488,67.922 36.969,72.935C37.441,77.944 35.943,82.838 32.738,86.715C29.53,90.596 25.01,92.992 20.001,93.473C19.393,93.533 18.784,93.562 18.18,93.562ZM77.19,93.562C76.585,93.562 75.977,93.532 75.369,93.473C70.359,92.992 65.836,90.596 62.636,86.715C59.427,82.838 57.924,77.943 58.405,72.935C58.886,67.922 61.282,63.402 65.159,60.202C69.04,56.997 73.934,55.491 78.944,55.972C83.957,56.448 88.48,58.848 91.681,62.725C94.886,66.607 96.388,71.5 95.907,76.51C95.43,81.523 93.03,86.043 89.149,89.247C85.744,92.06 81.552,93.562 77.19,93.562Z" clip-rule="evenodd" fill-rule="evenodd" fill="#DDC6B9"/>
<path d="M18.18,93.559C13.813,93.559 9.626,92.057 6.217,89.244C2.336,86.04 -0.06,81.52 -0.537,76.507C-1.018,71.498 0.484,66.604 3.689,62.722C5.016,61.118 6.568,59.767 8.287,58.699C9.261,58.446 10.262,58.269 11.283,58.171C16.292,57.69 21.19,59.197 25.067,62.401C28.949,65.601 31.348,70.121 31.83,75.134C32.302,80.143 30.804,85.037 27.599,88.914C26.271,90.521 24.718,91.873 22.999,92.94C22.025,93.194 21.023,93.371 20.001,93.47C19.393,93.53 18.784,93.559 18.18,93.559ZM67.27,58.683C69.373,58.137 71.577,57.957 73.804,58.171C78.817,58.648 83.34,61.048 86.541,64.925C89.746,68.806 91.248,73.7 90.767,78.709C90.29,83.722 87.89,88.242 84.009,91.447C83.337,92.003 82.633,92.507 81.903,92.959C80.376,93.356 78.794,93.56 77.19,93.56C76.585,93.56 75.977,93.53 75.369,93.47C70.359,92.989 65.836,90.594 62.636,86.712C59.427,82.835 57.924,77.941 58.405,72.932C58.886,67.919 61.282,63.399 65.159,60.199C65.833,59.642 66.539,59.136 67.27,58.683Z" clip-rule="evenodd" fill-rule="evenodd" fill="#F6DCCD"/>
<path d="M145.797,222.124C137.821,222.124 131.332,215.639 131.332,207.661L131.332,140.42L123.876,132.581L129.161,144.705C130.94,148.782 130.566,153.004 128.136,156.296C125.625,159.702 121.288,161.596 117.088,161.117C113.037,160.662 109.687,158.053 107.904,153.97L84.059,99.271C84.017,99.169 83.974,99.063 83.944,98.948C82.651,94.296 83.915,88.917 87.409,84.193C90.46,80.065 94.954,77.375 100.061,76.609C105.164,75.848 110.249,77.107 114.377,80.159L152.53,108.387C156.956,111.659 159.769,116.702 160.254,122.217C160.259,122.29 160.267,122.362 160.267,122.435L160.267,207.66C160.266,215.639 153.776,222.124 145.797,222.124Z" clip-rule="evenodd" fill-rule="evenodd" fill="#10626C"/>
<path d="M145.798,222.124C137.823,222.124 131.333,215.639 131.333,207.661L131.333,140.42L123.879,132.583L108.907,98.128C108.362,96.889 106.923,96.319 105.681,96.859C104.442,97.404 103.88,98.842 104.417,100.085L128.571,155.664L128.568,155.669L128.565,155.674L128.558,155.684L128.552,155.694L128.48,155.804L128.474,155.814L128.467,155.824L128.465,155.827L128.46,155.834C128.432,155.877 128.403,155.92 128.373,155.963L128.366,155.973L128.36,155.983L128.358,155.984L128.353,155.992L128.346,156.002L128.263,156.12L128.256,156.13L128.249,156.14L128.248,156.141L128.242,156.149C128.207,156.198 128.172,156.247 128.136,156.296C125.625,159.702 121.288,161.596 117.088,161.117C113.037,160.661 109.687,158.053 107.904,153.97L84.059,99.271C84.017,99.169 83.974,99.062 83.944,98.947C82.651,94.296 83.915,88.917 87.409,84.193C87.453,84.132 87.499,84.072 87.544,84.012L87.553,84.001L87.561,83.991C87.606,83.932 87.651,83.873 87.697,83.815L87.704,83.805C87.85,83.617 87.999,83.433 88.15,83.252L88.153,83.249C88.201,83.192 88.249,83.135 88.298,83.078L88.305,83.071L88.31,83.065C88.355,83.013 88.4,82.961 88.445,82.909L88.461,82.891L88.474,82.876C88.521,82.823 88.569,82.77 88.616,82.718L88.624,82.709C88.672,82.656 88.72,82.604 88.768,82.552L88.78,82.539L88.795,82.522C88.893,82.417 88.993,82.312 89.093,82.209L89.102,82.199L89.107,82.194L89.121,82.18L89.252,82.047L89.292,82.006L89.416,81.883L89.441,81.859L89.469,81.831L89.575,81.728L89.61,81.695L89.629,81.678L89.768,81.547L89.782,81.534L89.791,81.526L89.791,81.525L89.933,81.395L89.954,81.376L89.955,81.375L89.977,81.355L90.116,81.231L90.119,81.229L90.131,81.218L90.148,81.203L90.277,81.09L90.344,81.032L90.459,80.934L90.505,80.895L90.51,80.891L90.566,80.844L90.647,80.778L90.68,80.75C92.085,80.184 93.568,79.778 95.107,79.547C100.209,78.786 105.295,80.045 109.423,83.097L147.576,111.325C152.001,114.597 154.814,119.64 155.3,125.155C155.304,125.228 155.313,125.3 155.313,125.373L155.313,210.598C155.313,214.851 153.468,218.679 150.536,221.327L150.535,221.328C150.467,221.351 150.399,221.374 150.331,221.397L150.183,221.445L150.008,221.5L149.841,221.55L149.665,221.6L149.497,221.645L149.327,221.689L149.141,221.735L148.99,221.77C148.917,221.786 148.843,221.802 148.77,221.818L148.663,221.84C148.58,221.856 148.497,221.873 148.414,221.888L148.309,221.907C148.22,221.923 148.131,221.937 148.041,221.951L147.966,221.963C147.865,221.978 147.764,221.992 147.663,222.006L147.619,222.012C147.511,222.025 147.404,222.037 147.297,222.048L147.26,222.052C147.151,222.063 147.042,222.073 146.932,222.082L146.897,222.085C146.781,222.093 146.665,222.101 146.548,222.107L146.539,222.107C146.419,222.113 146.299,222.118 146.178,222.121L146.166,222.121C146.042,222.122 145.92,222.124 145.798,222.124ZM129.162,144.706L124.163,133.238L129.416,145.327L129.412,145.317L129.382,145.239L129.378,145.229L129.374,145.22L129.37,145.21L129.366,145.2L129.363,145.19L129.359,145.18L129.355,145.171L129.347,145.151L129.343,145.141L129.339,145.132L129.335,145.122L129.331,145.112L129.327,145.102L129.323,145.092L129.316,145.073L129.312,145.063L129.308,145.053L129.304,145.043L129.252,144.918L129.248,144.908L129.244,144.898L129.243,144.896L129.24,144.889L129.236,144.879L129.232,144.869L129.17,144.724L129.165,144.714L129.162,144.706Z" clip-rule="evenodd" fill-rule="evenodd" fill="#10737F"/>
</svg>
