<svg width="250" height="272" viewBox="0 0 250 272" fill="none" xmlns="http://www.w3.org/2000/svg" xmlns:xlink="http://www.w3.org/1999/xlink">
<path d="M25.742,104.063C12.578,104.063 1.87,93.355 1.87,80.191C1.87,67.031 12.578,56.322 25.742,56.322C38.904,56.322 49.612,67.031 49.612,80.191C49.612,93.355 38.904,104.063 25.742,104.063Z" clip-rule="evenodd" fill-rule="evenodd" fill="#D9B7A9"/>
<path d="M25.742,104.064C12.578,104.064 1.87,93.355 1.87,80.192C1.87,71.738 6.289,64.296 12.938,60.054C15.321,59.254 17.87,58.82 20.518,58.82C33.681,58.82 44.388,69.529 44.388,82.689C44.388,91.145 39.969,98.588 33.32,102.83C30.938,103.629 28.39,104.064 25.742,104.064Z" clip-rule="evenodd" fill-rule="evenodd" fill="#F1CBBC"/>
<path d="M39.662,48.901C39.142,48.901 38.621,48.767 38.151,48.498L25.742,41.358L13.331,48.498C12.296,49.092 11.008,49.023 10.041,48.323C9.076,47.621 8.612,46.418 8.859,45.249L11.813,31.238L1.188,21.64C0.301,20.84 -0.03,19.593 0.337,18.457C0.707,17.321 1.709,16.511 2.896,16.383L17.132,14.863L22.977,1.794C23.464,0.703 24.546,0 25.741,0C26.935,0 28.017,0.703 28.505,1.794L34.349,14.863L48.587,16.383C49.774,16.511 50.776,17.321 51.146,18.457C51.513,19.593 51.18,20.84 50.295,21.64L39.67,31.238L42.624,45.248C42.87,46.417 42.407,47.62 41.44,48.322C40.913,48.706 40.288,48.901 39.662,48.901Z" clip-rule="evenodd" fill-rule="evenodd" fill="#E6BD5C"/>
<path d="M39.661,48.901C39.142,48.901 38.621,48.768 38.151,48.498L25.741,41.358L13.33,48.498C12.295,49.092 11.007,49.023 10.041,48.323C9.075,47.621 8.612,46.418 8.858,45.249L11.812,31.239L1.187,21.64C0.613,21.122 0.272,20.416 0.202,19.675C0.539,19.495 0.912,19.377 1.306,19.335L15.825,17.785L22.101,3.753C22.649,3.248 23.377,2.952 24.152,2.952C25.345,2.952 26.427,3.655 26.916,4.746L32.76,17.816L46.997,19.335C48.184,19.463 49.186,20.273 49.556,21.409C49.638,21.663 49.685,21.921 49.699,22.179L37.813,32.917L41.035,48.201C41.059,48.315 41.076,48.43 41.087,48.545C40.643,48.781 40.153,48.901 39.661,48.901Z" clip-rule="evenodd" fill-rule="evenodd" fill="#FFD266"/>
<path d="M245.359,270.312L168.299,270.312C166.627,270.312 165.271,268.954 165.271,267.285C165.271,244.371 183.914,225.725 206.828,225.725C229.744,225.725 248.385,244.371 248.385,267.285C248.385,268.954 247.031,270.312 245.359,270.312Z" clip-rule="evenodd" fill-rule="evenodd" fill="#10737F"/>
<path d="M154.143,270.312L77.083,270.312C75.411,270.312 74.056,268.954 74.056,267.285C74.056,244.371 92.698,225.725 115.613,225.725C138.528,225.725 157.171,244.371 157.171,267.285C157.171,268.954 155.815,270.312 154.143,270.312Z" clip-rule="evenodd" fill-rule="evenodd" fill="#10737F"/>
<path d="M150.11,270.312L77.083,270.312C75.411,270.312 74.056,268.954 74.056,267.285C74.056,253.774 80.539,241.748 90.557,234.152C96.01,231.518 102.122,230.04 108.574,230.04C131.058,230.04 149.427,247.991 150.11,270.312Z" clip-rule="evenodd" fill-rule="evenodd" fill="#128593"/>
<path d="M115.613,231.781C103.567,231.781 93.77,221.984 93.77,209.939C93.77,197.895 103.568,188.097 115.613,188.097C127.657,188.097 137.456,197.894 137.456,209.939C137.456,221.984 127.657,231.781 115.613,231.781Z" clip-rule="evenodd" fill-rule="evenodd" fill="#D9B7A9"/>
<path d="M115.613,231.781C103.567,231.781 93.77,221.983 93.77,209.938C93.77,201.177 98.955,193.606 106.417,190.129C107.419,189.988 108.442,189.913 109.482,189.913C121.526,189.913 131.325,199.71 131.325,211.755C131.325,220.516 126.139,228.087 118.676,231.564C117.676,231.706 116.653,231.781 115.613,231.781Z" clip-rule="evenodd" fill-rule="evenodd" fill="#F1CBBC"/>
<path d="M181.773,234.152C187.226,231.518 193.338,230.04 199.789,230.04C222.274,230.04 240.642,247.991 241.325,270.312L168.299,270.312C166.627,270.312 165.271,268.954 165.271,267.285C165.272,253.774 171.755,241.748 181.773,234.152Z" clip-rule="evenodd" fill-rule="evenodd" fill="#128593"/>
<path d="M206.829,231.781C194.784,231.781 184.985,221.984 184.985,209.939C184.985,197.895 194.784,188.097 206.829,188.097C218.874,188.097 228.673,197.894 228.673,209.939C228.673,221.984 218.874,231.781 206.829,231.781Z" clip-rule="evenodd" fill-rule="evenodd" fill="#D9B7A9"/>
<path d="M197.633,190.129C198.634,189.988 199.657,189.913 200.697,189.913C212.742,189.913 222.541,199.71 222.541,211.755C222.541,220.516 217.355,228.087 209.892,231.564C208.891,231.705 207.868,231.781 206.828,231.781C194.783,231.781 184.984,221.983 184.984,209.938C184.984,201.177 190.17,193.606 197.633,190.129Z" clip-rule="evenodd" fill-rule="evenodd" fill="#F1CBBC"/>
</svg>
