<svg width="168" height="132" viewBox="0 0 168 132" fill="none" xmlns="http://www.w3.org/2000/svg" xmlns:xlink="http://www.w3.org/1999/xlink">
<path d="M92.717,60.218L63.779,99.671L81.738,112.837L90.81,100.462L131.146,130.051C135.473,133.215 141.521,132.284 144.685,127.957L158.828,108.696C166.504,98.229 164.225,83.527 153.757,75.85L125.517,55.147C115.049,47.517 100.394,49.797 92.717,60.218Z" fill="#10737F"/>
<path d="M125.471,53.24C120.493,60.591 122.215,70.547 129.379,75.804L132.915,78.41C140.08,83.62 150.083,82.318 155.619,75.386L125.471,53.24Z" fill="#EFCDB1"/>
<path d="M117.934,97.905C117.33,97.905 116.771,97.719 116.306,97.393C115.05,96.463 114.771,94.742 115.701,93.485L127.1,77.9C128.03,76.644 129.752,76.365 131.008,77.295C132.264,78.225 132.543,79.947 131.612,81.203L120.168,96.789C119.656,97.486 118.818,97.905 117.934,97.905Z" fill="#414042"/>
<path d="M132.96,42.959L125.795,52.729L125.47,53.24L155.617,75.386L156.036,74.874L163.201,65.058C168.598,57.707 166.969,47.378 159.618,41.982L156.083,39.376C148.732,33.979 138.403,35.561 133.007,42.912C132.96,42.912 132.96,42.959 132.96,42.959Z" fill="#8A5D3B"/>
<path d="M92.207,98.554L104.35,82.038Z" fill="#10626C"/>
<path d="M92.206,101.345C91.601,101.345 91.043,101.159 90.531,100.833C89.275,99.902 89.042,98.181 89.973,96.925L102.069,80.362C103,79.106 104.721,78.827 105.977,79.757C107.233,80.688 107.512,82.409 106.582,83.665L94.439,100.228C93.927,100.926 93.09,101.345 92.206,101.345Z" fill="#10626C"/>
<path d="M63.78,99.67L56.569,109.487C54.801,111.906 55.313,115.303 57.732,117.117L66.897,123.816C69.316,125.584 72.713,125.073 74.527,122.653L81.738,112.837L63.78,99.67Z" fill="#EFCDB1"/>
<path d="M4.79,72.874L31.913,113.583L50.43,101.254L41.916,88.507L83.602,60.778C88.021,57.801 89.231,51.799 86.253,47.333L73.041,27.467C65.829,16.673 51.267,13.742 40.474,20.907L11.35,40.308C0.556,47.472 -2.375,62.081 4.79,72.874Z" fill="#128593"/>
<path d="M9.489,39.747C14.7,46.911 24.61,48.726 32.007,43.794L35.682,41.375C43.08,36.49 45.313,26.58 40.66,18.997L9.489,39.747Z" fill="#EFCDB1"/>
<path d="M46.242,63.99C45.311,63.99 44.427,63.525 43.916,62.734L33.215,46.637C32.285,45.381 32.564,43.659 33.773,42.729C35.029,41.798 36.751,42.077 37.681,43.287C37.728,43.38 37.821,43.473 37.867,43.566L48.568,59.617C49.405,60.92 49.08,62.641 47.777,63.525C47.312,63.804 46.8,63.99 46.242,63.99Z" fill="#414042"/>
<path d="M2.417,29.095L9.116,39.191L9.488,39.749L40.66,18.999L40.287,18.441L33.588,8.345C28.517,0.762 18.235,-1.285 10.651,3.786L7.023,6.205C-0.561,11.23 -2.654,21.418 2.37,29.048L2.417,29.095Z" fill="#8A5D3B"/>
<path d="M40.614,89.345C39.683,89.345 38.8,88.88 38.288,88.089L26.936,71.015C26.052,69.712 26.424,67.991 27.727,67.153C29.029,66.269 30.751,66.641 31.588,67.897L42.94,84.972C43.778,86.228 43.452,87.949 42.242,88.787C42.196,88.787 42.196,88.833 42.149,88.833C41.684,89.159 41.172,89.345 40.614,89.345Z" fill="#10737F"/>
<path d="M31.914,113.583L38.66,123.725C40.288,126.237 43.638,126.935 46.104,125.307C46.15,125.307 46.15,125.26 46.197,125.26L55.688,118.98C58.2,117.305 58.851,113.908 57.177,111.396L50.431,101.254L31.914,113.583Z" fill="#EFCDB1"/>
</svg>
