<svg width="1286" height="578" viewBox="0 0 1286 578" fill="none" xmlns="http://www.w3.org/2000/svg" xmlns:xlink="http://www.w3.org/1999/xlink">
<path d="M440.654,444.355L441.998,440.587L441.998,440.587L440.654,444.355ZM501.964,466.229L500.62,469.997L500.62,469.997L501.964,466.229ZM505.234,465.967L503.308,462.461L503.308,462.461L505.234,465.967ZM771.276,319.777L769.35,316.271L769.35,316.271L771.276,319.777ZM774.122,319.391L773.202,323.283L773.202,323.283L774.122,319.391ZM826.606,331.805L825.684,335.699L825.684,335.699L826.606,331.805ZM830.278,330.815L827.526,327.913L827.526,327.913L830.278,330.815ZM952.548,214.897L949.796,211.993L949.796,211.993L952.548,214.897ZM957.808,214.685L960.318,211.569L960.318,211.569L957.808,214.685ZM1039.176,280.217L1036.668,283.331L1036.668,283.331L1039.176,280.217ZM1045.162,279.081L1048.638,281.059L1048.638,281.059L1045.162,279.081ZM1113.47,159.1L1116.946,161.079L1116.946,161.079L1113.47,159.1ZM1118.794,157.531L1120.64,153.983L1120.64,153.983L1118.794,157.531ZM1193.008,196.164L1194.854,192.616L1194.854,192.616L1193.008,196.164ZM1198.526,194.205L1202.196,195.794L1202.196,195.794L1198.526,194.205ZM1284.788,4.964C1285.666,2.936 1284.732,0.582 1282.706,-0.296C1280.678,-1.173 1278.324,-0.241 1277.446,1.786L1284.788,4.964ZM244.706,551.609L246.648,555.105L246.648,555.105L244.706,551.609ZM437.368,444.625L439.31,448.121L439.31,448.121L437.368,444.625ZM5,568.999C2.791,568.999 1,570.791 1,572.999C1,575.209 2.791,576.999 5,576.999L5,568.999ZM52,573.001L52,577.001L52.218,577.001L52.435,576.977L52,573.001ZM243.198,552.087L242.764,548.111L242.764,548.111L243.198,552.087ZM439.31,448.121L500.62,469.997L503.308,462.461L441.998,440.587L439.31,448.121ZM507.162,469.473L773.202,323.283L769.35,316.271L503.308,462.461L507.162,469.473ZM773.202,323.283L825.684,335.699L827.526,327.913L775.044,315.497L773.202,323.283ZM833.03,333.719L955.3,217.799L949.796,211.993L827.526,327.913L833.03,333.719ZM955.3,217.799L1036.668,283.331L1041.686,277.101L960.318,211.569L955.3,217.799ZM1048.638,281.059L1116.946,161.079L1109.994,157.121L1041.686,277.101L1048.638,281.059ZM1116.946,161.079L1191.16,199.712L1194.854,192.616L1120.64,153.983L1116.946,161.079ZM1202.196,195.794L1284.788,4.964L1277.446,1.786L1194.854,192.616L1202.196,195.794ZM246.648,555.105L439.31,448.121L435.426,441.127L242.764,548.111L246.648,555.105ZM5,576.999L52,577.001L52,569.001L5,568.999L5,576.999ZM52.435,576.977L243.634,556.063L242.764,548.111L51.565,569.023L52.435,576.977ZM242.764,548.111L242.764,548.111L243.634,556.065C244.692,555.949 245.716,555.623 246.648,555.105L242.764,548.111ZM1191.16,199.712C1195.278,201.856 1200.352,200.055 1202.196,195.794L1194.854,192.616L1194.854,192.616L1191.16,199.712ZM1116.946,161.079L1116.946,161.079L1120.64,153.983C1116.826,151.997 1112.122,153.383 1109.994,157.121L1116.946,161.079ZM1036.668,283.331C1040.506,286.423 1046.2,285.343 1048.638,281.059L1041.686,277.101L1041.686,277.101L1036.668,283.331ZM955.3,217.799L955.3,217.799L960.318,211.569C957.198,209.057 952.702,209.239 949.796,211.993L955.3,217.799ZM825.684,335.699C828.31,336.319 831.072,335.575 833.03,333.719L827.526,327.913L827.526,327.913L825.684,335.699ZM773.202,323.283L773.202,323.283L775.044,315.497C773.114,315.041 771.086,315.317 769.35,316.271L773.202,323.283ZM500.62,469.997C502.776,470.765 505.156,470.575 507.162,469.473L503.308,462.461L503.308,462.461L500.62,469.997ZM441.998,440.587C439.832,439.813 437.436,440.011 435.426,441.127L439.31,448.121L439.31,448.121L441.998,440.587Z" fill="#000000"/>
</svg>
