<svg width="270" height="268" viewBox="0 0 270 268" fill="none" xmlns="http://www.w3.org/2000/svg" xmlns:xlink="http://www.w3.org/1999/xlink">
<path d="M134.692,-0.568C125.603,-0.568 118.208,6.827 118.208,15.915C118.208,26.033 123.985,36.787 134.692,36.787C145.398,36.787 151.164,26.033 151.164,15.915C151.164,6.826 143.775,-0.568 134.692,-0.568Z" fill="#F6DCCD"/>
<path d="M134.692,-0.568C133.656,-0.568 132.642,-0.468 131.658,-0.284C139.297,1.145 145.098,7.863 145.098,15.915C145.098,25.03 140.41,34.658 131.658,36.477C132.621,36.677 133.632,36.787 134.692,36.787C145.392,36.787 151.165,26.033 151.165,15.915C151.165,6.826 143.776,-0.568 134.692,-0.568Z" fill="#F1CBBC"/>
<path d="M146.683,36.788L122.689,36.788C109.697,36.788 99.127,46.723 99.127,58.934L99.127,75.261L170.245,75.261L170.245,58.934C170.245,46.723 159.675,36.788 146.683,36.788Z" fill="#128593"/>
<path d="M146.685,36.784L139.218,36.784C152.21,36.784 162.78,46.719 162.78,58.93L162.78,75.256L170.246,75.256L170.246,58.93C170.246,46.719 159.677,36.784 146.685,36.784Z" fill="#10737F"/>
<path d="M156.555,75.263L156.555,61.04C156.555,58.978 154.883,57.307 152.821,57.307C150.759,57.307 149.088,58.978 149.088,61.04L149.088,75.263L156.555,75.263Z" fill="#10737F"/>
<path d="M120.272,75.263L120.272,61.04C120.272,58.978 118.601,57.307 116.538,57.307C114.476,57.307 112.805,58.978 112.805,61.04L112.805,75.263L120.272,75.263Z" fill="#10737F"/>
<path d="M36.403,150.376C27.314,150.376 19.92,157.771 19.92,166.859C19.92,176.977 25.697,187.731 36.403,187.731C47.11,187.731 52.876,176.978 52.876,166.859C52.876,157.77 45.487,150.376 36.403,150.376Z" fill="#F6DCCD"/>
<path d="M36.404,150.376C35.367,150.376 34.354,150.477 33.37,150.661C41.009,152.089 46.81,158.807 46.81,166.859C46.81,175.974 42.122,185.602 33.37,187.421C34.333,187.621 35.343,187.731 36.404,187.731C47.103,187.731 52.877,176.978 52.877,166.859C52.877,157.77 45.487,150.376 36.404,150.376Z" fill="#F1CBBC"/>
<path d="M48.395,187.733L24.4,187.733C11.408,187.733 0.839,197.667 0.839,209.879L0.839,226.205L71.957,226.205L71.957,209.879C71.957,197.667 61.387,187.733 48.395,187.733Z" fill="#128593"/>
<path d="M48.394,187.733L40.928,187.733C53.92,187.733 64.49,197.668 64.49,209.879L64.49,226.206L71.956,226.206L71.956,209.879C71.956,197.668 61.386,187.733 48.394,187.733Z" fill="#10737F"/>
<path d="M58.267,226.203L58.267,211.98C58.267,209.918 56.596,208.247 54.533,208.247C52.471,208.247 50.8,209.918 50.8,211.98L50.8,226.203L58.267,226.203Z" fill="#10737F"/>
<path d="M21.984,226.203L21.984,211.98C21.984,209.918 20.313,208.247 18.251,208.247C16.188,208.247 14.517,209.918 14.517,211.98L14.517,226.203L21.984,226.203L21.984,226.203Z" fill="#10737F"/>
<path d="M232.937,150.376C223.848,150.376 216.454,157.771 216.454,166.859C216.454,176.977 222.231,187.731 232.937,187.731C243.644,187.731 249.41,176.978 249.41,166.859C249.41,157.77 242.021,150.376 232.937,150.376Z" fill="#F6DCCD"/>
<path d="M232.938,150.376C231.901,150.376 230.888,150.477 229.904,150.661C237.542,152.089 243.344,158.807 243.344,166.859C243.344,175.974 238.656,185.602 229.904,187.421C230.867,187.621 231.877,187.731 232.938,187.731C243.637,187.731 249.411,176.978 249.411,166.859C249.411,157.77 242.021,150.376 232.938,150.376Z" fill="#F1CBBC"/>
<path d="M244.929,187.733L220.934,187.733C207.942,187.733 197.373,197.667 197.373,209.879L197.373,226.205L268.491,226.205L268.491,209.879C268.491,197.667 257.921,187.733 244.929,187.733Z" fill="#128593"/>
<path d="M244.929,187.733L237.463,187.733C250.455,187.733 261.024,197.668 261.024,209.879L261.024,226.206L268.491,226.206L268.491,209.879C268.491,197.668 257.921,187.733 244.929,187.733Z" fill="#10737F"/>
<path d="M254.8,226.203L254.8,211.98C254.8,209.918 253.129,208.247 251.067,208.247C249.004,208.247 247.333,209.918 247.333,211.98L247.333,226.203L254.799,226.203L254.8,226.203Z" fill="#10737F"/>
<path d="M218.517,226.203L218.517,211.98C218.517,209.918 216.846,208.247 214.784,208.247C212.722,208.247 211.05,209.918 211.05,211.98L211.05,226.203L218.517,226.203L218.517,226.203Z" fill="#10737F"/>
<path d="M134.687,267.131C108.632,267.131 83.953,258.749 63.317,242.893C61.388,241.41 61.026,238.644 62.508,236.714C63.992,234.784 66.758,234.422 68.688,235.904C87.769,250.567 110.591,258.319 134.687,258.319C158.783,258.319 181.59,250.567 200.671,235.904C202.6,234.422 205.367,234.784 206.85,236.713C208.333,238.643 207.971,241.409 206.041,242.892C185.406,258.749 160.733,267.131 134.687,267.131L134.687,267.131ZM247.022,144.675C244.758,144.675 242.832,142.94 242.636,140.643C239.328,101.905 215.272,67.728 179.859,51.449C177.647,50.432 176.679,47.816 177.695,45.605C178.712,43.393 181.331,42.425 183.539,43.441C221.83,61.042 247.838,98 251.416,139.893C251.624,142.318 249.826,144.452 247.402,144.659C247.274,144.67 247.146,144.675 247.022,144.675ZM22.352,144.659C22.226,144.659 22.099,144.654 21.972,144.643C19.547,144.435 17.75,142.302 17.957,139.877C21.535,97.99 47.539,61.043 85.819,43.456C88.032,42.44 90.647,43.41 91.663,45.621C92.679,47.833 91.71,50.449 89.498,51.465C54.095,67.73 30.047,101.895 26.737,140.628C26.541,142.925 24.616,144.659 22.352,144.659Z" fill="#A79BA7"/>
<path d="M206.006,180.888L193.758,128.722C193.193,126.343 190.78,124.845 188.384,125.411L178.317,127.774C175.921,128.323 174.44,130.752 174.989,133.132L176.402,139.144L173.126,140.337C168.916,141.852 164.722,141.602 160.729,139.589L155.104,136.761C161.92,127.999 166.747,115.54 166.747,98.953C166.747,97.008 165.472,95.292 163.609,94.733L135.769,86.364C134.942,86.115 134.06,86.115 133.232,86.364L105.393,94.733C103.53,95.293 102.255,97.008 102.255,98.953C102.255,115.069 106.81,127.293 113.321,136.011L93.659,136.011L94.335,133.133C94.901,130.753 93.403,128.324 91.007,127.775L80.94,125.412C78.56,124.846 76.148,126.344 75.582,128.723L63.318,180.889C62.769,183.285 64.267,185.698 66.646,186.264L76.713,188.627C79.109,189.193 81.522,187.695 82.088,185.299L83.502,179.275L115.917,211.59C118.779,214.452 123.471,214.452 126.333,211.573C129.195,208.711 129.179,204.019 126.317,201.157C123.455,198.295 134.62,209.443 134.62,209.443C137.482,212.306 142.174,212.289 145.036,209.427C147.898,206.548 147.898,201.872 145.019,199.01L151.127,205.084C153.989,207.946 158.681,207.946 161.543,205.084C164.405,202.205 164.405,197.512 161.527,194.65C164.406,197.512 169.098,197.512 171.96,194.634C174.822,191.772 174.806,187.079 171.943,184.217L171.932,184.206C174.899,186.994 179.059,187.72 182.809,186.064L186.998,184.217L187.252,185.298C187.801,187.694 190.214,189.192 192.61,188.626L202.677,186.263C205.074,185.698 206.571,183.285 206.005,180.888L206.006,180.888Z" fill="#F6DCCD"/>
<path d="M163.61,94.733L135.77,86.364C134.943,86.115 134.06,86.115 133.233,86.364L105.394,94.733C103.531,95.293 102.256,97.008 102.256,98.953C102.256,129.046 118.13,145.582 132.986,151.024C133.475,151.204 133.988,151.293 134.501,151.293C135.014,151.293 135.527,151.203 136.016,151.024C150.872,145.583 166.747,129.046 166.747,98.953C166.747,97.008 165.472,95.292 163.609,94.733L163.61,94.733Z" fill="#8AC9FE"/>
<path d="M176.401,139.147L173.125,140.34C168.915,141.854 164.721,141.605 160.728,139.592L155.103,136.764C149.552,143.899 142.684,148.584 136.016,151.027C135.527,151.206 135.013,151.296 134.5,151.296C133.988,151.296 133.474,151.206 132.985,151.027C128.447,149.365 123.817,146.662 119.571,142.86L106.931,157.03C105.883,158.228 105.467,159.676 105.75,161.24C106.033,162.805 106.931,164.036 108.329,164.768C114.203,167.879 121.391,167.63 127.215,163.77L134.936,158.628C138.93,155.966 144.121,156.482 147.516,159.876L171.71,184.004C174.689,186.966 178.965,187.765 182.809,186.068L186.997,184.221L176.401,139.148L176.401,139.147Z" fill="#E2B8AA"/>
<path d="M75.582,128.722L63.318,180.888C62.77,183.285 64.267,185.697 66.646,186.263L76.713,188.627C79.109,189.192 81.523,187.695 82.088,185.298L94.335,133.132C94.9,130.752 93.403,128.323 91.007,127.774L80.94,125.411C78.56,124.845 76.148,126.343 75.582,128.722Z" fill="#837683"/>
<path d="M91.007,127.775L89.476,127.415L77.682,177.652C77.116,180.048 74.703,181.546 72.307,180.98L63.768,178.976L63.318,180.89C62.769,183.286 64.267,185.698 66.646,186.265L76.713,188.628C79.109,189.193 81.522,187.696 82.088,185.3L94.335,133.133C94.901,130.754 93.403,128.324 91.007,127.775Z" fill="#7A6D7A"/>
<path d="M193.757,128.722L206.004,180.888C206.57,183.285 205.072,185.697 202.676,186.263L192.608,188.627C190.212,189.192 187.8,187.695 187.251,185.298L174.987,133.132C174.438,130.752 175.919,128.323 178.314,127.774L188.382,125.411C190.778,124.845 193.191,126.343 193.756,128.723L193.757,128.722Z" fill="#837683"/>
<path d="M206.005,180.889L193.758,128.722C193.192,126.343 190.78,124.845 188.383,125.411L186.516,125.85L198.507,176.922C199.072,179.318 197.575,181.731 195.178,182.297L186.997,184.217L187.251,185.299C187.801,187.695 190.213,189.192 192.609,188.627L202.676,186.264C205.073,185.698 206.57,183.285 206.004,180.889L206.005,180.889Z" fill="#7A6D7A"/>
<path d="M154.819,201.579L138.185,184.995C137.355,184.168 136.068,184.015 135.068,184.623C133.659,185.481 133.426,187.432 134.594,188.597L151.125,205.079C153.988,207.941 158.68,207.941 161.542,205.079C162.122,204.496 162.578,203.836 162.923,203.134C160.238,204.274 156.998,203.759 154.819,201.579Z" fill="#F1CBBC"/>
<path d="M138.314,205.939L125.229,192.88C124.4,192.052 123.112,191.899 122.111,192.508C120.702,193.365 120.469,195.316 121.636,196.481L134.62,209.439C137.481,212.301 142.174,212.284 145.036,209.422C145.615,208.84 146.072,208.181 146.416,207.48C143.731,208.624 140.492,208.119 138.314,205.939Z" fill="#F1CBBC"/>
<path d="M165.221,191.149L151.15,177.111C150.321,176.284 149.033,176.13 148.032,176.739C146.623,177.596 146.39,179.547 147.558,180.712L161.527,194.648C164.406,197.51 169.098,197.51 171.96,194.631C172.539,194.053 172.994,193.396 173.338,192.697C170.652,193.843 167.412,193.328 165.22,191.149L165.221,191.149Z" fill="#F1CBBC"/>
<path d="M186.01,180.016L179.584,182.849C175.741,184.546 171.464,183.748 168.486,180.786L144.292,156.658C140.897,153.263 135.706,152.748 131.712,155.41L123.991,160.551C118.438,164.232 111.648,164.622 105.937,161.955C106.337,163.177 107.154,164.149 108.328,164.765C114.203,167.877 121.391,167.627 127.215,163.767L134.936,158.625C138.929,155.963 144.121,156.479 147.516,159.874L171.71,184.002C174.689,186.963 178.965,187.762 182.808,186.065L186.997,184.218L186.009,180.016L186.01,180.016Z" fill="#D3A69B"/>
<path d="M119.61,208.092L84.868,173.457L83.502,179.276L115.916,211.591C118.779,214.454 123.471,214.454 126.333,211.575C126.912,210.996 127.367,210.339 127.711,209.641C125.026,210.786 121.789,210.271 119.61,208.092Z" fill="#F1CBBC"/>
<path d="M134.501,151.293C133.988,151.293 133.475,151.203 132.986,151.024C118.13,145.583 102.256,129.046 102.256,98.953C102.256,97.008 103.531,95.292 105.394,94.733L133.233,86.364C134.06,86.115 134.943,86.115 135.77,86.364L163.61,94.733C165.472,95.293 166.748,97.008 166.748,98.953C166.748,129.046 150.873,145.582 136.018,151.024C135.528,151.204 135.015,151.293 134.502,151.293L134.501,151.293ZM111.14,102.208C112.138,124.66 123.426,137.381 134.501,142.145C145.576,137.381 156.864,124.66 157.862,102.208L134.501,95.185L111.14,102.208Z" fill="#60B7FF"/>
<path d="M163.608,94.731L162.113,94.281C163.129,95.144 163.765,96.451 163.765,97.888C163.765,125.135 152.044,141.826 139.32,149.625C153.131,143.054 166.745,126.819 166.745,98.951C166.745,97.006 165.471,95.29 163.608,94.731Z" fill="#49A9EA"/>
<path d="M131.643,129.762C130.505,129.762 129.408,129.321 128.586,128.529L122.2,122.377C120.448,120.689 120.396,117.899 122.084,116.146C123.772,114.393 126.562,114.341 128.315,116.03L131.439,119.039L140.472,109.13C142.112,107.332 144.899,107.202 146.698,108.843C148.496,110.483 148.625,113.27 146.985,115.068L134.9,128.324C134.099,129.203 132.976,129.721 131.786,129.76C131.739,129.761 131.691,129.762 131.643,129.762Z" fill="#D8ECFE"/>
</svg>
