<svg width="270" height="270" viewBox="0 0 270 270" fill="none" xmlns="http://www.w3.org/2000/svg" xmlns:xlink="http://www.w3.org/1999/xlink">
<path d="M134.692,1C125.602,1 118.208,8.395 118.208,17.484C118.208,27.601 123.985,38.355 134.692,38.355C145.398,38.355 151.164,27.602 151.164,17.484C151.164,8.394 143.775,1 134.692,1Z" fill="#F6DCCD"/>
<path d="M134.692,1C133.656,1 132.642,1.101 131.658,1.285C139.297,2.714 145.098,9.432 145.098,17.484C145.098,26.599 140.41,36.226 131.658,38.045C132.621,38.245 133.631,38.355 134.692,38.355C145.392,38.355 151.165,27.602 151.165,17.484C151.165,8.394 143.776,1 134.692,1Z" fill="#F1CBBC"/>
<path d="M146.683,38.357L122.689,38.357C109.697,38.357 99.127,48.292 99.127,60.503L99.127,76.829L170.245,76.829L170.245,60.503C170.245,48.292 159.675,38.357 146.683,38.357Z" fill="#128593"/>
<path d="M146.685,38.352L139.218,38.352C152.21,38.352 162.78,48.287 162.78,60.498L162.78,76.825L170.246,76.825L170.246,60.498C170.246,48.287 159.677,38.352 146.685,38.352Z" fill="#10737F"/>
<path d="M156.555,76.832L156.555,62.609C156.555,60.547 154.883,58.875 152.821,58.875C150.759,58.875 149.088,60.546 149.088,62.609L149.088,76.832L156.555,76.832Z" fill="#10737F"/>
<path d="M120.272,76.832L120.272,62.609C120.272,60.547 118.601,58.875 116.538,58.875C114.476,58.875 112.805,60.546 112.805,62.609L112.805,76.832L120.272,76.832Z" fill="#10737F"/>
<path d="M36.403,151.944C27.314,151.944 19.92,159.339 19.92,168.428C19.92,178.545 25.697,189.299 36.403,189.299C47.11,189.299 52.876,178.546 52.876,168.428C52.876,159.338 45.486,151.944 36.403,151.944Z" fill="#F6DCCD"/>
<path d="M36.404,151.944C35.367,151.944 34.354,152.045 33.369,152.229C41.008,153.658 46.81,160.376 46.81,168.428C46.81,177.543 42.122,187.17 33.369,188.99C34.333,189.19 35.343,189.299 36.404,189.299C47.103,189.299 52.876,178.546 52.876,168.428C52.876,159.338 45.487,151.944 36.404,151.944Z" fill="#F1CBBC"/>
<path d="M48.395,189.301L24.4,189.301C11.408,189.301 0.838,199.236 0.838,211.447L0.838,227.773L71.956,227.773L71.956,211.447C71.956,199.236 61.387,189.301 48.395,189.301Z" fill="#128593"/>
<path d="M48.394,189.302L40.927,189.302C53.919,189.302 64.489,199.237 64.489,211.448L64.489,227.774L71.956,227.774L71.956,211.448C71.956,199.237 61.386,189.302 48.394,189.302Z" fill="#10737F"/>
<path d="M58.267,227.772L58.267,213.549C58.267,211.487 56.596,209.815 54.533,209.815C52.471,209.815 50.8,211.486 50.8,213.549L50.8,227.772L58.267,227.772Z" fill="#10737F"/>
<path d="M21.984,227.772L21.984,213.549C21.984,211.487 20.313,209.815 18.25,209.815C16.188,209.815 14.517,211.486 14.517,213.549L14.517,227.772L21.983,227.772L21.984,227.772Z" fill="#10737F"/>
<path d="M232.938,151.944C223.849,151.944 216.454,159.339 216.454,168.428C216.454,178.545 222.232,189.299 232.938,189.299C243.644,189.299 249.411,178.546 249.411,168.428C249.411,159.338 242.021,151.944 232.938,151.944Z" fill="#F6DCCD"/>
<path d="M232.939,151.944C231.902,151.944 230.889,152.045 229.904,152.229C237.543,153.658 243.345,160.376 243.345,168.428C243.345,177.543 238.656,187.17 229.904,188.99C230.868,189.19 231.878,189.299 232.939,189.299C243.638,189.299 249.411,178.546 249.411,168.428C249.411,159.338 242.022,151.944 232.939,151.944Z" fill="#F1CBBC"/>
<path d="M244.93,189.301L220.935,189.301C207.943,189.301 197.373,199.236 197.373,211.447L197.373,227.773L268.491,227.773L268.491,211.447C268.491,199.236 257.921,189.301 244.93,189.301Z" fill="#128593"/>
<path d="M244.93,189.302L237.463,189.302C250.455,189.302 261.025,199.237 261.025,211.448L261.025,227.774L268.491,227.774L268.491,211.448C268.491,199.237 257.922,189.302 244.93,189.302Z" fill="#10737F"/>
<path d="M254.801,227.772L254.801,213.549C254.801,211.487 253.13,209.815 251.067,209.815C249.005,209.815 247.334,211.486 247.334,213.549L247.334,227.772L254.8,227.772L254.801,227.772Z" fill="#10737F"/>
<path d="M218.518,227.772L218.518,213.549C218.518,211.487 216.847,209.815 214.785,209.815C212.722,209.815 211.051,211.486 211.051,213.549L211.051,227.772L218.518,227.772L218.518,227.772Z" fill="#10737F"/>
<path d="M134.687,268.7C108.632,268.7 83.953,260.318 63.317,244.461C61.388,242.978 61.026,240.212 62.508,238.282C63.991,236.352 66.758,235.99 68.688,237.473C87.769,252.136 110.591,259.888 134.687,259.888C158.783,259.888 181.59,252.136 200.67,237.473C202.6,235.99 205.367,236.352 206.85,238.281C208.332,240.211 207.97,242.978 206.041,244.461C185.406,260.318 160.732,268.7 134.687,268.7L134.687,268.7ZM247.022,146.243C244.758,146.243 242.832,144.509 242.636,142.211C239.328,103.473 215.272,69.296 179.859,53.017C177.647,52 176.679,49.384 177.695,47.173C178.712,44.961 181.331,43.994 183.539,45.009C221.83,62.61 247.838,99.568 251.416,141.462C251.624,143.886 249.826,146.02 247.402,146.227C247.274,146.238 247.146,146.243 247.022,146.243ZM22.351,146.227C22.225,146.227 22.099,146.222 21.972,146.211C19.547,146.004 17.749,143.87 17.956,141.445C21.535,99.558 47.539,62.612 85.819,45.025C88.032,44.008 90.647,44.978 91.663,47.189C92.679,49.401 91.71,52.017 89.498,53.033C54.095,69.299 30.047,103.464 26.737,142.196C26.541,144.493 24.615,146.227 22.351,146.227Z" fill="#A79BA7"/>
<path d="M206.005,182.457L193.758,130.291C193.193,127.911 190.78,126.413 188.384,126.98L178.317,129.343C175.921,129.892 174.44,132.321 174.989,134.7L176.402,140.713L173.125,141.906C168.915,143.42 164.722,143.171 160.728,141.157L155.103,138.33C161.92,129.568 166.747,117.108 166.747,100.521C166.747,98.576 165.472,96.861 163.609,96.301L135.769,87.932C134.942,87.683 134.059,87.683 133.232,87.932L105.393,96.301C103.53,96.861 102.255,98.576 102.255,100.521C102.255,116.638 106.81,128.862 113.321,137.58L93.659,137.58L94.335,134.701C94.9,132.321 93.403,129.892 91.007,129.343L80.94,126.98C78.56,126.414 76.147,127.912 75.582,130.291L63.318,182.457C62.769,184.853 64.267,187.266 66.646,187.832L76.713,190.195C79.109,190.761 81.522,189.263 82.088,186.867L83.502,180.843L115.917,213.158C118.779,216.02 123.471,216.02 126.333,213.142C129.195,210.28 129.179,205.587 126.316,202.725C123.454,199.863 134.62,211.012 134.62,211.012C137.482,213.874 142.174,213.857 145.036,210.995C147.898,208.117 147.898,203.441 145.019,200.579L151.126,206.652C153.988,209.514 158.681,209.514 161.543,206.652C164.405,203.773 164.405,199.081 161.527,196.219C164.406,199.081 169.098,199.081 171.96,196.202C174.822,193.34 174.805,188.648 171.943,185.785L171.932,185.774C174.899,188.562 179.058,189.288 182.809,187.632L186.997,185.785L187.252,186.867C187.801,189.263 190.214,190.761 192.61,190.195L202.677,187.832C205.073,187.266 206.571,184.853 206.005,182.457L206.005,182.457Z" fill="#F6DCCD"/>
<path d="M163.609,96.301L135.77,87.932C134.943,87.683 134.06,87.683 133.233,87.932L105.394,96.301C103.531,96.861 102.255,98.576 102.255,100.521C102.255,130.614 118.13,147.151 132.986,152.593C133.475,152.772 133.988,152.861 134.501,152.861C135.014,152.861 135.527,152.772 136.016,152.593C150.872,147.151 166.746,130.614 166.746,100.521C166.746,98.576 165.471,96.861 163.608,96.301L163.609,96.301Z" fill="#8AC9FE"/>
<path d="M176.401,140.715L173.124,141.909C168.914,143.423 164.721,143.173 160.727,141.16L155.102,138.333C149.551,145.467 142.683,150.153 136.015,152.595C135.526,152.775 135.013,152.864 134.5,152.864C133.987,152.864 133.474,152.774 132.985,152.595C128.447,150.933 123.817,148.23 119.571,144.428L106.931,158.599C105.883,159.797 105.466,161.244 105.75,162.809C106.033,164.373 106.931,165.604 108.329,166.336C114.203,169.448 121.391,169.198 127.215,165.338L134.936,160.197C138.929,157.534 144.121,158.05 147.516,161.445L171.71,185.573C174.689,188.535 178.965,189.333 182.808,187.636L186.997,185.789L176.401,140.717L176.401,140.715Z" fill="#E2B8AA"/>
<path d="M75.582,130.291L63.318,182.457C62.769,184.853 64.266,187.266 66.646,187.832L76.713,190.195C79.109,190.761 81.522,189.263 82.088,186.867L94.335,134.7C94.9,132.321 93.403,129.892 91.006,129.343L80.939,126.979C78.56,126.414 76.147,127.911 75.582,130.291Z" fill="#837683"/>
<path d="M91.007,129.343L89.475,128.984L77.682,179.22C77.116,181.616 74.703,183.114 72.307,182.548L63.768,180.545L63.318,182.458C62.769,184.854 64.267,187.267 66.646,187.833L76.713,190.196C79.109,190.762 81.522,189.264 82.088,186.868L94.335,134.702C94.9,132.322 93.403,129.892 91.007,129.343Z" fill="#7A6D7A"/>
<path d="M193.757,130.291L206.004,182.457C206.57,184.853 205.072,187.266 202.676,187.832L192.608,190.195C190.212,190.761 187.8,189.263 187.25,186.867L174.987,134.7C174.438,132.321 175.919,129.892 178.314,129.343L188.382,126.979C190.778,126.414 193.191,127.911 193.756,130.291L193.757,130.291Z" fill="#837683"/>
<path d="M206.005,182.457L193.758,130.291C193.192,127.911 190.779,126.413 188.383,126.98L186.516,127.418L198.506,178.491C199.072,180.887 197.575,183.299 195.178,183.866L186.997,185.786L187.251,186.867C187.8,189.263 190.213,190.761 192.609,190.195L202.676,187.832C205.073,187.266 206.57,184.854 206.004,182.457L206.005,182.457Z" fill="#7A6D7A"/>
<path d="M154.819,203.148L138.185,186.563C137.355,185.737 136.068,185.583 135.067,186.192C133.658,187.049 133.425,189 134.594,190.165L151.125,206.647C153.987,209.509 158.68,209.509 161.542,206.647C162.122,206.064 162.578,205.404 162.923,204.702C160.238,205.842 156.998,205.327 154.819,203.148Z" fill="#F1CBBC"/>
<path d="M138.313,207.508L125.229,194.449C124.4,193.621 123.112,193.467 122.111,194.076C120.702,194.933 120.469,196.884 121.636,198.049L134.62,211.007C137.481,213.869 142.174,213.853 145.036,210.991C145.615,210.408 146.071,209.749 146.416,209.048C143.731,210.193 140.492,209.687 138.313,207.508Z" fill="#F1CBBC"/>
<path d="M165.221,192.717L151.15,178.68C150.32,177.852 149.033,177.699 148.031,178.307C146.622,179.164 146.389,181.115 147.557,182.28L161.526,196.216C164.405,199.078 169.097,199.078 171.96,196.2C172.538,195.621 172.994,194.964 173.337,194.266C170.652,195.411 167.411,194.896 165.22,192.717L165.221,192.717Z" fill="#F1CBBC"/>
<path d="M186.01,181.585L179.584,184.418C175.74,186.115 171.464,185.316 168.485,182.354L144.291,158.226C140.897,154.831 135.706,154.316 131.712,156.978L123.991,162.119C118.438,165.8 111.648,166.191 105.937,163.524C106.337,164.746 107.153,165.717 108.328,166.333C114.202,169.445 121.391,169.195 127.215,165.335L134.936,160.194C138.929,157.532 144.121,158.047 147.515,161.442L171.709,185.57C174.688,188.532 178.964,189.33 182.808,187.633L186.997,185.786L186.009,181.585L186.01,181.585Z" fill="#D3A69B"/>
<path d="M119.61,209.66L84.867,175.025L83.501,180.844L115.916,213.16C118.778,216.022 123.471,216.022 126.333,213.143C126.912,212.564 127.367,211.908 127.71,211.209C125.025,212.355 121.788,211.839 119.61,209.66Z" fill="#F1CBBC"/>
<path d="M134.501,152.861C133.988,152.861 133.475,152.772 132.986,152.593C118.13,147.151 102.255,130.614 102.255,100.521C102.255,98.576 103.531,96.861 105.394,96.301L133.233,87.932C134.06,87.683 134.943,87.683 135.77,87.932L163.61,96.301C165.472,96.861 166.748,98.576 166.748,100.521C166.748,130.614 150.873,147.151 136.017,152.593C135.528,152.772 135.015,152.861 134.502,152.861L134.501,152.861ZM111.14,103.776C112.138,126.228 123.425,138.949 134.501,143.714C145.576,138.949 156.864,126.228 157.862,103.776L134.501,96.753L111.14,103.776Z" fill="#60B7FF"/>
<path d="M163.608,96.299L162.113,95.85C163.129,96.712 163.765,98.019 163.765,99.456C163.765,126.703 152.044,143.394 139.319,151.193C153.131,144.622 166.745,128.388 166.745,100.519C166.745,98.574 165.471,96.859 163.608,96.299Z" fill="#49A9EA"/>
<path d="M131.643,131.33C130.505,131.33 129.408,130.89 128.586,130.097L122.2,123.945C120.447,122.257 120.396,119.468 122.084,117.714C123.772,115.962 126.562,115.909 128.315,117.598L131.439,120.607L140.472,110.698C142.112,108.9 144.899,108.771 146.698,110.411C148.496,112.051 148.625,114.838 146.985,116.636L134.9,129.893C134.099,130.772 132.976,131.29 131.786,131.328C131.739,131.33 131.691,131.33 131.643,131.33Z" fill="#D8ECFE"/>
</svg>
