<svg width="32" height="22" viewBox="0 0 32 22" fill="none" xmlns="http://www.w3.org/2000/svg" xmlns:xlink="http://www.w3.org/1999/xlink">
<path d="M20.005,11.49L17.481,14.022C16.458,15.049 14.657,15.072 13.612,14.022L11.088,11.49L2.023,20.584C2.361,20.74 2.733,20.833 3.128,20.833L27.965,20.833C28.36,20.833 28.732,20.74 29.069,20.584L20.005,11.49Z" fill="#128593"/>
<path d="M27.965,-0.354L3.128,-0.354C2.733,-0.354 2.361,-0.26 2.023,-0.104L11.709,9.614C11.71,9.614 11.711,9.615 11.712,9.615C11.712,9.616 11.712,9.617 11.712,9.617L14.862,12.777C15.196,13.111 15.897,13.111 16.231,12.777L19.38,9.617C19.38,9.617 19.381,9.616 19.382,9.615C19.382,9.615 19.383,9.614 19.384,9.614L29.069,-0.104C28.732,-0.261 28.36,-0.354 27.965,-0.354Z" fill="#128593"/>
<path d="M0.758,1.131C0.584,1.484 0.477,1.876 0.477,2.295L0.477,18.186C0.477,18.606 0.584,18.998 0.758,19.351L9.838,10.241L0.758,1.131Z" fill="#128593"/>
<path d="M30.33,1.131L21.25,10.241L30.33,19.351C30.505,18.998 30.612,18.606 30.612,18.186L30.612,2.296C30.612,1.876 30.505,1.484 30.33,1.131Z" fill="#128593"/>
</svg>
