<svg width="226" height="226" viewBox="0 0 226 226" fill="none" xmlns="http://www.w3.org/2000/svg" xmlns:xlink="http://www.w3.org/1999/xlink">
<path d="M14.992,225.907C7.016,225.907 0.527,219.421 0.527,211.444L0.527,126.218C0.527,126.146 0.527,126.073 0.535,126.001C1.02,120.486 3.838,115.443 8.255,112.17L46.412,83.942C50.536,80.891 55.621,79.631 60.729,80.393C65.836,81.159 70.329,83.848 73.381,87.977C76.879,92.7 78.143,98.08 76.845,102.731C76.815,102.846 76.777,102.952 76.735,103.055L52.885,157.753C51.106,161.841 47.757,164.444 43.697,164.9C39.505,165.378 35.168,163.48 32.649,160.079C30.223,156.787 29.853,152.566 31.627,148.488L36.913,136.364L29.461,144.203L29.461,211.444C29.461,219.421 22.967,225.907 14.992,225.907Z" clip-rule="evenodd" fill-rule="evenodd" fill="#10737F"/>
<path d="M14.992,225.909C7.016,225.909 0.527,219.423 0.527,211.445L0.527,126.22C0.527,126.147 0.527,126.075 0.535,126.003C1.02,120.487 3.838,115.444 8.255,112.172L45.608,84.538C48.785,83.236 52.274,82.809 55.773,83.331C60.879,84.097 65.374,86.786 68.425,90.915C71.923,95.638 73.187,101.018 71.889,105.669L47.929,160.691C47.271,162.205 46.397,163.514 45.352,164.587C44.816,164.733 44.263,164.838 43.698,164.901C39.506,165.38 35.169,163.481 32.65,160.081C30.224,156.789 29.854,152.567 31.628,148.49L36.914,136.365L36.907,136.373L50.949,104.639C51.49,103.396 50.92,101.958 49.681,101.414C48.443,100.873 47,101.444 46.464,102.682L28.773,142.654L24.507,147.142L24.507,214.382C24.507,218.635 22.661,222.464 19.729,225.112C18.243,225.627 16.65,225.909 14.992,225.909Z" clip-rule="evenodd" fill-rule="evenodd" fill="#128593"/>
<path d="M113.104,63.023C95.945,63.023 81.986,49.06 81.986,31.905C81.986,14.742 95.945,0.783 113.104,0.783C130.268,0.783 144.226,14.742 144.226,31.905C144.226,49.06 130.267,63.023 113.104,63.023Z" clip-rule="evenodd" fill-rule="evenodd" fill="#00CD8A"/>
<path d="M113.104,63.02C95.945,63.02 81.986,49.057 81.986,31.903C81.986,20.617 88.021,10.719 97.033,5.261C99.53,4.613 102.148,4.268 104.845,4.268C122.008,4.268 135.967,18.227 135.967,35.39C135.967,46.67 129.932,56.568 120.92,62.026C118.421,62.675 115.802,63.02 113.104,63.02Z" clip-rule="evenodd" fill-rule="evenodd" fill="#00E499"/>
<path d="M108.444,43.662C107.793,43.662 107.172,43.402 106.712,42.947L97.397,33.631C96.443,32.674 96.443,31.124 97.397,30.171C98.354,29.214 99.903,29.214 100.86,30.171L108.444,37.755L125.348,20.851C126.305,19.894 127.855,19.894 128.812,20.851C129.765,21.808 129.765,23.358 128.812,24.311L110.18,42.947C109.717,43.402 109.095,43.662 108.444,43.662Z" clip-rule="evenodd" fill-rule="evenodd" fill="#ECEFF1"/>
<path d="M211.214,225.907C203.238,225.907 196.749,219.422 196.749,211.444L196.749,144.203L189.293,136.364L194.578,148.489C196.357,152.565 195.983,156.788 193.553,160.079C191.042,163.485 186.705,165.379 182.505,164.9C178.454,164.445 175.104,161.836 173.321,157.753L149.476,103.054C149.434,102.952 149.391,102.846 149.361,102.731C148.068,98.079 149.332,92.7 152.826,87.976C155.877,83.848 160.371,81.159 165.478,80.393C170.581,79.631 175.666,80.89 179.794,83.942L217.947,112.17C222.373,115.442 225.186,120.485 225.671,126.001C225.676,126.073 225.684,126.146 225.684,126.218L225.684,211.443C225.683,219.422 219.193,225.907 211.214,225.907Z" clip-rule="evenodd" fill-rule="evenodd" fill="#10626C"/>
<path d="M211.215,225.908C203.24,225.908 196.75,219.422 196.75,211.444L196.75,144.204L189.296,136.366L174.324,101.911C173.779,100.673 172.34,100.102 171.098,100.643C169.859,101.188 169.297,102.626 169.834,103.868L193.988,159.447L193.985,159.452L193.982,159.458L193.975,159.468L193.969,159.478L193.897,159.588L193.891,159.598L193.884,159.607L193.882,159.611L193.877,159.617C193.849,159.66 193.82,159.703 193.79,159.746L193.783,159.756L193.777,159.766L193.775,159.768L193.77,159.776L193.763,159.786L193.68,159.903L193.673,159.913L193.666,159.923L193.665,159.924L193.659,159.933C193.624,159.982 193.589,160.03 193.553,160.079C191.042,163.485 186.705,165.379 182.505,164.9C178.454,164.445 175.104,161.836 173.321,157.753L149.476,103.054C149.434,102.952 149.391,102.846 149.361,102.731C148.068,98.079 149.332,92.7 152.826,87.976C152.87,87.916 152.916,87.855 152.961,87.795L152.97,87.784L152.978,87.775C153.023,87.715 153.068,87.656 153.114,87.598L153.121,87.588C153.267,87.401 153.416,87.217 153.567,87.036L153.57,87.033C153.618,86.975 153.666,86.919 153.715,86.862L153.722,86.854L153.727,86.849C153.772,86.796 153.817,86.744 153.862,86.692L153.878,86.674L153.891,86.66C153.938,86.606 153.986,86.553 154.033,86.501L154.041,86.493C154.089,86.44 154.137,86.388 154.185,86.335L154.197,86.322L154.212,86.306C154.31,86.2 154.41,86.095 154.51,85.992L154.519,85.982L154.524,85.978L154.538,85.964L154.669,85.83L154.709,85.79L154.833,85.667L154.858,85.643L154.886,85.615L154.992,85.512L155.027,85.479L155.046,85.461L155.185,85.33L155.199,85.317L155.208,85.309L155.208,85.309L155.35,85.178L155.371,85.159L155.372,85.158L155.394,85.139L155.533,85.014L155.536,85.012L155.548,85.001L155.565,84.986L155.694,84.874L155.761,84.816L155.876,84.717L155.922,84.679L155.927,84.675L155.983,84.628L156.064,84.561L156.097,84.534C157.502,83.967 158.985,83.561 160.524,83.331C165.626,82.569 170.712,83.829 174.84,86.88L212.993,115.108C217.418,118.381 220.231,123.424 220.717,128.939C220.721,129.011 220.73,129.084 220.73,129.156L220.73,214.381C220.73,218.634 218.885,222.463 215.953,225.111L215.952,225.111C215.884,225.135 215.816,225.158 215.748,225.18L215.6,225.228L215.425,225.283L215.258,225.333L215.082,225.383L214.914,225.429L214.744,225.472L214.558,225.518L214.407,225.553C214.334,225.57 214.26,225.585 214.187,225.601L214.08,225.623C213.997,225.64 213.914,225.656 213.831,225.671L213.726,225.69C213.637,225.706 213.548,225.721 213.458,225.735L213.383,225.747C213.282,225.762 213.181,225.776 213.08,225.789L213.036,225.795C212.928,225.808 212.821,225.82 212.714,225.832L212.677,225.836C212.568,225.846 212.459,225.856 212.349,225.865L212.314,225.868C212.198,225.877 212.082,225.884 211.965,225.89L211.956,225.89C211.836,225.897 211.716,225.901 211.595,225.904L211.583,225.905C211.459,225.906 211.337,225.908 211.215,225.908ZM194.579,148.489L189.58,137.021L194.833,149.11L194.829,149.1L194.799,149.023L194.795,149.013L194.791,149.003L194.787,148.993L194.783,148.983L194.78,148.974L194.776,148.964L194.772,148.954L194.764,148.935L194.76,148.925L194.756,148.915L194.752,148.905L194.748,148.895L194.744,148.886L194.74,148.876L194.733,148.856L194.729,148.846L194.725,148.837L194.721,148.827L194.669,148.701L194.665,148.691L194.661,148.681L194.66,148.679L194.657,148.672L194.653,148.662L194.649,148.653L194.587,148.507L194.582,148.497L194.579,148.489Z" clip-rule="evenodd" fill-rule="evenodd" fill="#10737F"/>
<path d="M83.597,97.345C79.23,97.345 75.043,95.843 71.634,93.03C67.753,89.826 65.357,85.306 64.88,80.293C64.399,75.284 65.901,70.39 69.106,66.508C72.311,62.631 76.835,60.231 81.839,59.755C86.848,59.274 91.747,60.78 95.624,63.985C99.505,67.185 101.905,71.705 102.386,76.718C102.858,81.727 101.361,86.621 98.156,90.498C94.947,94.379 90.427,96.775 85.418,97.256C84.81,97.316 84.201,97.345 83.597,97.345ZM142.607,97.345C142.003,97.345 141.394,97.315 140.786,97.256C135.777,96.775 131.253,94.379 128.053,90.498C124.844,86.621 123.342,81.726 123.822,76.718C124.303,71.705 126.699,67.185 130.576,63.985C134.457,60.78 139.352,59.274 144.361,59.755C149.374,60.231 153.898,62.631 157.098,66.508C160.303,70.39 161.805,75.284 161.324,80.293C160.848,85.306 158.447,89.826 154.566,93.03C151.161,95.843 146.969,97.345 142.607,97.345Z" clip-rule="evenodd" fill-rule="evenodd" fill="#DDC6B9"/>
<path d="M83.597,97.343C79.23,97.343 75.043,95.84 71.634,93.027C67.753,89.823 65.357,85.303 64.88,80.29C64.399,75.281 65.901,70.387 69.106,66.506C70.433,64.901 71.985,63.55 73.704,62.483C74.678,62.229 75.679,62.052 76.7,61.955C81.709,61.474 86.607,62.98 90.484,66.185C94.366,69.385 96.766,73.905 97.247,78.918C97.719,83.927 96.221,88.821 93.016,92.698C91.688,94.305 90.135,95.656 88.416,96.723C87.442,96.977 86.44,97.155 85.418,97.253C84.81,97.313 84.201,97.343 83.597,97.343ZM132.687,62.467C134.79,61.92 136.994,61.741 139.221,61.955C144.234,62.431 148.758,64.831 151.958,68.708C155.163,72.59 156.665,77.484 156.184,82.493C155.708,87.506 153.307,92.026 149.426,95.23C148.754,95.786 148.05,96.29 147.321,96.743C145.793,97.139 144.212,97.343 142.607,97.343C142.003,97.343 141.394,97.313 140.786,97.254C135.777,96.773 131.253,94.377 128.053,90.495C124.844,86.618 123.342,81.724 123.822,76.716C124.303,71.702 126.699,67.183 130.576,63.983C131.25,63.425 131.956,62.919 132.687,62.467Z" clip-rule="evenodd" fill-rule="evenodd" fill="#F6DCCD"/>
</svg>
