<svg width="244" height="254" viewBox="0 0 244 254" fill="none" xmlns="http://www.w3.org/2000/svg" xmlns:xlink="http://www.w3.org/1999/xlink">
<path d="M143.488,198.637L143.488,149.74L121.203,149.74L121.203,165.093L71.189,165.093C65.839,165.14 61.512,169.466 61.512,174.816L61.512,198.683C61.512,211.664 72.027,222.178 85.007,222.178L85.054,222.178L120.04,222.178C133.02,222.131 143.534,211.617 143.488,198.637Z" fill="#10737F"/>
<path d="M121.248,223.666C120.876,214.78 113.618,207.802 104.732,207.802L100.313,207.802C91.426,207.802 84.169,214.827 83.843,223.713L121.248,223.666Z" fill="#EFCDB1"/>
<path d="M102.501,207.567C100.966,207.521 99.756,206.311 99.71,204.776L99.71,185.468C99.71,183.933 100.966,182.677 102.501,182.677C104.037,182.677 105.293,183.933 105.293,185.468L105.293,204.776C105.339,206.311 104.13,207.521 102.594,207.567L102.548,207.567L102.501,207.567Z" fill="#414042"/>
<path d="M121.295,236.411L121.295,223.663L83.843,223.663L83.843,236.411C83.797,245.529 91.194,252.927 100.313,252.973L100.359,252.973L104.779,252.973C113.898,252.927 121.295,245.529 121.295,236.411Z" fill="#8A5D3B"/>
<path d="M121.25,190.773C119.714,190.773 118.458,189.516 118.458,187.981L118.458,167.464C118.458,165.929 119.714,164.673 121.25,164.673C122.785,164.673 124.041,165.929 124.041,167.464L124.041,187.981C124.041,189.516 122.785,190.773 121.25,190.773Z" fill="#10626C"/>
<path d="M143.443,149.738L143.443,137.549C143.443,134.525 141.023,132.106 137.999,132.106L126.647,132.106C123.623,132.106 121.204,134.525 121.204,137.549L121.204,149.738L143.443,149.738Z" fill="#EFCDB1"/>
<path d="M203.503,133.921L157.445,117.405L149.908,138.388L164.377,143.552L147.488,190.681C145.674,195.705 148.279,201.242 153.304,203.056L175.775,211.105C188.011,215.478 201.456,209.151 205.83,196.915L217.647,163.976C222.02,151.786 215.693,138.341 203.503,133.921Z" fill="#128593"/>
<path d="M219.46,163.37C210.993,160.671 201.921,165.138 198.943,173.512L197.454,177.653C194.477,186.027 198.617,195.239 206.852,198.589L219.46,163.37Z" fill="#EFCDB1"/>
<path d="M195.362,177.374C195.036,177.374 194.711,177.328 194.431,177.188L176.241,170.675C174.798,170.163 174.054,168.535 174.566,167.093C175.078,165.65 176.613,164.906 178.055,165.418L178.102,165.418L196.292,171.931C197.735,172.396 198.572,173.978 198.06,175.467C197.688,176.63 196.572,177.421 195.362,177.374Z" fill="#414042"/>
<path d="M231.51,167.649L220.112,163.555L219.461,163.369L206.853,198.588L207.457,198.82L218.856,202.914C227.463,205.985 236.907,201.519 239.978,192.912L241.467,188.771C244.537,180.211 240.071,170.766 231.51,167.649Z" fill="#8A5D3B"/>
<path d="M185.872,154.07L184.942,153.93L165.634,146.998C164.192,146.486 163.448,144.858 163.959,143.416C164.471,141.973 166.099,141.229 167.542,141.741L186.849,148.673C188.291,149.185 189.036,150.72 188.524,152.162L188.524,152.209C188.105,153.325 187.082,154.07 185.872,154.07Z" fill="#10737F"/>
<path d="M157.444,117.404L145.953,113.31C143.115,112.287 139.998,113.776 138.974,116.567L138.974,116.614L135.159,127.268C134.136,130.106 135.624,133.223 138.416,134.246L138.462,134.246L149.907,138.387L157.444,117.404Z" fill="#EFCDB1"/>
<path d="M163.073,59.107L134.135,98.56L152.094,111.726L161.166,99.351L201.502,128.94C205.829,132.104 211.877,131.173 215.041,126.846L229.184,107.585C236.861,97.118 234.581,82.416 224.113,74.739L195.873,54.036C185.405,46.406 170.75,48.686 163.073,59.107Z" fill="#10737F"/>
<path d="M195.828,52.129C190.85,59.48 192.571,69.436 199.736,74.693L203.271,77.299C210.436,82.509 220.439,81.207 225.975,74.275L195.828,52.129Z" fill="#EFCDB1"/>
<path d="M188.29,96.794C187.685,96.794 187.127,96.608 186.662,96.282C185.406,95.352 185.126,93.63 186.057,92.374L197.455,76.789C198.386,75.532 200.107,75.253 201.363,76.184C202.62,77.114 202.899,78.836 201.968,80.092L190.523,95.677C190.012,96.375 189.174,96.794 188.29,96.794Z" fill="#414042"/>
<path d="M203.316,41.847L196.151,51.617L195.826,52.129L225.973,74.275L226.392,73.763L233.557,63.946C238.953,56.596 237.325,46.267 229.974,40.87L226.438,38.265C219.088,32.868 208.759,34.45 203.363,41.801C203.316,41.801 203.316,41.847 203.316,41.847Z" fill="#8A5D3B"/>
<path d="M162.563,97.442L174.706,80.926Z" fill="#10626C"/>
<path d="M162.562,100.233C161.957,100.233 161.399,100.047 160.887,99.721C159.631,98.791 159.398,97.07 160.329,95.813L172.425,79.251C173.356,77.995 175.077,77.716 176.333,78.646C177.589,79.577 177.868,81.298 176.938,82.554L164.795,99.117C164.283,99.815 163.446,100.233 162.562,100.233Z" fill="#10626C"/>
<path d="M134.136,98.559L126.925,108.376C125.157,110.795 125.668,114.191 128.088,116.006L137.253,122.705C139.672,124.473 143.068,123.961 144.883,121.542L152.094,111.726L134.136,98.559Z" fill="#EFCDB1"/>
<path d="M67.097,159.417L112.504,141.18L104.223,120.523L89.94,126.246L71.284,79.815C69.33,74.883 63.747,72.417 58.769,74.371C58.769,74.371 58.722,74.371 58.722,74.418L36.53,83.351C24.527,88.189 18.711,101.867 23.503,113.87L36.577,146.344C41.369,158.394 55,164.256 67.05,159.417L67.097,159.417Z" fill="#128593"/>
<path d="M35.599,148.065C43.694,144.436 47.509,135.039 44.206,126.804L42.531,122.71C39.228,114.475 30.016,110.334 21.688,113.312L35.599,148.065Z" fill="#EFCDB1"/>
<path d="M46.16,126.432C45.043,126.432 44.02,125.734 43.601,124.664C43.043,123.222 43.694,121.594 45.136,121.035L63.048,113.824C64.49,113.266 66.119,113.964 66.724,115.406C67.282,116.848 66.584,118.477 65.142,119.035L47.23,126.246C46.904,126.386 46.532,126.432 46.16,126.432Z" fill="#414042"/>
<path d="M23.781,152.809L35.04,148.296L35.598,148.064L21.688,113.31L21.036,113.543L9.824,118.056C1.357,121.452 -2.737,131.082 0.659,139.55L2.287,143.644C5.684,152.111 15.314,156.205 23.781,152.809Z" fill="#8A5D3B"/>
<path d="M68.771,137.55C67.236,137.597 65.933,136.387 65.933,134.852C65.887,133.689 66.631,132.619 67.701,132.154L86.73,124.524C88.172,123.965 89.8,124.617 90.358,126.059C90.963,127.455 90.312,129.083 88.916,129.641C88.87,129.641 88.87,129.641 88.823,129.688L69.795,137.364C69.469,137.504 69.143,137.55 68.771,137.55Z" fill="#10737F"/>
<path d="M112.502,141.179L123.808,136.62C126.599,135.503 127.948,132.34 126.832,129.548L122.598,118.987C121.481,116.196 118.318,114.847 115.526,115.963L104.221,120.523L112.502,141.179Z" fill="#EFCDB1"/>
<path d="M75.145,71.763L102.269,112.472L120.785,100.143L112.271,87.395L153.957,59.667C158.377,56.689 159.586,50.688 156.609,46.221L143.396,26.356C136.185,15.562 121.623,12.631 110.829,19.796L81.705,39.196C70.912,46.361 67.981,60.969 75.145,71.763Z" fill="#128593"/>
<path d="M79.845,38.635C85.055,45.8 94.965,47.614 102.362,42.683L106.038,40.264C113.435,35.379 115.668,25.469 111.016,17.886L79.845,38.635Z" fill="#EFCDB1"/>
<path d="M116.598,62.879C115.667,62.879 114.783,62.414 114.271,61.623L103.571,45.525C102.64,44.269 102.92,42.548 104.129,41.617C105.385,40.687 107.107,40.966 108.037,42.176C108.084,42.269 108.177,42.362 108.223,42.455L118.924,58.506C119.761,59.808 119.436,61.53 118.133,62.414C117.668,62.693 117.156,62.879 116.598,62.879Z" fill="#414042"/>
<path d="M72.772,27.983L79.472,38.079L79.844,38.637L111.015,17.888L110.643,17.329L103.944,7.234C98.873,-0.35 88.591,-2.397 81.007,2.674L77.378,5.094C69.795,10.118 67.701,20.307 72.726,27.937L72.772,27.983Z" fill="#8A5D3B"/>
<path d="M110.97,88.234C110.039,88.234 109.155,87.769 108.644,86.978L97.292,69.904C96.408,68.601 96.78,66.879 98.083,66.042C99.385,65.158 101.107,65.53 101.944,66.786L113.296,83.861C114.134,85.117 113.808,86.838 112.598,87.676C112.552,87.676 112.552,87.722 112.505,87.722C112.04,88.048 111.528,88.234 110.97,88.234Z" fill="#10737F"/>
<path d="M102.27,112.472L109.016,122.614C110.644,125.126 113.994,125.824 116.459,124.196C116.506,124.196 116.506,124.149 116.552,124.149L126.043,117.868C128.556,116.194 129.207,112.797 127.532,110.285L120.786,100.143L102.27,112.472Z" fill="#EFCDB1"/>
</svg>
