<svg width="270" height="270" viewBox="0 0 270 270" fill="none" xmlns="http://www.w3.org/2000/svg" xmlns:xlink="http://www.w3.org/1999/xlink">
<path d="M134.747,0.773C125.658,0.773 118.264,8.168 118.264,17.257C118.264,27.375 124.041,38.128 134.747,38.128C145.454,38.128 151.22,27.375 151.22,17.257C151.22,8.168 143.83,0.773 134.747,0.773Z" fill="#F6DCCD"/>
<path d="M134.747,0.773C133.711,0.773 132.697,0.874 131.713,1.058C139.352,2.487 145.153,9.205 145.153,17.257C145.153,26.372 140.465,35.999 131.713,37.819C132.676,38.019 133.687,38.128 134.747,38.128C145.447,38.128 151.22,27.375 151.22,17.257C151.22,8.168 143.831,0.773 134.747,0.773Z" fill="#F1CBBC"/>
<path d="M146.738,38.13L122.743,38.13C109.752,38.13 99.182,48.065 99.182,60.276L99.182,76.602L170.3,76.602L170.3,60.276C170.3,48.065 159.73,38.13 146.738,38.13Z" fill="#128593"/>
<path d="M146.74,38.126L139.273,38.126C152.265,38.126 162.835,48.061 162.835,60.272L162.835,76.598L170.302,76.598L170.302,60.272C170.302,48.061 159.732,38.126 146.74,38.126Z" fill="#10737F"/>
<path d="M156.61,76.605L156.61,62.382C156.61,60.32 154.938,58.649 152.876,58.649C150.814,58.649 149.143,60.32 149.143,62.382L149.143,76.605L156.61,76.605Z" fill="#10737F"/>
<path d="M120.326,76.605L120.326,62.382C120.326,60.32 118.655,58.649 116.593,58.649C114.531,58.649 112.859,60.32 112.859,62.382L112.859,76.605L120.326,76.605Z" fill="#10737F"/>
<path d="M36.46,151.718C27.371,151.718 19.977,159.112 19.977,168.201C19.977,178.319 25.754,189.073 36.46,189.073C47.167,189.073 52.933,178.319 52.933,168.201C52.933,159.112 45.543,151.718 36.46,151.718Z" fill="#F6DCCD"/>
<path d="M36.46,151.718C35.424,151.718 34.41,151.818 33.426,152.002C41.065,153.431 46.866,160.149 46.866,168.201C46.866,177.316 42.178,186.944 33.426,188.763C34.389,188.963 35.399,189.073 36.46,189.073C47.16,189.073 52.933,178.319 52.933,168.201C52.933,159.112 45.543,151.718 36.46,151.718Z" fill="#F1CBBC"/>
<path d="M48.451,189.074L24.456,189.074C11.464,189.074 0.895,199.009 0.895,211.22L0.895,227.547L72.013,227.547L72.013,211.22C72.013,199.009 61.443,189.074 48.451,189.074Z" fill="#128593"/>
<path d="M48.449,189.075L40.982,189.075C53.974,189.075 64.544,199.01 64.544,211.221L64.544,227.547L72.011,227.547L72.011,211.221C72.011,199.01 61.441,189.075 48.449,189.075Z" fill="#10737F"/>
<path d="M58.323,227.545L58.323,213.322C58.323,211.26 56.651,209.589 54.589,209.589C52.527,209.589 50.855,211.26 50.855,213.322L50.855,227.545L58.323,227.545Z" fill="#10737F"/>
<path d="M22.039,227.545L22.039,213.322C22.039,211.26 20.368,209.589 18.306,209.589C16.243,209.589 14.572,211.26 14.572,213.322L14.572,227.545L22.039,227.545L22.039,227.545Z" fill="#10737F"/>
<path d="M232.993,151.718C223.904,151.718 216.51,159.112 216.51,168.201C216.51,178.319 222.287,189.073 232.993,189.073C243.7,189.073 249.466,178.319 249.466,168.201C249.466,159.112 242.077,151.718 232.993,151.718Z" fill="#F6DCCD"/>
<path d="M232.994,151.718C231.957,151.718 230.943,151.818 229.959,152.002C237.598,153.431 243.399,160.149 243.399,168.201C243.399,177.316 238.711,186.944 229.959,188.763C230.922,188.963 231.933,189.073 232.994,189.073C243.693,189.073 249.466,178.319 249.466,168.201C249.466,159.112 242.077,151.718 232.994,151.718Z" fill="#F1CBBC"/>
<path d="M244.984,189.074L220.99,189.074C207.998,189.074 197.428,199.009 197.428,211.22L197.428,227.547L268.546,227.547L268.546,211.22C268.546,199.009 257.976,189.074 244.984,189.074Z" fill="#128593"/>
<path d="M244.984,189.075L237.518,189.075C250.509,189.075 261.079,199.01 261.079,211.221L261.079,227.547L268.546,227.547L268.546,211.221C268.546,199.01 257.976,189.075 244.984,189.075Z" fill="#10737F"/>
<path d="M254.856,227.545L254.856,213.322C254.856,211.26 253.184,209.589 251.122,209.589C249.06,209.589 247.389,211.26 247.389,213.322L247.389,227.545L254.855,227.545L254.856,227.545Z" fill="#10737F"/>
<path d="M218.573,227.545L218.573,213.322C218.573,211.26 216.901,209.589 214.839,209.589C212.777,209.589 211.105,211.26 211.105,213.322L211.105,227.545L218.572,227.545L218.573,227.545Z" fill="#10737F"/>
<path d="M134.743,268.473C108.688,268.473 84.009,260.091 63.373,244.235C61.443,242.752 61.082,239.986 62.564,238.055C64.047,236.126 66.814,235.763 68.744,237.246C87.825,251.909 110.647,259.661 134.743,259.661C158.839,259.661 181.645,251.909 200.726,237.246C202.656,235.763 205.422,236.126 206.905,238.055C208.388,239.984 208.026,242.751 206.097,244.234C185.462,260.091 160.788,268.473 134.743,268.473L134.743,268.473ZM247.078,146.017C244.814,146.017 242.888,144.282 242.692,141.985C239.384,103.247 215.328,69.069 179.915,52.791C177.703,51.774 176.735,49.157 177.751,46.946C178.767,44.735 181.386,43.767 183.595,44.783C221.886,62.384 247.894,99.342 251.472,141.235C251.68,143.66 249.882,145.794 247.458,146.001C247.33,146.012 247.202,146.017 247.078,146.017ZM22.407,146.001C22.281,146.001 22.155,145.995 22.028,145.984C19.603,145.777 17.805,143.643 18.012,141.219C21.591,99.331 47.595,62.385 85.875,44.798C88.088,43.781 90.703,44.751 91.719,46.963C92.735,49.175 91.766,51.791 89.554,52.807C54.151,69.072 30.102,103.237 26.793,141.969C26.597,144.266 24.671,146.001 22.407,146.001Z" fill="#A79BA7"/>
<path d="M206.061,182.23L193.813,130.064C193.248,127.684 190.835,126.187 188.439,126.753L178.372,129.116C175.976,129.665 174.495,132.094 175.044,134.474L176.457,140.486L173.181,141.679C168.971,143.194 164.777,142.944 160.784,140.931L155.159,138.103C161.975,129.341 166.802,116.882 166.802,100.294C166.802,98.349 165.527,96.634 163.664,96.075L135.824,87.706C134.997,87.457 134.115,87.457 133.287,87.706L105.448,96.075C103.585,96.635 102.31,98.349 102.31,100.294C102.31,116.411 106.865,128.635 113.376,137.353L93.714,137.353L94.39,134.474C94.956,132.095 93.458,129.666 91.062,129.117L80.995,126.753C78.615,126.188 76.203,127.685 75.637,130.064L63.373,182.231C62.824,184.627 64.322,187.04 66.701,187.606L76.768,189.969C79.164,190.535 81.577,189.037 82.143,186.641L83.557,180.617L115.972,212.932C118.834,215.794 123.526,215.794 126.388,212.915C129.25,210.053 129.234,205.361 126.372,202.499C123.51,199.636 134.675,210.785 134.675,210.785C137.537,213.647 142.229,213.631 145.091,210.769C147.953,207.89 147.953,203.214 145.074,200.352L151.182,206.425C154.044,209.288 158.736,209.288 161.598,206.425C164.46,203.547 164.46,198.854 161.582,195.992C164.461,198.854 169.153,198.854 172.015,195.976C174.877,193.114 174.861,188.421 171.998,185.559L171.987,185.548C174.954,188.336 179.114,189.062 182.864,187.406L187.053,185.559L187.307,186.64C187.856,189.036 190.269,190.534 192.665,189.968L202.732,187.605C205.129,187.04 206.626,184.627 206.06,182.23L206.061,182.23Z" fill="#F6DCCD"/>
<path d="M163.665,96.075L135.825,87.706C134.998,87.457 134.115,87.457 133.288,87.706L105.449,96.075C103.586,96.635 102.311,98.349 102.311,100.294C102.311,130.388 118.185,146.924 133.041,152.366C133.53,152.545 134.043,152.635 134.556,152.635C135.069,152.635 135.582,152.545 136.071,152.366C150.927,146.925 166.802,130.388 166.802,100.294C166.802,98.349 165.527,96.634 163.664,96.075L163.665,96.075Z" fill="#8AC9FE"/>
<path d="M176.457,140.489L173.18,141.682C168.97,143.196 164.777,142.947 160.783,140.933L155.158,138.106C149.607,145.241 142.739,149.926 136.071,152.369C135.582,152.548 135.069,152.638 134.556,152.638C134.043,152.638 133.53,152.548 133.041,152.369C128.503,150.707 123.872,148.004 119.627,144.202L106.987,158.372C105.939,159.57 105.522,161.018 105.805,162.582C106.088,164.146 106.987,165.378 108.384,166.11C114.258,169.221 121.447,168.972 127.271,165.112L134.992,159.97C138.985,157.308 144.177,157.824 147.571,161.218L171.765,185.346C174.744,188.308 179.02,189.107 182.864,187.41L187.053,185.563L176.457,140.49L176.457,140.489Z" fill="#E2B8AA"/>
<path d="M75.637,130.064L63.373,182.23C62.824,184.626 64.322,187.039 66.701,187.605L76.768,189.968C79.164,190.534 81.577,189.036 82.143,186.64L94.39,134.474C94.955,132.094 93.458,129.665 91.062,129.116L80.995,126.753C78.615,126.187 76.202,127.684 75.637,130.064Z" fill="#837683"/>
<path d="M91.062,129.117L89.531,128.757L77.737,178.994C77.171,181.39 74.758,182.888 72.362,182.322L63.823,180.318L63.373,182.231C62.824,184.628 64.322,187.04 66.701,187.606L76.768,189.97C79.164,190.535 81.577,189.038 82.143,186.641L94.39,134.475C94.956,132.096 93.458,129.666 91.062,129.117Z" fill="#7A6D7A"/>
<path d="M193.812,130.064L206.059,182.23C206.625,184.626 205.127,187.039 202.731,187.605L192.664,189.968C190.268,190.534 187.855,189.036 187.306,186.64L175.042,134.474C174.493,132.094 175.974,129.665 178.37,129.116L188.437,126.753C190.833,126.187 193.246,127.685 193.812,130.065L193.812,130.064Z" fill="#837683"/>
<path d="M206.059,182.23L193.812,130.064C193.246,127.685 190.834,126.187 188.438,126.753L186.57,127.192L198.561,178.264C199.126,180.66 197.629,183.073 195.233,183.639L187.051,185.559L187.306,186.64C187.855,189.037 190.267,190.534 192.664,189.969L202.731,187.605C205.127,187.04 206.624,184.627 206.059,182.23L206.059,182.23Z" fill="#7A6D7A"/>
<path d="M154.873,202.921L138.239,186.337C137.409,185.51 136.122,185.357 135.122,185.965C133.713,186.823 133.48,188.774 134.648,189.939L151.18,206.421C154.042,209.283 158.734,209.283 161.596,206.421C162.176,205.837 162.632,205.178 162.977,204.476C160.292,205.615 157.053,205.1 154.873,202.921Z" fill="#F1CBBC"/>
<path d="M138.368,207.281L125.283,194.222C124.454,193.394 123.166,193.241 122.165,193.85C120.756,194.707 120.523,196.658 121.69,197.823L134.674,210.781C137.535,213.643 142.228,213.626 145.09,210.764C145.669,210.182 146.126,209.523 146.47,208.822C143.785,209.966 140.546,209.46 138.368,207.281Z" fill="#F1CBBC"/>
<path d="M165.274,192.49L151.203,178.453C150.374,177.626 149.086,177.472 148.085,178.081C146.676,178.938 146.443,180.889 147.611,182.054L161.58,195.99C164.459,198.852 169.151,198.852 172.013,195.973C172.592,195.394 173.047,194.738 173.39,194.039C170.705,195.185 167.465,194.67 165.273,192.491L165.274,192.49Z" fill="#F1CBBC"/>
<path d="M186.065,181.358L179.64,184.191C175.796,185.888 171.519,185.089 168.541,182.128L144.347,158C140.952,154.605 135.761,154.089 131.767,156.752L124.046,161.893C118.493,165.574 111.704,165.964 105.992,163.297C106.393,164.519 107.209,165.491 108.384,166.107C114.258,169.218 121.446,168.969 127.27,165.109L134.991,159.967C138.985,157.305 144.176,157.821 147.571,161.215L171.765,185.343C174.744,188.305 179.02,189.104 182.864,187.407L187.052,185.56L186.065,181.358L186.065,181.358Z" fill="#D3A69B"/>
<path d="M119.665,209.434L84.923,174.799L83.557,180.618L115.971,212.933C118.833,215.796 123.526,215.796 126.388,212.917C126.967,212.338 127.422,211.681 127.766,210.983C125.08,212.128 121.844,211.613 119.665,209.434Z" fill="#F1CBBC"/>
<path d="M134.556,152.635C134.043,152.635 133.53,152.545 133.041,152.366C118.185,146.925 102.311,130.388 102.311,100.294C102.311,98.349 103.586,96.634 105.449,96.075L133.288,87.706C134.115,87.457 134.998,87.457 135.825,87.706L163.665,96.075C165.527,96.635 166.803,98.349 166.803,100.294C166.803,130.388 150.928,146.924 136.073,152.366C135.583,152.545 135.07,152.635 134.557,152.635L134.556,152.635ZM111.195,103.55C112.193,126.002 123.481,138.722 134.556,143.487C145.631,138.722 156.919,126.002 157.917,103.55L134.556,96.527L111.195,103.55Z" fill="#60B7FF"/>
<path d="M163.663,96.073L162.168,95.623C163.185,96.486 163.82,97.793 163.82,99.23C163.82,126.477 152.099,143.168 139.375,150.967C153.186,144.396 166.801,128.161 166.801,100.293C166.801,98.348 165.526,96.632 163.663,96.073Z" fill="#49A9EA"/>
<path d="M131.698,131.104C130.56,131.104 129.464,130.663 128.641,129.871L122.256,123.719C120.503,122.031 120.451,119.241 122.139,117.488C123.827,115.735 126.617,115.683 128.37,117.372L131.494,120.381L140.528,110.472C142.167,108.674 144.955,108.544 146.753,110.184C148.551,111.825 148.68,114.611 147.041,116.41L134.955,129.666C134.154,130.545 133.031,131.063 131.842,131.102C131.794,131.103 131.746,131.104 131.698,131.104Z" fill="#D8ECFE"/>
</svg>
