<svg width="244" height="254" viewBox="0 0 244 254" fill="none" xmlns="http://www.w3.org/2000/svg" xmlns:xlink="http://www.w3.org/1999/xlink">
<path d="M144.022,198.748L144.022,149.852L121.737,149.852L121.737,165.205L71.724,165.205C66.374,165.251 62.047,169.578 62.047,174.928L62.047,198.795C62.047,211.775 72.561,222.29 85.541,222.29L85.588,222.29L120.574,222.29C133.554,222.243 144.069,211.729 144.022,198.748Z" fill="#10737F"/>
<path d="M121.782,223.778C121.41,214.892 114.152,207.913 105.266,207.913L100.846,207.913C91.96,207.913 84.703,214.938 84.377,223.824L121.782,223.778Z" fill="#EFCDB1"/>
<path d="M103.036,207.679C101.5,207.632 100.291,206.423 100.244,204.887L100.244,185.58C100.244,184.044 101.5,182.788 103.036,182.788C104.571,182.788 105.827,184.044 105.827,185.58L105.827,204.887C105.874,206.423 104.664,207.632 103.129,207.679L103.082,207.679L103.036,207.679Z" fill="#414042"/>
<path d="M121.829,236.522L121.829,223.775L84.377,223.775L84.377,236.522C84.331,245.641 91.728,253.038 100.847,253.085L100.893,253.085L105.313,253.085C114.432,253.038 121.829,245.641 121.829,236.522Z" fill="#8A5D3B"/>
<path d="M121.784,190.884C120.248,190.884 118.992,189.628 118.992,188.093L118.992,167.576C118.992,166.04 120.248,164.784 121.784,164.784C123.319,164.784 124.575,166.04 124.575,167.576L124.575,188.093C124.575,189.628 123.319,190.884 121.784,190.884Z" fill="#10626C"/>
<path d="M143.977,149.85L143.977,137.661C143.977,134.637 141.558,132.217 138.533,132.217L127.182,132.217C124.158,132.217 121.738,134.637 121.738,137.661L121.738,149.85L143.977,149.85Z" fill="#EFCDB1"/>
<path d="M204.039,134.033L157.981,117.517L150.444,138.499L164.913,143.663L148.025,190.792C146.21,195.817 148.815,201.353 153.84,203.167L176.311,211.216C188.547,215.589 201.992,209.262 206.366,197.026L218.183,164.087C222.556,151.898 216.229,138.452 204.039,134.033Z" fill="#128593"/>
<path d="M219.995,163.481C211.528,160.783 202.456,165.249 199.478,173.624L197.989,177.764C195.012,186.139 199.152,195.35 207.387,198.7L219.995,163.481Z" fill="#EFCDB1"/>
<path d="M195.897,177.486C195.571,177.486 195.246,177.439 194.967,177.3L176.776,170.786C175.334,170.275 174.589,168.646 175.101,167.204C175.613,165.762 177.148,165.017 178.59,165.529L178.637,165.529L196.828,172.042C198.27,172.508 199.107,174.09 198.596,175.578C198.223,176.741 197.107,177.532 195.897,177.486Z" fill="#414042"/>
<path d="M232.046,167.76L220.648,163.666L219.997,163.48L207.389,198.699L207.993,198.932L219.392,203.026C227.999,206.096 237.443,201.63 240.514,193.023L242.003,188.882C245.073,180.322 240.607,170.878 232.046,167.76Z" fill="#8A5D3B"/>
<path d="M186.408,154.181L185.478,154.041L166.17,147.109C164.728,146.598 163.984,144.969 164.495,143.527C165.007,142.085 166.636,141.34 168.078,141.852L187.385,148.784C188.828,149.296 189.572,150.831 189.06,152.274L189.06,152.32C188.641,153.437 187.618,154.181 186.408,154.181Z" fill="#10737F"/>
<path d="M157.98,117.516L146.488,113.422C143.651,112.398 140.533,113.887 139.51,116.678L139.51,116.725L135.695,127.379C134.671,130.217 136.16,133.334 138.952,134.358L138.998,134.358L150.443,138.498L157.98,117.516Z" fill="#EFCDB1"/>
<path d="M163.608,59.219L134.67,98.671L152.628,111.838L161.7,99.462L202.037,129.051C206.364,132.215 212.412,131.285 215.575,126.958L229.719,107.697C237.395,97.229 235.115,82.527 224.648,74.851L196.407,54.148C185.94,46.518 171.284,48.797 163.608,59.219Z" fill="#10737F"/>
<path d="M196.362,52.241C191.384,59.592 193.105,69.548 200.27,74.805L203.806,77.41C210.97,82.621 220.973,81.318 226.509,74.386L196.362,52.241Z" fill="#EFCDB1"/>
<path d="M188.825,96.905C188.22,96.905 187.662,96.719 187.197,96.393C185.941,95.463 185.661,93.742 186.592,92.485L197.99,76.9C198.921,75.644 200.642,75.365 201.898,76.295C203.154,77.225 203.434,78.947 202.503,80.203L191.058,95.789C190.546,96.486 189.709,96.905 188.825,96.905Z" fill="#414042"/>
<path d="M203.85,41.959L196.685,51.729L196.359,52.241L226.507,74.386L226.926,73.874L234.09,64.058C239.487,56.707 237.859,46.379 230.508,40.982L226.972,38.376C219.621,32.98 209.293,34.561 203.896,41.912C203.85,41.912 203.85,41.959 203.85,41.959Z" fill="#8A5D3B"/>
<path d="M163.098,97.554L175.24,81.038Z" fill="#10626C"/>
<path d="M163.098,100.345C162.493,100.345 161.934,100.159 161.423,99.833C160.167,98.902 159.934,97.181 160.864,95.925L172.961,79.362C173.891,78.106 175.613,77.827 176.869,78.757C178.125,79.688 178.404,81.409 177.474,82.665L165.331,99.228C164.819,99.926 163.982,100.345 163.098,100.345Z" fill="#10626C"/>
<path d="M134.671,98.671L127.459,108.487C125.691,110.906 126.203,114.303 128.622,116.117L137.788,122.817C140.207,124.585 143.603,124.073 145.418,121.653L152.629,111.837L134.671,98.671Z" fill="#EFCDB1"/>
<path d="M67.631,159.529L113.038,141.291L104.757,120.635L90.474,126.357L71.818,79.926C69.864,74.995 64.281,72.529 59.303,74.483C59.303,74.483 59.257,74.483 59.257,74.529L37.065,83.462C25.061,88.3 19.246,101.978 24.038,113.982L37.111,146.455C41.903,158.505 55.535,164.367 67.584,159.529L67.631,159.529Z" fill="#128593"/>
<path d="M36.133,148.177C44.228,144.548 48.043,135.15 44.74,126.915L43.065,122.821C39.762,114.586 30.55,110.446 22.223,113.423L36.133,148.177Z" fill="#EFCDB1"/>
<path d="M46.695,126.544C45.578,126.544 44.555,125.846 44.136,124.776C43.578,123.333 44.229,121.705 45.672,121.147L63.583,113.936C65.025,113.377 66.654,114.075 67.259,115.517C67.817,116.96 67.119,118.588 65.677,119.146L47.765,126.357C47.439,126.497 47.067,126.544 46.695,126.544Z" fill="#414042"/>
<path d="M24.317,152.92L35.575,148.408L36.134,148.175L22.223,113.421L21.572,113.654L10.359,118.167C1.892,121.563 -2.202,131.194 1.194,139.661L2.822,143.755C6.219,152.222 15.849,156.317 24.317,152.92Z" fill="#8A5D3B"/>
<path d="M69.307,137.662C67.772,137.708 66.469,136.499 66.469,134.963C66.422,133.8 67.167,132.73 68.237,132.265L87.265,124.635C88.707,124.077 90.336,124.728 90.894,126.17C91.499,127.566 90.847,129.194 89.452,129.753C89.405,129.753 89.405,129.753 89.359,129.799L70.33,137.476C70.005,137.615 69.679,137.662 69.307,137.662Z" fill="#10737F"/>
<path d="M113.037,141.291L124.342,136.731C127.134,135.615 128.483,132.451 127.366,129.66L123.133,119.099C122.016,116.307 118.853,114.958 116.061,116.075L104.756,120.634L113.037,141.291Z" fill="#EFCDB1"/>
<path d="M75.681,71.874L102.805,112.583L121.322,100.254L112.808,87.507L154.493,59.778C158.913,56.801 160.123,50.799 157.145,46.333L143.932,26.467C136.721,15.673 122.159,12.742 111.365,19.907L82.241,39.308C71.448,46.472 68.517,61.081 75.681,71.874Z" fill="#128593"/>
<path d="M80.381,38.747C85.592,45.911 95.501,47.726 102.898,42.794L106.574,40.375C113.971,35.49 116.204,25.58 111.552,17.997L80.381,38.747Z" fill="#EFCDB1"/>
<path d="M117.133,62.99C116.203,62.99 115.319,62.525 114.807,61.734L104.107,45.637C103.176,44.381 103.455,42.659 104.665,41.729C105.921,40.798 107.642,41.077 108.573,42.287C108.619,42.38 108.712,42.473 108.759,42.566L119.46,58.617C120.297,59.92 119.971,61.641 118.669,62.525C118.203,62.804 117.692,62.99 117.133,62.99Z" fill="#414042"/>
<path d="M73.308,28.095L80.008,38.191L80.38,38.749L111.551,17.999L111.179,17.441L104.479,7.345C99.408,-0.238 89.126,-2.285 81.543,2.786L77.914,5.205C70.331,10.23 68.237,20.418 73.262,28.048L73.308,28.095Z" fill="#8A5D3B"/>
<path d="M111.506,88.345C110.575,88.345 109.691,87.88 109.179,87.089L97.827,70.015C96.944,68.712 97.316,66.991 98.618,66.153C99.921,65.269 101.642,65.642 102.48,66.898L113.832,83.972C114.669,85.228 114.344,86.95 113.134,87.787C113.087,87.787 113.087,87.834 113.041,87.834C112.576,88.159 112.064,88.345 111.506,88.345Z" fill="#10737F"/>
<path d="M102.805,112.583L109.551,122.725C111.179,125.238 114.529,125.935 116.995,124.307C117.041,124.307 117.041,124.261 117.088,124.261L126.578,117.98C129.091,116.305 129.742,112.909 128.067,110.396L121.321,100.254L102.805,112.583Z" fill="#EFCDB1"/>
</svg>
