<svg width="274" height="274" viewBox="0 0 274 274" fill="none" xmlns="http://www.w3.org/2000/svg" xmlns:xlink="http://www.w3.org/1999/xlink">
<path d="M82.22,116.576L82.22,129.888L68.908,137.446L55.596,129.887L55.596,116.575C55.596,109.223 61.556,103.263 68.908,103.263C76.26,103.264 82.22,109.224 82.22,116.576Z" fill="#FFBD86"/>
<path d="M122.093,172.823L155.076,172.823C160.527,167.948 163.96,160.864 163.96,152.976C163.96,138.272 152.04,126.353 137.336,126.353C122.633,126.353 110.713,138.272 110.713,152.976C110.713,157.638 111.914,162.018 114.02,165.829L122.093,172.823Z" fill="#FFBD86"/>
<path d="M150.19,129.659C152.295,133.47 153.497,137.85 153.497,142.512C153.497,157.215 141.577,169.135 126.873,169.135C122.211,169.135 117.831,167.934 114.02,165.828C118.555,174.037 127.295,179.598 137.337,179.598C152.041,179.598 163.96,167.679 163.96,152.975C163.96,142.934 158.399,134.194 150.19,129.659Z" fill="#F6A96C"/>
<path d="M192.453,116.576L192.453,129.888L205.765,137.446L219.077,129.887L219.077,116.575C219.077,109.223 213.117,103.263 205.765,103.263C198.413,103.264 192.453,109.224 192.453,116.576Z" fill="#F6A96C"/>
<path d="M207.983,129.886L192.453,129.886L192.453,170.322L166.966,179.598L107.706,179.598L82.22,170.322L82.22,129.886L55.596,129.886L55.596,175.29C55.596,180.92 58.268,186.216 62.795,189.563L99.589,216.762C101.003,217.807 101.839,219.462 101.839,221.222L101.839,268.56C101.839,271.504 104.225,273.89 107.169,273.89L167.505,273.89C170.448,273.89 172.835,271.504 172.835,268.56L172.835,221.222C172.835,219.462 173.669,217.807 175.084,216.762L211.878,189.563C216.405,186.216 219.077,180.92 219.077,175.29L219.077,140.979L207.983,129.886Z" fill="#128593"/>
<path d="M207.983,129.886L207.983,175.29C207.983,177.392 206.974,179.393 205.284,180.642L166.241,209.504C163.411,211.595 161.742,214.906 161.742,218.425L161.742,268.56C161.742,271.504 159.355,273.89 156.412,273.89L167.505,273.89C170.448,273.89 172.835,271.504 172.835,268.56L172.835,221.222C172.835,219.462 173.669,217.807 175.084,216.762L211.878,189.563C216.406,186.216 219.077,180.92 219.077,175.29L219.077,129.886L207.983,129.886Z" fill="#107380"/>
<path d="M142.31,4.092L151.257,22.221C152.065,23.857 153.627,24.992 155.433,25.255L175.44,28.162C179.989,28.823 181.806,34.414 178.513,37.622L164.037,51.734C162.729,53.008 162.133,54.844 162.442,56.643L165.859,76.569C166.636,81.099 161.88,84.555 157.812,82.415L139.917,73.008C138.301,72.159 136.372,72.159 134.755,73.008L116.861,82.415C112.792,84.555 108.037,81.099 108.814,76.569L112.231,56.643C112.54,54.844 111.943,53.008 110.636,51.734L96.159,37.622C92.868,34.413 94.684,28.823 99.233,28.162L119.24,25.255C121.046,24.992 122.608,23.858 123.416,22.221L132.363,4.092C134.397,-0.031 140.276,-0.031 142.31,4.092Z" fill="#FFE177"/>
<path d="M178.514,37.623C181.806,34.414 179.989,28.824 175.44,28.163L160.114,25.936C154.58,46.207 136.046,61.113 114.02,61.113C113.167,61.113 112.319,61.089 111.477,61.045L108.814,76.57C108.037,81.1 112.793,84.556 116.861,82.416L134.756,73.009C136.372,72.16 138.302,72.16 139.918,73.009L157.812,82.416C161.881,84.556 166.636,81.1 165.859,76.57L162.442,56.644C162.133,54.845 162.73,53.009 164.037,51.735L178.514,37.623Z" fill="#FFD15B"/>
<path d="M234.996,25.352L218.523,46.779C215.719,50.427 218.32,55.706 222.921,55.706L228.3,55.706L228.3,90.854C228.3,93.917 230.783,96.4 233.847,96.4L244.94,96.4C248.003,96.4 250.487,93.917 250.487,90.854L250.487,55.706L255.866,55.706C260.468,55.706 263.068,50.427 260.263,46.779L243.791,25.352C241.57,22.464 237.216,22.464 234.996,25.352Z" fill="#8BC727"/>
<path d="M30.883,25.352L14.41,46.779C11.606,50.427 14.206,55.706 18.807,55.706L24.187,55.706L24.187,90.854C24.187,93.917 26.67,96.4 29.733,96.4L40.827,96.4C43.89,96.4 46.373,93.917 46.373,90.854L46.373,55.706L51.753,55.706C56.354,55.706 58.955,50.427 56.15,46.779L39.677,25.352C37.457,22.464 33.103,22.464 30.883,25.352Z" fill="#97D729"/>
<path d="M259.864,116.587L263.15,123.248C263.447,123.849 264.021,124.266 264.685,124.362L272.035,125.43C273.706,125.673 274.374,127.727 273.164,128.906L267.846,134.09C267.366,134.558 267.147,135.232 267.26,135.893L268.516,143.214C268.801,144.878 267.054,146.148 265.559,145.361L258.985,141.906C258.391,141.593 257.683,141.593 257.089,141.906L250.515,145.361C249.02,146.148 247.273,144.878 247.558,143.214L248.814,135.893C248.928,135.232 248.709,134.558 248.228,134.09L242.91,128.906C241.701,127.727 242.368,125.673 244.04,125.43L251.39,124.362C252.053,124.266 252.627,123.849 252.924,123.248L256.211,116.587C256.957,115.073 259.116,115.073 259.864,116.587Z" fill="#FFD15B"/>
<path d="M14.808,116.587L11.521,123.248C11.224,123.849 10.651,124.266 9.987,124.362L2.637,125.43C0.965,125.673 0.298,127.727 1.507,128.906L6.825,134.09C7.306,134.558 7.525,135.232 7.411,135.893L6.155,143.214C5.87,144.878 7.617,146.148 9.112,145.361L15.686,141.906C16.28,141.593 16.988,141.593 17.582,141.906L24.156,145.361C25.651,146.148 27.398,144.878 27.113,143.214L25.857,135.893C25.743,135.232 25.962,134.558 26.443,134.09L31.761,128.906C32.97,127.727 32.303,125.673 30.631,125.43L23.281,124.362C22.618,124.266 22.044,123.849 21.747,123.248L18.46,116.587C17.715,115.073 15.555,115.073 14.808,116.587Z" fill="#FFE177"/>
<path d="M199.662,73.572L196.449,73.572L196.449,68.695C196.449,66.487 194.66,64.698 192.452,64.698C190.244,64.698 188.455,66.487 188.455,68.695L188.455,73.572L185.241,73.572C183.034,73.572 181.244,75.361 181.244,77.569C181.244,79.778 183.034,81.567 185.241,81.567L188.455,81.567L188.455,86.444C188.455,88.652 190.244,90.441 192.452,90.441C194.66,90.441 196.449,88.652 196.449,86.444L196.449,81.567L199.662,81.567C201.87,81.567 203.66,79.778 203.66,77.569C203.66,75.361 201.87,73.572 199.662,73.572Z" fill="#FFD15B"/>
<path d="M89.43,73.572L86.217,73.572L86.217,68.695C86.217,66.487 84.427,64.698 82.219,64.698C80.012,64.698 78.222,66.487 78.222,68.695L78.222,73.572L75.009,73.572C72.801,73.572 71.012,75.361 71.012,77.569C71.012,79.778 72.801,81.567 75.009,81.567L78.222,81.567L78.222,86.444C78.222,88.652 80.012,90.441 82.219,90.441C84.427,90.441 86.217,88.652 86.217,86.444L86.217,81.567L89.43,81.567C91.638,81.567 93.428,79.778 93.428,77.569C93.428,75.361 91.638,73.572 89.43,73.572Z" fill="#FFE177"/>
</svg>
