<svg width="280" height="274" viewBox="0 0 280 274" fill="none" xmlns="http://www.w3.org/2000/svg" xmlns:xlink="http://www.w3.org/1999/xlink">
<path d="M72.158,273.884C65.67,273.884 59.949,270.534 56.632,265.48C53.314,270.534 47.593,273.884 41.105,273.884C30.874,273.884 22.551,265.558 22.551,255.33L22.551,134.478C10.274,132.934 0.73,122.408 0.73,109.734L0.73,44.796C0.73,37.112 6.983,30.858 14.668,30.858C22.354,30.858 28.607,37.112 28.607,44.796L28.607,99.009L87.685,99.009C101.386,99.009 112.532,110.153 112.532,123.859L112.532,168.051C112.532,180.732 102.99,191.218 90.712,192.715L90.712,255.33C90.712,265.558 82.389,273.884 72.158,273.884Z" clip-rule="evenodd" fill-rule="evenodd" fill="#10737F"/>
<path d="M72.158,273.885C67.348,273.885 62.96,272.043 59.66,269.031L59.66,201.332C59.66,199.66 58.304,198.301 56.632,198.301C54.96,198.301 53.605,199.66 53.605,201.332L53.605,269.031C50.304,272.043 45.915,273.885 41.105,273.885C30.874,273.885 22.551,265.559 22.551,255.329L22.551,134.478C10.274,132.934 0.73,122.408 0.73,109.734L0.73,44.796C0.73,42.932 1.099,41.154 1.766,39.528C3.607,38.629 5.673,38.125 7.856,38.125C15.542,38.125 21.795,44.378 21.795,52.063L21.795,106.275L80.872,106.275C94.574,106.275 105.72,117.419 105.72,131.125L105.72,175.317C105.72,180.083 104.372,184.538 102.038,188.323C98.76,190.651 94.895,192.204 90.712,192.715L90.712,129.829C90.712,128.157 89.357,126.8 87.685,126.8C86.012,126.8 84.657,128.157 84.657,129.829L85.149,262.597C85.149,265.693 83.137,268.615 81.789,271.183C78.98,272.897 75.682,273.885 72.158,273.885Z" clip-rule="evenodd" fill-rule="evenodd" fill="#128593"/>
<path d="M56.633,105.063C43.47,105.063 32.762,94.355 32.762,81.191C32.762,68.031 43.47,57.322 56.633,57.322C69.796,57.322 80.503,68.031 80.503,81.191C80.503,94.355 69.796,105.063 56.633,105.063Z" clip-rule="evenodd" fill-rule="evenodd" fill="#D9B7A9"/>
<path d="M56.633,105.064C43.47,105.064 32.762,94.355 32.762,81.192C32.762,72.738 37.181,65.296 43.83,61.054C46.212,60.254 48.761,59.82 51.41,59.82C64.572,59.82 75.28,70.529 75.28,83.689C75.28,92.145 70.861,99.588 64.211,103.83C61.83,104.629 59.281,105.064 56.633,105.064Z" clip-rule="evenodd" fill-rule="evenodd" fill="#F1CBBC"/>
<path d="M70.552,49.901C70.033,49.901 69.512,49.767 69.042,49.498L56.632,42.358L44.221,49.498C43.186,50.092 41.898,50.023 40.932,49.323C39.966,48.621 39.503,47.418 39.749,46.249L42.703,32.238L32.078,22.64C31.192,21.84 30.86,20.593 31.228,19.457C31.598,18.321 32.599,17.511 33.787,17.383L48.023,15.863L53.867,2.794C54.355,1.703 55.437,1 56.632,1C57.825,1 58.907,1.703 59.396,2.794L65.24,15.863L79.477,17.383C80.664,17.511 81.666,18.321 82.036,19.457C82.404,20.593 82.071,21.84 81.186,22.64L70.561,32.238L73.515,46.248C73.761,47.417 73.298,48.62 72.331,49.322C71.804,49.706 71.179,49.901 70.552,49.901Z" clip-rule="evenodd" fill-rule="evenodd" fill="#E6BD5C"/>
<path d="M70.553,49.901C70.033,49.901 69.513,49.767 69.043,49.498L56.633,42.358L44.222,49.498C43.187,50.092 41.899,50.023 40.932,49.323C39.967,48.621 39.503,47.418 39.75,46.249L42.704,32.238L32.079,22.64C31.505,22.122 31.163,21.416 31.094,20.674C31.43,20.495 31.803,20.377 32.198,20.335L46.717,18.785L52.992,4.753C53.541,4.247 54.268,3.952 55.043,3.952C56.237,3.952 57.319,4.654 57.808,5.746L63.652,18.815L77.889,20.335C79.076,20.463 80.078,21.273 80.448,22.409C80.53,22.662 80.577,22.92 80.591,23.178L68.704,33.916L71.927,49.201C71.951,49.315 71.968,49.43 71.979,49.545C71.535,49.781 71.045,49.901 70.553,49.901Z" clip-rule="evenodd" fill-rule="evenodd" fill="#FFD266"/>
<path d="M276.25,271.312L199.19,271.312C197.517,271.312 196.162,269.954 196.162,268.285C196.162,245.371 214.805,226.725 237.719,226.725C260.635,226.725 279.276,245.371 279.276,268.285C279.276,269.954 277.922,271.312 276.25,271.312Z" clip-rule="evenodd" fill-rule="evenodd" fill="#10737F"/>
<path d="M185.033,271.312L107.973,271.312C106.301,271.312 104.945,269.954 104.945,268.285C104.945,245.371 123.588,226.725 146.503,226.725C169.418,226.725 188.061,245.371 188.061,268.285C188.061,269.954 186.705,271.312 185.033,271.312Z" clip-rule="evenodd" fill-rule="evenodd" fill="#10737F"/>
<path d="M212.664,235.152C218.116,232.518 224.229,231.04 230.68,231.04C253.165,231.04 271.533,248.991 272.216,271.312L199.19,271.312C197.517,271.312 196.162,269.954 196.162,268.285C196.163,254.774 202.646,242.748 212.664,235.152Z" clip-rule="evenodd" fill-rule="evenodd" fill="#128593"/>
<path d="M180.999,271.312L107.973,271.312C106.301,271.312 104.945,269.954 104.945,268.285C104.945,254.774 111.429,242.748 121.446,235.152C126.9,232.518 133.012,231.04 139.464,231.04C161.948,231.04 180.317,248.991 180.999,271.312Z" clip-rule="evenodd" fill-rule="evenodd" fill="#128593"/>
<path d="M237.72,232.781C225.676,232.781 215.877,222.984 215.877,210.939C215.877,198.895 225.676,189.097 237.72,189.097C249.765,189.097 259.565,198.894 259.565,210.939C259.565,222.984 249.765,232.781 237.72,232.781Z" clip-rule="evenodd" fill-rule="evenodd" fill="#D9B7A9"/>
<path d="M146.504,232.781C134.458,232.781 124.66,222.984 124.66,210.939C124.66,198.895 134.458,189.097 146.504,189.097C158.547,189.097 168.347,198.894 168.347,210.939C168.347,222.984 158.547,232.781 146.504,232.781Z" clip-rule="evenodd" fill-rule="evenodd" fill="#D9B7A9"/>
<path d="M228.523,191.129C229.525,190.988 230.548,190.913 231.587,190.913C243.632,190.913 253.432,200.71 253.432,212.755C253.432,221.517 248.246,229.088 240.783,232.565C239.782,232.706 238.759,232.781 237.718,232.781C225.674,232.781 215.875,222.983 215.875,210.938C215.875,202.177 221.061,194.606 228.523,191.129Z" clip-rule="evenodd" fill-rule="evenodd" fill="#F1CBBC"/>
<path d="M146.504,232.781C134.458,232.781 124.66,222.983 124.66,210.938C124.66,202.177 129.845,194.606 137.308,191.129C138.31,190.988 139.332,190.913 140.373,190.913C152.416,190.913 162.216,200.71 162.216,212.755C162.216,221.517 157.029,229.088 149.567,232.565C148.566,232.706 147.543,232.781 146.504,232.781Z" clip-rule="evenodd" fill-rule="evenodd" fill="#F1CBBC"/>
</svg>
