<svg width="244" height="254" viewBox="0 0 244 254" fill="none" xmlns="http://www.w3.org/2000/svg" xmlns:xlink="http://www.w3.org/1999/xlink">
<path d="M143.432,198.28L143.432,149.383L121.147,149.383L121.147,164.736L71.134,164.736C65.784,164.782 61.457,169.109 61.457,174.459L61.457,198.326C61.457,211.306 71.971,221.821 84.952,221.821L84.998,221.821L119.984,221.821C132.965,221.774 143.479,211.26 143.432,198.28Z" fill="#10737F"/>
<path d="M121.193,223.309C120.82,214.423 113.563,207.444 104.677,207.444L100.257,207.444C91.371,207.444 84.113,214.469 83.787,223.356L121.193,223.309Z" fill="#EFCDB1"/>
<path d="M102.446,207.21C100.91,207.163 99.701,205.954 99.654,204.419L99.654,185.111C99.654,183.576 100.91,182.32 102.446,182.32C103.981,182.32 105.237,183.576 105.237,185.111L105.237,204.419C105.284,205.954 104.074,207.163 102.539,207.21L102.492,207.21L102.446,207.21Z" fill="#414042"/>
<path d="M121.239,236.054L121.239,223.306L83.787,223.306L83.787,236.054C83.741,245.172 91.138,252.57 100.257,252.616L100.303,252.616L104.723,252.616C113.842,252.57 121.239,245.172 121.239,236.054Z" fill="#8A5D3B"/>
<path d="M121.194,190.415C119.658,190.415 118.402,189.159 118.402,187.624L118.402,167.107C118.402,165.572 119.658,164.315 121.194,164.315C122.729,164.315 123.985,165.572 123.985,167.107L123.985,187.624C123.985,189.159 122.729,190.415 121.194,190.415Z" fill="#10626C"/>
<path d="M143.387,149.381L143.387,137.192C143.387,134.168 140.968,131.749 137.944,131.749L126.592,131.749C123.568,131.749 121.148,134.168 121.148,137.192L121.148,149.381L143.387,149.381Z" fill="#EFCDB1"/>
<path d="M203.447,133.564L157.388,117.048L149.851,138.03L164.32,143.194L147.432,190.323C145.617,195.348 148.223,200.884 153.247,202.699L175.718,210.747C187.954,215.121 201.4,208.793 205.773,196.557L217.59,163.618C221.963,151.429 215.636,137.984 203.447,133.564Z" fill="#128593"/>
<path d="M219.404,163.013C210.937,160.314 201.865,164.78 198.887,173.155L197.398,177.295C194.421,185.67 198.561,194.881 206.796,198.231L219.404,163.013Z" fill="#EFCDB1"/>
<path d="M195.305,177.017C194.98,177.017 194.654,176.971 194.375,176.831L176.184,170.318C174.742,169.806 173.997,168.177 174.509,166.735C175.021,165.293 176.556,164.549 177.998,165.06L178.045,165.06L196.236,171.574C197.678,172.039 198.515,173.621 198.004,175.11C197.632,176.273 196.515,177.064 195.305,177.017Z" fill="#414042"/>
<path d="M231.455,167.292L220.056,163.198L219.405,163.011L206.797,198.23L207.402,198.463L218.8,202.557C227.407,205.627 236.851,201.161 239.922,192.554L241.411,188.414C244.481,179.853 240.015,170.409 231.455,167.292Z" fill="#8A5D3B"/>
<path d="M185.816,153.712L184.886,153.573L165.579,146.641C164.136,146.129 163.392,144.5 163.904,143.058C164.415,141.616 166.044,140.872 167.486,141.383L186.793,148.315C188.236,148.827 188.98,150.363 188.468,151.805L188.468,151.851C188.05,152.968 187.026,153.712 185.816,153.712Z" fill="#10737F"/>
<path d="M157.388,117.047L145.897,112.953C143.059,111.929 139.942,113.418 138.918,116.21L138.918,116.256L135.103,126.91C134.08,129.748 135.568,132.865 138.36,133.889L138.406,133.889L149.851,138.029L157.388,117.047Z" fill="#EFCDB1"/>
<path d="M163.017,58.75L134.079,98.203L152.037,111.369L161.11,98.994L201.446,128.583C205.773,131.746 211.821,130.816 214.985,126.489L229.128,107.228C236.804,96.76 234.525,82.059 224.057,74.382L195.817,53.679C185.349,46.049 170.694,48.329 163.017,58.75Z" fill="#10737F"/>
<path d="M195.771,51.772C190.793,59.123 192.514,69.079 199.679,74.336L203.215,76.942C210.38,82.152 220.382,80.85 225.919,73.917L195.771,51.772Z" fill="#EFCDB1"/>
<path d="M188.234,96.436C187.629,96.436 187.071,96.25 186.606,95.925C185.35,94.994 185.071,93.273 186.001,92.017L197.399,76.431C198.33,75.175 200.051,74.896 201.307,75.826C202.564,76.757 202.843,78.478 201.912,79.734L190.467,95.32C189.956,96.018 189.118,96.436 188.234,96.436Z" fill="#414042"/>
<path d="M203.26,41.49L196.095,51.26L195.77,51.772L225.917,73.917L226.336,73.406L233.501,63.589C238.897,56.238 237.269,45.91 229.918,40.513L226.382,37.908C219.032,32.511 208.703,34.093 203.306,41.444C203.26,41.444 203.26,41.49 203.26,41.49Z" fill="#8A5D3B"/>
<path d="M162.507,97.085L174.65,80.569Z" fill="#10626C"/>
<path d="M162.506,99.876C161.901,99.876 161.343,99.69 160.831,99.364C159.575,98.434 159.342,96.712 160.273,95.456L172.369,78.893C173.299,77.637 175.021,77.358 176.277,78.289C177.533,79.219 177.812,80.941 176.882,82.197L164.739,98.759C164.227,99.457 163.39,99.876 162.506,99.876Z" fill="#10626C"/>
<path d="M134.08,98.202L126.868,108.018C125.101,110.438 125.612,113.834 128.032,115.648L137.197,122.348C139.616,124.116 143.012,123.604 144.827,121.185L152.038,111.368L134.08,98.202Z" fill="#EFCDB1"/>
<path d="M67.041,159.06L112.449,140.823L104.167,120.166L89.885,125.888L71.228,79.457C69.274,74.526 63.691,72.06 58.713,74.014C58.713,74.014 58.667,74.014 58.667,74.061L36.475,82.993C24.472,87.832 18.656,101.51 23.448,113.513L36.521,145.987C41.313,158.036 54.945,163.898 66.995,159.06L67.041,159.06Z" fill="#128593"/>
<path d="M35.544,147.708C43.639,144.079 47.454,134.681 44.15,126.446L42.476,122.352C39.172,114.117 29.961,109.977 21.633,112.954L35.544,147.708Z" fill="#EFCDB1"/>
<path d="M46.104,126.075C44.988,126.075 43.964,125.377 43.545,124.307C42.987,122.865 43.638,121.236 45.081,120.678L62.992,113.467C64.435,112.909 66.063,113.606 66.668,115.049C67.226,116.491 66.528,118.119 65.086,118.677L47.174,125.889C46.849,126.028 46.476,126.075 46.104,126.075Z" fill="#414042"/>
<path d="M23.726,152.452L34.985,147.939L35.543,147.706L21.632,112.953L20.981,113.185L9.769,117.698C1.301,121.094 -2.793,130.725 0.603,139.192L2.232,143.286C5.628,151.754 15.258,155.848 23.726,152.452Z" fill="#8A5D3B"/>
<path d="M68.715,137.193C67.18,137.24 65.877,136.03 65.877,134.495C65.831,133.332 66.575,132.261 67.645,131.796L86.673,124.166C88.116,123.608 89.744,124.259 90.302,125.702C90.907,127.097 90.256,128.726 88.86,129.284C88.813,129.284 88.813,129.284 88.767,129.33L69.739,137.007C69.413,137.146 69.087,137.193 68.715,137.193Z" fill="#10737F"/>
<path d="M112.446,140.822L123.752,136.263C126.543,135.146 127.892,131.982 126.776,129.191L122.542,118.63C121.425,115.839 118.262,114.489 115.47,115.606L104.165,120.165L112.446,140.822Z" fill="#EFCDB1"/>
<path d="M75.09,71.406L102.213,112.114L120.73,99.785L112.216,87.038L153.901,59.309C158.321,56.332 159.531,50.33 156.553,45.864L143.34,25.998C136.129,15.204 121.567,12.273 110.774,19.438L81.649,38.839C70.856,46.003 67.925,60.612 75.09,71.406Z" fill="#128593"/>
<path d="M79.789,38.278C85,45.442 94.909,47.257 102.307,42.325L105.982,39.906C113.379,35.021 115.613,25.111 110.96,17.528L79.789,38.278Z" fill="#EFCDB1"/>
<path d="M116.542,62.521C115.611,62.521 114.727,62.056 114.215,61.265L103.515,45.168C102.584,43.912 102.863,42.19 104.073,41.26C105.329,40.329 107.051,40.609 107.981,41.818C108.028,41.911 108.121,42.004 108.167,42.097L118.868,58.148C119.705,59.451 119.38,61.172 118.077,62.056C117.612,62.335 117.1,62.521 116.542,62.521Z" fill="#414042"/>
<path d="M72.717,27.626L79.416,37.722L79.788,38.28L110.959,17.53L110.587,16.972L103.888,6.876C98.817,-0.707 88.535,-2.754 80.951,2.317L77.322,4.736C69.739,9.761 67.645,19.95 72.67,27.579L72.717,27.626Z" fill="#8A5D3B"/>
<path d="M110.914,87.877C109.983,87.877 109.099,87.411 108.588,86.62L97.236,69.546C96.352,68.243 96.724,66.522 98.027,65.685C99.329,64.801 101.051,65.173 101.888,66.429L113.24,83.503C114.077,84.759 113.752,86.481 112.542,87.318C112.496,87.318 112.496,87.365 112.449,87.365C111.984,87.69 111.472,87.877 110.914,87.877Z" fill="#10737F"/>
<path d="M102.214,112.114L108.96,122.257C110.588,124.769 113.938,125.467 116.404,123.838C116.45,123.838 116.45,123.792 116.497,123.792L125.988,117.511C128.5,115.836 129.151,112.44 127.476,109.928L120.73,99.785L102.214,112.114Z" fill="#EFCDB1"/>
</svg>
