<svg width="270" height="268" viewBox="0 0 270 268" fill="none" xmlns="http://www.w3.org/2000/svg" xmlns:xlink="http://www.w3.org/1999/xlink">
<path d="M134.692,-0.148C125.602,-0.148 118.208,7.246 118.208,16.335C118.208,26.453 123.985,37.207 134.692,37.207C145.398,37.207 151.164,26.453 151.164,16.335C151.164,7.246 143.775,-0.148 134.692,-0.148Z" fill="#F6DCCD"/>
<path d="M134.693,-0.148C133.656,-0.148 132.643,-0.048 131.658,0.136C139.297,1.565 145.098,8.283 145.098,16.335C145.098,25.45 140.41,35.078 131.658,36.897C132.622,37.097 133.632,37.207 134.693,37.207C145.392,37.207 151.165,26.453 151.165,16.335C151.165,7.246 143.776,-0.148 134.693,-0.148Z" fill="#F1CBBC"/>
<path d="M146.683,37.208L122.689,37.208C109.697,37.208 99.127,47.143 99.127,59.354L99.127,75.681L170.245,75.681L170.245,59.354C170.245,47.143 159.675,37.208 146.683,37.208Z" fill="#128593"/>
<path d="M146.684,37.204L139.218,37.204C152.21,37.204 162.78,47.139 162.78,59.35L162.78,75.676L170.246,75.676L170.246,59.35C170.246,47.139 159.676,37.204 146.684,37.204Z" fill="#10737F"/>
<path d="M156.555,75.683L156.555,61.46C156.555,59.398 154.884,57.727 152.821,57.727C150.759,57.727 149.088,59.398 149.088,61.46L149.088,75.683L156.555,75.683Z" fill="#10737F"/>
<path d="M120.272,75.683L120.272,61.46C120.272,59.398 118.601,57.727 116.538,57.727C114.476,57.727 112.805,59.398 112.805,61.46L112.805,75.683L120.272,75.683Z" fill="#10737F"/>
<path d="M36.403,150.796C27.314,150.796 19.92,158.191 19.92,167.279C19.92,177.397 25.697,188.151 36.403,188.151C47.11,188.151 52.876,177.397 52.876,167.279C52.876,158.19 45.487,150.796 36.403,150.796Z" fill="#F6DCCD"/>
<path d="M36.405,150.796C35.368,150.796 34.354,150.896 33.37,151.08C41.009,152.509 46.81,159.227 46.81,167.279C46.81,176.394 42.122,186.022 33.37,187.841C34.334,188.041 35.344,188.151 36.405,188.151C47.104,188.151 52.877,177.397 52.877,167.279C52.877,158.19 45.488,150.796 36.405,150.796Z" fill="#F1CBBC"/>
<path d="M48.395,188.152L24.401,188.152C11.409,188.152 0.839,198.087 0.839,210.298L0.839,226.625L71.957,226.625L71.957,210.298C71.957,198.087 61.387,188.152 48.395,188.152Z" fill="#128593"/>
<path d="M48.395,188.153L40.929,188.153C53.921,188.153 64.491,198.088 64.491,210.299L64.491,226.626L71.957,226.626L71.957,210.299C71.957,198.088 61.387,188.153 48.395,188.153Z" fill="#10737F"/>
<path d="M58.268,226.623L58.268,212.4C58.268,210.338 56.597,208.667 54.534,208.667C52.472,208.667 50.801,210.338 50.801,212.4L50.801,226.623L58.268,226.623Z" fill="#10737F"/>
<path d="M21.985,226.623L21.985,212.4C21.985,210.338 20.313,208.667 18.251,208.667C16.189,208.667 14.518,210.338 14.518,212.4L14.518,226.623L21.984,226.623L21.985,226.623Z" fill="#10737F"/>
<path d="M232.938,150.796C223.848,150.796 216.454,158.191 216.454,167.279C216.454,177.397 222.231,188.151 232.938,188.151C243.644,188.151 249.41,177.397 249.41,167.279C249.41,158.19 242.021,150.796 232.938,150.796Z" fill="#F6DCCD"/>
<path d="M232.939,150.796C231.902,150.796 230.889,150.896 229.904,151.08C237.543,152.509 243.345,159.227 243.345,167.279C243.345,176.394 238.656,186.022 229.904,187.841C230.868,188.041 231.878,188.151 232.939,188.151C243.638,188.151 249.411,177.397 249.411,167.279C249.411,158.19 242.022,150.796 232.939,150.796Z" fill="#F1CBBC"/>
<path d="M244.929,188.152L220.935,188.152C207.943,188.152 197.373,198.087 197.373,210.298L197.373,226.625L268.491,226.625L268.491,210.298C268.491,198.087 257.921,188.152 244.929,188.152Z" fill="#128593"/>
<path d="M244.929,188.153L237.463,188.153C250.455,188.153 261.025,198.088 261.025,210.299L261.025,226.626L268.491,226.626L268.491,210.299C268.491,198.088 257.921,188.153 244.929,188.153Z" fill="#10737F"/>
<path d="M254.801,226.623L254.801,212.4C254.801,210.338 253.13,208.667 251.068,208.667C249.005,208.667 247.334,210.338 247.334,212.4L247.334,226.623L254.8,226.623L254.801,226.623Z" fill="#10737F"/>
<path d="M218.518,226.623L218.518,212.4C218.518,210.338 216.847,208.667 214.784,208.667C212.722,208.667 211.051,210.338 211.051,212.4L211.051,226.623L218.517,226.623L218.518,226.623Z" fill="#10737F"/>
<path d="M134.687,267.551C108.632,267.551 83.953,259.169 63.317,243.313C61.388,241.83 61.026,239.064 62.508,237.134C63.992,235.204 66.758,234.842 68.688,236.324C87.769,250.987 110.591,258.739 134.687,258.739C158.783,258.739 181.59,250.987 200.671,236.324C202.6,234.842 205.367,235.204 206.85,237.133C208.333,239.063 207.971,241.829 206.041,243.312C185.406,259.169 160.733,267.551 134.687,267.551L134.687,267.551ZM247.022,145.095C244.758,145.095 242.832,143.36 242.636,141.063C239.328,102.325 215.272,68.148 179.859,51.869C177.647,50.852 176.679,48.236 177.695,46.025C178.712,43.813 181.331,42.845 183.539,43.861C221.83,61.462 247.838,98.42 251.416,140.313C251.624,142.738 249.826,144.872 247.402,145.079C247.274,145.09 247.146,145.095 247.022,145.095ZM22.352,145.079C22.226,145.079 22.099,145.074 21.972,145.063C19.547,144.855 17.75,142.722 17.957,140.297C21.535,98.41 47.539,61.463 85.819,43.876C88.032,42.859 90.647,43.83 91.663,46.041C92.679,48.253 91.71,50.869 89.498,51.885C54.095,68.15 30.047,102.315 26.737,141.048C26.541,143.345 24.616,145.079 22.352,145.079Z" fill="#A79BA7"/>
<path d="M206.006,181.308L193.759,129.142C193.193,126.763 190.78,125.265 188.384,125.831L178.317,128.194C175.921,128.743 174.44,131.172 174.989,133.552L176.403,139.564L173.126,140.757C168.916,142.272 164.722,142.022 160.729,140.009L155.104,137.181C161.92,128.419 166.747,115.96 166.747,99.373C166.747,97.428 165.472,95.712 163.609,95.153L135.77,86.784C134.942,86.535 134.06,86.535 133.232,86.784L105.393,95.153C103.531,95.713 102.255,97.428 102.255,99.373C102.255,115.489 106.81,127.713 113.322,136.431L93.659,136.431L94.335,133.553C94.901,131.173 93.403,128.744 91.007,128.195L80.94,125.832C78.561,125.266 76.148,126.764 75.582,129.143L63.319,181.309C62.769,183.705 64.267,186.118 66.647,186.684L76.714,189.047C79.11,189.613 81.522,188.115 82.089,185.719L83.503,179.695L115.917,212.01C118.779,214.872 123.471,214.872 126.333,211.993C129.195,209.131 129.179,204.439 126.317,201.577C123.455,198.715 134.62,209.863 134.62,209.863C137.482,212.726 142.174,212.709 145.036,209.847C147.898,206.968 147.898,202.292 145.02,199.43L151.127,205.504C153.989,208.366 158.681,208.366 161.543,205.504C164.406,202.625 164.406,197.932 161.527,195.07C164.406,197.932 169.099,197.932 171.96,195.054C174.822,192.192 174.806,187.499 171.944,184.637L171.933,184.626C174.899,187.414 179.059,188.14 182.809,186.484L186.998,184.637L187.252,185.718C187.801,188.114 190.214,189.612 192.61,189.046L202.677,186.683C205.074,186.118 206.571,183.705 206.005,181.308L206.006,181.308Z" fill="#F6DCCD"/>
<path d="M163.61,95.153L135.77,86.784C134.943,86.535 134.061,86.535 133.233,86.784L105.394,95.153C103.532,95.713 102.256,97.428 102.256,99.373C102.256,129.466 118.13,146.002 132.986,151.444C133.475,151.624 133.989,151.713 134.501,151.713C135.014,151.713 135.528,151.623 136.017,151.444C150.873,146.003 166.747,129.466 166.747,99.373C166.747,97.428 165.472,95.712 163.609,95.153L163.61,95.153Z" fill="#8AC9FE"/>
<path d="M176.402,139.567L173.125,140.76C168.915,142.274 164.722,142.025 160.728,140.012L155.103,137.184C149.552,144.319 142.684,149.004 136.016,151.447C135.527,151.626 135.014,151.716 134.501,151.716C133.988,151.716 133.475,151.626 132.986,151.447C128.448,149.785 123.818,147.082 119.572,143.28L106.932,157.45C105.884,158.648 105.467,160.096 105.751,161.66C106.034,163.225 106.932,164.456 108.33,165.188C114.204,168.299 121.392,168.05 127.216,164.19L134.937,159.048C138.93,156.386 144.122,156.902 147.517,160.296L171.711,184.424C174.69,187.386 178.966,188.185 182.809,186.488L186.998,184.641L176.402,139.568L176.402,139.567Z" fill="#E2B8AA"/>
<path d="M75.582,129.142L63.318,181.308C62.77,183.705 64.267,186.117 66.647,186.683L76.713,189.047C79.11,189.612 81.523,188.115 82.088,185.718L94.335,133.552C94.901,131.172 93.403,128.743 91.007,128.194L80.94,125.831C78.56,125.265 76.148,126.763 75.582,129.142Z" fill="#837683"/>
<path d="M91.007,128.195L89.476,127.835L77.682,178.072C77.116,180.468 74.703,181.966 72.307,181.4L63.769,179.396L63.319,181.31C62.769,183.706 64.267,186.118 66.647,186.685L76.714,189.048C79.11,189.613 81.522,188.116 82.089,185.72L94.335,133.553C94.901,131.174 93.403,128.744 91.007,128.195Z" fill="#7A6D7A"/>
<path d="M193.757,129.142L206.005,181.308C206.57,183.705 205.073,186.117 202.676,186.683L192.609,189.047C190.213,189.612 187.8,188.115 187.251,185.718L174.987,133.552C174.438,131.172 175.919,128.743 178.315,128.194L188.382,125.831C190.779,125.265 193.191,126.763 193.757,129.143L193.757,129.142Z" fill="#837683"/>
<path d="M206.006,181.309L193.758,129.142C193.193,126.763 190.78,125.265 188.384,125.831L186.517,126.27L198.507,177.342C199.073,179.738 197.576,182.151 195.179,182.717L186.997,184.637L187.252,185.719C187.801,188.115 190.214,189.612 192.61,189.047L202.677,186.684C205.073,186.118 206.571,183.705 206.005,181.309L206.006,181.309Z" fill="#7A6D7A"/>
<path d="M154.82,201.999L138.185,185.415C137.356,184.588 136.068,184.435 135.068,185.043C133.659,185.901 133.426,187.852 134.594,189.017L151.126,205.499C153.988,208.361 158.68,208.361 161.543,205.499C162.123,204.916 162.579,204.256 162.923,203.554C160.238,204.694 156.999,204.179 154.82,201.999Z" fill="#F1CBBC"/>
<path d="M138.314,206.36L125.23,193.3C124.4,192.473 123.112,192.319 122.111,192.928C120.702,193.785 120.469,195.736 121.636,196.901L134.62,209.859C137.482,212.721 142.174,212.705 145.036,209.842C145.616,209.26 146.072,208.601 146.417,207.9C143.731,209.044 140.492,208.539 138.314,206.36Z" fill="#F1CBBC"/>
<path d="M165.221,191.569L151.15,177.531C150.321,176.704 149.034,176.55 148.032,177.159C146.623,178.016 146.39,179.967 147.558,181.132L161.527,195.068C164.406,197.93 169.098,197.93 171.96,195.051C172.539,194.473 172.995,193.816 173.338,193.118C170.653,194.263 167.412,193.748 165.221,191.569L165.221,191.569Z" fill="#F1CBBC"/>
<path d="M186.01,180.436L179.584,183.269C175.74,184.966 171.464,184.168 168.485,181.206L144.291,157.078C140.897,153.683 135.706,153.168 131.712,155.83L123.991,160.971C118.438,164.652 111.648,165.042 105.937,162.375C106.337,163.597 107.153,164.569 108.328,165.185C114.202,168.297 121.391,168.047 127.215,164.187L134.936,159.045C138.929,156.383 144.121,156.899 147.515,160.294L171.709,184.422C174.688,187.383 178.964,188.182 182.808,186.485L186.997,184.638L186.009,180.436L186.01,180.436Z" fill="#D3A69B"/>
<path d="M119.611,208.512L84.868,173.877L83.502,179.696L115.917,212.011C118.779,214.874 123.471,214.874 126.333,211.995C126.912,211.416 127.367,210.759 127.711,210.061C125.026,211.206 121.789,210.691 119.611,208.512Z" fill="#F1CBBC"/>
<path d="M134.501,151.713C133.988,151.713 133.475,151.623 132.986,151.444C118.13,146.003 102.256,129.466 102.256,99.373C102.256,97.428 103.531,95.712 105.394,95.153L133.233,86.784C134.061,86.535 134.943,86.535 135.77,86.784L163.61,95.153C165.472,95.713 166.748,97.428 166.748,99.373C166.748,129.466 150.874,146.002 136.018,151.444C135.529,151.624 135.015,151.713 134.502,151.713L134.501,151.713ZM111.14,102.628C112.138,125.08 123.426,137.801 134.501,142.565C145.576,137.801 156.864,125.08 157.863,102.628L134.501,95.605L111.14,102.628Z" fill="#60B7FF"/>
<path d="M163.609,95.151L162.114,94.701C163.13,95.564 163.766,96.871 163.766,98.308C163.766,125.555 152.044,142.246 139.32,150.045C153.132,143.474 166.746,127.239 166.746,99.371C166.746,97.426 165.472,95.71 163.609,95.151Z" fill="#49A9EA"/>
<path d="M131.644,130.182C130.506,130.182 129.409,129.741 128.587,128.949L122.201,122.797C120.448,121.109 120.396,118.319 122.085,116.566C123.772,114.813 126.562,114.761 128.316,116.45L131.439,119.459L140.473,109.55C142.113,107.752 144.9,107.622 146.698,109.263C148.497,110.903 148.626,113.69 146.986,115.488L134.901,128.744C134.099,129.623 132.976,130.141 131.787,130.18C131.74,130.181 131.692,130.182 131.644,130.182Z" fill="#D8ECFE"/>
</svg>
