<svg width="280" height="274" viewBox="0 0 280 274" fill="none" xmlns="http://www.w3.org/2000/svg" xmlns:xlink="http://www.w3.org/1999/xlink">
<path d="M72.158,272.736C65.67,272.736 59.949,269.386 56.632,264.332C53.314,269.386 47.593,272.736 41.105,272.736C30.874,272.736 22.551,264.41 22.551,254.182L22.551,133.33C10.274,131.786 0.73,121.26 0.73,108.586L0.73,43.648C0.73,35.964 6.983,29.71 14.668,29.71C22.354,29.71 28.607,35.964 28.607,43.648L28.607,97.86L87.685,97.86C101.386,97.86 112.532,109.005 112.532,122.71L112.532,166.903C112.532,179.583 102.99,190.07 90.712,191.566L90.712,254.182C90.712,264.41 82.389,272.736 72.158,272.736Z" clip-rule="evenodd" fill-rule="evenodd" fill="#10737F"/>
<path d="M72.157,272.736C67.347,272.736 62.959,270.894 59.659,267.882L59.659,200.183C59.659,198.511 58.303,197.153 56.631,197.153C54.959,197.153 53.604,198.511 53.604,200.183L53.604,267.882C50.303,270.894 45.914,272.736 41.104,272.736C30.873,272.736 22.55,264.41 22.55,254.18L22.55,133.329C10.273,131.785 0.729,121.26 0.729,108.585L0.729,43.648C0.729,41.784 1.098,40.006 1.765,38.379C3.606,37.48 5.672,36.976 7.855,36.976C15.541,36.976 21.794,43.23 21.794,50.914L21.794,105.127L80.871,105.127C94.573,105.127 105.719,116.271 105.719,129.977L105.719,174.169C105.719,178.934 104.371,183.389 102.037,187.174C98.759,189.502 94.894,191.056 90.711,191.566L90.711,128.681C90.711,127.009 89.356,125.651 87.684,125.651C86.011,125.651 84.656,127.009 84.656,128.681L85.148,261.448C85.148,264.544 83.136,267.466 81.788,270.034C78.979,271.748 75.681,272.736 72.157,272.736Z" clip-rule="evenodd" fill-rule="evenodd" fill="#128593"/>
<path d="M56.631,103.915C43.468,103.915 32.76,93.206 32.76,80.043C32.76,66.882 43.468,56.173 56.631,56.173C69.794,56.173 80.501,66.882 80.501,80.043C80.501,93.206 69.794,103.915 56.631,103.915Z" clip-rule="evenodd" fill-rule="evenodd" fill="#D9B7A9"/>
<path d="M56.631,103.915C43.468,103.915 32.76,93.206 32.76,80.043C32.76,71.589 37.179,64.148 43.828,59.905C46.211,59.105 48.759,58.671 51.408,58.671C64.57,58.671 75.278,69.38 75.278,82.541C75.278,90.997 70.859,98.439 64.209,102.682C61.828,103.481 59.279,103.915 56.631,103.915Z" clip-rule="evenodd" fill-rule="evenodd" fill="#F1CBBC"/>
<path d="M70.552,48.752C70.032,48.752 69.511,48.619 69.041,48.35L56.631,41.21L44.22,48.35C43.185,48.944 41.897,48.875 40.931,48.175C39.965,47.472 39.502,46.27 39.748,45.1L42.702,31.09L32.077,21.492C31.191,20.692 30.859,19.445 31.227,18.309C31.597,17.173 32.598,16.362 33.786,16.234L48.022,14.715L53.867,1.646C54.354,0.555 55.436,-0.148 56.631,-0.148C57.824,-0.148 58.906,0.555 59.395,1.646L65.239,14.715L79.476,16.234C80.663,16.362 81.665,17.173 82.035,18.309C82.403,19.445 82.07,20.692 81.185,21.492L70.56,31.089L73.514,45.1C73.76,46.269 73.297,47.472 72.33,48.174C71.803,48.558 71.178,48.752 70.552,48.752Z" clip-rule="evenodd" fill-rule="evenodd" fill="#E6BD5C"/>
<path d="M70.551,48.752C70.031,48.752 69.511,48.619 69.041,48.35L56.631,41.21L44.22,48.35C43.185,48.944 41.897,48.875 40.931,48.175C39.965,47.472 39.501,46.27 39.748,45.1L42.702,31.09L32.077,21.492C31.503,20.973 31.161,20.268 31.092,19.526C31.428,19.346 31.801,19.229 32.196,19.186L46.715,17.637L52.99,3.605C53.539,3.099 54.266,2.804 55.041,2.804C56.235,2.804 57.317,3.506 57.806,4.598L63.65,17.667L77.887,19.186C79.074,19.314 80.076,20.125 80.446,21.261C80.528,21.514 80.575,21.772 80.589,22.03L68.702,32.768L71.925,48.052C71.949,48.167 71.966,48.281 71.977,48.396C71.533,48.632 71.043,48.752 70.551,48.752Z" clip-rule="evenodd" fill-rule="evenodd" fill="#FFD266"/>
<path d="M276.249,270.164L199.189,270.164C197.516,270.164 196.161,268.805 196.161,267.137C196.161,244.222 214.804,225.577 237.718,225.577C260.634,225.577 279.275,244.222 279.275,267.137C279.275,268.805 277.921,270.164 276.249,270.164Z" clip-rule="evenodd" fill-rule="evenodd" fill="#10737F"/>
<path d="M185.033,270.164L107.973,270.164C106.301,270.164 104.945,268.805 104.945,267.137C104.945,244.222 123.588,225.577 146.503,225.577C169.418,225.577 188.061,244.222 188.061,267.137C188.061,268.805 186.705,270.164 185.033,270.164Z" clip-rule="evenodd" fill-rule="evenodd" fill="#10737F"/>
<path d="M212.663,234.004C218.115,231.369 224.228,229.891 230.679,229.891C253.164,229.891 271.532,247.843 272.215,270.164L199.189,270.164C197.516,270.164 196.161,268.805 196.161,267.136C196.162,253.625 202.645,241.599 212.663,234.004Z" clip-rule="evenodd" fill-rule="evenodd" fill="#128593"/>
<path d="M180.999,270.164L107.973,270.164C106.301,270.164 104.945,268.805 104.945,267.136C104.945,253.625 111.429,241.6 121.446,234.004C126.9,231.369 133.012,229.891 139.464,229.891C161.948,229.891 180.317,247.843 180.999,270.164Z" clip-rule="evenodd" fill-rule="evenodd" fill="#128593"/>
<path d="M237.718,231.633C225.674,231.633 215.875,221.835 215.875,209.791C215.875,197.747 225.674,187.948 237.718,187.948C249.763,187.948 259.563,197.746 259.563,209.791C259.563,221.835 249.763,231.633 237.718,231.633Z" clip-rule="evenodd" fill-rule="evenodd" fill="#D9B7A9"/>
<path d="M146.503,231.633C134.457,231.633 124.659,221.835 124.659,209.791C124.659,197.747 134.457,187.948 146.503,187.948C158.546,187.948 168.346,197.746 168.346,209.791C168.346,221.835 158.546,231.633 146.503,231.633Z" clip-rule="evenodd" fill-rule="evenodd" fill="#D9B7A9"/>
<path d="M228.522,189.981C229.524,189.839 230.547,189.764 231.586,189.764C243.631,189.764 253.431,199.562 253.431,211.607C253.431,220.368 248.245,227.939 240.782,231.416C239.781,231.557 238.758,231.632 237.717,231.632C225.673,231.632 215.874,221.835 215.874,209.79C215.874,201.029 221.06,193.458 228.522,189.981Z" clip-rule="evenodd" fill-rule="evenodd" fill="#F1CBBC"/>
<path d="M146.503,231.632C134.457,231.632 124.659,221.835 124.659,209.79C124.659,201.029 129.844,193.458 137.307,189.981C138.309,189.839 139.331,189.764 140.372,189.764C152.415,189.764 162.215,199.562 162.215,211.607C162.215,220.368 157.028,227.939 149.566,231.416C148.565,231.558 147.542,231.632 146.503,231.632Z" clip-rule="evenodd" fill-rule="evenodd" fill="#F1CBBC"/>
</svg>
