<svg width="280" height="274" viewBox="0 0 280 274" fill="none" xmlns="http://www.w3.org/2000/svg" xmlns:xlink="http://www.w3.org/1999/xlink">
<path d="M72.212,273.658C65.725,273.658 60.004,270.308 56.686,265.254C53.369,270.308 47.648,273.658 41.16,273.658C30.929,273.658 22.606,265.332 22.606,255.104L22.606,134.251C10.328,132.707 0.785,122.182 0.785,109.507L0.785,44.57C0.785,36.886 7.038,30.632 14.723,30.632C22.409,30.632 28.662,36.886 28.662,44.57L28.662,98.782L87.739,98.782C101.441,98.782 112.587,109.926 112.587,123.632L112.587,167.825C112.587,180.505 103.045,190.991 90.767,192.488L90.767,255.104C90.767,265.332 82.443,273.658 72.212,273.658Z" clip-rule="evenodd" fill-rule="evenodd" fill="#10737F"/>
<path d="M72.213,273.658C67.403,273.658 63.015,271.816 59.715,268.804L59.715,201.105C59.715,199.433 58.359,198.075 56.687,198.075C55.015,198.075 53.659,199.433 53.659,201.105L53.659,268.804C50.359,271.816 45.97,273.658 41.16,273.658C30.929,273.658 22.606,265.332 22.606,255.102L22.606,134.251C10.328,132.707 0.785,122.182 0.785,109.507L0.785,44.57C0.785,42.706 1.154,40.927 1.821,39.301C3.661,38.402 5.728,37.898 7.91,37.898C15.597,37.898 21.849,44.152 21.849,51.836L21.849,106.049L80.927,106.049C94.629,106.049 105.775,117.193 105.775,130.899L105.775,175.091C105.775,179.856 104.427,184.311 102.093,188.096C98.815,190.424 94.95,191.978 90.767,192.488L90.767,129.603C90.767,127.931 89.411,126.573 87.739,126.573C86.067,126.573 84.712,127.931 84.712,129.603L85.204,262.37C85.204,265.466 83.191,268.388 81.844,270.956C79.035,272.67 75.737,273.658 72.213,273.658Z" clip-rule="evenodd" fill-rule="evenodd" fill="#128593"/>
<path d="M56.688,104.837C43.525,104.837 32.816,94.128 32.816,80.965C32.816,67.804 43.525,57.095 56.688,57.095C69.85,57.095 80.558,67.804 80.558,80.965C80.558,94.128 69.85,104.837 56.688,104.837Z" clip-rule="evenodd" fill-rule="evenodd" fill="#D9B7A9"/>
<path d="M56.688,104.837C43.525,104.837 32.816,94.128 32.816,80.965C32.816,72.511 37.236,65.07 43.884,60.827C46.267,60.027 48.816,59.593 51.464,59.593C64.627,59.593 75.335,70.302 75.335,83.463C75.335,91.919 70.915,99.361 64.266,103.604C61.885,104.403 59.336,104.837 56.688,104.837Z" clip-rule="evenodd" fill-rule="evenodd" fill="#F1CBBC"/>
<path d="M70.607,49.674C70.088,49.674 69.567,49.541 69.097,49.271L56.687,42.131L44.276,49.271C43.241,49.865 41.953,49.796 40.987,49.096C40.021,48.394 39.558,47.191 39.804,46.022L42.758,32.012L32.133,22.413C31.247,21.614 30.915,20.367 31.282,19.231C31.652,18.095 32.654,17.284 33.841,17.156L48.078,15.637L53.922,2.568C54.41,1.476 55.492,0.773 56.686,0.773C57.88,0.773 58.962,1.476 59.451,2.568L65.295,15.637L79.532,17.156C80.719,17.284 81.721,18.095 82.091,19.231C82.459,20.367 82.126,21.614 81.24,22.413L70.616,32.011L73.569,46.021C73.816,47.191 73.353,48.393 72.386,49.096C71.859,49.48 71.234,49.674 70.607,49.674Z" clip-rule="evenodd" fill-rule="evenodd" fill="#E6BD5C"/>
<path d="M70.608,49.674C70.088,49.674 69.567,49.541 69.097,49.271L56.687,42.131L44.276,49.271C43.242,49.865 41.954,49.796 40.987,49.096C40.021,48.394 39.558,47.191 39.805,46.022L42.758,32.012L32.134,22.414C31.56,21.895 31.218,21.19 31.148,20.448C31.485,20.268 31.858,20.151 32.252,20.108L46.771,18.559L53.047,4.527C53.596,4.021 54.323,3.725 55.098,3.725C56.291,3.725 57.374,4.428 57.862,5.52L63.706,18.589L77.944,20.108C79.13,20.236 80.133,21.047 80.503,22.183C80.584,22.436 80.632,22.694 80.645,22.952L68.759,33.69L71.981,48.974C72.006,49.088 72.023,49.203 72.034,49.318C71.59,49.554 71.099,49.674 70.608,49.674Z" clip-rule="evenodd" fill-rule="evenodd" fill="#FFD266"/>
<path d="M276.304,271.085L199.244,271.085C197.572,271.085 196.217,269.727 196.217,268.058C196.217,245.144 214.859,226.499 237.773,226.499C260.689,226.499 279.331,245.144 279.331,268.058C279.331,269.727 277.976,271.085 276.304,271.085Z" clip-rule="evenodd" fill-rule="evenodd" fill="#10737F"/>
<path d="M185.088,271.085L108.028,271.085C106.356,271.085 105,269.727 105,268.058C105,245.144 123.643,226.499 146.558,226.499C169.473,226.499 188.115,245.144 188.115,268.058C188.115,269.727 186.759,271.085 185.088,271.085Z" clip-rule="evenodd" fill-rule="evenodd" fill="#10737F"/>
<path d="M212.718,234.926C218.171,232.291 224.283,230.813 230.735,230.813C253.219,230.813 271.587,248.765 272.27,271.086L199.244,271.086C197.572,271.086 196.217,269.727 196.217,268.058C196.217,254.547 202.7,242.521 212.718,234.926Z" clip-rule="evenodd" fill-rule="evenodd" fill="#128593"/>
<path d="M181.054,271.086L108.028,271.086C106.356,271.086 105,269.727 105,268.058C105,254.547 111.483,242.522 121.501,234.926C126.954,232.291 133.067,230.813 139.519,230.813C162.003,230.813 180.372,248.765 181.054,271.086Z" clip-rule="evenodd" fill-rule="evenodd" fill="#128593"/>
<path d="M237.775,232.555C225.73,232.555 215.932,222.757 215.932,210.712C215.932,198.668 225.73,188.87 237.775,188.87C249.82,188.87 259.619,198.668 259.619,210.712C259.619,222.757 249.82,232.555 237.775,232.555Z" clip-rule="evenodd" fill-rule="evenodd" fill="#D9B7A9"/>
<path d="M146.558,232.555C134.512,232.555 124.715,222.757 124.715,210.712C124.715,198.668 134.513,188.87 146.558,188.87C158.602,188.87 168.401,198.668 168.401,210.712C168.401,222.757 158.602,232.555 146.558,232.555Z" clip-rule="evenodd" fill-rule="evenodd" fill="#D9B7A9"/>
<path d="M228.578,190.902C229.58,190.761 230.602,190.686 231.642,190.686C243.687,190.686 253.486,200.484 253.486,212.528C253.486,221.29 248.3,228.861 240.838,232.338C239.836,232.479 238.813,232.554 237.773,232.554C225.728,232.554 215.93,222.757 215.93,210.712C215.93,201.95 221.115,194.379 228.578,190.902Z" clip-rule="evenodd" fill-rule="evenodd" fill="#F1CBBC"/>
<path d="M146.558,232.554C134.512,232.554 124.715,222.757 124.715,210.712C124.715,201.95 129.9,194.379 137.363,190.902C138.364,190.761 139.387,190.686 140.427,190.686C152.471,190.686 162.27,200.484 162.27,212.528C162.27,221.29 157.084,228.861 149.622,232.338C148.621,232.48 147.598,232.554 146.558,232.554Z" clip-rule="evenodd" fill-rule="evenodd" fill="#F1CBBC"/>
</svg>
