<svg width="1536" height="886" viewBox="0 0 1536 886" fill="none" xmlns="http://www.w3.org/2000/svg" xmlns:xlink="http://www.w3.org/1999/xlink">
<g opacity="0.5">
<path d="M957.186,490.523C945.364,498.708 929.598,501.134 915.654,496.889C914.138,496.283 912.32,495.677 911.712,494.161C910.5,492.039 912.32,489.614 912.622,487.188C913.532,480.216 903.528,477.184 900.496,471.121C899.284,468.696 899.284,465.665 898.98,462.936C897.162,438.381 884.43,416.554 873.516,394.423C872.606,392.908 872,391.089 872.302,389.27C872.606,387.451 874.728,385.935 876.244,386.844C875.032,391.089 877.76,395.939 881.7,397.152C883.52,390.179 884.43,380.781 878.062,377.144C875.94,375.931 873.212,375.628 870.788,375.628C861.086,375.021 851.082,375.628 841.382,377.144C839.866,377.447 838.047,377.75 836.531,376.84C835.318,376.234 834.712,374.718 833.803,373.506C831.377,370.171 825.011,368.655 821.677,371.384C818.039,374.415 820.767,381.085 813.491,381.994C809.55,382.6 805.609,380.478 801.972,378.356C798.031,376.234 794.393,373.809 791.361,370.474C790.452,369.262 789.542,368.049 788.33,367.139C785.904,365.624 782.57,366.533 779.538,366.23C776.507,366.23 772.869,364.108 773.778,361.076C774.081,360.167 774.688,359.561 775.294,358.651C778.932,352.891 774.081,344.706 767.412,342.584C760.743,340.462 753.77,342.584 747.101,344.706C737.097,347.738 727.396,351.072 717.392,354.104C713.754,355.317 709.813,356.529 705.872,355.62C702.537,355.013 699.202,353.194 696.171,354.407C692.23,356.529 692.836,362.592 690.411,366.23C687.986,369.868 683.135,371.08 680.71,374.718C677.982,378.962 679.497,384.419 679.194,389.573C678.588,399.274 670.706,406.549 663.733,413.219C656.761,419.888 649.485,428.68 651.304,438.381C651.91,441.412 653.123,444.141 653.426,447.172C653.729,449.597 652.82,452.023 652.213,454.448C650.091,462.027 647.969,469.606 646.15,476.881C653.123,489.007 660.702,500.83 668.887,512.047C672.828,517.504 677.375,523.264 683.135,526.902C688.895,530.843 696.171,532.965 702.84,531.146C705.872,530.236 708.6,528.721 711.632,528.417C715.876,528.114 720.12,529.933 724.364,529.933C729.518,529.63 733.762,526.598 737.703,523.567C741.644,520.535 746.191,517.504 751.042,517.201C756.195,517.201 761.349,521.445 760.439,526.295C760.136,527.508 759.833,528.417 759.833,529.63C760.136,532.055 763.168,532.662 765.593,532.358C768.018,532.055 770.444,531.146 772.566,532.358C775.294,533.874 775.9,537.815 774.688,540.847C773.475,545.091 770.747,548.425 768.625,552.367C766.806,556.307 765.896,561.159 768.625,564.795C769.837,566.615 771.959,567.827 773.778,569.343C776.507,571.769 778.326,575.407 779.538,578.741C785.298,593.595 786.814,610.269 783.479,626.033C781.963,633.005 777.719,638.463 776.203,645.131C774.688,652.407 780.448,660.289 783.782,666.353C788.936,675.447 791.967,685.451 792.574,695.759C792.877,700.003 792.877,704.247 794.696,707.885C796.212,710.613 798.334,712.735 800.456,715.161C808.035,724.255 808.944,736.987 809.55,748.811C811.066,750.933 814.401,750.933 816.826,749.719C819.251,748.507 821.07,746.689 823.495,745.475C829.255,742.445 836.531,743.959 842.897,743.353C854.114,742.141 864.118,732.743 865.936,721.527C866.542,718.495 866.542,715.161 867.756,712.431C869.878,708.187 874.728,705.157 875.334,700.609C875.638,698.789 875.032,696.667 875.638,694.849C876.85,689.089 885.944,687.271 886.552,681.207C886.854,678.479 885.338,675.751 884.126,673.021C880.792,665.139 883.52,655.439 890.492,650.285C892.918,648.467 895.948,647.253 898.678,645.435C911.106,636.643 910.804,617.847 905.65,603.599C903.528,598.143 900.8,592.383 901.406,586.319C901.708,582.379 903.224,578.741 905.044,575.103C909.59,566.311 915.958,558.429 923.536,552.367C928.386,548.425 934.146,544.787 937.178,538.725C938.996,535.087 939.3,531.146 940.816,527.508C943.24,520.839 948.394,515.382 952.638,509.622C956.882,504.771 959.914,497.193 957.186,490.523ZM884.126,635.733C883.822,638.159 881.094,640.585 878.972,639.069C878.972,632.399 877.456,626.033 875.94,619.667C875.334,616.635 874.728,613.603 873.818,610.573C873.516,609.057 873.212,607.541 871.696,606.935C870.788,606.327 869.574,606.631 868.666,606.025C867.452,605.115 867.452,602.993 866.542,602.083C865.028,600.569 862.602,601.175 860.784,599.961C858.964,598.749 858.66,596.627 858.358,594.505L855.63,572.375C855.63,571.465 855.326,570.555 855.932,569.949C856.538,569.041 857.448,568.737 858.358,568.433C862.298,566.917 865.634,563.887 867.452,560.249C868.362,558.733 868.666,556.913 869.878,555.399C873.516,550.245 878.67,551.761 879.276,556.913C879.882,563.887 877.154,562.977 873.212,565.403C870.18,567.221 865.028,570.555 862.906,573.587C859.874,578.437 862.602,579.651 864.724,584.197C866.846,588.441 864.724,594.201 868.058,597.839C870.18,600.265 873.516,600.569 875.94,602.083C879.882,604.509 881.398,609.663 881.7,614.513C882.004,619.363 881.398,624.215 882.61,628.761C883.52,630.883 884.43,633.309 884.126,635.733Z" fill="#10737F" fill-opacity="0.14"/>
<path d="M923.232,646.042C920.807,650.589 925.961,656.046 925.354,661.503C925.051,666.96 918.685,670.294 917.472,675.751C916.866,677.873 917.472,680.298 917.775,682.42C918.685,686.665 920.201,690.606 922.02,694.547C922.626,695.759 923.232,696.972 924.445,697.881C927.476,700.913 932.933,699.7 935.965,696.669C938.996,693.637 940.209,689.393 940.815,685.149C941.421,680.905 941.725,676.661 943.24,672.72C945.666,666.96 951.122,662.109 950.819,656.046C950.516,653.015 949,649.983 948.394,646.951C947.788,643.92 948.394,639.979 951.122,638.766C951.425,640.888 951.729,642.707 952.032,644.829C960.217,642.404 950.213,615.727 941.421,629.065C937.784,634.522 941.421,638.16 934.449,641.191C930.811,642.404 925.657,641.798 923.232,646.042Z" fill="#53A2AB" fill-opacity="0.44"/>
<path d="M1535.907,171.605C1535.605,170.695 1534.997,170.089 1534.391,169.483C1529.541,164.936 1524.085,161.298 1518.325,157.963C1521.963,157.66 1525.903,157.357 1528.935,155.538C1532.269,153.719 1534.695,150.384 1534.391,146.746C1533.483,140.38 1524.691,136.742 1525.601,130.679C1525.903,127.951 1528.329,124.919 1527.115,122.494C1526.207,120.675 1524.085,120.372 1521.963,120.069C1511.655,118.553 1501.347,117.34 1491.343,115.825C1491.647,119.766 1490.737,124.01 1487.403,126.435C1484.371,128.86 1478.915,127.951 1477.399,124.313C1476.793,123.1 1476.793,121.585 1475.883,120.372C1474.063,117.947 1470.427,119.462 1467.697,120.372C1461.635,122.797 1454.663,122.797 1448.903,120.372C1447.689,119.766 1446.477,119.159 1445.871,117.947C1445.265,116.128 1446.477,114.309 1446.477,112.49C1446.781,109.458 1443.445,106.73 1440.111,106.427C1437.079,106.124 1433.745,107.336 1430.713,108.549C1421.921,111.277 1411.311,111.884 1404.035,106.124C1401.913,104.305 1400.095,102.183 1397.669,100.667C1394.335,98.545 1390.393,98.242 1386.453,97.635C1376.449,96.726 1366.747,95.513 1356.743,94.604C1355.833,94.604 1354.621,94.301 1354.015,94.907C1352.803,95.816 1353.105,97.635 1352.499,99.151C1351.589,102.183 1348.255,103.698 1345.223,103.698C1342.191,104.002 1339.161,103.092 1336.129,103.395C1334.007,103.698 1331.581,104.608 1329.459,104.305C1327.035,104.305 1324.609,102.486 1324.913,100.364C1322.183,102.183 1320.061,105.517 1320.061,108.852C1314.301,109.458 1307.027,105.517 1308.239,99.757C1308.541,98.242 1309.451,97.029 1309.451,95.513C1310.361,86.419 1287.321,84.297 1282.167,88.238C1280.651,89.45 1279.743,90.663 1278.227,91.875C1272.769,96.726 1262.463,94.907 1259.127,88.238C1250.943,87.328 1242.757,87.328 1234.875,88.238C1231.541,82.781 1223.053,85.206 1217.595,88.844C1212.139,92.179 1204.257,95.816 1200.013,90.663C1213.655,87.631 1226.993,81.265 1237.907,72.474C1239.119,71.564 1240.333,70.352 1240.029,68.836C1239.725,67.926 1239.119,67.017 1238.211,66.714C1233.057,63.076 1226.691,61.257 1220.627,61.56C1216.079,61.56 1210.623,62.47 1207.895,59.135C1206.075,57.013 1205.773,53.678 1203.651,51.859C1201.529,50.04 1198.497,50.647 1195.769,50.95C1190.009,51.859 1183.945,53.072 1178.185,53.981C1177.277,54.284 1176.367,54.284 1175.761,54.891C1174.851,55.8 1174.851,57.316 1174.851,58.529C1174.245,66.411 1164.543,71.867 1157.571,68.23C1155.449,67.017 1153.631,65.198 1151.205,64.592C1148.173,63.682 1145.141,64.592 1142.111,65.804C1129.985,70.048 1117.857,74.293 1105.731,78.537C1109.067,80.659 1113.311,81.568 1116.949,80.356C1118.161,82.478 1115.129,84.297 1112.705,84.6C1103.307,86.419 1094.211,88.541 1084.815,90.36C1089.967,94.301 1095.121,98.545 1100.275,103.092C1102.701,101.273 1104.823,105.821 1103.913,108.549C1103.003,111.277 1101.487,114.915 1103.609,116.734C1100.881,115.825 1098.455,113.703 1096.941,110.974C1098.455,109.762 1099.971,108.852 1101.487,107.639C1098.153,108.246 1094.819,106.124 1093.605,103.092C1087.543,101.88 1082.085,99.454 1077.235,95.816C1076.325,97.939 1077.539,100.97 1079.963,101.88C1077.841,102.183 1075.719,102.486 1073.295,102.789C1073.901,106.124 1076.933,108.852 1080.569,109.458C1076.325,110.671 1071.475,109.458 1067.837,106.73C1071.173,101.88 1066.321,93.998 1060.561,94.907C1063.897,95.21 1064.503,100.061 1062.987,103.092C1061.471,106.124 1059.045,108.852 1059.045,112.187C1059.045,116.431 1062.987,121.281 1059.653,124.01C1063.593,127.344 1070.869,121.281 1074.203,125.222C1075.113,126.435 1075.417,128.254 1075.719,129.77C1076.933,134.317 1082.085,137.349 1086.633,136.742C1083.905,140.986 1077.539,136.742 1074.811,132.801C1071.779,128.86 1065.413,124.616 1062.987,128.86C1062.077,130.376 1062.381,131.892 1062.381,133.711C1062.077,145.534 1048.435,154.931 1037.523,150.687C1041.767,145.534 1051.467,147.656 1054.801,141.896C1056.015,139.471 1055.711,136.742 1055.409,134.014C1054.195,125.222 1052.983,116.431 1051.467,107.639C1052.377,103.698 1052.377,99.454 1052.377,95.513C1047.829,97.029 1040.251,97.029 1040.553,92.179C1036.612,98.545 1032.671,105.214 1028.73,111.58C1026.305,115.521 1024.486,121.585 1028.73,123.707C1031.459,122.494 1034.793,124.919 1035.4,127.648C1036.309,130.376 1035.097,133.408 1033.884,136.136C1028.124,119.766 998.112,127.344 990.533,111.884C986.895,113.399 990.23,118.856 993.868,120.069C997.506,121.281 1002.356,123.707 1001.143,127.344C1000.234,130.073 996.293,130.073 993.261,130.073C984.773,129.467 975.982,131.589 968.403,135.833C967.796,132.801 967.19,129.77 966.281,126.738C959.914,131.285 953.851,135.53 947.485,140.077C944.454,142.199 941.119,144.321 937.481,144.927C933.843,145.231 929.599,143.108 928.993,139.471C928.386,135.833 933.843,132.498 936.268,135.53C937.178,128.86 928.083,123.1 922.323,127.041C925.961,133.408 926.264,141.593 922.626,147.959C921.414,150.384 919.292,152.506 916.563,153.113C913.835,153.416 910.804,151.294 911.41,148.565C908.075,151.597 906.256,156.144 906.256,160.691C900.799,162.51 894.13,160.388 890.795,155.538C891.098,158.266 891.705,160.691 892.008,163.42C888.067,167.664 879.275,164.632 878.972,158.872C878.972,157.054 879.275,155.538 879.275,153.719C879.275,147.959 874.122,143.412 869.271,140.077C876.244,142.805 883.52,145.534 890.492,148.262C894.433,149.778 898.677,151.294 902.921,150.384C908.985,149.172 912.926,140.986 907.469,136.742C897.768,129.163 886.551,123.403 874.728,120.069C871.393,119.159 867.756,118.25 864.421,119.462C861.693,120.372 858.055,122.191 856.539,119.766C859.267,120.069 862.299,119.159 864.118,117.037C858.358,115.825 852.598,114.915 846.535,114.612C839.865,120.675 835.015,129.163 837.137,137.652C840.169,150.99 857.448,161.904 851.082,174.03C857.145,172.818 863.208,171.302 868.968,172.818C872,173.727 875.031,175.546 877.153,177.971L877.153,177.668C878.972,177.062 880.791,176.455 882.61,177.062C884.429,177.668 885.945,179.487 885.035,181.306C884.429,182.518 882.913,183.428 883.52,184.641C883.823,185.247 884.732,185.55 885.642,185.853C887.764,186.46 888.976,189.188 888.067,191.31C885.035,191.007 881.701,191.007 878.669,190.704C877.76,193.129 876.244,195.251 875.031,197.373C870.787,206.771 873.819,217.684 874.122,228.295C874.425,233.752 873.212,239.511 870.484,244.059C871.09,244.059 871.697,243.756 872.303,243.756C884.126,241.634 897.465,244.665 904.74,254.366C912.016,263.764 909.591,280.436 898.374,284.682C894.13,286.5 889.28,286.196 885.339,288.622C883.823,289.532 882.61,291.35 882.004,293.17C889.28,289.228 896.555,285.288 904.74,283.772C902.921,287.712 899.587,290.44 895.343,291.654C896.555,292.562 896.252,294.686 895.04,295.594C893.827,296.504 892.008,296.2 890.492,295.898C888.976,295.594 887.157,295.292 885.642,295.594C884.126,295.898 883.216,297.11 882.61,298.322C882.307,298.93 882.307,299.536 882.307,300.142C882.307,300.446 882.307,301.052 882.61,301.354C886.854,298.02 893.221,297.716 897.465,301.052C898.98,302.264 900.496,304.082 902.012,305.296C903.831,306.508 906.559,307.114 907.772,308.934C909.288,310.752 908.075,314.39 905.953,314.086C905.953,315.3 907.166,315.906 908.075,316.21C909.288,316.512 910.5,316.21 911.41,316.816C913.835,318.028 913.229,321.666 911.41,323.484C909.288,325 906.559,325.304 903.831,325.304C896.858,325.304 889.886,325.606 883.52,322.576C880.488,321.362 877.76,319.24 874.728,318.332C871.697,317.118 868.059,317.118 865.33,319.24C864.118,320.15 863.511,321.666 862.299,322.576C859.57,325 855.023,325.606 851.992,323.484C849.566,321.666 848.354,318.332 848.96,315.3C846.232,318.332 843.806,321.666 841.988,325.304C843.503,329.548 845.019,334.096 846.535,338.34C847.141,339.856 847.444,341.068 848.051,342.584C849.566,346.828 851.992,351.678 856.236,351.982C861.996,352.284 867.452,344.706 872,351.678C872.909,352.89 873.212,354.71 873.212,356.226C873.212,359.256 877.457,363.198 879.882,360.772C879.579,358.65 879.275,356.226 880.488,354.104C881.398,351.982 884.429,350.768 886.248,352.284C887.461,353.194 887.764,355.012 887.764,356.528C887.764,358.65 887.764,361.076 887.461,363.198C886.854,368.654 884.732,374.112 880.185,376.84C876.547,378.962 871.697,380.78 874.425,385.328C875.031,386.238 877.76,385.024 878.366,386.238C880.185,388.662 878.972,391.088 878.972,393.816C879.275,399.576 885.945,402.608 889.583,407.156C894.736,413.522 893.524,422.616 895.949,430.498C901.103,446.262 920.808,456.57 919.898,472.94C919.595,479.306 916.26,487.492 921.717,491.128C925.355,493.554 930.205,491.736 934.146,489.916C941.422,486.582 949.001,483.246 956.277,479.61C959.308,478.094 962.34,476.578 963.855,473.85C964.765,472.334 964.765,470.514 965.978,469.302C967.493,467.482 970.525,467.18 972.95,466.27C978.407,464.452 982.045,459.298 984.773,454.144C987.805,448.688 989.927,442.928 991.746,436.864C992.049,435.348 992.655,433.53 992.049,432.014C990.533,426.254 980.226,425.648 979.923,419.584C979.619,417.16 981.438,414.734 982.348,412.308C983.257,409.884 982.348,406.246 979.619,406.548C978.104,411.096 976.588,415.644 972.95,418.978C969.615,422.312 963.855,423.526 960.218,420.798C957.489,418.676 956.58,415.038 954.761,412.006C952.032,407.458 946.576,404.73 944.15,400.182C941.725,395.332 945.363,387.45 950.213,389.572C952.639,398.364 958.702,406.246 966.887,410.794C972.041,408.974 976.588,406.852 981.135,404.124C983.257,402.304 986.289,405.64 986.592,408.67C986.895,411.702 986.289,415.038 988.714,416.856C989.927,417.766 991.442,417.766 992.958,417.766C1005.084,417.766 1017.211,416.25 1029.034,413.522C1026.608,420.494 1032.975,428.982 1040.553,428.68C1039.645,431.71 1036.612,433.832 1033.884,433.832C1035.4,436.562 1036.915,439.592 1039.341,441.412C1042.069,443.23 1046.011,443.836 1048.133,441.412C1050.255,439.29 1050.557,435.348 1053.287,434.136C1056.621,432.924 1059.653,436.864 1059.349,440.2C1059.045,443.836 1056.923,446.566 1055.711,449.9C1053.287,456.57 1055.409,464.148 1057.833,470.818C1062.077,483.854 1066.321,497.496 1075.113,508.408C1078.145,505.378 1081.177,502.648 1084.511,499.618C1088.755,500.224 1088.755,506.286 1087.543,510.228C1086.329,514.168 1084.815,519.626 1088.451,522.05C1091.787,523.87 1096.031,520.838 1096.941,517.2C1097.547,513.562 1096.031,509.924 1094.211,506.286C1092.089,502.042 1089.967,497.496 1087.845,493.252C1087.239,491.736 1086.329,490.22 1086.329,488.4C1086.329,486.884 1087.239,485.672 1087.845,484.46C1089.665,480.216 1090.271,475.364 1089.665,470.818C1101.185,465.058 1110.583,455.66 1116.343,444.444C1117.251,442.624 1118.161,440.806 1119.677,439.896C1124.225,436.562 1132.107,441.412 1136.351,437.168C1142.111,439.29 1146.961,443.836 1149.689,449.294C1151.811,453.234 1153.631,458.692 1157.875,458.994C1150.901,461.722 1146.355,469.302 1146.961,476.578C1153.933,478.396 1161.513,471.728 1160.905,464.754C1163.635,463.238 1167.271,465.058 1168.485,467.786C1170.001,470.514 1169.697,473.85 1169.697,476.88C1169.091,486.278 1168.485,495.676 1168.181,504.77C1167.879,507.5 1167.879,510.53 1169.395,512.956C1170.909,515.078 1173.639,516.29 1174.547,518.716C1176.063,522.354 1173.031,526.902 1174.851,530.236C1175.761,532.054 1177.883,532.662 1179.701,534.176C1183.037,536.906 1184.249,541.452 1186.673,545.09C1189.099,548.728 1194.859,551.154 1197.587,547.516C1191.827,542.968 1188.189,535.996 1187.887,528.72C1187.887,526.902 1187.887,525.386 1187.281,523.87C1186.371,522.05 1184.551,520.838 1183.037,519.322C1173.941,511.138 1175.155,496.888 1176.973,484.762C1181.217,490.826 1187.887,495.07 1195.163,496.586C1192.737,501.436 1194.859,507.802 1199.407,510.53C1199.709,505.68 1203.347,501.436 1207.895,500.224C1210.017,499.618 1212.139,499.618 1213.957,498.708C1219.717,496.282 1220.323,488.704 1220.021,482.64C1220.021,480.216 1219.717,477.79 1218.505,475.668C1216.383,472.334 1211.835,471.728 1208.501,469.604C1202.437,465.968 1199.407,457.782 1201.831,451.112C1204.257,444.444 1211.835,440.2 1218.809,441.714C1221.233,442.624 1220.021,446.262 1218.201,447.778C1216.079,449.294 1213.351,450.204 1212.441,452.628C1211.229,455.964 1215.171,459.6 1218.505,458.692C1221.839,458.086 1224.265,454.448 1224.265,450.81C1224.569,447.172 1223.355,443.836 1221.839,440.502C1229.115,442.018 1237.301,439.592 1242.455,433.832C1243.969,432.318 1245.183,430.498 1247.001,429.286C1250.639,427.164 1255.793,428.376 1258.521,425.344C1260.643,423.222 1260.643,419.584 1261.249,416.25C1262.463,410.49 1267.009,405.942 1269.739,400.788C1272.467,395.636 1274.891,387.45 1273.679,381.69C1272.769,377.446 1270.345,373.506 1268.829,369.564C1267.617,366.532 1267.009,363.804 1266.707,360.47C1266.403,359.256 1266.403,357.742 1267.009,356.832C1267.919,354.71 1270.647,354.406 1272.467,353.194C1275.195,351.374 1276.711,347.738 1275.801,344.402C1267.919,347.13 1258.825,345.008 1252.761,339.248C1254.581,335.914 1258.521,334.398 1261.857,332.58C1265.191,330.76 1268.829,328.032 1268.525,324.092C1270.647,324.092 1272.769,324.092 1274.891,324.092C1275.195,327.728 1273.375,331.064 1270.647,333.186C1273.679,335.61 1277.923,333.186 1281.257,331.366C1284.593,329.548 1290.353,329.548 1290.959,333.488C1291.261,337.126 1285.805,339.552 1286.411,343.19C1290.353,341.978 1294.597,347.13 1292.475,350.768C1291.869,351.678 1290.959,352.588 1291.263,353.8C1291.565,355.012 1293.081,355.62 1294.293,356.226C1297.629,358.044 1299.145,362.592 1297.325,365.926C1299.751,364.108 1301.873,362.288 1304.297,360.47C1304.903,362.592 1307.329,364.108 1309.451,363.502C1311.573,362.894 1313.089,360.47 1312.483,358.348C1312.179,356.226 1310.057,354.71 1309.451,352.89C1308.541,349.86 1310.663,346.524 1309.755,343.492C1308.845,341.068 1306.419,339.856 1304.297,338.34C1302.175,336.824 1300.357,334.096 1301.569,331.974C1302.175,330.76 1303.995,330.154 1305.207,329.244C1311.573,325.304 1313.089,313.784 1320.669,313.48C1322.183,313.48 1323.699,313.784 1325.215,313.784C1329.459,313.178 1330.975,308.024 1333.097,304.082C1337.645,295.292 1348.255,291.048 1352.803,282.558C1356.441,275.89 1356.137,268.008 1358.259,260.732C1359.775,255.578 1362.807,250.122 1360.987,244.968C1358.563,238.602 1348.255,237.389 1344.617,242.846C1345.223,239.511 1345.829,236.48 1346.437,233.145C1344.011,240.421 1329.157,233.752 1342.191,226.779C1350.983,221.929 1358.865,215.562 1365.231,207.68C1367.353,204.952 1369.475,202.224 1372.205,200.405C1382.511,193.432 1396.759,202.224 1408.885,198.889C1409.189,200.101 1409.795,201.314 1410.099,202.527C1406.763,203.739 1403.733,205.255 1400.397,206.468C1407.369,209.802 1414.645,201.92 1422.225,202.527C1424.347,202.527 1427.681,202.527 1427.681,200.405C1425.559,200.101 1423.135,198.889 1423.437,197.07C1423.437,196.464 1424.043,195.857 1424.649,195.251C1426.469,193.129 1428.591,191.007 1430.713,188.885C1434.047,185.247 1439.505,181.609 1443.143,184.641C1445.871,187.066 1444.657,192.523 1441.021,193.129C1443.445,195.554 1447.387,193.432 1449.811,191.007C1452.237,188.582 1455.269,185.853 1458.299,187.066C1459.209,185.247 1459.209,183.125 1458.299,181.306C1460.725,179.79 1464.059,179.487 1466.789,180.396C1464.969,181.912 1464.059,183.731 1463.757,186.156C1463.453,187.672 1463.757,188.885 1463.151,190.4C1461.635,195.554 1454.965,196.16 1450.115,198.283C1441.627,202.224 1438.899,213.137 1431.319,218.594C1429.501,219.806 1427.379,221.019 1425.863,222.535C1422.527,226.173 1422.831,231.933 1424.649,236.48C1426.165,241.027 1428.893,245.575 1429.197,250.728C1429.197,251.638 1429.197,252.546 1429.197,253.456C1428.893,256.79 1432.835,258.61 1435.261,256.184C1435.867,255.578 1436.473,254.972 1437.079,254.366C1439.807,251.638 1442.535,248.909 1443.749,245.271C1444.659,242.846 1444.961,239.511 1447.387,238.299C1449.205,237.389 1451.327,237.693 1453.147,237.389C1454.965,237.086 1457.087,234.964 1456.177,233.448C1452.843,231.023 1453.449,225.263 1457.087,223.747C1458.603,224.354 1460.119,225.263 1461.635,225.87C1465.273,224.354 1459.815,218.594 1461.635,214.956C1462.241,213.743 1464.059,212.834 1464.059,211.318C1464.059,209.499 1461.331,209.196 1459.513,209.499C1458.299,203.436 1462.545,196.767 1468.303,195.251C1468.303,196.464 1468.001,197.676 1468.001,198.889C1471.033,197.07 1473.761,195.251 1476.793,193.432C1477.399,194.948 1477.701,196.16 1478.309,197.676C1481.945,199.495 1484.675,191.613 1488.313,192.826C1489.221,193.129 1489.525,193.735 1490.435,194.342C1493.163,196.464 1497.709,194.948 1498.619,191.613C1501.347,179.184 1516.505,178.577 1529.541,177.365C1532.269,175.849 1536.513,174.333 1535.907,171.605ZM970.525,325C968.403,326.82 965.371,327.426 962.34,327.122C961.733,327.728 962.037,328.942 962.946,329.244C963.855,329.85 964.765,329.85 965.371,330.458C966.584,331.67 965.978,333.488 966.281,335.308C966.584,338.036 969.009,339.856 969.615,342.584C970.828,347.13 965.674,351.374 960.824,351.374C950.82,351.374 943.847,343.492 941.422,334.702C939.906,329.85 937.178,316.21 944.757,315.602C942.332,312.572 944.757,309.236 943.544,305.902C942.635,304.082 940.816,303.174 939.603,301.96C936.875,299.232 937.481,294.382 939.603,291.35C941.725,288.318 945.363,286.196 949.001,284.984C952.639,283.468 956.58,282.558 959.914,284.074C963.552,285.59 965.371,290.44 962.946,293.17C960.218,296.2 954.458,294.382 951.729,297.716C950.213,299.536 950.82,302.87 952.336,304.69C953.851,306.508 956.277,307.72 958.702,308.63C959.914,309.236 961.43,309.842 962.036,311.056C962.946,312.874 961.127,314.996 960.218,316.816C959.308,318.634 959.308,321.968 961.43,321.968C963.552,321.968 963.855,318.938 965.068,317.422C966.584,314.996 970.828,315.3 972.344,317.724C973.253,319.544 972.647,323.182 970.525,325ZM1219.415,232.236C1219.111,233.145 1218.505,234.055 1218.201,234.964C1217.899,235.874 1217.899,237.086 1217.595,238.299C1216.687,241.33 1213.957,243.452 1211.229,245.575C1209.411,246.787 1207.591,248.303 1206.379,250.425C1206.075,251.334 1205.469,252.244 1205.167,252.85C1202.437,257.398 1194.555,258.306 1199.709,251.94C1202.741,248 1207.289,242.543 1211.229,239.208C1212.441,237.996 1214.261,237.086 1214.867,235.57C1216.383,233.145 1215.473,230.114 1215.473,227.385C1215.473,224.657 1217.595,221.322 1220.323,221.929C1221.233,225.263 1220.931,228.901 1219.415,232.236ZM880.185,183.428C880.185,183.731 880.185,184.034 880.185,184.337C880.185,185.55 879.882,186.46 879.579,187.369C879.882,187.369 880.488,187.369 880.791,187.369C881.398,185.853 881.094,184.641 880.185,183.428ZM859.57,250.425C864.724,250.122 868.362,246.787 870.787,242.543C865.937,243.756 861.389,246.181 859.57,250.425Z" fill="#53A2AB" fill-opacity="0.44"/>
<path d="M898.979,283.166C894.736,284.985 889.886,284.682 885.943,287.107C884.43,288.017 883.216,289.835 882.61,291.654C882.004,291.958 881.397,292.261 880.791,292.564C869.574,298.93 873.818,284.985 863.208,284.985C852.901,284.985 855.932,302.265 851.385,300.749C850.172,303.477 851.991,306.509 851.385,309.237C851.082,310.147 850.475,311.056 850.172,311.966C849.869,312.572 849.869,313.178 849.566,313.786C846.837,316.816 844.412,320.152 842.593,323.79C842.593,323.486 842.29,322.88 842.29,322.576C839.865,320.152 835.318,322.88 834.408,326.214C833.499,329.55 835.014,333.186 836.227,336.522C837.137,339.856 837.44,343.798 835.014,346.526C833.802,347.738 831.68,348.648 833.499,351.68C834.105,352.892 835.621,353.196 836.834,352.892C839.562,352.588 841.987,357.44 839.259,357.742C834.408,358.348 830.77,353.196 829.255,348.648C827.739,344.1 826.829,338.644 822.585,335.916C820.463,334.702 817.735,334.096 816.825,331.672C815.309,328.034 819.857,323.79 818.341,320.152C816.522,316.514 810.762,318.03 807.731,315.3C805.306,313.178 805.609,308.631 803.183,306.509C801.971,305.296 800.152,304.993 798.636,304.387C793.483,302.568 789.541,298.324 787.419,293.473C784.388,294.08 784.994,298.324 786.207,300.749C791.36,310.753 799.849,318.938 809.853,324.092C806.518,325.608 805.002,329.55 803.79,332.884C801.668,338.038 799.849,343.19 797.727,348.344C794.695,348.042 791.36,347.436 788.935,345.616C786.51,343.798 784.994,339.856 787.116,337.432C790.451,340.766 797.12,339.554 798.939,335.308C801.061,331.064 797.727,325.304 793.179,324.698C794.998,319.242 788.935,314.392 783.478,312.269C778.022,310.147 771.352,307.418 770.443,301.658C768.017,299.536 763.773,300.446 761.045,302.568C758.317,304.69 755.891,307.418 752.86,308.328C749.828,309.54 745.281,307.722 745.281,304.084C743.765,305.599 741.946,306.812 740.431,308.328C744.068,309.237 741.946,315.3 738.612,317.12C735.277,318.938 730.426,319.848 729.517,323.79C729.214,325.304 729.517,326.82 729.517,328.336C729.517,330.762 728.304,332.884 727.395,335.006C724.666,340.16 721.332,346.222 715.269,347.132C711.934,347.738 706.477,348.042 707.084,351.68C702.233,347.436 695.261,345.314 688.894,346.526C689.197,343.494 689.804,340.462 690.107,337.432C687.985,337.128 685.56,336.824 683.438,336.522C686.772,331.672 687.985,325.304 686.772,319.544C685.863,316.21 684.953,311.966 688.288,310.753C686.469,309.237 685.256,307.418 684.65,304.993C689.197,302.871 694.654,302.871 699.505,304.387C701.627,304.993 703.446,306.206 705.568,306.812C711.631,308.631 718.906,306.509 722.241,301.355C725.576,296.202 724.363,288.017 718.906,284.985C715.875,283.469 712.54,283.166 709.812,281.65C707.084,279.831 705.568,275.284 708.296,273.465C710.721,277.103 715.875,278.012 719.513,275.89C717.997,273.162 717.088,269.827 717.391,266.493C719.816,265.583 723.151,268.008 722.847,270.737C727.395,270.737 731.942,267.705 733.458,263.461C734.064,261.945 734.064,260.43 735.277,259.217C736.793,257.701 738.915,257.398 741.037,256.489C745.887,254.67 748.919,248.607 747.403,243.756C753.769,240.725 760.742,239.512 767.714,239.815C765.289,235.268 762.561,230.417 762.864,225.264C763.167,220.11 767.411,214.653 772.565,215.26C773.474,218.291 773.171,221.626 772.565,224.657C774.081,224.96 775.596,225.264 777.112,225.567C773.777,228.295 770.443,233.449 774.081,236.177C776.809,238.299 780.75,235.571 784.085,236.177C785.601,236.48 786.813,237.39 788.329,237.996C794.998,239.815 801.668,228.598 807.124,232.539C808.943,233.752 809.853,236.48 813.188,236.177C815.006,235.874 816.522,234.661 817.432,233.146C819.251,229.811 818.644,226.173 818.947,222.535C819.251,219.504 820.766,215.866 823.798,215.26C827.132,214.35 830.467,217.078 833.802,217.382C839.562,217.988 844.109,210.106 840.774,205.255C836.227,208.59 830.771,210.409 825.314,209.803C823.798,207.074 827.132,203.74 830.164,202.527C840.471,197.98 852.294,196.464 863.208,198.586C865.33,196.767 862.299,193.736 859.873,192.523C857.448,191.31 854.719,188.279 856.842,186.46C849.566,183.428 843.2,193.736 835.318,194.039C827.132,194.342 822.585,183.732 825.617,176.153C828.648,168.574 836.227,164.027 843.2,160.086C838.653,152.81 826.526,152.204 821.069,159.176C821.676,164.633 819.554,170.696 815.309,174.334C811.065,177.972 803.79,181.609 805.306,187.066C806.518,191.917 814.4,194.342 813.49,199.192C812.581,203.74 805.002,203.74 803.183,208.287C801.971,211.319 804.396,215.26 802.88,218.291C801.364,221.323 796.817,221.323 794.089,223.445C792.27,224.96 791.057,227.083 789.541,228.598C787.722,230.114 784.691,230.72 783.478,228.902C782.266,227.083 783.781,224.657 784.691,222.232C787.419,215.866 783.478,208.893 779.537,203.133C771.655,202.527 767.714,217.382 760.439,214.35C758.317,213.441 757.104,211.319 756.194,209.5C753.466,204.346 750.434,198.889 749.222,192.826C748.313,186.763 749.222,180.397 753.466,175.85C758.923,170.09 768.321,169.786 774.384,164.633C781.356,158.873 782.872,148.263 790.451,143.412C794.998,140.381 801.668,138.865 802.274,133.408C797.424,133.711 792.573,134.317 787.722,134.621C789.844,130.68 795.301,128.558 799.546,129.77C797.727,125.829 802.274,121.585 806.518,120.979C810.762,120.372 815.309,121.585 819.554,120.372C822.888,119.463 825.617,116.734 828.951,115.522C831.68,114.309 835.014,114.006 838.046,113.703C841.381,113.4 845.019,113.4 848.353,113.703C841.684,119.766 836.834,128.254 838.956,136.743C841.987,150.081 859.267,160.995 852.9,173.121C858.964,171.909 865.027,170.393 870.787,171.909C873.818,172.818 876.85,174.637 878.972,177.062C878.669,179.487 880.488,181.609 881.7,183.732C881.7,184.035 881.7,184.338 881.7,184.641C881.7,185.854 881.397,186.763 881.094,187.673C875.94,187.369 864.117,184.944 869.877,193.432C872.302,190.401 873.515,192.22 876.547,191.917C877.759,191.917 878.972,190.401 878.366,189.491C878.972,189.491 879.578,189.491 880.488,189.491C879.578,191.917 878.063,194.039 876.85,196.161C872.606,205.559 875.637,216.472 875.94,227.083C876.244,232.539 875.031,238.299 872.302,242.847C872.909,242.847 873.515,242.543 874.121,242.543C885.943,240.421 899.283,243.453 906.559,253.154C912.621,262.248 910.198,278.619 898.979,283.166Z" fill="#53A2AB" fill-opacity="0.44"/>
<path d="M678.587,237.694C678.587,240.726 681.315,243.151 680.709,246.183C679.799,248.911 675.858,250.124 675.858,253.155C675.555,256.49 680.102,257.702 683.437,256.793C689.197,255.58 694.654,251.942 697.988,247.092C699.504,244.667 700.414,240.423 697.382,239.513C701.323,238.301 704.961,236.785 708.902,235.572C711.934,237.997 714.965,242.242 712.54,245.576C711.024,247.395 707.083,248.911 708.296,251.033C708.902,251.942 710.115,252.549 710.115,253.458C710.418,254.671 709.205,255.277 708.599,256.187C704.961,259.218 702.839,263.765 703.142,268.616C708.599,263.765 715.875,261.037 723.15,261.34C724.969,261.34 726.788,261.643 728.001,260.431C729.213,259.218 728.607,256.49 727.091,256.793C729.213,255.277 731.335,253.761 733.154,252.246C733.761,251.942 734.064,251.639 734.367,251.033C734.973,249.82 733.761,248.608 732.548,248.001C731.335,247.698 729.82,247.698 728.607,247.092C725.879,245.879 725.575,242.242 724.666,239.513C723.757,236.785 720.422,233.753 718.3,235.875C718.906,233.147 719.512,230.419 718.3,227.69C717.087,225.265 713.752,223.446 711.63,224.962C710.418,223.143 713.449,221.324 714.965,219.505C716.784,217.686 716.481,214.351 714.965,212.836C713.146,211.017 710.115,211.017 708.296,212.836C708.599,207.682 709.508,201.316 714.662,199.8C715.875,199.497 717.39,199.497 718.906,198.891C720.119,198.284 721.634,197.072 721.331,195.859C721.634,197.375 724.363,197.678 725.272,196.162C726.182,194.95 726.182,192.827 725.879,191.312C721.938,190.099 720.422,196.768 716.481,197.981C714.662,198.587 712.843,197.981 711.024,198.587C707.083,200.406 707.993,207.682 703.748,208.895C702.839,209.198 701.626,208.895 700.717,209.501C698.898,210.41 698.595,212.836 699.201,214.958C699.807,217.08 700.414,219.202 699.504,221.021C698.898,221.93 697.988,223.143 698.292,224.052C698.898,225.568 701.02,224.962 702.233,225.568C705.87,226.781 703.748,231.025 701.929,232.844C699.504,234.966 695.563,234.36 692.835,234.056C688.591,233.45 678.587,229.812 678.587,237.694Z" fill="#53A2AB" fill-opacity="0.44"/>
<path d="M768.625,321.971C768.019,321.668 767.716,321.062 767.109,320.759C768.625,320.455 769.534,318.94 769.838,317.121C769.838,315.605 769.231,314.089 768.322,312.877C767.412,311.361 765.593,309.845 763.775,310.451C761.652,311.361 761.349,314.392 762.259,316.818C762.865,318.94 764.078,321.668 762.562,323.79C763.471,323.487 764.381,323.79 764.987,324.396C761.653,326.518 761.046,333.188 765.897,333.491C770.747,333.794 771.657,327.731 766.806,326.518C766.806,326.215 768.928,321.971 768.625,321.971Z" fill="#53A2AB" fill-opacity="0.44"/>
<path d="M1318.545,374.416C1318.848,371.687 1319.151,368.656 1321.273,367.443C1321.879,369.262 1323.395,370.778 1324.911,371.687C1326.427,370.778 1327.336,369.262 1328.246,367.746C1329.155,366.231 1330.368,364.715 1332.187,364.412C1334.006,364.109 1335.825,365.928 1334.915,367.443C1339.462,369.262 1342.494,362.593 1346.435,360.168C1348.557,358.955 1351.285,358.652 1353.711,358.046C1356.136,357.439 1358.864,355.923 1359.167,353.195C1359.471,351.679 1358.864,350.164 1358.561,348.648C1358.561,345.616 1360.986,342.888 1362.502,340.159C1365.231,335.309 1365.231,329.246 1362.805,324.092C1361.29,321.364 1359.471,318.939 1358.561,316.21C1357.955,313.179 1359.471,309.541 1362.502,309.541C1363.412,311.966 1364.321,314.998 1367.049,315.907C1369.475,316.817 1372.809,313.785 1370.991,311.663C1373.719,310.753 1376.75,310.753 1379.782,311.057C1380.995,309.238 1380.691,306.509 1379.176,304.994C1388.27,301.659 1396.455,295.293 1402.519,287.714C1394.03,292.867 1385.845,298.021 1377.357,303.478C1376.447,304.084 1375.235,304.69 1374.022,304.387C1373.113,304.084 1372.506,302.872 1371.9,301.962C1369.778,297.718 1364.927,294.99 1360.077,294.99C1360.38,298.931 1360.986,302.872 1361.29,307.116C1358.561,306.509 1355.833,309.238 1355.226,311.966C1354.62,314.695 1355.227,317.726 1355.53,320.758C1356.439,331.065 1351.589,341.372 1343.403,347.435C1343.403,345.919 1343.403,344.1 1343.403,342.585C1339.159,343.191 1340.978,351.376 1337.037,353.498C1335.825,354.105 1334.612,354.105 1333.399,354.105C1327.336,354.711 1327.336,361.077 1320.667,358.652C1320.061,366.837 1309.753,365.321 1310.36,373.506C1310.663,380.479 1317.332,385.633 1318.545,374.416Z" fill="#10737F" fill-opacity="0.14"/>
<path d="M1372.507,246.485C1372.507,247.091 1372.81,247.697 1372.507,248.304C1372.204,249.516 1371.597,250.426 1370.991,251.335C1370.385,253.154 1371.597,255.276 1373.113,256.489C1374.629,258.005 1376.145,258.914 1377.054,260.733C1378.57,263.764 1377.357,267.705 1379.782,270.131C1379.176,271.95 1376.448,271.343 1374.932,270.131C1373.416,268.918 1371.597,267.705 1370.081,268.615C1368.262,271.343 1369.172,274.981 1370.688,278.013C1372.204,281.044 1374.022,284.076 1373.719,287.41C1373.719,288.926 1372.507,290.745 1370.991,290.442C1370.385,290.442 1370.081,289.836 1369.475,289.533C1367.353,287.41 1365.231,285.288 1364.928,282.56C1364.625,280.438 1365.231,278.619 1365.837,276.497C1367.05,272.253 1367.05,268.009 1366.444,263.764C1366.14,261.946 1365.837,260.127 1365.837,258.308C1365.837,254.973 1367.656,251.032 1365.837,248.304C1365.231,247.394 1364.322,246.485 1364.625,245.575C1365.534,243.756 1369.172,240.725 1370.688,239.209C1371.9,241.634 1372.204,244.059 1372.507,246.485Z" fill="#10737F" fill-opacity="0.14"/>
<path d="M1158.48,533.572C1161.208,535.694 1164.846,537.21 1166.362,540.241C1167.575,542.667 1167.575,545.698 1169.394,547.517C1170.303,548.427 1171.819,549.033 1173.031,549.942C1175.457,552.064 1174.85,556.309 1176.063,559.34C1177.882,563.887 1183.035,566.313 1183.945,570.86C1184.248,572.376 1183.945,574.195 1184.854,575.71C1186.067,578.439 1190.008,579.045 1192.13,581.47C1193.04,582.683 1193.646,583.896 1194.555,585.411C1196.981,588.746 1202.134,589.959 1206.075,588.14C1204.863,586.018 1203.953,583.593 1203.953,581.167C1203.953,579.652 1204.256,578.136 1203.953,576.923C1203.347,573.588 1200.012,571.163 1199.103,567.828C1200.618,566.616 1202.74,568.435 1203.65,569.951C1204.863,571.466 1206.681,573.285 1208.197,572.073C1205.166,568.132 1201.831,564.797 1198.193,561.765C1198.496,563.281 1196.677,564.191 1195.162,563.584C1193.949,562.978 1193.04,561.765 1192.433,560.553C1191.827,559.643 1191.221,558.734 1191.524,557.521C1191.524,556.612 1192.13,555.702 1192.13,555.096C1192.433,553.277 1191.221,551.458 1189.705,550.549C1188.189,549.336 1186.37,548.73 1185.158,547.517C1182.429,544.789 1182.126,540.241 1178.791,538.423C1177.276,537.513 1175.457,537.513 1173.638,536.907C1168.787,534.482 1167.878,527.206 1162.118,524.781C1154.236,520.536 1152.417,529.025 1158.48,533.572Z" fill="#10737F" fill-opacity="0.14"/>
<path d="M1207.591,588.442C1206.378,589.958 1205.166,591.777 1203.953,593.293C1203.65,593.596 1203.347,593.899 1203.347,594.506C1203.347,595.718 1205.166,596.021 1206.378,595.718C1210.319,595.112 1213.957,595.415 1217.898,596.324C1224.264,597.84 1230.327,601.478 1236.694,600.872C1237.603,600.872 1238.512,600.569 1239.725,600.872C1240.635,601.175 1241.847,601.478 1242.757,601.781C1245.182,602.388 1247.91,602.084 1249.729,600.872C1247.91,599.053 1245.182,599.356 1242.757,599.053C1240.331,598.75 1237.603,597.84 1237.3,595.415C1237.3,594.809 1237.3,594.202 1237.3,593.596C1236.997,592.383 1235.481,591.474 1233.965,591.474C1232.449,591.474 1231.237,591.777 1229.721,591.474C1227.296,591.171 1225.78,588.746 1223.355,588.442C1220.93,588.139 1220.02,589.958 1218.201,589.958C1214.26,590.261 1211.229,583.592 1207.591,588.442Z" fill="#10737F" fill-opacity="0.14"/>
<path d="M1262.462,602.388C1264.584,602.388 1266.403,603.904 1268.525,603.297C1269.131,602.994 1269.435,602.691 1270.041,602.691C1270.647,602.691 1271.253,602.994 1271.86,603.297C1277.317,605.723 1283.986,598.447 1289.443,600.872C1288.23,606.329 1280.954,608.148 1278.226,612.695C1283.076,612.089 1287.624,609.361 1290.958,605.723C1291.868,604.813 1292.777,603.601 1293.687,602.994C1294.293,602.691 1295.203,602.388 1295.809,601.782C1297.325,600.872 1298.234,599.053 1298.234,597.234C1296.718,597.234 1294.9,597.538 1293.384,598.447C1292.171,599.053 1291.262,599.963 1290.049,600.266C1287.927,600.872 1286.108,599.66 1283.986,599.356C1279.742,598.75 1275.498,603.297 1271.557,602.388C1270.041,602.085 1269.131,600.266 1267.312,599.963C1265.797,599.66 1263.068,600.266 1261.553,599.963C1259.43,599.66 1255.489,597.538 1253.974,599.66C1249.123,606.026 1261.249,602.388 1262.462,602.388Z" fill="#10737F" fill-opacity="0.14"/>
<path d="M1261.249,608.148C1262.158,607.238 1263.674,607.845 1264.584,608.754C1265.493,609.664 1266.099,610.876 1267.009,611.786C1268.221,612.392 1269.737,612.392 1270.647,611.482C1271.253,610.876 1271.556,610.27 1271.253,609.36C1270.95,608.754 1270.04,608.451 1269.434,608.148C1268.828,607.845 1267.918,607.541 1267.312,607.541C1266.099,607.238 1264.887,606.632 1263.371,606.935C1262.158,607.238 1260.643,608.148 1260.643,609.36Z" fill="#10737F" fill-opacity="0.14"/>
<path d="M1226.386,570.557C1223.96,570.86 1220.929,570.86 1220.019,568.738C1219.413,567.525 1220.019,566.01 1220.019,564.494C1220.019,562.069 1218.504,560.25 1217.594,558.128C1215.775,554.49 1215.169,550.549 1215.775,546.608C1216.078,545.698 1216.078,544.486 1216.988,543.879C1217.291,543.273 1217.897,542.97 1218.504,542.667C1220.626,541.454 1222.748,540.242 1225.173,539.332C1227.901,537.816 1230.933,536.301 1233.661,534.482C1240.331,529.934 1245.787,523.871 1249.425,516.596C1250.638,515.383 1252.76,516.596 1253.669,518.111C1254.579,519.627 1254.579,521.749 1256.095,522.962C1257.914,524.781 1262.158,525.387 1261.855,528.115C1261.855,529.328 1260.945,529.934 1260.036,530.844C1257.307,533.572 1256.398,537.816 1257.307,541.454C1258.217,545.092 1261.248,548.124 1264.886,549.336C1261.551,549.639 1257.307,550.852 1257.307,554.187C1257.307,556.309 1259.126,558.431 1257.914,560.25C1256.701,562.069 1253.669,561.159 1252.154,562.978C1250.941,564.191 1251.85,566.313 1251.85,568.132C1252.457,572.376 1249.122,576.923 1244.878,577.529C1243.059,577.833 1240.937,577.226 1240.027,575.711C1239.421,574.801 1239.421,573.892 1239.118,572.982C1237.602,569.344 1235.177,571.466 1232.752,571.466C1230.933,571.466 1228.508,570.254 1226.386,570.557Z" fill="#10737F" fill-opacity="0.14"/>
<path d="M1290.655,545.091C1290.958,545.091 1291.564,544.788 1291.868,544.788C1290.958,544.182 1290.049,544.485 1289.139,545.091C1288.23,545.697 1287.623,546.607 1287.017,547.213C1284.592,549.638 1281.257,551.154 1277.923,550.851C1275.8,550.548 1273.678,549.942 1271.556,550.245C1268.828,550.851 1267.009,552.973 1266.1,555.702C1265.796,556.914 1266.1,559.036 1267.312,558.733C1267.918,556.611 1270.041,554.792 1272.466,554.186C1274.588,553.579 1277.316,553.579 1279.438,553.883C1281.257,554.186 1283.076,554.792 1284.895,554.489C1286.714,554.186 1288.533,552.973 1288.836,551.154C1289.139,549.942 1288.23,548.426 1288.836,547.213C1289.442,546.001 1290.655,545.091 1290.049,544.182C1290.049,544.182 1291.261,545.091 1290.655,545.091Z" fill="#53A2AB" fill-opacity="0.44"/>
<path d="M1262.158,575.103C1263.068,579.044 1264.887,582.985 1263.371,586.623C1264.887,587.23 1266.706,586.017 1267.312,584.501C1267.918,582.985 1267.312,581.166 1267.009,579.348C1266.706,577.832 1266.099,576.013 1266.706,574.497C1266.706,574.194 1267.009,573.891 1267.312,573.588C1267.615,573.588 1267.615,573.588 1267.918,573.588C1270.04,574.194 1271.556,576.316 1272.162,578.135C1272.769,580.257 1272.769,582.379 1273.072,584.501C1273.375,585.714 1273.678,587.23 1274.891,588.139C1276.71,589.352 1279.438,587.836 1280.045,585.714C1280.651,583.592 1280.045,581.166 1279.741,579.044C1279.438,576.013 1279.135,572.375 1276.407,570.859C1275.194,570.253 1273.678,569.95 1273.375,568.737C1273.072,567.221 1274.588,566.009 1276.103,565.706C1277.316,565.403 1278.832,565.099 1280.045,564.796C1281.56,564.493 1283.682,564.19 1283.985,562.371C1284.289,560.552 1281.863,559.946 1280.348,559.643C1278.226,559.339 1276.103,559.036 1274.285,559.339C1272.162,559.643 1270.04,560.552 1269.131,562.371C1268.828,562.674 1268.828,563.28 1268.221,563.28C1267.615,563.584 1267.009,562.977 1266.706,562.674C1266.403,562.068 1266.099,561.462 1265.796,561.158C1261.855,555.398 1261.855,573.588 1262.158,575.103Z" fill="#10737F" fill-opacity="0.14"/>
<path d="M1299.144,571.466C1297.022,570.859 1294.596,570.859 1292.171,571.769C1291.868,571.769 1291.262,572.072 1291.262,572.375C1291.262,572.678 1291.868,572.981 1292.171,573.284C1294.293,573.891 1296.718,573.588 1298.537,572.678C1298.234,571.769 1297.022,571.466 1296.112,571.769Z" fill="#10737F" fill-opacity="0.14"/>
<path d="M1308.845,570.254C1307.632,569.648 1306.117,569.951 1305.207,570.558C1304.298,571.467 1303.691,572.68 1304.298,573.892C1306.42,574.499 1308.845,571.77 1310.967,572.68C1312.483,573.286 1313.089,575.105 1314.605,575.408C1315.818,575.408 1316.727,573.589 1316.121,572.68C1315.514,571.77 1313.999,571.77 1313.392,571.164C1311.877,569.951 1312.786,567.526 1313.999,565.707C1312.18,565.404 1310.967,567.223 1310.664,569.042C1310.664,569.951 1310.664,570.558 1310.058,571.164C1309.755,571.77 1308.845,572.377 1308.239,572.073Z" fill="#10737F" fill-opacity="0.14"/>
<path d="M1299.447,559.643C1299.447,560.249 1299.447,560.855 1299.75,561.462C1300.054,562.068 1300.66,562.371 1301.266,562.068C1301.569,561.765 1301.872,561.462 1302.176,560.855C1302.782,559.339 1303.388,557.824 1302.782,556.308C1302.479,555.702 1301.872,555.095 1301.872,554.489C1301.266,552.67 1303.388,551.457 1304.904,551.761C1304.601,549.335 1302.479,551.154 1302.479,548.426C1302.479,548.123 1307.026,546.304 1303.388,545.697C1297.931,545.091 1299.447,556.308 1299.447,559.643Z" fill="#53A2AB" fill-opacity="0.44"/>
<path d="M1320.062,556.611C1317.637,556.914 1315.212,556.611 1313.393,555.398C1311.574,556.914 1312.787,559.643 1314.606,560.855C1316.424,562.068 1318.85,562.371 1320.669,563.28C1322.488,564.19 1324.003,566.918 1322.791,568.737C1324.306,569.04 1325.822,569.647 1327.338,569.95C1327.641,571.466 1326.125,572.375 1324.913,573.284C1323.7,574.194 1322.488,576.316 1324.003,576.922C1324.61,578.135 1326.429,578.135 1327.944,577.225C1329.157,576.619 1330.673,575.407 1331.885,576.013C1332.795,576.316 1333.401,577.225 1334.007,577.832C1336.736,580.56 1340.98,581.166 1344.618,582.985C1348.256,584.804 1351.287,589.048 1349.468,592.383C1348.862,593.596 1347.346,594.505 1346.437,595.718C1345.527,596.93 1344.921,598.446 1345.527,599.659C1348.559,599.962 1351.894,598.749 1354.319,596.93C1356.744,599.659 1359.776,602.084 1363.413,602.994C1367.051,603.903 1371.295,602.387 1372.811,599.053C1373.114,598.446 1373.417,597.537 1373.721,597.234C1374.63,596.627 1375.54,596.93 1376.752,596.93C1379.784,597.84 1382.815,598.749 1385.544,600.265C1386.15,600.568 1386.756,600.871 1387.059,601.478C1387.363,602.387 1387.059,603.297 1386.756,603.903C1386.453,606.935 1390.091,609.057 1393.426,609.36C1397.67,609.966 1401.914,610.572 1406.461,610.572C1406.461,608.45 1404.339,606.935 1402.217,606.328C1400.095,605.722 1397.67,605.722 1396.154,604.206C1394.335,602.387 1394.032,599.356 1392.213,597.84C1390.697,596.627 1387.969,595.718 1388.575,593.899C1388.878,591.777 1392.516,592.08 1393.122,590.261C1393.426,589.048 1392.516,587.836 1391.304,587.23C1390.091,586.926 1388.878,586.926 1387.666,586.623C1384.634,586.017 1381.906,583.289 1381.603,579.954C1381.603,578.741 1381.603,577.529 1381.299,576.316C1380.693,574.497 1378.571,573.891 1376.752,573.284C1367.354,570.253 1358.26,567.221 1348.862,564.19C1347.649,563.887 1346.134,563.28 1344.618,563.887C1340.98,565.099 1341.283,571.466 1337.645,572.072C1335.826,572.375 1334.007,570.859 1332.795,569.343C1331.582,567.828 1329.46,566.009 1329.46,563.887C1329.46,562.371 1330.673,561.158 1330.673,559.946C1329.157,555.702 1323.7,556.308 1320.062,556.611Z" fill="#10737F" fill-opacity="0.14"/>
<path d="M1391.91,585.714C1392.213,586.017 1392.819,586.321 1393.122,586.321C1397.063,587.533 1401.308,586.927 1404.945,585.108C1406.158,584.502 1407.068,583.895 1408.583,583.592C1409.493,583.592 1410.402,583.592 1411.008,583.592C1411.918,583.592 1412.828,582.986 1412.828,582.076C1413.131,581.167 1412.524,580.257 1412.828,579.651C1413.434,579.045 1414.646,579.348 1415.253,578.439C1415.859,577.832 1415.253,576.62 1414.343,576.013C1411.615,573.285 1408.583,570.253 1405.552,567.828C1405.249,571.769 1407.977,576.013 1404.945,579.348C1403.43,581.773 1391,584.198 1391.91,585.714Z" fill="#10737F" fill-opacity="0.14"/>
<path d="M1430.106,597.84C1431.622,598.447 1433.138,598.447 1434.35,599.053C1435.866,599.659 1437.079,600.569 1437.382,602.084C1437.382,602.084 1437.382,602.084 1437.382,601.781C1436.776,597.84 1433.138,595.718 1429.5,593.899C1429.197,593.596 1428.59,593.293 1428.287,592.99C1428.287,592.687 1423.74,595.718 1430.106,597.84Z" fill="#53A2AB" fill-opacity="0.44"/>
<path d="M1470.425,671.204C1470.122,669.688 1469.515,668.172 1468.606,666.96C1467.697,665.747 1465.878,664.838 1464.362,665.141C1462.846,668.172 1465.271,671.507 1468,673.326C1469.819,674.539 1472.244,675.448 1474.366,676.357C1471.334,676.661 1470.728,673.326 1470.425,671.204Z" fill="#53A2AB" fill-opacity="0.44"/>
<path d="M1479.217,643.617C1480.429,646.649 1481.339,649.983 1481.945,653.318C1483.461,652.409 1483.764,649.983 1482.854,648.771C1484.067,649.68 1484.067,651.499 1484.067,652.712C1484.673,656.349 1487.705,659.684 1491.343,660.594C1491.949,659.381 1491.343,658.168 1490.736,657.259C1489.827,656.349 1488.917,655.743 1488.008,654.834C1486.189,653.318 1485.28,650.893 1485.28,648.468C1485.28,646.345 1485.583,643.617 1483.764,642.708C1483.461,643.617 1483.158,644.527 1482.854,645.436C1482.248,645.436 1481.945,644.83 1481.642,644.223C1480.429,641.192 1481.642,636.645 1478.61,634.522C1478.307,635.735 1477.398,637.251 1475.882,637.554C1475.882,639.979 1478.307,641.798 1479.217,643.617Z" fill="#53A2AB" fill-opacity="0.44"/>
<path d="M1442.232,598.75C1444.354,599.66 1447.082,599.357 1448.598,600.873C1450.114,602.388 1449.811,605.117 1451.326,607.239C1451.933,608.148 1452.842,608.755 1453.448,609.361C1454.055,610.27 1454.358,611.483 1453.752,612.392C1452.842,613.302 1451.023,612.696 1450.417,611.483C1449.811,610.27 1449.811,609.058 1449.507,607.542C1449.204,606.329 1448.901,604.814 1447.385,604.207C1446.173,603.904 1444.657,604.51 1443.748,603.601C1443.444,603.298 1443.444,602.995 1443.141,602.388C1441.929,599.054 1437.684,597.538 1437.078,594.203C1438.897,595.719 1440.11,597.841 1442.232,598.75Z" fill="#53A2AB" fill-opacity="0.44"/>
<path d="M1317.939,593.293C1315.817,595.112 1313.998,597.234 1312.179,599.356C1313.391,599.962 1315.21,599.659 1316.12,598.447C1317.029,597.234 1317.332,595.718 1316.423,594.506Z" fill="#10737F" fill-opacity="0.14"/>
<path d="M1332.188,584.502C1333.401,585.411 1334.614,586.927 1334.614,588.443C1334.614,589.959 1333.098,591.474 1331.582,591.171C1331.885,589.049 1332.188,586.624 1332.491,584.502Z" fill="#10737F" fill-opacity="0.14"/>
<path d="M1318.546,618.454C1317.334,616.029 1314.302,615.119 1311.877,616.635C1313.696,618.151 1313.999,621.486 1312.18,623.304C1311.27,624.214 1310.058,624.82 1309.148,625.426C1305.814,627.852 1305.814,633.612 1308.845,636.34C1307.33,637.25 1305.814,637.856 1304.298,638.765C1303.085,634.824 1300.054,631.186 1296.113,629.671C1290.656,633.005 1286.715,638.462 1285.199,644.525C1284.593,644.525 1283.987,644.828 1283.38,644.828C1283.077,646.647 1282.774,648.466 1282.471,650.285C1280.955,648.466 1280.652,646.041 1280.955,643.919C1277.62,644.525 1275.802,647.86 1275.195,651.195C1274.286,654.226 1273.679,657.864 1271.557,659.986C1269.738,661.805 1267.616,662.411 1265.191,663.018C1261.553,664.23 1258.219,665.14 1254.581,666.352C1251.549,667.262 1248.518,668.171 1247.002,670.9C1245.789,673.022 1244.88,676.356 1242.454,676.053C1241.545,676.053 1240.636,675.144 1239.726,674.841C1237.604,674.234 1235.785,676.66 1235.785,678.782C1235.785,680.904 1236.695,683.026 1237.301,684.845C1237.907,686.967 1237.907,689.392 1236.088,690.908C1237.907,690.908 1240.029,691.817 1241.242,693.333C1242.455,694.849 1242.454,697.274 1240.939,698.79C1239.423,700.002 1236.695,699.396 1236.391,697.274C1240.636,708.794 1243.667,720.92 1245.486,733.349C1246.092,738.503 1246.699,743.657 1244.273,748.204C1248.518,751.539 1254.581,751.842 1259.128,749.113C1261.553,747.598 1263.675,745.172 1266.404,743.96C1270.951,741.838 1276.711,743.05 1281.561,741.535C1286.109,740.019 1289.747,736.381 1294.597,735.775C1298.235,735.168 1302.176,736.078 1305.207,734.259C1306.723,733.349 1307.633,732.137 1309.148,730.924C1310.664,730.015 1312.483,729.408 1314.605,729.408C1322.184,729.105 1329.763,734.259 1331.582,741.535C1331.885,743.354 1332.188,745.172 1332.794,746.991C1333.401,748.81 1335.22,750.326 1337.039,750.023C1337.645,744.263 1342.799,739.412 1348.558,739.716C1348.862,741.535 1347.649,743.354 1346.133,744.566C1344.617,745.779 1343.102,746.991 1342.495,748.507C1341.889,750.023 1342.495,752.751 1344.314,752.751C1345.224,750.932 1346.436,749.417 1348.255,748.204C1351.287,750.932 1349.771,756.389 1346.133,757.602C1349.771,756.389 1354.925,756.086 1356.137,759.724C1356.44,760.633 1356.44,761.846 1356.44,763.059C1357.047,768.515 1362.807,771.85 1367.96,774.275C1368.87,774.882 1370.082,775.185 1371.295,774.882C1373.114,774.578 1374.327,772.456 1375.236,770.941C1376.449,769.425 1378.571,767.909 1380.087,769.122C1381.299,770.334 1380.693,772.456 1381.905,773.669C1383.118,775.488 1386.15,774.578 1387.665,772.759C1389.181,770.941 1390.091,768.818 1391.91,767.606C1395.547,765.484 1401.914,767 1403.126,763.059C1403.732,760.936 1401.914,758.814 1401.307,756.692C1400.398,753.358 1402.52,749.72 1405.248,747.294C1407.977,744.869 1411.008,742.747 1412.524,739.413C1414.949,733.956 1412.524,727.589 1413.433,721.526C1414.343,715.463 1419.193,709.703 1416.768,704.247C1415.859,702.125 1413.737,700.306 1413.13,698.184C1412.221,696.061 1412.524,693.333 1411.311,691.514C1410.402,690.302 1408.886,689.998 1407.673,689.089C1403.732,686.361 1403.733,680.601 1402.217,676.053C1399.488,667.565 1391.606,662.411 1386.15,655.439C1385.24,654.226 1384.331,652.71 1383.724,651.195C1383.118,649.376 1383.421,647.557 1383.421,645.435C1383.118,640.887 1380.39,636.643 1376.449,634.218C1375.539,633.612 1374.63,633.309 1374.023,632.399C1373.114,631.186 1373.114,629.671 1373.114,628.155C1372.811,622.698 1370.689,617.545 1367.354,613.604C1364.929,625.427 1362.504,637.25 1360.078,648.769C1358.563,649.679 1357.047,650.588 1355.228,650.588C1354.622,647.557 1353.712,644.525 1353.106,641.494C1349.771,641.797 1346.133,641.797 1343.102,640.281C1340.07,638.765 1337.948,635.128 1339.161,631.793C1339.767,629.974 1341.586,628.155 1340.373,626.639C1343.405,627.852 1346.133,623.001 1343.708,620.576C1340.07,616.938 1336.432,622.395 1332.794,622.092C1327.338,621.789 1323.397,615.726 1318.546,618.454Z" fill="#10737F" fill-opacity="0.14"/>
<path d="M1383.117,801.863C1383.117,802.773 1383.117,803.682 1383.723,804.289C1384.027,804.592 1384.33,804.592 1384.633,804.592C1387.058,804.895 1390.393,804.289 1391.302,802.167C1391.909,800.348 1390.696,797.922 1391.302,796.104C1391.605,795.497 1391.909,794.891 1392.212,794.285C1393.121,792.769 1393.728,790.95 1393.121,789.434C1392.818,787.918 1390.999,786.403 1389.483,786.706C1388.574,787.009 1387.664,787.615 1386.755,787.615C1384.027,788.222 1375.538,782.159 1376.448,789.131C1376.751,791.253 1379.782,793.072 1380.692,794.891C1382.511,796.71 1383.117,799.438 1383.117,801.863Z" fill="#10737F" fill-opacity="0.14"/>
<path d="M1478.308,813.99C1476.489,814.596 1474.367,814.899 1472.548,816.112C1471.032,817.324 1470.123,820.053 1471.942,821.265C1473.154,822.175 1474.973,821.872 1476.489,822.175C1479.824,823.084 1480.127,827.632 1479.824,831.269C1482.249,832.179 1484.674,830.36 1485.887,827.935C1487.099,825.813 1488.009,823.084 1490.131,821.872C1491.647,820.962 1493.466,820.659 1494.375,819.446C1495.891,817.628 1494.981,814.899 1495.285,812.777C1496.497,807.017 1504.682,806.714 1506.804,801.257C1508.32,797.316 1511.049,790.041 1506.501,789.131C1495.588,787.312 1488.009,810.655 1478.308,813.99Z" fill="#53A2AB" fill-opacity="0.44"/>
<path d="M1513.776,793.072C1513.776,793.375 1513.776,793.678 1514.079,793.981C1514.383,794.588 1515.595,794.285 1515.898,793.981C1519.233,791.253 1517.111,785.493 1519.839,782.158C1520.749,780.946 1521.961,780.34 1523.174,779.43C1526.812,776.702 1528.934,772.154 1528.934,767.607C1527.418,768.517 1525.599,769.426 1523.781,769.729C1521.962,770.032 1519.839,769.426 1518.627,767.91C1517.414,766.091 1517.717,763.363 1516.505,761.544C1514.989,759.422 1511.957,759.119 1510.139,756.997C1508.623,755.178 1508.32,752.449 1508.016,750.024C1507.713,747.599 1506.501,744.871 1504.075,744.567C1499.225,750.024 1508.623,756.997 1509.835,761.544C1511.048,766.091 1508.623,767.304 1506.804,770.942C1504.985,774.883 1503.772,777.914 1507.41,780.946C1509.835,782.765 1511.654,780.036 1513.776,783.674C1514.989,785.493 1513.776,790.95 1513.776,793.072Z" fill="#53A2AB" fill-opacity="0.44"/>
<path d="M1265.19,466.575C1264.887,467.485 1264.584,468.091 1264.584,469C1264.584,471.729 1267.919,473.548 1267.919,476.276C1267.919,477.489 1267.616,478.398 1267.616,479.611C1267.616,480.824 1268.222,482.036 1269.434,482.036C1270.344,482.036 1270.95,481.127 1271.86,480.52C1272.466,479.914 1273.679,479.308 1274.285,480.217C1274.588,480.52 1274.588,481.127 1274.588,481.43C1274.285,484.461 1273.375,487.19 1272.163,489.918C1273.679,490.524 1275.498,489.615 1276.407,488.099C1277.316,486.583 1277.316,484.765 1277.62,483.249C1277.62,482.339 1277.62,481.43 1277.316,480.824C1276.71,479.611 1275.497,479.005 1274.588,478.095C1273.072,476.276 1273.072,473.548 1273.982,471.426C1274.891,469.304 1276.407,467.182 1277.316,465.059C1277.62,464.453 1277.62,463.847 1277.62,463.24C1277.62,462.634 1277.013,462.028 1277.013,461.422C1276.407,459.906 1276.104,458.39 1275.801,456.874C1273.375,442.929 1266.1,464.453 1265.19,466.575Z" fill="#53A2AB" fill-opacity="0.44"/>
<path d="M1291.565,488.099C1291.868,490.524 1290.656,493.252 1288.837,494.768C1288.533,495.071 1287.927,495.374 1287.624,495.981C1286.715,497.8 1288.837,499.315 1290.352,500.528C1295.203,504.166 1295.809,512.351 1291.565,516.898C1291.262,517.201 1290.656,517.808 1290.352,518.111C1290.049,518.717 1290.049,519.324 1290.049,519.93C1290.049,522.658 1290.352,525.084 1291.262,527.509C1288.837,528.721 1285.502,526.599 1284.592,523.871C1283.683,521.143 1284.289,518.111 1284.592,515.383C1284.896,514.473 1284.896,513.26 1284.289,512.351C1283.38,510.835 1280.955,511.138 1279.742,512.351C1278.529,513.564 1278.226,515.383 1277.62,516.898C1277.014,518.414 1276.407,520.233 1274.892,521.143C1273.679,515.383 1278.529,509.319 1284.289,508.713C1285.502,508.713 1287.018,508.713 1287.927,508.107C1289.14,507.501 1289.746,505.682 1288.837,505.075C1287.624,505.075 1287.321,503.56 1287.321,502.65C1287.321,501.741 1287.624,500.225 1286.715,499.619C1285.805,499.012 1284.289,499.619 1283.683,500.528C1283.077,501.438 1282.774,502.65 1282.167,503.56C1281.258,505.075 1279.439,505.985 1277.62,505.379C1277.62,502.953 1279.136,500.225 1281.258,499.316C1279.136,498.709 1277.014,497.497 1276.407,495.375C1275.498,493.252 1277.014,490.524 1279.136,490.827C1280.045,492.646 1280.651,494.768 1281.561,496.587C1283.077,497.497 1285.502,496.587 1286.411,494.768C1287.321,492.949 1287.321,490.827 1287.018,489.008C1289.14,490.221 1291.565,487.189 1290.656,484.764C1290.049,483.551 1288.837,482.642 1287.624,482.339C1290.049,484.158 1291.262,485.977 1291.565,488.099Z" fill="#53A2AB" fill-opacity="0.44"/>
<path d="M966.281,111.884C967.797,110.975 966.584,108.246 965.068,107.64C963.249,107.034 961.43,107.64 959.611,107.64C957.792,107.64 955.67,106.731 955.367,104.912C955.367,104.305 955.367,103.699 955.67,103.396C956.883,100.364 960.521,99.152 962.946,97.03C966.584,93.392 966.887,87.632 970.222,83.691C974.769,78.234 982.954,77.931 988.714,73.687C990.533,72.474 992.049,70.655 993.868,69.443C998.718,66.411 1004.781,66.714 1010.541,66.714C1018.12,66.411 1025.396,64.895 1032.368,62.167C1030.853,69.14 1022.667,71.565 1015.695,73.384C1011.148,74.596 1006.6,75.809 1002.053,77.325C996.293,79.144 990.533,81.569 985.986,85.51C981.135,89.451 977.801,94.908 977.497,100.971C977.497,104.305 981.135,110.975 979.013,113.4C976.285,116.432 969.009,113.097 966.281,111.884Z" fill="#53A2AB" fill-opacity="0.44"/>
<path d="M1141.502,30.943C1139.683,31.549 1138.168,32.156 1136.349,32.459C1137.864,34.884 1141.199,36.097 1143.927,35.187C1146.959,34.278 1149.687,31.549 1152.416,32.762C1153.022,33.975 1151.506,35.49 1150.294,36.097C1149.081,36.703 1147.565,38.522 1148.778,39.734C1149.081,40.038 1149.384,40.038 1149.687,40.341C1155.751,42.16 1162.723,40.644 1168.483,43.372C1170.302,44.282 1172.121,45.494 1173.94,45.494C1176.062,45.494 1177.881,42.766 1176.365,41.553C1175.456,40.644 1173.637,40.644 1173.333,39.431C1172.727,37.006 1178.184,36.097 1176.971,33.975C1173.03,33.975 1169.089,34.278 1165.148,34.278C1163.936,34.278 1162.117,34.278 1161.51,33.065C1161.207,32.459 1161.207,31.549 1160.904,30.943C1160.298,30.337 1159.388,30.337 1158.479,30.337C1156.357,30.64 1154.235,30.64 1152.113,30.943C1156.66,30.337 1162.723,28.215 1167.27,27.002C1161.207,19.726 1143.928,20.333 1141.502,30.943Z" fill="#53A2AB" fill-opacity="0.44"/>
<path d="M1196.374,40.643C1196.374,38.218 1192.736,37.005 1190.311,38.218C1187.886,39.431 1186.673,41.553 1185.157,43.675C1183.338,46.1 1180.913,48.222 1178.791,50.344C1184.854,49.435 1190.614,48.828 1196.677,47.919C1199.102,47.616 1201.831,47.009 1202.437,44.887C1200.012,43.372 1197.587,42.462 1194.555,42.159Z" fill="#53A2AB" fill-opacity="0.44"/>
<path d="M1352.196,76.718C1352.802,76.415 1353.712,75.809 1354.621,75.506C1357.956,74.596 1360.988,79.447 1364.322,78.841C1365.838,78.537 1366.748,77.325 1368.263,76.718C1371.598,75.506 1375.236,78.841 1378.267,76.718C1382.208,73.99 1380.693,71.565 1377.358,70.352C1374.326,69.14 1370.082,70.352 1366.748,69.443C1364.322,68.836 1362.2,67.321 1359.775,66.411C1354.318,63.986 1345.83,60.348 1342.192,67.321C1338.554,73.384 1345.83,80.659 1352.196,76.718Z" fill="#53A2AB" fill-opacity="0.44"/>
<path d="M1400.095,75.203C1397.669,73.384 1394.941,71.868 1391.909,70.958C1391.606,70.958 1391,70.655 1390.697,70.655C1389.181,70.655 1388.272,72.777 1388.575,74.293C1389.181,75.809 1390.697,76.718 1392.213,77.022C1393.728,77.325 1395.244,77.022 1397.063,77.022C1400.398,76.718 1403.732,77.022 1407.067,77.931C1407.673,75.809 1405.551,73.687 1403.429,73.384C1401.307,73.081 1399.185,73.99 1397.366,74.899Z" fill="#53A2AB" fill-opacity="0.44"/>
<path d="M1369.475,87.328C1367.656,86.419 1365.534,85.813 1363.715,85.51C1362.503,85.206 1360.987,85.813 1361.29,86.722C1361.29,87.025 1361.896,87.328 1362.2,87.632C1364.928,89.147 1367.96,90.36 1370.991,91.269C1372.507,91.573 1374.326,91.573 1374.932,90.36C1375.235,89.451 1374.629,88.238 1373.72,87.632C1371.901,86.116 1369.172,85.51 1366.747,86.116Z" fill="#53A2AB" fill-opacity="0.44"/>
<path d="M778.931,43.675C781.659,45.191 784.691,45.494 787.419,46.707C790.451,48.223 792.876,51.557 793.482,54.892C793.785,57.014 793.785,59.439 794.998,61.258C796.817,63.987 800.758,63.987 803.183,62.168C805.608,60.349 806.821,57.014 806.821,53.983C806.821,51.557 806.518,48.829 808.034,47.01C808.64,46.404 809.853,45.797 810.762,45.494C812.581,44.888 814.703,44.282 816.825,44.585C818.947,44.888 820.766,46.707 820.766,48.526C820.766,50.951 818.038,53.376 818.947,55.498C822.888,55.498 826.829,55.498 830.77,55.195C831.983,53.68 831.073,51.254 829.558,50.345C828.042,49.132 825.92,49.132 824.101,48.223C822.282,47.313 820.766,45.797 821.069,43.675C821.676,40.947 825.92,41.25 828.648,41.25C836.53,41.553 843.503,34.278 843.2,26.396C836.227,25.486 832.892,32.762 827.132,34.884C822.282,36.4 819.857,33.671 815.613,34.278C811.065,34.581 809.853,37.612 806.215,38.522C800.758,39.734 796.817,37.006 791.057,36.4C786.813,36.097 767.411,36.703 778.931,43.675Z" fill="#10737F" fill-opacity="0.14"/>
<path d="M709.812,10.934C705.568,18.513 697.988,24.273 689.5,26.698C685.56,27.911 681.012,28.214 677.98,31.246C676.162,33.065 674.948,35.49 674.04,37.915C672.22,42.462 670.098,47.313 670.098,52.466C670.098,57.62 672.22,62.774 676.768,65.199C670.402,68.23 669.796,78.841 675.858,82.479C673.434,88.542 663.43,85.207 658.578,89.451C654.94,92.786 656.456,98.849 658.578,103.396C660.7,107.944 663.732,113.097 661.914,117.645C655.244,114.916 648.272,112.491 641.602,109.763C639.177,115.219 646.452,122.192 651.606,119.16C646.452,128.255 632.811,126.436 623.11,130.983C612.802,135.531 607.346,147.657 597.038,151.901C591.885,154.023 586.125,154.023 580.971,156.448C575.818,158.57 571.573,164.633 573.999,169.484C574.605,170.393 575.211,171.303 575.211,172.515C575.211,173.728 573.999,174.334 573.089,175.244C564.904,182.216 564.601,194.949 565.207,205.862C562.176,207.984 557.931,204.952 556.416,201.618C554.9,198.284 553.99,194.342 550.959,192.22C547.927,190.098 543.683,191.311 540.349,189.795C537.317,188.583 535.195,185.551 533.376,182.519C530.041,177.063 526.707,171.909 523.372,166.452C520.644,161.905 517.612,157.358 516.703,151.901C515.793,146.747 517.915,140.684 522.462,138.259C525.797,136.44 531.254,134.015 528.829,130.983C528.222,130.377 527.313,130.074 526.707,129.771C520.644,127.649 514.58,125.527 508.214,123.101C510.639,115.826 519.128,110.975 526.707,112.794C529.435,108.247 523.069,103.396 517.915,103.699C512.762,103.699 507.002,105.822 502.757,102.487C506.698,97.03 506.395,89.148 503.364,83.388C500.332,77.325 494.572,73.081 488.206,70.352C485.478,69.14 482.446,68.23 479.415,68.23C474.564,68.23 470.017,70.352 465.469,70.352C458.8,70.352 452.434,66.108 448.796,60.348C444.855,54.892 443.036,48.222 440.914,41.856C446.371,44.888 453.647,44.888 458.497,41.553C463.651,37.915 465.773,30.336 462.438,25.183C469.41,23.667 476.08,22.151 483.052,20.635C484.871,20.332 486.69,19.726 488.206,18.816C490.025,17.604 491.541,15.482 493.057,14.269C496.391,11.541 500.939,10.934 505.183,10.328C516.703,9.115 528.222,7.903 540.045,6.387C542.167,6.084 544.593,5.781 546.715,6.387C552.475,7.903 557.628,14.875 562.782,11.844C563.085,9.722 562.176,7.296 560.963,5.478C567.329,2.446 574.908,3.355 582.184,3.355C596.735,3.659 610.983,0.324 625.232,0.021C639.48,-0.282 653.728,2.749 666.46,8.206C662.216,11.237 657.062,13.36 651.91,14.269C655.244,13.966 658.578,14.572 661.914,16.088C659.488,15.178 648.272,23.97 646.452,25.486C652.516,30.336 666.158,20.332 672.22,17.301C684.044,12.147 696.17,8.812 709.812,10.934Z" fill="#53A2AB" fill-opacity="0.44"/>
<path d="M687.985,165.239C684.651,166.452 681.619,168.271 678.891,170.696C676.466,172.818 673.737,175.547 670.403,174.94C667.068,174.334 665.552,170.696 664.339,167.664C662.824,164.633 660.095,161.601 657.064,162.511C658.883,160.389 660.398,158.57 662.217,156.448C658.276,155.841 654.032,155.235 650.091,154.629C649.182,154.629 647.969,154.326 647.363,153.416C645.847,151.597 647.969,149.172 650.394,148.263C655.548,146.747 661.005,149.172 664.643,152.81C666.158,154.326 668.28,156.145 670.403,155.538C671.615,154.932 672.221,153.416 673.131,152.204C675.253,149.475 679.194,149.172 682.832,149.475C688.592,150.082 700.415,145.837 702.537,152.81C704.962,160.692 692.533,163.42 687.985,165.239Z" fill="#10737F" fill-opacity="0.14"/>
<path d="M184.75,111.581C169.592,117.947 153.525,124.313 137.154,124.01C129.879,124.01 122.906,122.494 115.934,121.281C100.473,118.553 85.012,115.522 70.764,109.155C66.823,107.336 63.185,105.517 58.941,105.214C54.393,104.911 49.846,106.73 45.602,108.852C32.869,115.218 21.349,123.404 11.649,133.711C21.956,135.227 31.354,141.29 37.72,149.475C32.869,151.9 26.2,149.778 23.775,144.927C17.408,143.109 9.526,148.262 8.92,154.932C8.314,161.601 14.68,168.27 21.653,167.664C24.078,164.632 27.716,162.207 31.657,161.904C33.476,164.936 35.295,168.27 37.113,171.302C33.779,175.243 28.019,175.546 23.168,176.759C18.318,177.971 12.558,181.306 13.164,186.46C14.074,194.948 30.444,195.554 29.535,204.042C29.838,201.314 63.185,198.889 47.118,217.988C44.692,221.019 40.751,223.141 36.81,222.838C38.023,225.87 37.72,229.811 35.295,231.933C32.869,234.055 28.019,233.448 27.413,230.114C24.684,235.571 17.712,237.086 11.649,237.693C11.042,240.118 10.133,242.543 9.526,244.968C8.92,241.937 4.979,240.118 2.251,241.634C-0.478,243.149 -0.781,247.697 1.644,249.516C3.767,251.335 7.101,251.031 9.83,250.425C11.042,250.122 12.255,249.819 12.861,248.909C13.164,248.303 13.164,247.697 13.164,247.09C13.164,243.756 16.196,241.33 19.227,240.118C22.259,238.905 25.594,238.905 28.625,237.996C33.779,236.783 38.326,234.055 42.57,230.72C47.118,227.082 51.059,222.838 56.212,220.11C58.031,219.2 60.153,218.291 62.275,217.078C76.22,208.59 67.429,193.735 87.74,191.007C88.043,193.735 86.224,196.767 83.193,197.676C89.862,202.527 96.835,187.369 104.717,190.097C106.839,191.007 108.355,192.826 110.174,194.342C113.508,196.767 118.359,196.767 122.603,197.07C139.58,198.586 155.04,211.015 159.891,227.385C167.167,225.263 173.533,233.145 177.171,239.815C183.234,251.031 189.297,262.248 195.36,273.465C199.301,280.438 203.242,287.714 205.06,295.596C207.79,306.812 206.88,318.634 209.608,330.154C212.336,341.372 220.824,352.892 232.648,352.588C234.466,370.17 239.62,387.45 247.806,403.214C243.864,407.156 250.23,413.218 255.688,414.734C261.144,416.25 268.116,420.192 265.994,425.344C272.362,418.372 264.176,407.458 256.598,402.002C248.716,396.546 239.62,387.148 244.47,378.962C247.2,376.234 251.746,379.266 252.96,382.904C254.172,386.542 254.172,390.786 256.598,393.514C258.72,395.938 262.356,396.546 265.086,398.364C275.392,404.428 273.27,421.708 283.274,428.376C286.912,430.802 291.762,431.408 294.794,434.44C296.916,436.562 298.13,439.594 299.644,442.624C304.798,452.326 315.408,457.782 325.412,462.936C328.444,464.452 331.172,465.968 334.204,467.18C350.878,475.366 367.248,483.854 383.922,492.038C385.438,492.948 387.256,493.554 389.076,492.948C395.744,490.22 382.102,478.094 387.862,473.546C379.678,469.606 371.492,465.664 363.61,461.724C368.764,457.176 369.37,448.688 365.126,443.232C368.158,442.624 370.582,439.896 371.19,436.864C367.552,433.226 361.186,436.258 358.154,440.502C355.426,444.746 354.212,450.204 350.574,453.842C342.086,462.026 327.232,453.236 323.898,442.018C320.562,430.802 324.504,418.978 325.716,407.156C326.322,402.608 326.626,397.152 330.264,394.12C338.752,387.45 351.182,401.396 361.186,397.152C364.824,395.332 367.248,391.392 370.886,389.27C376.95,385.632 385.438,388.966 389.682,394.726C393.926,400.486 395.138,407.762 396.048,414.734C398.17,418.07 403.626,414.432 403.324,410.49C403.02,406.55 399.988,403.822 397.866,400.486C392.41,392.302 394.836,379.872 403.02,374.416C410.296,369.262 422.12,367.442 422.422,358.652C422.726,352.892 417.268,348.344 417.268,342.584C416.966,337.734 420.906,333.49 424.242,329.852C434.246,319.848 444.25,309.844 453.95,299.84C456.376,297.414 459.104,294.988 462.438,295.292C465.774,295.596 467.592,301.052 464.56,302.264C476.384,302.568 491.844,299.84 492.754,288.32C487.904,292.564 482.446,295.596 476.384,297.414C475.778,291.958 477.294,286.198 480.93,281.65C476.686,274.071 466.076,271.949 457.892,274.677C449.706,277.406 443.036,283.468 436.67,289.228C446.068,278.012 459.104,268.614 473.656,266.795C479.112,266.189 485.176,266.492 490.026,263.764C496.696,259.823 502.758,250.122 509.428,253.76C504.576,262.248 499.726,271.04 494.572,279.528C499.726,279.224 505.184,278.618 510.336,278.315C512.46,281.954 513.672,286.198 513.368,290.442C519.734,290.138 528.83,285.59 525.798,279.832C524.282,276.799 520.342,276.193 517.916,274.071C510.944,268.311 516.4,256.488 512.762,248C510.944,243.756 507.306,241.027 503.668,237.996C488.814,225.87 476.99,209.802 470.018,191.613C468.198,195.857 466.38,200.405 462.742,203.133C459.104,205.861 453.04,205.861 450.616,201.92C449.402,199.798 449.402,197.07 448.796,194.645C447.28,189.188 442.128,185.55 436.974,182.822C431.214,179.184 424.242,175.546 417.572,177.668C410.902,179.79 409.386,191.613 416.36,192.826C409.992,193.129 410.296,202.83 413.934,208.287C417.572,213.44 422.726,220.11 419.088,225.263C416.056,230.114 408.174,229.507 405.142,234.358C402.11,238.905 405.446,244.665 407.568,249.819C409.992,254.669 409.69,262.551 404.536,263.461C399.988,264.37 396.654,259.217 395.744,254.366C394.532,247.09 395.442,239.208 392.106,232.842C388.772,226.476 377.858,223.141 374.524,229.811C372.706,223.141 367.248,217.684 360.882,215.562C355.426,214.047 349.666,214.35 344.512,211.925C336.932,208.287 333.598,199.798 330.87,191.613C340.874,185.853 351.182,179.487 355.728,169.18C356.942,166.451 357.548,163.117 359.972,160.995C362.094,159.176 364.824,158.569 367.248,156.75C369.37,155.235 370.886,151.597 368.764,149.778C371.796,147.959 375.13,147.353 378.464,147.959C384.224,155.841 366.642,169.18 374.828,174.03C379.374,176.759 384.224,171.302 386.346,166.451C389.984,167.967 393.622,169.483 397.26,170.696C401.808,167.058 396.352,159.782 391.198,157.054C385.74,154.325 379.072,149.475 381.8,144.018C386.65,144.018 391.5,143.715 396.048,143.715C396.352,139.168 393.32,134.62 389.076,133.104C391.5,129.163 393.926,125.526 396.352,121.585C394.228,119.159 390.592,117.947 387.256,118.856C396.958,117.34 406.356,114.612 415.146,110.065C422.422,118.25 429.092,126.738 435.458,135.53C436.368,137.045 437.58,138.561 437.58,140.38C437.58,144.321 433.032,145.837 429.698,147.656C426.364,149.475 424.242,155.538 428.182,156.447C427.576,159.176 423.332,159.176 421.21,157.66C419.088,156.144 416.662,153.719 413.934,153.719C408.478,154.022 409.386,163.42 414.54,165.239C419.694,166.755 424.848,163.42 429.394,160.388C439.398,169.483 451.526,176.455 464.56,180.7C459.408,179.487 455.466,174.03 456.376,168.573C462.438,170.392 468.198,173.121 473.352,176.759C477.9,171.302 472.14,163.723 466.38,159.782C460.62,155.841 453.344,151.294 454.254,144.321C461.832,144.018 469.412,148.565 473.048,155.235C475.778,151.294 478.808,147.05 481.538,143.109C478.202,132.498 457.588,135.53 455.466,124.616C455.162,122.494 455.466,120.069 454.254,118.25C452.132,115.522 448.19,117.037 444.552,116.734C432.73,116.431 425.756,96.726 414.844,101.273C419.39,92.785 406.356,81.871 398.776,87.934C403.02,89.45 407.568,91.572 409.084,95.816C410.6,100.061 406.052,105.517 402.414,103.395C398.474,101.273 400.292,94.907 398.17,90.966C395.442,86.116 387.56,87.025 384.528,91.572C381.496,96.12 381.8,102.183 383.012,107.336C380.284,107.336 377.858,107.336 375.13,107.033C374.524,99.758 376.04,92.179 379.374,85.509C376.342,80.962 369.37,85.206 366.036,89.753C362.398,94.301 358.76,99.151 357.85,104.911C356.638,110.671 359.064,117.34 364.52,119.463C367.854,120.675 372.098,120.069 375.434,121.281C383.316,124.313 380.284,139.168 371.796,138.864C369.068,134.62 367.552,129.467 367.248,124.616C363.004,125.829 359.366,127.951 356.032,130.679C351.788,120.372 346.028,110.671 339.054,102.486C340.874,99.151 342.39,95.816 344.208,92.785C351.182,95.816 359.67,88.541 358.154,81.265C352.394,79.749 346.634,77.93 340.874,79.446C335.114,80.659 329.96,86.116 330.566,91.875C331.172,95.513 333.598,98.242 334.508,101.576C335.418,104.911 333.296,109.762 329.96,109.155C328.142,117.34 345.724,117.644 346.634,126.132C347.24,132.195 339.054,134.317 333.296,134.317C335.114,140.077 334.81,146.443 332.688,151.9C328.142,143.412 330.566,132.195 338.146,126.132C333.598,119.159 323.29,117.037 316.318,121.585C319.046,125.526 322.988,128.557 327.536,129.77C325.11,132.498 322.684,135.227 320.26,138.258C315.106,134.62 307.83,137.349 301.464,137.955C295.098,138.258 287.216,131.286 291.762,126.738C287.822,124.313 282.668,123.707 279.03,126.132C275.392,128.86 275.09,135.53 279.03,137.349C270.542,139.471 256.294,124.01 250.23,135.833C246.29,123.707 240.226,120.069 227.798,119.463C219.612,119.159 195.663,113.096 191.419,119.766C188.084,120.069 184.75,111.581 184.75,111.581Z" fill="#10737F" fill-opacity="0.14"/>
<path d="M207.486,79.447C202.939,80.053 200.21,85.207 199.604,89.754C198.998,94.302 199.604,99.455 197.179,103.396C196.572,104.306 195.966,105.215 195.663,106.428C195.057,109.763 199.301,111.885 202.635,111.278C212.033,109.763 218.096,97.03 227.494,98.546C227.494,100.971 227.797,103.699 227.797,106.125C233.86,106.125 240.226,105.215 246.289,103.396C248.108,104.609 247.199,107.64 245.077,108.55C242.955,109.459 240.833,109.156 238.711,109.459C236.589,109.763 234.163,110.672 233.86,113.097C238.104,111.885 242.348,110.672 246.593,111.581C250.837,112.491 254.778,115.826 254.778,120.373C248.715,120.07 242.652,120.373 236.892,120.979C240.226,124.92 246.289,124.314 251.14,124.92C256.294,125.527 262.357,129.468 260.538,134.318C267.51,127.042 278.727,124.617 288.125,128.558C290.55,129.468 292.672,130.68 295.097,131.287C297.522,131.893 300.554,131.287 301.767,129.164C302.979,127.042 301.767,123.405 299.341,123.708C302.676,123.405 305.404,120.676 306.314,117.645C300.857,119.464 294.188,116.432 291.763,110.975C289.64,106.125 290.853,99.758 287.215,95.818C290.247,96.727 293.581,93.089 292.672,89.754C291.763,86.42 288.428,84.601 285.093,84.298C282.971,84.298 280.546,84.904 279.333,86.723C278.121,88.542 278.424,91.27 280.243,92.483C277.817,91.27 275.089,90.058 272.664,88.845C271.754,95.211 283.881,98.849 281.152,104.609C279.333,108.247 272.967,105.822 272.361,101.881C271.754,99.152 272.361,95.818 269.935,94.605C265.388,92.483 262.053,103.699 257.506,100.971C257.809,98.546 258.112,95.818 258.416,93.392C252.656,93.089 246.896,94.908 242.955,98.849C243.561,96.424 243.864,93.999 244.471,91.573C238.407,88.239 232.344,100.062 225.675,97.94C232.041,100.062 246.289,87.632 235.073,82.479C232.344,81.266 226.888,83.085 223.856,83.085C218.096,82.176 212.639,78.841 207.486,79.447Z" fill="#53A2AB" fill-opacity="0.44"/>
<path d="M235.073,53.377C230.829,51.255 225.372,53.68 221.734,56.711C218.097,59.743 215.065,63.987 210.518,66.109C208.396,67.019 205.97,67.625 204.758,69.444C212.034,69.444 219.309,68.837 226.585,67.928C226.282,70.353 225.069,72.778 223.25,74.294C226.585,75.507 229.616,71.263 229.92,67.625C229.92,66.412 230.223,65.2 231.132,64.593C231.738,63.987 232.951,63.987 233.861,63.987C236.892,63.381 239.621,60.652 239.317,57.621C239.014,54.589 234.77,52.467 232.345,54.286Z" fill="#53A2AB" fill-opacity="0.44"/>
<path d="M258.113,73.688C259.022,73.082 259.628,72.172 259.325,70.96C254.778,70.96 250.534,67.322 249.927,62.774C247.199,61.259 243.258,62.471 242.349,65.2C241.136,67.928 243.258,71.566 246.29,72.172C242.045,73.991 237.498,75.81 233.254,77.932C241.742,82.48 251.746,72.475 260.841,74.597C260.841,75.81 260.841,76.72 260.841,77.932C256.9,77.932 252.959,79.751 250.231,82.783C257.203,83.389 264.176,81.57 270.239,77.932C271.755,77.023 273.573,75.507 275.392,75.204C277.211,74.901 278.727,75.507 280.546,75.81C284.487,76.416 289.641,73.991 289.641,70.05C286.912,69.141 283.881,68.838 281.152,69.141C280.243,63.684 273.573,60.349 268.723,62.774C268.723,66.412 270.542,70.05 273.27,72.475C270.542,74.901 266.298,75.204 262.963,73.385C261.447,72.475 259.932,71.263 258.416,71.263C256.597,71.263 254.172,72.475 253.262,70.96Z" fill="#53A2AB" fill-opacity="0.44"/>
<path d="M263.266,47.01C256.293,46.1 249.321,47.313 243.258,50.344C246.593,51.86 249.927,53.376 253.262,54.892C254.171,55.195 254.778,55.498 255.687,55.498C256.293,55.498 257.203,55.195 257.809,54.892C261.144,53.376 264.175,52.163 267.51,50.647C266.904,49.738 266.298,49.132 265.691,48.222C267.207,49.132 269.329,47.919 269.329,46.1C269.329,44.281 267.813,42.765 266.298,42.462C264.782,41.856 262.963,42.159 261.144,42.765C259.022,43.372 257.203,43.978 255.384,44.584C256.293,46.706 258.416,48.222 260.538,48.829C260.538,49.738 260.538,50.344 260.538,51.254Z" fill="#53A2AB" fill-opacity="0.44"/>
<path d="M311.165,48.222C309.649,48.222 308.74,46.403 308.74,45.191C308.74,43.675 309.043,42.159 308.134,40.946C306.315,37.612 301.464,40.037 297.826,39.431C295.704,39.127 293.885,37.612 291.763,36.702C289.641,35.793 286.913,36.399 286.306,38.521C285.7,40.946 288.428,42.765 290.854,42.765C293.279,42.765 295.704,41.856 298.129,42.765C298.433,42.765 299.039,43.068 299.342,43.372C301.161,45.797 294.795,47.313 295.401,50.041C295.704,51.557 297.523,51.86 298.736,51.86C300.858,52.163 302.98,52.163 305.102,52.466C307.224,52.769 309.649,52.769 311.468,51.557C313.287,50.344 313.287,47.009 311.165,46.403Z" fill="#53A2AB" fill-opacity="0.44"/>
<path d="M322.078,70.049C323.29,68.533 322.684,66.411 321.168,65.198C319.653,63.986 317.531,63.986 315.712,63.986C310.255,63.986 304.798,64.592 299.645,66.108C298.129,66.411 296.31,67.017 294.794,66.714C293.278,66.411 291.459,64.895 292.066,63.076C289.944,65.501 292.672,69.746 295.704,70.655C299.038,71.564 302.373,70.655 305.708,70.655C309.042,70.958 312.983,73.08 312.68,76.415C312.68,77.324 312.377,77.931 312.68,78.84C312.983,79.75 314.196,80.053 315.105,80.053C319.653,79.75 322.987,74.596 321.472,70.352C320.259,70.655 319.35,69.746 318.743,68.836C320.865,67.927 322.381,66.411 322.684,64.289C319.047,62.773 314.802,63.379 311.164,65.198Z" fill="#53A2AB" fill-opacity="0.44"/>
<path d="M320.26,88.846C322.079,87.633 320.866,83.995 318.744,83.389C316.622,82.783 314.197,83.995 312.378,85.208C312.378,87.027 312.075,89.149 312.075,90.968C309.953,90.361 307.527,90.968 305.708,92.18C309.043,93.09 311.771,95.818 312.378,99.153C309.346,101.275 304.496,99.759 302.98,96.424C302.374,94.909 302.071,92.483 300.555,92.18C298.13,91.271 296.917,95.212 297.826,97.334C300.555,103.094 309.346,102.791 314.197,107.035C316.016,108.551 318.744,110.673 319.957,109.157C321.169,107.641 319.653,105.822 318.138,104.61C319.957,104.913 321.776,104.913 323.291,104.306C324.807,103.7 326.02,101.578 325.11,100.062C324.807,99.153 323.898,98.85 322.988,98.243C320.26,96.121 319.35,92.18 320.866,89.149C319.957,88.846 319.047,88.239 318.138,87.936Z" fill="#53A2AB" fill-opacity="0.44"/>
<path d="M405.749,73.384C399.989,69.746 392.41,68.837 385.741,70.353C380.89,71.565 376.343,73.99 371.492,74.597C364.217,75.203 357.244,70.656 353.303,64.593C358.76,60.955 366.945,68.231 372.705,64.896C374.221,63.986 375.433,62.167 377.252,61.561C379.071,60.652 381.193,60.955 383.012,61.561C392.41,63.077 401.505,64.896 410.902,66.412C412.115,62.471 408.477,57.923 404.536,57.923C409.387,56.104 414.237,53.982 419.088,52.163C421.513,51.254 424.241,50.041 425.454,47.616C426.666,45.191 425.757,41.553 423.332,41.25C434.548,37.309 445.462,32.458 455.769,26.698C454.86,24.88 453.647,23.061 452.738,21.242C460.013,21.848 467.289,19.726 473.049,15.179C464.864,14.572 456.982,15.179 449.1,17.301C462.439,19.12 476.384,16.694 488.51,10.934C484.266,6.993 476.081,12.147 471.836,8.206C470.624,6.993 470.017,5.175 468.502,4.265C466.986,2.749 464.561,2.749 462.439,2.446C440.611,1.234 418.784,1.84 396.957,4.265C393.319,4.568 388.772,6.084 388.772,9.722C383.619,9.419 378.465,9.419 373.008,9.116C369.37,14.269 361.791,16.088 356.032,13.663C354.819,15.785 353.303,17.907 352.091,19.726C355.728,22.151 360.276,23.364 364.52,23.061C367.248,28.517 376.04,29.73 379.981,25.183C381.8,31.549 391.197,30.336 396.654,27.002C402.111,23.667 409.387,19.12 414.54,23.061C407.568,28.517 398.776,31.246 389.985,30.639C392.107,33.368 394.229,35.793 396.654,38.521C391.197,38.825 386.65,35.49 381.8,32.762C376.949,30.033 370.886,28.214 366.642,31.549C370.583,34.884 374.524,37.915 378.465,41.25C367.551,35.49 356.941,29.73 346.027,24.273C342.996,22.454 339.055,20.939 335.72,22.151C332.385,23.364 331.476,29.124 334.811,30.336C332.082,30.943 329.96,33.065 329.051,35.49C335.417,36.096 341.783,37.915 347.543,40.644C344.815,41.553 342.086,42.462 339.358,43.372C345.421,45.494 351.787,47.313 357.85,49.435C359.063,49.738 360.579,50.344 361.791,49.738C363.004,49.132 363.307,47.616 363.914,46.403C365.732,43.069 370.886,41.553 374.221,43.675C373.311,45.494 372.705,47.313 371.796,49.132C374.827,49.132 377.555,49.132 380.587,49.132C380.587,50.648 380.587,52.467 380.587,53.982C384.831,54.589 389.075,54.589 393.319,53.679C391.804,59.439 383.619,59.742 378.465,57.014C373.311,54.285 369.37,49.435 363.61,47.616C365.429,51.86 368.158,55.498 371.796,58.226C364.217,57.014 356.335,57.62 349.362,60.349C348.756,58.833 347.846,57.317 347.24,55.801C341.48,58.226 342.39,66.715 344.208,72.778C344.815,74.597 345.421,76.416 346.634,77.931C349.362,81.266 354.213,81.569 358.457,81.569C364.823,81.872 371.189,81.872 377.555,82.176C386.65,82.176 406.052,86.42 405.749,73.384Z" fill="#53A2AB" fill-opacity="0.44"/>
<path d="M335.72,66.411C337.539,65.198 340.57,66.107 341.48,64.288C342.086,62.773 340.57,61.257 339.054,60.651C337.539,59.741 336.023,58.529 336.326,57.013C335.113,57.316 333.901,57.013 332.688,56.406C335.417,55.8 338.145,54.891 340.57,54.284C341.48,53.981 342.995,53.072 342.389,52.162C342.086,51.859 341.783,51.859 341.48,51.556C339.964,51.253 338.145,50.95 336.629,50.04C335.113,49.131 334.507,47.009 335.72,45.796C334.81,45.796 333.901,45.493 332.991,45.493C332.991,44.887 332.991,43.977 332.991,43.371C328.141,43.371 323.594,42.765 318.743,42.158C318.137,45.19 321.168,48.828 324.2,48.221C324.806,48.221 325.412,47.918 325.716,48.221C326.019,48.524 326.322,49.131 326.322,49.434C326.928,50.647 328.747,51.253 329.96,50.647C329.657,51.556 329.05,52.465 328.141,53.072C329.657,53.981 331.476,54.284 332.991,54.588C331.779,55.8 329.96,56.406 328.444,56.71C329.05,57.316 329.96,57.922 330.566,58.529C328.747,58.529 326.928,58.529 325.109,58.529C324.503,60.347 326.322,61.863 327.838,62.47C329.657,63.076 338.448,68.836 333.294,71.261C330.263,72.777 329.05,67.623 329.96,65.804C331.779,69.745 331.172,75.202 334.204,78.537C336.326,80.962 339.661,81.568 341.783,78.234C345.421,73.08 336.629,71.261 335.72,66.411Z" fill="#53A2AB" fill-opacity="0.44"/>
<path d="M388.469,503.863C386.347,509.623 393.016,515.989 398.776,513.867C400.292,513.261 401.808,512.048 403.323,511.745C408.174,510.836 410.902,516.899 411.812,521.749C413.024,527.206 414.237,532.966 412.115,538.119C409.69,544.182 403.02,548.73 402.414,555.096C401.808,560.553 405.446,566.01 403.627,571.163C402.717,573.588 400.898,575.407 399.989,577.529C398.473,581.774 400.292,586.321 402.111,590.262C408.174,603.601 414.237,616.939 420.3,630.278C421.816,633.31 423.029,636.341 425.757,638.463C427.879,639.979 430.607,640.889 432.729,642.101C436.367,644.526 438.489,648.164 440.611,652.105C444.552,659.078 448.19,666.05 450.009,673.932C452.131,684.543 450.009,695.456 448.19,706.066C445.159,721.528 442.127,736.988 439.096,752.45C435.761,769.426 432.426,786.706 429.092,803.682C432.729,801.56 435.458,797.922 436.367,793.678C438.186,804.896 435.761,816.414 430.304,826.116C429.698,821.872 429.395,817.628 428.788,813.686C424.544,822.478 422.422,832.482 422.725,842.182C422.725,844.002 423.029,845.82 424.241,847.034C425.454,848.246 427.273,848.55 428.788,849.156C432.123,850.974 433.336,855.218 431.82,858.554C433.639,858.856 435.155,859.462 436.974,859.766C439.702,861.888 433.336,864.92 433.336,868.254C433.336,869.77 434.548,870.68 435.458,871.588C440.308,875.834 445.159,880.078 450.009,884.322C453.344,885.23 456.982,886.444 460.316,885.838C463.651,885.23 467.289,882.806 467.592,879.168C467.895,874.318 463.045,871.286 459.71,867.648C454.86,862.192 453.344,854.006 454.86,846.428C456.375,838.848 459.407,832.178 463.045,825.51C460.923,824.6 458.801,823.994 456.375,823.084C456.679,818.234 461.529,815.202 464.864,811.262C470.624,804.288 470.017,793.072 463.651,787.008C466.076,785.19 468.502,783.674 470.927,781.856C473.049,784.886 474.868,788.222 476.99,791.254C481.84,787.312 483.659,780.036 481.234,774.276C492.451,777.004 504.88,767.91 505.79,756.39C503.061,756.39 500.939,753.056 501.849,750.63C502.758,747.902 506.396,746.992 508.518,748.508C507.305,751.844 510.943,755.178 514.278,754.874C517.613,754.572 520.341,751.54 521.25,748.206C522.463,744.87 522.463,741.536 523.069,738.202C523.979,732.744 526.404,727.59 530.042,723.65C533.073,720.316 536.711,717.284 538.53,713.04C539.743,710.008 539.743,706.37 540.349,703.338C542.168,692.424 550.05,683.027 560.357,679.389C560.66,684.24 568.239,683.33 571.877,679.996C577.334,675.145 580.669,668.476 581.881,661.2C582.791,654.834 581.881,648.164 584.913,642.708C586.125,640.282 587.945,638.16 588.853,635.735C589.459,633.613 589.157,631.188 589.157,628.762C589.763,616.333 603.101,606.632 601.587,594.506C600.677,586.624 593.705,580.864 587.337,576.014C577.637,568.738 567.33,561.159 555.204,559.643C547.625,558.734 539.137,560.25 532.164,556.612C535.196,556.309 537.318,553.277 537.621,550.246C537.924,547.214 536.408,544.183 535.196,541.454C534.286,539.635 533.377,537.816 532.467,535.694C528.829,528.115 523.069,519.021 514.581,520.233C512.156,520.536 509.427,521.749 507.305,520.537C505.486,519.324 505.183,516.596 503.971,514.473C499.727,506.288 484.266,509.623 481.84,501.135C481.234,499.012 481.84,495.981 480.022,494.465C478.809,492.949 476.687,492.949 474.565,493.253C465.773,493.556 457.285,493.859 448.493,494.162C448.19,497.497 446.068,500.831 443.037,502.044C443.34,504.166 443.946,505.985 444.249,508.107C443.643,511.745 437.58,511.139 436.064,508.107C434.548,504.772 436.064,500.831 437.883,497.8C439.702,494.768 441.824,491.434 441.824,487.796C437.883,485.977 433.942,489.918 431.214,493.253C428.485,496.587 422.725,499.316 420.3,495.981C420.603,499.619 420.906,503.257 421.21,506.895C415.753,511.745 405.446,509.623 402.414,502.953C400.292,505.682 397.867,508.41 394.532,509.32C391.197,510.229 386.953,508.107 386.953,504.772C388.772,512.048 396.048,517.808 403.627,517.808Z" fill="#53A2AB" fill-opacity="0.44"/>
<path d="M380.587,432.622C383.315,435.35 387.256,431.409 391.197,430.803C394.835,430.5 397.867,433.228 400.595,435.654C403.324,438.079 407.568,440.201 410.296,437.776C411.509,443.536 419.391,446.264 423.938,442.626C423.635,444.748 426.06,445.961 428.182,445.658C430.304,445.354 431.82,444.142 433.942,443.839C436.974,443.536 439.702,446.264 439.702,448.992C439.702,450.205 438.186,450.508 437.277,450.205C436.367,449.902 435.155,449.296 434.245,449.902C433.639,450.205 433.336,451.114 433.033,451.721C431.517,453.843 427.879,453.237 425.454,452.327C422.725,451.418 419.088,451.114 418.178,453.843C426.363,455.359 434.852,455.359 443.037,453.54C442.43,454.146 442.734,455.359 443.643,455.662C444.553,455.965 445.462,455.965 446.371,455.662C449.706,454.752 453.344,454.146 456.679,453.236C458.801,454.449 461.529,454.449 463.651,453.236C463.651,454.146 463.348,455.055 463.348,455.965C467.289,457.784 472.746,455.965 474.868,452.327C469.108,451.418 463.348,450.508 457.588,449.599C453.344,448.992 449.1,448.083 445.765,445.961C442.127,443.839 439.399,440.504 435.458,439.291C430.001,437.472 423.635,440.201 418.481,438.079C413.328,435.957 409.993,429.59 404.536,429.287C402.717,429.287 400.898,429.894 399.079,429.287C394.835,427.468 395.441,423.527 389.985,425.346C388.166,426.256 381.496,433.531 380.587,432.622Z" fill="#53A2AB" fill-opacity="0.44"/>
<path d="M842.594,323.486C839.866,328.943 838.653,335.006 839.866,340.766C841.685,351.073 849.567,360.471 847.445,370.475C844.11,369.566 840.472,368.656 837.138,367.747Z" fill="#53A2AB" fill-opacity="0.44"/>
<path d="M879.578,187.369C879.275,187.975 878.972,188.582 878.972,189.188Z" fill="#53A2AB" fill-opacity="0.44"/>
<path d="M880.184,183.428C880.184,181.003 878.972,178.578 877.456,176.759Z" fill="#53A2AB" fill-opacity="0.44"/>
</g>
</svg>
