<svg width="274" height="274" viewBox="0 0 274 274" fill="none" xmlns="http://www.w3.org/2000/svg" xmlns:xlink="http://www.w3.org/1999/xlink">
<path d="M82.22,115.007L82.22,128.319L68.908,135.878L55.596,128.319L55.596,115.007C55.596,107.655 61.556,101.695 68.908,101.695C76.26,101.696 82.22,107.655 82.22,115.007Z" fill="#FFBD86"/>
<path d="M122.094,171.255L155.077,171.255C160.527,166.379 163.96,159.296 163.96,151.408C163.96,136.704 152.04,124.784 137.337,124.784C122.633,124.784 110.713,136.704 110.713,151.408C110.713,156.07 111.914,160.45 114.02,164.261L122.094,171.255Z" fill="#FFBD86"/>
<path d="M150.19,128.09C152.295,131.901 153.497,136.281 153.497,140.944C153.497,155.647 141.577,167.567 126.873,167.567C122.211,167.567 117.831,166.365 114.02,164.26C118.555,172.468 127.295,178.03 137.337,178.03C152.041,178.03 163.961,166.11 163.961,151.407C163.961,141.365 158.399,132.625 150.19,128.09Z" fill="#F6A96C"/>
<path d="M192.453,115.007L192.453,128.319L205.765,135.878L219.077,128.319L219.077,115.007C219.077,107.655 213.117,101.695 205.765,101.695C198.413,101.696 192.453,107.655 192.453,115.007Z" fill="#F6A96C"/>
<path d="M207.983,128.317L192.453,128.317L192.453,168.754L166.966,178.03L107.706,178.03L82.22,168.754L82.22,128.317L55.596,128.317L55.596,173.722C55.596,179.352 58.268,184.648 62.795,187.995L99.589,215.193C101.003,216.239 101.839,217.894 101.839,219.653L101.839,266.992C101.839,269.936 104.225,272.322 107.169,272.322L167.505,272.322C170.448,272.322 172.835,269.936 172.835,266.992L172.835,219.653C172.835,217.894 173.669,216.239 175.084,215.193L211.878,187.995C216.405,184.648 219.077,179.352 219.077,173.722L219.077,139.411L207.983,128.317Z" fill="#128593"/>
<path d="M207.983,128.317L207.983,173.722C207.983,175.824 206.974,177.825 205.284,179.074L166.241,207.935C163.411,210.027 161.742,213.337 161.742,216.856L161.742,266.992C161.742,269.936 159.356,272.322 156.412,272.322L167.505,272.322C170.449,272.322 172.835,269.936 172.835,266.992L172.835,219.653C172.835,217.894 173.67,216.239 175.085,215.193L211.878,187.995C216.406,184.648 219.077,179.352 219.077,173.722L219.077,128.317L207.983,128.317Z" fill="#107380"/>
<path d="M142.31,2.524L151.258,20.652C152.066,22.289 153.627,23.424 155.434,23.687L175.44,26.593C179.99,27.254 181.806,32.845 178.514,36.054L164.037,50.165C162.73,51.44 162.133,53.275 162.442,55.075L165.859,75C166.637,79.531 161.881,82.986 157.812,80.847L139.918,71.44C138.302,70.59 136.372,70.59 134.756,71.44L116.862,80.847C112.793,82.986 108.037,79.531 108.814,75L112.231,55.075C112.54,53.275 111.944,51.44 110.636,50.165L96.16,36.054C92.868,32.845 94.684,27.254 99.233,26.593L119.24,23.687C121.047,23.424 122.608,22.29 123.416,20.652L132.363,2.524C134.397,-1.599 140.276,-1.599 142.31,2.524Z" fill="#FFE177"/>
<path d="M178.514,36.055C181.806,32.846 179.99,27.255 175.44,26.595L160.114,24.368C154.58,44.639 136.046,59.545 114.02,59.545C113.167,59.545 112.319,59.52 111.477,59.476L108.814,75.001C108.037,79.532 112.793,82.987 116.862,80.848L134.756,71.441C136.372,70.591 138.302,70.591 139.918,71.441L157.812,80.848C161.881,82.987 166.637,79.532 165.86,75.001L162.442,55.076C162.133,53.276 162.73,51.441 164.037,50.166L178.514,36.055Z" fill="#FFD15B"/>
<path d="M234.996,23.784L218.524,45.21C215.72,48.858 218.32,54.137 222.921,54.137L228.3,54.137L228.3,89.285C228.3,92.349 230.783,94.832 233.847,94.832L244.94,94.832C248.003,94.832 250.487,92.349 250.487,89.285L250.487,54.137L255.866,54.137C260.468,54.137 263.068,48.858 260.264,45.21L243.791,23.784C241.571,20.895 237.217,20.895 234.996,23.784Z" fill="#8BC727"/>
<path d="M30.883,23.784L14.41,45.21C11.606,48.858 14.207,54.137 18.807,54.137L24.187,54.137L24.187,89.285C24.187,92.349 26.67,94.832 29.734,94.832L40.827,94.832C43.89,94.832 46.374,92.349 46.374,89.285L46.374,54.137L51.753,54.137C56.354,54.137 58.955,48.858 56.15,45.21L39.678,23.784C37.457,20.895 33.103,20.895 30.883,23.784Z" fill="#97D729"/>
<path d="M259.864,115.019L263.151,121.679C263.448,122.28 264.021,122.697 264.685,122.794L272.035,123.862C273.707,124.105 274.374,126.159 273.164,127.337L267.846,132.521C267.366,132.989 267.147,133.664 267.26,134.325L268.516,141.645C268.801,143.31 267.054,144.579 265.559,143.793L258.985,140.337C258.392,140.025 257.683,140.025 257.089,140.337L250.515,143.793C249.02,144.579 247.273,143.31 247.559,141.645L248.814,134.325C248.928,133.664 248.709,132.989 248.229,132.521L242.91,127.337C241.701,126.159 242.368,124.105 244.04,123.862L251.39,122.794C252.053,122.697 252.627,122.28 252.924,121.679L256.211,115.019C256.957,113.504 259.117,113.504 259.864,115.019Z" fill="#FFD15B"/>
<path d="M14.808,115.019L11.521,121.679C11.224,122.28 10.651,122.697 9.987,122.794L2.637,123.862C0.965,124.105 0.298,126.159 1.507,127.337L6.826,132.521C7.306,132.989 7.525,133.664 7.411,134.325L6.156,141.645C5.87,143.31 7.617,144.579 9.112,143.793L15.686,140.337C16.28,140.025 16.989,140.025 17.582,140.337L24.156,143.793C25.651,144.579 27.398,143.31 27.113,141.645L25.857,134.325C25.743,133.664 25.963,132.989 26.443,132.521L31.761,127.337C32.97,126.159 32.303,124.105 30.632,123.862L23.282,122.794C22.618,122.697 22.044,122.28 21.747,121.679L18.46,115.019C17.715,113.504 15.555,113.504 14.808,115.019Z" fill="#FFE177"/>
<path d="M199.663,72.004L196.45,72.004L196.45,67.127C196.45,64.919 194.66,63.129 192.452,63.129C190.245,63.129 188.455,64.919 188.455,67.127L188.455,72.004L185.241,72.004C183.034,72.004 181.244,73.793 181.244,76.001C181.244,78.209 183.034,79.998 185.241,79.998L188.455,79.998L188.455,84.875C188.455,87.084 190.245,88.873 192.452,88.873C194.66,88.873 196.45,87.084 196.45,84.875L196.45,79.998L199.663,79.998C201.87,79.998 203.66,78.209 203.66,76.001C203.66,73.793 201.87,72.004 199.663,72.004Z" fill="#FFD15B"/>
<path d="M89.43,72.004L86.217,72.004L86.217,67.127C86.217,64.919 84.427,63.129 82.22,63.129C80.012,63.129 78.222,64.919 78.222,67.127L78.222,72.004L75.009,72.004C72.802,72.004 71.012,73.793 71.012,76.001C71.012,78.209 72.802,79.998 75.009,79.998L78.222,79.998L78.222,84.875C78.222,87.084 80.012,88.873 82.22,88.873C84.427,88.873 86.217,87.084 86.217,84.875L86.217,79.998L89.43,79.998C91.638,79.998 93.428,78.209 93.428,76.001C93.428,73.793 91.638,72.004 89.43,72.004Z" fill="#FFE177"/>
</svg>
