<svg width="1538" height="888" viewBox="0 0 1538 888" fill="none" xmlns="http://www.w3.org/2000/svg" xmlns:xlink="http://www.w3.org/1999/xlink">
<g opacity="0.5">
<path d="M957.866,490.524C946.044,498.709 930.278,501.134 916.334,496.89C914.818,496.284 913,495.677 912.392,494.162C911.18,492.04 913,489.614 913.302,487.189C914.212,480.217 904.208,477.185 901.176,471.122C899.964,468.697 899.964,465.665 899.66,462.937C897.842,438.381 885.11,416.554 874.196,394.424C873.286,392.908 872.68,391.089 872.982,389.27C873.286,387.451 875.408,385.936 876.924,386.845C875.712,391.089 878.44,395.94 882.38,397.152C884.2,390.18 885.11,380.782 878.742,377.144C876.62,375.932 873.892,375.628 871.468,375.628C861.766,375.022 851.762,375.628 842.061,377.144C840.545,377.447 838.726,377.75 837.21,376.841C835.998,376.235 835.391,374.719 834.482,373.506C832.057,370.172 825.69,368.656 822.356,371.384C818.718,374.416 821.446,381.085 814.171,381.995C810.23,382.601 806.289,380.479 802.651,378.357C798.71,376.235 795.072,373.809 792.04,370.475C791.131,369.262 790.221,368.05 789.009,367.14C786.584,365.624 783.249,366.534 780.217,366.231C777.186,366.231 773.548,364.109 774.457,361.077C774.761,360.167 775.367,359.561 775.973,358.652C779.611,352.892 774.761,344.707 768.091,342.585C761.422,340.462 754.449,342.585 747.78,344.707C737.776,347.738 728.075,351.073 718.071,354.104C714.433,355.317 710.492,356.53 706.551,355.62C703.216,355.014 699.882,353.195 696.85,354.408C692.909,356.53 693.515,362.593 691.09,366.231C688.665,369.868 683.814,371.081 681.389,374.719C678.661,378.963 680.177,384.42 679.873,389.573C679.267,399.274 671.385,406.55 664.412,413.219C657.44,419.889 650.164,428.68 651.983,438.381C652.59,441.413 653.802,444.141 654.105,447.173C654.408,449.598 653.499,452.023 652.893,454.448C650.771,462.027 648.649,469.606 646.83,476.882C653.802,489.008 661.381,500.831 669.566,512.048C673.507,517.504 678.054,523.264 683.814,526.902C689.574,530.843 696.85,532.965 703.519,531.146C706.551,530.237 709.279,528.721 712.311,528.418C716.555,528.115 720.799,529.934 725.043,529.934C730.197,529.631 734.441,526.599 738.382,523.568C742.323,520.536 746.87,517.504 751.721,517.201C756.874,517.201 762.028,521.445 761.119,526.296C760.816,527.509 760.512,528.418 760.512,529.631C760.816,532.056 763.847,532.662 766.272,532.359C768.697,532.056 771.123,531.146 773.245,532.359C775.973,533.875 776.579,537.816 775.367,540.847C774.154,545.092 771.426,548.426 769.304,552.368C767.485,556.308 766.575,561.16 769.304,564.796C770.516,566.616 772.638,567.828 774.457,569.344C777.186,571.77 779.005,575.408 780.217,578.742C785.977,593.596 787.493,610.27 784.158,626.034C782.643,633.006 778.398,638.464 776.883,645.132C775.367,652.408 781.127,660.29 784.461,666.354C789.615,675.448 792.647,685.452 793.253,695.76C793.556,700.004 793.556,704.248 795.375,707.886C796.891,710.614 799.013,712.736 801.135,715.162C808.714,724.256 809.623,736.988 810.23,748.812C811.745,750.934 815.08,750.934 817.505,749.72C819.931,748.508 821.749,746.69 824.175,745.476C829.935,742.446 837.21,743.96 843.577,743.354C854.794,742.142 864.798,732.744 866.616,721.528C867.222,718.496 867.222,715.162 868.436,712.432C870.558,708.188 875.408,705.158 876.014,700.61C876.318,698.79 875.712,696.668 876.318,694.85C877.53,689.09 886.624,687.272 887.232,681.208C887.534,678.48 886.018,675.752 884.806,673.022C881.472,665.14 884.2,655.44 891.172,650.286C893.598,648.468 896.628,647.254 899.358,645.436C911.786,636.644 911.484,617.848 906.33,603.6C904.208,598.144 901.48,592.384 902.086,586.32C902.388,582.38 903.904,578.742 905.724,575.104C910.27,566.312 916.638,558.43 924.216,552.368C929.066,548.426 934.826,544.788 937.858,538.725C939.676,535.087 939.98,531.146 941.496,527.509C943.92,520.839 949.074,515.382 953.318,509.622C957.562,504.772 960.594,497.193 957.866,490.524ZM884.806,635.734C884.502,638.16 881.774,640.586 879.652,639.07C879.652,632.4 878.136,626.034 876.62,619.668C876.014,616.636 875.408,613.604 874.498,610.574C874.196,609.058 873.892,607.542 872.376,606.936C871.468,606.328 870.254,606.632 869.346,606.026C868.132,605.116 868.132,602.994 867.222,602.084C865.708,600.57 863.282,601.176 861.464,599.962C859.644,598.75 859.34,596.628 859.038,594.506L856.31,572.376C856.31,571.466 856.006,570.556 856.612,569.95C857.218,569.042 858.128,568.738 859.038,568.434C862.978,566.918 866.314,563.888 868.132,560.25C869.042,558.734 869.346,556.914 870.558,555.4C874.196,550.246 879.35,551.762 879.956,556.914C880.562,563.888 877.834,562.978 873.892,565.404C870.86,567.222 865.708,570.556 863.586,573.588C860.554,578.438 863.282,579.652 865.404,584.198C867.526,588.442 865.404,594.202 868.738,597.84C870.86,600.266 874.196,600.57 876.62,602.084C880.562,604.51 882.078,609.664 882.38,614.514C882.684,619.364 882.078,624.216 883.29,628.762C884.2,630.884 885.11,633.31 884.806,635.734Z" fill="#10737F" fill-opacity="0.14"/>
<path d="M923.911,646.042C921.486,650.59 926.639,656.046 926.033,661.503C925.73,666.96 919.364,670.295 918.151,675.751C917.545,677.874 918.151,680.299 918.454,682.421C919.364,686.665 920.879,690.606 922.698,694.547C923.305,695.76 923.911,696.972 925.124,697.882C928.155,700.913 933.612,699.701 936.643,696.669C939.675,693.638 940.888,689.393 941.494,685.149C942.1,680.905 942.403,676.661 943.919,672.72C946.344,666.96 951.801,662.11 951.498,656.046C951.195,653.015 949.679,649.983 949.073,646.952C948.466,643.92 949.073,639.979 951.801,638.767C952.104,640.889 952.407,642.708 952.711,644.83C960.896,642.405 950.892,615.727 942.1,629.066C938.462,634.523 942.1,638.16 935.128,641.192C931.49,642.405 926.336,641.798 923.911,646.042Z" fill="#53A2AB" fill-opacity="0.44"/>
<path d="M1536.586,171.605C1536.284,170.695 1535.676,170.089 1535.07,169.483C1530.22,164.936 1524.764,161.298 1519.004,157.963C1522.643,157.66 1526.583,157.357 1529.614,155.538C1532.949,153.719 1535.375,150.384 1535.07,146.746C1534.163,140.38 1525.371,136.742 1526.281,130.679C1526.583,127.951 1529.009,124.919 1527.795,122.494C1526.887,120.675 1524.764,120.372 1522.643,120.069C1512.335,118.553 1502.027,117.34 1492.022,115.825C1492.326,119.766 1491.416,124.01 1488.083,126.435C1485.05,128.86 1479.594,127.951 1478.078,124.313C1477.472,123.1 1477.472,121.585 1476.563,120.372C1474.743,117.947 1471.106,119.462 1468.377,120.372C1462.315,122.797 1455.343,122.797 1449.583,120.372C1448.369,119.766 1447.157,119.159 1446.55,117.947C1445.944,116.128 1447.157,114.309 1447.157,112.49C1447.46,109.458 1444.125,106.73 1440.79,106.427C1437.759,106.124 1434.424,107.336 1431.393,108.549C1422.601,111.277 1411.991,111.884 1404.715,106.124C1402.593,104.305 1400.774,102.183 1398.349,100.667C1395.014,98.545 1391.073,98.242 1387.132,97.635C1377.129,96.726 1367.426,95.513 1357.423,94.604C1356.513,94.604 1355.3,94.301 1354.694,94.907C1353.483,95.816 1353.784,97.635 1353.179,99.151C1352.269,102.183 1348.934,103.698 1345.903,103.698C1342.871,104.002 1339.841,103.092 1336.808,103.395C1334.686,103.698 1332.261,104.608 1330.139,104.305C1327.715,104.305 1325.289,102.486 1325.593,100.364C1322.862,102.183 1320.741,105.517 1320.741,108.852C1314.98,109.458 1307.707,105.517 1308.918,99.757C1309.22,98.242 1310.13,97.029 1310.13,95.513C1311.04,86.419 1288.001,84.297 1282.846,88.238C1281.331,89.45 1280.423,90.663 1278.906,91.875C1273.449,96.726 1263.143,94.907 1259.807,88.238C1251.622,87.328 1243.436,87.328 1235.555,88.238C1232.22,82.781 1223.733,85.206 1218.274,88.844C1212.818,92.179 1204.936,95.816 1200.692,90.663C1214.335,87.631 1227.673,81.265 1238.586,72.474C1239.799,71.564 1241.013,70.352 1240.709,68.836C1240.405,67.926 1239.799,67.017 1238.89,66.714C1233.736,63.076 1227.371,61.257 1221.307,61.56C1216.759,61.56 1211.302,62.47 1208.575,59.135C1206.754,57.013 1206.452,53.678 1204.331,51.859C1202.209,50.04 1199.176,50.647 1196.449,50.95C1190.689,51.859 1184.625,53.072 1178.864,53.981C1177.957,54.284 1177.047,54.284 1176.441,54.891C1175.531,55.8 1175.531,57.316 1175.531,58.529C1174.924,66.411 1165.222,71.867 1158.251,68.23C1156.129,67.017 1154.31,65.198 1151.885,64.592C1148.853,63.682 1145.82,64.592 1142.79,65.804C1130.665,70.048 1118.537,74.293 1106.411,78.537C1109.746,80.659 1113.991,81.568 1117.629,80.356C1118.841,82.478 1115.808,84.297 1113.385,84.6C1103.986,86.419 1094.89,88.541 1085.495,90.36C1090.647,94.301 1095.8,98.545 1100.954,103.092C1103.38,101.273 1105.503,105.821 1104.593,108.549C1103.683,111.277 1102.166,114.915 1104.289,116.734C1101.56,115.825 1099.135,113.703 1097.621,110.974C1099.135,109.762 1100.65,108.852 1102.166,107.639C1098.833,108.246 1095.498,106.124 1094.284,103.092C1088.222,101.88 1082.764,99.454 1077.915,95.816C1077.004,97.939 1078.219,100.97 1080.643,101.88C1078.521,102.183 1076.398,102.486 1073.975,102.789C1074.581,106.124 1077.612,108.852 1081.248,109.458C1077.004,110.671 1072.155,109.458 1068.516,106.73C1071.853,101.88 1067.001,93.998 1061.241,94.907C1064.576,95.21 1065.183,100.061 1063.666,103.092C1062.15,106.124 1059.725,108.852 1059.725,112.187C1059.725,116.431 1063.666,121.281 1060.333,124.01C1064.272,127.344 1071.549,121.281 1074.882,125.222C1075.792,126.435 1076.096,128.254 1076.398,129.77C1077.612,134.317 1082.764,137.349 1087.313,136.742C1084.585,140.986 1078.219,136.742 1075.491,132.801C1072.459,128.86 1066.093,124.616 1063.666,128.86C1062.756,130.376 1063.06,131.892 1063.06,133.711C1062.756,145.534 1049.114,154.931 1038.202,150.687C1042.447,145.534 1052.147,147.656 1055.48,141.896C1056.694,139.471 1056.39,136.742 1056.088,134.014C1054.875,125.222 1053.663,116.431 1052.147,107.639C1053.057,103.698 1053.057,99.454 1053.057,95.513C1048.508,97.029 1040.931,97.029 1041.233,92.179C1037.292,98.545 1033.351,105.214 1029.41,111.58C1026.985,115.521 1025.166,121.585 1029.41,123.707C1032.138,122.494 1035.473,124.919 1036.079,127.648C1036.989,130.376 1035.776,133.408 1034.564,136.136C1028.804,119.766 998.791,127.344 991.213,111.884C987.575,113.399 990.909,118.856 994.547,120.069C998.185,121.281 1003.036,123.707 1001.823,127.344C1000.914,130.073 996.973,130.073 993.941,130.073C985.453,129.467 976.661,131.589 969.083,135.833C968.476,132.801 967.87,129.77 966.96,126.738C960.594,131.285 954.531,135.53 948.165,140.077C945.133,142.199 941.799,144.321 938.161,144.927C934.523,145.231 930.279,143.108 929.673,139.471C929.066,135.833 934.523,132.498 936.948,135.53C937.858,128.86 928.763,123.1 923.003,127.041C926.641,133.408 926.944,141.593 923.306,147.959C922.094,150.384 919.971,152.506 917.243,153.113C914.515,153.416 911.483,151.294 912.09,148.565C908.755,151.597 906.936,156.144 906.936,160.691C901.479,162.51 894.81,160.388 891.475,155.538C891.778,158.266 892.385,160.691 892.688,163.42C888.747,167.664 879.955,164.632 879.652,158.872C879.652,157.054 879.955,155.538 879.955,153.719C879.955,147.959 874.801,143.412 869.951,140.077C876.924,142.805 884.199,145.534 891.172,148.262C895.113,149.778 899.357,151.294 903.601,150.384C909.664,149.172 913.605,140.986 908.148,136.742C898.448,129.163 887.231,123.403 875.408,120.069C872.073,119.159 868.435,118.25 865.101,119.462C862.372,120.372 858.734,122.191 857.219,119.766C859.947,120.069 862.978,119.159 864.798,117.037C859.038,115.825 853.278,114.915 847.215,114.612C840.545,120.675 835.695,129.163 837.817,137.652C840.848,150.99 858.128,161.904 851.762,174.03C857.825,172.818 863.888,171.302 869.648,172.818C872.68,173.727 875.711,175.546 877.833,177.971L877.833,177.668C879.652,177.062 881.471,176.455 883.29,177.062C885.109,177.668 886.624,179.487 885.715,181.306C885.109,182.518 883.593,183.428 884.199,184.641C884.503,185.247 885.412,185.55 886.322,185.853C888.443,186.46 889.656,189.188 888.747,191.31C885.715,191.007 882.38,191.007 879.349,190.704C878.439,193.129 876.924,195.251 875.711,197.373C871.467,206.771 874.498,217.684 874.801,228.295C875.105,233.752 873.892,239.511 871.164,244.059C871.77,244.059 872.376,243.756 872.983,243.756C884.806,241.634 898.144,244.665 905.42,254.366C912.696,263.764 910.271,280.436 899.054,284.682C894.81,286.5 889.959,286.196 886.018,288.622C884.503,289.532 883.29,291.35 882.683,293.17C889.959,289.228 897.235,285.288 905.42,283.772C903.601,287.712 900.266,290.44 896.022,291.654C897.235,292.562 896.932,294.686 895.719,295.594C894.507,296.504 892.688,296.2 891.172,295.898C889.656,295.594 887.837,295.292 886.322,295.594C884.806,295.898 883.896,297.11 883.29,298.322C882.987,298.93 882.987,299.536 882.987,300.142C882.987,300.446 882.987,301.052 883.29,301.354C887.534,298.02 893.9,297.716 898.145,301.052C899.66,302.264 901.176,304.082 902.692,305.296C904.511,306.508 907.239,307.114 908.452,308.934C909.967,310.752 908.755,314.39 906.633,314.086C906.633,315.3 907.845,315.906 908.755,316.21C909.968,316.512 911.18,316.21 912.09,316.816C914.515,318.028 913.908,321.666 912.09,323.484C909.968,325 907.239,325.304 904.511,325.304C897.538,325.304 890.566,325.606 884.199,322.576C881.168,321.362 878.439,319.24 875.408,318.332C872.376,317.118 868.738,317.118 866.01,319.24C864.798,320.15 864.191,321.666 862.978,322.576C860.25,325 855.703,325.606 852.671,323.484C850.246,321.666 849.033,318.332 849.64,315.3C846.911,318.332 844.486,321.666 842.667,325.304C844.183,329.548 845.699,334.096 847.215,338.34C847.821,339.856 848.124,341.068 848.73,342.584C850.246,346.828 852.671,351.678 856.915,351.982C862.675,352.284 868.132,344.706 872.68,351.678C873.589,352.89 873.892,354.71 873.892,356.226C873.892,359.256 878.136,363.198 880.561,360.772C880.258,358.65 879.955,356.226 881.168,354.104C882.077,351.982 885.109,350.768 886.928,352.284C888.14,353.194 888.443,355.012 888.443,356.528C888.443,358.65 888.443,361.076 888.14,363.198C887.534,368.654 885.412,374.112 880.864,376.84C877.227,378.962 872.376,380.78 875.105,385.328C875.711,386.238 878.44,385.024 879.046,386.238C880.865,388.662 879.652,391.088 879.652,393.816C879.955,399.576 886.624,402.608 890.262,407.156C895.416,413.522 894.203,422.616 896.629,430.498C901.782,446.262 921.487,456.57 920.578,472.94C920.275,479.306 916.94,487.492 922.397,491.128C926.034,493.554 930.885,491.736 934.826,489.916C942.102,486.582 949.681,483.246 956.956,479.61C959.988,478.094 963.019,476.578 964.535,473.85C965.444,472.334 965.445,470.514 966.657,469.302C968.173,467.482 971.204,467.18 973.63,466.27C979.086,464.452 982.724,459.298 985.453,454.144C988.484,448.688 990.606,442.928 992.425,436.864C992.728,435.348 993.335,433.53 992.728,432.014C991.213,426.254 980.906,425.648 980.602,419.584C980.299,417.16 982.118,414.734 983.028,412.308C983.937,409.884 983.028,406.246 980.299,406.548C978.783,411.096 977.267,415.644 973.63,418.978C970.295,422.312 964.535,423.526 960.897,420.798C958.169,418.676 957.26,415.038 955.441,412.006C952.712,407.458 947.255,404.73 944.83,400.182C942.405,395.332 946.043,387.45 950.893,389.572C953.318,398.364 959.381,406.246 967.567,410.794C972.72,408.974 977.268,406.852 981.815,404.124C983.937,402.304 986.969,405.64 987.272,408.67C987.575,411.702 986.969,415.038 989.394,416.856C990.606,417.766 992.122,417.766 993.638,417.766C1005.764,417.766 1017.89,416.25 1029.713,413.522C1027.288,420.494 1033.654,428.982 1041.233,428.68C1040.325,431.71 1037.292,433.832 1034.564,433.832C1036.079,436.562 1037.594,439.592 1040.021,441.412C1042.748,443.23 1046.691,443.836 1048.813,441.412C1050.934,439.29 1051.237,435.348 1053.967,434.136C1057.3,432.924 1060.333,436.864 1060.029,440.2C1059.725,443.836 1057.603,446.566 1056.39,449.9C1053.967,456.57 1056.088,464.148 1058.513,470.818C1062.756,483.854 1067.001,497.496 1075.792,508.408C1078.825,505.378 1081.856,502.648 1085.191,499.618C1089.434,500.224 1089.434,506.286 1088.222,510.228C1087.009,514.168 1085.495,519.626 1089.13,522.05C1092.467,523.87 1096.71,520.838 1097.621,517.2C1098.227,513.562 1096.71,509.924 1094.89,506.286C1092.769,502.042 1090.647,497.496 1088.524,493.252C1087.918,491.736 1087.009,490.22 1087.009,488.4C1087.009,486.884 1087.918,485.672 1088.524,484.46C1090.344,480.216 1090.951,475.364 1090.344,470.818C1101.864,465.058 1111.263,455.66 1117.022,444.444C1117.931,442.624 1118.841,440.806 1120.356,439.896C1124.905,436.562 1132.787,441.412 1137.031,437.168C1142.79,439.29 1147.64,443.836 1150.369,449.294C1152.491,453.234 1154.31,458.692 1158.555,458.994C1151.581,461.722 1147.034,469.302 1147.64,476.578C1154.612,478.396 1162.192,471.728 1161.585,464.754C1164.315,463.238 1167.951,465.058 1169.165,467.786C1170.681,470.514 1170.377,473.85 1170.377,476.88C1169.771,486.278 1169.165,495.676 1168.861,504.77C1168.558,507.5 1168.558,510.53 1170.075,512.956C1171.588,515.078 1174.318,516.29 1175.227,518.716C1176.743,522.354 1173.71,526.902 1175.531,530.236C1176.441,532.054 1178.563,532.662 1180.38,534.176C1183.717,536.906 1184.929,541.452 1187.353,545.09C1189.779,548.728 1195.539,551.154 1198.266,547.516C1192.506,542.968 1188.869,535.996 1188.567,528.72C1188.567,526.902 1188.567,525.386 1187.96,523.87C1187.05,522.05 1185.23,520.838 1183.717,519.322C1174.621,511.138 1175.835,496.888 1177.653,484.762C1181.897,490.826 1188.567,495.07 1195.843,496.586C1193.416,501.436 1195.539,507.802 1200.086,510.53C1200.389,505.68 1204.027,501.436 1208.575,500.224C1210.697,499.618 1212.818,499.618 1214.637,498.708C1220.397,496.282 1221.003,488.704 1220.701,482.64C1220.701,480.216 1220.397,477.79 1219.184,475.668C1217.063,472.334 1212.514,471.728 1209.181,469.604C1203.117,465.968 1200.086,457.782 1202.511,451.112C1204.936,444.444 1212.514,440.2 1219.488,441.714C1221.913,442.624 1220.701,446.262 1218.88,447.778C1216.759,449.294 1214.031,450.204 1213.121,452.628C1211.908,455.964 1215.851,459.6 1219.184,458.692C1222.519,458.086 1224.944,454.448 1224.944,450.81C1225.248,447.172 1224.034,443.836 1222.519,440.502C1229.795,442.018 1237.98,439.592 1243.135,433.832C1244.648,432.318 1245.862,430.498 1247.681,429.286C1251.318,427.164 1256.472,428.376 1259.201,425.344C1261.323,423.222 1261.323,419.584 1261.929,416.25C1263.143,410.49 1267.689,405.942 1270.418,400.788C1273.147,395.636 1275.57,387.45 1274.359,381.69C1273.449,377.446 1271.024,373.506 1269.509,369.564C1268.297,366.532 1267.689,363.804 1267.387,360.47C1267.083,359.256 1267.083,357.742 1267.689,356.832C1268.599,354.71 1271.326,354.406 1273.147,353.194C1275.875,351.374 1277.39,347.738 1276.48,344.402C1268.599,347.13 1259.504,345.008 1253.441,339.248C1255.261,335.914 1259.201,334.398 1262.537,332.58C1265.871,330.76 1269.509,328.032 1269.204,324.092C1271.326,324.092 1273.449,324.092 1275.57,324.092C1275.875,327.728 1274.055,331.064 1271.326,333.186C1274.359,335.61 1278.603,333.186 1281.936,331.366C1285.272,329.548 1291.032,329.548 1291.639,333.488C1291.941,337.126 1286.485,339.552 1287.091,343.19C1291.032,341.978 1295.277,347.13 1293.155,350.768C1292.549,351.678 1291.639,352.588 1291.942,353.8C1292.245,355.012 1293.761,355.62 1294.972,356.226C1298.308,358.044 1299.825,362.592 1298.004,365.926C1300.431,364.108 1302.552,362.288 1304.977,360.47C1305.583,362.592 1308.009,364.108 1310.13,363.502C1312.253,362.894 1313.769,360.47 1313.163,358.348C1312.859,356.226 1310.736,354.71 1310.13,352.89C1309.22,349.86 1311.343,346.524 1310.434,343.492C1309.524,341.068 1307.099,339.856 1304.977,338.34C1302.854,336.824 1301.037,334.096 1302.248,331.974C1302.854,330.76 1304.674,330.154 1305.887,329.244C1312.253,325.304 1313.769,313.784 1321.349,313.48C1322.862,313.48 1324.379,313.784 1325.895,313.784C1330.139,313.178 1331.655,308.024 1333.777,304.082C1338.325,295.292 1348.934,291.048 1353.483,282.558C1357.121,275.89 1356.817,268.008 1358.939,260.732C1360.454,255.578 1363.486,250.122 1361.666,244.968C1359.243,238.602 1348.934,237.389 1345.297,242.846C1345.903,239.511 1346.509,236.48 1347.117,233.145C1344.691,240.421 1329.836,233.752 1342.871,226.779C1351.663,221.929 1359.545,215.562 1365.911,207.68C1368.032,204.952 1370.155,202.224 1372.885,200.405C1383.191,193.432 1397.439,202.224 1409.565,198.889C1409.869,200.101 1410.475,201.314 1410.779,202.527C1407.442,203.739 1404.413,205.255 1401.076,206.468C1408.049,209.802 1415.325,201.92 1422.905,202.527C1425.027,202.527 1428.361,202.527 1428.361,200.405C1426.238,200.101 1423.815,198.889 1424.117,197.07C1424.117,196.464 1424.722,195.857 1425.328,195.251C1427.148,193.129 1429.271,191.007 1431.393,188.885C1434.727,185.247 1440.184,181.609 1443.823,184.641C1446.55,187.066 1445.336,192.523 1441.701,193.129C1444.125,195.554 1448.067,193.432 1450.491,191.007C1452.916,188.582 1455.949,185.853 1458.978,187.066C1459.889,185.247 1459.889,183.125 1458.978,181.306C1461.405,179.79 1464.738,179.487 1467.468,180.396C1465.648,181.912 1464.738,183.731 1464.436,186.156C1464.132,187.672 1464.436,188.885 1463.831,190.4C1462.315,195.554 1455.645,196.16 1450.795,198.283C1442.307,202.224 1439.578,213.137 1431.998,218.594C1430.181,219.806 1428.058,221.019 1426.542,222.535C1423.207,226.173 1423.511,231.933 1425.328,236.48C1426.844,241.027 1429.573,245.575 1429.877,250.728C1429.877,251.638 1429.877,252.546 1429.877,253.456C1429.573,256.79 1433.514,258.61 1435.941,256.184C1436.547,255.578 1437.153,254.972 1437.759,254.366C1440.486,251.638 1443.215,248.909 1444.429,245.271C1445.338,242.846 1445.64,239.511 1448.067,238.299C1449.885,237.389 1452.006,237.693 1453.826,237.389C1455.645,237.086 1457.766,234.964 1456.856,233.448C1453.522,231.023 1454.129,225.263 1457.766,223.747C1459.282,224.354 1460.799,225.263 1462.315,225.87C1465.952,224.354 1460.495,218.594 1462.315,214.956C1462.921,213.743 1464.738,212.834 1464.738,211.318C1464.738,209.499 1462.011,209.196 1460.192,209.499C1458.978,203.436 1463.225,196.767 1468.983,195.251C1468.983,196.464 1468.681,197.676 1468.681,198.889C1471.712,197.07 1474.441,195.251 1477.472,193.432C1478.078,194.948 1478.38,196.16 1478.988,197.676C1482.625,199.495 1485.354,191.613 1488.993,192.826C1489.9,193.129 1490.204,193.735 1491.114,194.342C1493.843,196.464 1498.389,194.948 1499.299,191.613C1502.027,179.184 1517.184,178.577 1530.22,177.365C1532.949,175.849 1537.192,174.333 1536.586,171.605ZM971.204,325C969.083,326.82 966.051,327.426 963.019,327.122C962.413,327.728 962.716,328.942 963.626,329.244C964.535,329.85 965.444,329.85 966.051,330.458C967.263,331.67 966.657,333.488 966.96,335.308C967.263,338.036 969.689,339.856 970.295,342.584C971.508,347.13 966.354,351.374 961.504,351.374C951.499,351.374 944.527,343.492 942.102,334.702C940.586,329.85 937.858,316.21 945.436,315.602C943.011,312.572 945.436,309.236 944.224,305.902C943.314,304.082 941.496,303.174 940.283,301.96C937.555,299.232 938.161,294.382 940.283,291.35C942.405,288.318 946.043,286.196 949.681,284.984C953.318,283.468 957.26,282.558 960.594,284.074C964.232,285.59 966.051,290.44 963.626,293.17C960.897,296.2 955.137,294.382 952.409,297.716C950.893,299.536 951.499,302.87 953.015,304.69C954.531,306.508 956.956,307.72 959.381,308.63C960.594,309.236 962.11,309.842 962.716,311.056C963.626,312.874 961.807,314.996 960.897,316.816C959.988,318.634 959.988,321.968 962.11,321.968C964.232,321.968 964.535,318.938 965.748,317.422C967.263,314.996 971.508,315.3 973.023,317.724C973.933,319.544 973.327,323.182 971.204,325ZM1220.094,232.236C1219.79,233.145 1219.184,234.055 1218.88,234.964C1218.578,235.874 1218.578,237.086 1218.274,238.299C1217.367,241.33 1214.637,243.452 1211.908,245.575C1210.091,246.787 1208.271,248.303 1207.058,250.425C1206.754,251.334 1206.148,252.244 1205.846,252.85C1203.117,257.398 1195.235,258.306 1200.389,251.94C1203.421,248 1207.969,242.543 1211.908,239.208C1213.121,237.996 1214.941,237.086 1215.547,235.57C1217.063,233.145 1216.153,230.114 1216.153,227.385C1216.153,224.657 1218.274,221.322 1221.003,221.929C1221.913,225.263 1221.611,228.901 1220.094,232.236ZM880.864,183.428C880.864,183.731 880.864,184.034 880.864,184.337C880.864,185.55 880.561,186.46 880.258,187.369C880.561,187.369 881.168,187.369 881.471,187.369C882.077,185.853 881.774,184.641 880.864,183.428ZM860.25,250.425C865.404,250.122 869.042,246.787 871.467,242.543C866.617,243.756 862.069,246.181 860.25,250.425Z" fill="#53A2AB" fill-opacity="0.44"/>
<path d="M899.658,283.166C895.414,284.985 890.564,284.682 886.622,287.107C885.108,288.017 883.895,289.835 883.288,291.654C882.682,291.958 882.076,292.261 881.47,292.564C870.253,298.93 874.497,284.985 863.887,284.985C853.579,284.985 856.611,302.265 852.064,300.749C850.851,303.477 852.67,306.509 852.064,309.237C851.76,310.147 851.154,311.056 850.851,311.966C850.548,312.572 850.548,313.178 850.245,313.786C847.516,316.816 845.091,320.152 843.272,323.79C843.272,323.486 842.969,322.88 842.969,322.576C840.544,320.152 835.996,322.88 835.087,326.214C834.178,329.55 835.693,333.186 836.906,336.522C837.815,339.856 838.118,343.798 835.693,346.526C834.481,347.738 832.359,348.648 834.177,351.68C834.784,352.892 836.3,353.196 837.512,352.892C840.241,352.588 842.666,357.44 839.937,357.742C835.087,358.348 831.449,353.196 829.933,348.648C828.418,344.1 827.508,338.644 823.264,335.916C821.142,334.702 818.413,334.096 817.504,331.672C815.988,328.034 820.536,323.79 819.02,320.152C817.201,316.514 811.441,318.03 808.409,315.3C805.984,313.178 806.287,308.631 803.862,306.509C802.649,305.296 800.831,304.993 799.315,304.387C794.161,302.568 790.22,298.324 788.098,293.473C785.067,294.08 785.673,298.324 786.885,300.749C792.039,310.753 800.527,318.938 810.531,324.092C807.197,325.608 805.681,329.55 804.468,332.884C802.346,338.038 800.527,343.19 798.405,348.344C795.374,348.042 792.039,347.436 789.614,345.616C787.189,343.798 785.673,339.856 787.795,337.432C791.13,340.766 797.799,339.554 799.618,335.308C801.74,331.064 798.405,325.304 793.858,324.698C795.677,319.242 789.614,314.392 784.157,312.269C778.7,310.147 772.031,307.418 771.121,301.658C768.696,299.536 764.452,300.446 761.724,302.568C758.995,304.69 756.57,307.418 753.539,308.328C750.507,309.54 745.96,307.722 745.96,304.084C744.444,305.599 742.625,306.812 741.109,308.328C744.747,309.237 742.625,315.3 739.29,317.12C735.956,318.938 731.105,319.848 730.196,323.79C729.892,325.304 730.196,326.82 730.196,328.336C730.196,330.762 728.983,332.884 728.074,335.006C725.345,340.16 722.01,346.222 715.947,347.132C712.613,347.738 707.156,348.042 707.762,351.68C702.912,347.436 695.939,345.314 689.573,346.526C689.876,343.494 690.482,340.462 690.786,337.432C688.664,337.128 686.238,336.824 684.116,336.522C687.451,331.672 688.664,325.304 687.451,319.544C686.541,316.21 685.632,311.966 688.967,310.753C687.148,309.237 685.935,307.418 685.329,304.993C689.876,302.871 695.333,302.871 700.183,304.387C702.305,304.993 704.124,306.206 706.246,306.812C712.31,308.631 719.585,306.509 722.92,301.355C726.255,296.202 725.042,288.017 719.585,284.985C716.554,283.469 713.219,283.166 710.491,281.65C707.762,279.831 706.246,275.284 708.975,273.465C711.4,277.103 716.554,278.012 720.192,275.89C718.676,273.162 717.766,269.827 718.069,266.493C720.495,265.583 723.829,268.008 723.526,270.737C728.074,270.737 732.621,267.705 734.137,263.461C734.743,261.945 734.743,260.43 735.956,259.217C737.471,257.701 739.593,257.398 741.715,256.489C746.566,254.67 749.597,248.607 748.082,243.756C754.448,240.725 761.42,239.512 768.393,239.815C765.968,235.268 763.239,230.417 763.543,225.264C763.846,220.11 768.09,214.653 773.244,215.26C774.153,218.291 773.85,221.626 773.244,224.657C774.759,224.96 776.275,225.264 777.791,225.567C774.456,228.295 771.121,233.449 774.759,236.177C777.488,238.299 781.429,235.571 784.763,236.177C786.279,236.48 787.492,237.39 789.008,237.996C795.677,239.815 802.346,228.598 807.803,232.539C809.622,233.752 810.531,236.48 813.866,236.177C815.685,235.874 817.201,234.661 818.11,233.146C819.929,229.811 819.323,226.173 819.626,222.535C819.929,219.504 821.445,215.866 824.477,215.26C827.811,214.35 831.146,217.078 834.481,217.382C840.241,217.988 844.788,210.106 841.453,205.255C836.906,208.59 831.449,210.409 825.992,209.803C824.477,207.074 827.811,203.74 830.843,202.527C841.15,197.98 852.973,196.464 863.887,198.586C866.009,196.767 862.977,193.736 860.552,192.523C858.127,191.31 855.398,188.279 857.52,186.46C850.245,183.428 843.878,193.736 835.996,194.039C827.811,194.342 823.264,183.732 826.295,176.153C829.327,168.574 836.906,164.027 843.878,160.086C839.331,152.81 827.205,152.204 821.748,159.176C822.354,164.633 820.232,170.696 815.988,174.334C811.744,177.972 804.468,181.609 805.984,187.066C807.197,191.917 815.079,194.342 814.169,199.192C813.26,203.74 805.681,203.74 803.862,208.287C802.649,211.319 805.075,215.26 803.559,218.291C802.043,221.323 797.496,221.323 794.767,223.445C792.948,224.96 791.736,227.083 790.22,228.598C788.401,230.114 785.37,230.72 784.157,228.902C782.944,227.083 784.46,224.657 785.37,222.232C788.098,215.866 784.157,208.893 780.216,203.133C772.334,202.527 768.393,217.382 761.117,214.35C758.995,213.441 757.783,211.319 756.873,209.5C754.145,204.346 751.113,198.889 749.901,192.826C748.991,186.763 749.901,180.397 754.145,175.85C759.602,170.09 768.999,169.786 775.062,164.633C782.035,158.873 783.551,148.263 791.13,143.412C795.677,140.381 802.346,138.865 802.953,133.408C798.102,133.711 793.252,134.317 788.401,134.621C790.523,130.68 795.98,128.558 800.224,129.77C798.405,125.829 802.953,121.585 807.197,120.979C811.441,120.372 815.988,121.585 820.232,120.372C823.567,119.463 826.295,116.734 829.63,115.522C832.359,114.309 835.693,114.006 838.725,113.703C842.059,113.4 845.697,113.4 849.032,113.703C842.363,119.766 837.512,128.254 839.634,136.743C842.666,150.081 859.946,160.995 853.579,173.121C859.642,171.909 865.706,170.393 871.465,171.909C874.497,172.818 877.528,174.637 879.651,177.062C879.347,179.487 881.166,181.609 882.379,183.732C882.379,184.035 882.379,184.338 882.379,184.641C882.379,185.854 882.076,186.763 881.773,187.673C876.619,187.369 864.796,184.944 870.556,193.432C872.981,190.401 874.194,192.22 877.225,191.917C878.438,191.917 879.651,190.401 879.044,189.491C879.651,189.491 880.257,189.491 881.166,189.491C880.257,191.917 878.741,194.039 877.529,196.161C873.284,205.559 876.316,216.472 876.619,227.083C876.922,232.539 875.71,238.299 872.981,242.847C873.588,242.847 874.194,242.543 874.8,242.543C886.622,240.421 899.962,243.453 907.238,253.154C913.3,262.248 910.876,278.619 899.658,283.166Z" fill="#53A2AB" fill-opacity="0.44"/>
<path d="M679.266,237.694C679.266,240.726 681.995,243.151 681.388,246.183C680.479,248.911 676.538,250.124 676.538,253.155C676.235,256.49 680.782,257.702 684.117,256.793C689.877,255.58 695.333,251.942 698.668,247.092C700.184,244.667 701.093,240.423 698.062,239.513C702.003,238.301 705.641,236.785 709.582,235.572C712.613,237.997 715.645,242.242 713.219,245.576C711.704,247.395 707.763,248.911 708.975,251.033C709.582,251.942 710.794,252.549 710.794,253.458C711.097,254.671 709.885,255.277 709.278,256.187C705.641,259.218 703.519,263.765 703.822,268.616C709.278,263.765 716.554,261.037 723.83,261.34C725.649,261.34 727.468,261.643 728.68,260.431C729.893,259.218 729.287,256.49 727.771,256.793C729.893,255.277 732.015,253.761 733.834,252.246C734.44,251.942 734.743,251.639 735.047,251.033C735.653,249.82 734.44,248.608 733.228,248.001C732.015,247.698 730.499,247.698 729.287,247.092C726.558,245.879 726.255,242.242 725.346,239.513C724.436,236.785 721.101,233.753 718.979,235.875C719.586,233.147 720.192,230.419 718.979,227.69C717.767,225.265 714.432,223.446 712.31,224.962C711.097,223.143 714.129,221.324 715.645,219.505C717.464,217.686 717.16,214.351 715.645,212.836C713.826,211.017 710.794,211.017 708.975,212.836C709.278,207.682 710.188,201.316 715.342,199.8C716.554,199.497 718.07,199.497 719.586,198.891C720.798,198.284 722.314,197.072 722.011,195.859C722.314,197.375 725.042,197.678 725.952,196.162C726.861,194.95 726.861,192.827 726.558,191.312C722.617,190.099 721.101,196.768 717.16,197.981C715.342,198.587 713.523,197.981 711.704,198.587C707.763,200.406 708.672,207.682 704.428,208.895C703.519,209.198 702.306,208.895 701.396,209.501C699.578,210.41 699.274,212.836 699.881,214.958C700.487,217.08 701.093,219.202 700.184,221.021C699.578,221.93 698.668,223.143 698.971,224.052C699.578,225.568 701.7,224.962 702.912,225.568C706.55,226.781 704.428,231.025 702.609,232.844C700.184,234.966 696.243,234.36 693.514,234.056C689.27,233.45 679.266,229.812 679.266,237.694Z" fill="#53A2AB" fill-opacity="0.44"/>
<path d="M769.304,321.971C768.697,321.668 768.394,321.062 767.788,320.759C769.304,320.455 770.213,318.94 770.516,317.121C770.516,315.605 769.91,314.089 769.001,312.877C768.091,311.361 766.272,309.845 764.453,310.451C762.331,311.361 762.028,314.392 762.938,316.818C763.544,318.94 764.756,321.668 763.241,323.79C764.15,323.487 765.06,323.79 765.666,324.396C762.331,326.518 761.725,333.188 766.575,333.491C771.426,333.794 772.335,327.731 767.485,326.518C767.485,326.215 769.607,321.971 769.304,321.971Z" fill="#53A2AB" fill-opacity="0.44"/>
<path d="M1319.224,374.416C1319.528,371.687 1319.831,368.656 1321.953,367.443C1322.559,369.262 1324.075,370.778 1325.591,371.687C1327.107,370.778 1328.016,369.262 1328.925,367.746C1329.835,366.231 1331.047,364.715 1332.866,364.412C1334.685,364.109 1336.504,365.928 1335.595,367.443C1340.142,369.262 1343.174,362.593 1347.115,360.168C1349.237,358.955 1351.965,358.652 1354.39,358.046C1356.816,357.439 1359.544,355.923 1359.847,353.195C1360.15,351.679 1359.544,350.164 1359.241,348.648C1359.241,345.616 1361.666,342.888 1363.182,340.159C1365.91,335.309 1365.91,329.246 1363.485,324.092C1361.969,321.364 1360.15,318.939 1359.241,316.21C1358.634,313.179 1360.15,309.541 1363.182,309.541C1364.091,311.966 1365.001,314.998 1367.729,315.907C1370.154,316.817 1373.489,313.785 1371.67,311.663C1374.399,310.753 1377.43,310.753 1380.462,311.057C1381.674,309.238 1381.371,306.509 1379.855,304.994C1388.95,301.659 1397.135,295.293 1403.198,287.714C1394.71,292.867 1386.525,298.021 1378.036,303.478C1377.127,304.084 1375.914,304.69 1374.702,304.387C1373.792,304.084 1373.186,302.872 1372.58,301.962C1370.457,297.718 1365.607,294.99 1360.757,294.99C1361.06,298.931 1361.666,302.872 1361.969,307.116C1359.241,306.509 1356.512,309.238 1355.906,311.966C1355.3,314.695 1355.906,317.726 1356.209,320.758C1357.119,331.065 1352.268,341.372 1344.083,347.435C1344.083,345.919 1344.083,344.1 1344.083,342.585C1339.839,343.191 1341.658,351.376 1337.717,353.498C1336.504,354.105 1335.292,354.105 1334.079,354.105C1328.016,354.711 1328.016,361.077 1321.347,358.652C1320.74,366.837 1310.433,365.321 1311.039,373.506C1311.343,380.479 1318.012,385.633 1319.224,374.416Z" fill="#10737F" fill-opacity="0.14"/>
<path d="M1373.186,246.485C1373.186,247.091 1373.49,247.697 1373.186,248.304C1372.883,249.516 1372.277,250.426 1371.671,251.335C1371.064,253.154 1372.277,255.276 1373.793,256.489C1375.308,258.005 1376.824,258.914 1377.734,260.733C1379.249,263.764 1378.037,267.705 1380.462,270.131C1379.856,271.95 1377.127,271.343 1375.612,270.131C1374.096,268.918 1372.277,267.705 1370.761,268.615C1368.942,271.343 1369.852,274.981 1371.367,278.013C1372.883,281.044 1374.702,284.076 1374.399,287.41C1374.399,288.926 1373.186,290.745 1371.671,290.442C1371.064,290.442 1370.761,289.836 1370.155,289.533C1368.033,287.41 1365.911,285.288 1365.608,282.56C1365.304,280.438 1365.911,278.619 1366.517,276.497C1367.73,272.253 1367.73,268.009 1367.123,263.764C1366.82,261.946 1366.517,260.127 1366.517,258.308C1366.517,254.973 1368.336,251.032 1366.517,248.304C1365.911,247.394 1365.001,246.485 1365.304,245.575C1366.214,243.756 1369.852,240.725 1371.367,239.209C1372.58,241.634 1372.883,244.059 1373.186,246.485Z" fill="#10737F" fill-opacity="0.14"/>
<path d="M1159.16,533.572C1161.888,535.694 1165.526,537.21 1167.042,540.241C1168.254,542.667 1168.254,545.698 1170.073,547.517C1170.983,548.427 1172.499,549.033 1173.711,549.942C1176.136,552.064 1175.53,556.309 1176.743,559.34C1178.562,563.887 1183.715,566.313 1184.625,570.86C1184.928,572.376 1184.625,574.195 1185.534,575.71C1186.747,578.439 1190.688,579.045 1192.81,581.47C1193.719,582.683 1194.326,583.896 1195.235,585.411C1197.66,588.746 1202.814,589.959 1206.755,588.14C1205.542,586.018 1204.633,583.593 1204.633,581.167C1204.633,579.652 1204.936,578.136 1204.633,576.923C1204.027,573.588 1200.692,571.163 1199.782,567.828C1201.298,566.616 1203.42,568.435 1204.33,569.951C1205.542,571.466 1207.361,573.285 1208.877,572.073C1205.846,568.132 1202.511,564.797 1198.873,561.765C1199.176,563.281 1197.357,564.191 1195.841,563.584C1194.629,562.978 1193.719,561.765 1193.113,560.553C1192.507,559.643 1191.9,558.734 1192.204,557.521C1192.204,556.612 1192.81,555.702 1192.81,555.096C1193.113,553.277 1191.9,551.458 1190.385,550.549C1188.869,549.336 1187.05,548.73 1185.837,547.517C1183.109,544.789 1182.806,540.241 1179.471,538.423C1177.955,537.513 1176.136,537.513 1174.318,536.907C1169.467,534.482 1168.558,527.206 1162.798,524.781C1154.916,520.536 1153.097,529.025 1159.16,533.572Z" fill="#10737F" fill-opacity="0.14"/>
<path d="M1208.27,588.442C1207.057,589.958 1205.844,591.777 1204.632,593.293C1204.329,593.596 1204.025,593.899 1204.025,594.506C1204.025,595.718 1205.844,596.021 1207.057,595.718C1210.998,595.112 1214.636,595.415 1218.577,596.324C1224.943,597.84 1231.006,601.478 1237.372,600.872C1238.282,600.872 1239.191,600.569 1240.404,600.872C1241.313,601.175 1242.526,601.478 1243.435,601.781C1245.861,602.388 1248.589,602.084 1250.408,600.872C1248.589,599.053 1245.861,599.356 1243.435,599.053C1241.01,598.75 1238.282,597.84 1237.979,595.415C1237.979,594.809 1237.979,594.202 1237.979,593.596C1237.676,592.383 1236.16,591.474 1234.644,591.474C1233.128,591.474 1231.916,591.777 1230.4,591.474C1227.975,591.171 1226.459,588.746 1224.034,588.442C1221.608,588.139 1220.699,589.958 1218.88,589.958C1214.939,590.261 1211.907,583.592 1208.27,588.442Z" fill="#10737F" fill-opacity="0.14"/>
<path d="M1263.142,602.388C1265.264,602.388 1267.083,603.904 1269.205,603.297C1269.811,602.994 1270.114,602.691 1270.721,602.691C1271.327,602.691 1271.933,602.994 1272.539,603.297C1277.996,605.723 1284.666,598.447 1290.122,600.872C1288.91,606.329 1281.634,608.148 1278.906,612.695C1283.756,612.089 1288.303,609.361 1291.638,605.723C1292.548,604.813 1293.457,603.601 1294.367,602.994C1294.973,602.691 1295.882,602.388 1296.489,601.782C1298.004,600.872 1298.914,599.053 1298.914,597.234C1297.398,597.234 1295.579,597.538 1294.063,598.447C1292.851,599.053 1291.941,599.963 1290.729,600.266C1288.607,600.872 1286.788,599.66 1284.666,599.356C1280.421,598.75 1276.177,603.297 1272.236,602.388C1270.721,602.085 1269.811,600.266 1267.992,599.963C1266.476,599.66 1263.748,600.266 1262.232,599.963C1260.11,599.66 1256.169,597.538 1254.653,599.66C1249.803,606.026 1261.929,602.388 1263.142,602.388Z" fill="#10737F" fill-opacity="0.14"/>
<path d="M1261.929,608.148C1262.838,607.239 1264.354,607.845 1265.263,608.755C1266.173,609.664 1266.779,610.877 1267.689,611.786C1268.901,612.392 1270.417,612.392 1271.326,611.483C1271.933,610.877 1272.236,610.27 1271.933,609.361C1271.63,608.755 1270.72,608.451 1270.114,608.148C1269.508,607.845 1268.598,607.542 1267.992,607.542C1266.779,607.239 1265.567,606.632 1264.051,606.936C1262.838,607.239 1261.322,608.148 1261.322,609.361Z" fill="#10737F" fill-opacity="0.14"/>
<path d="M1227.065,570.557C1224.64,570.86 1221.608,570.86 1220.699,568.738C1220.093,567.525 1220.699,566.01 1220.699,564.494C1220.699,562.069 1219.183,560.25 1218.274,558.128C1216.455,554.49 1215.849,550.549 1216.455,546.608C1216.758,545.698 1216.758,544.486 1217.667,543.879C1217.971,543.273 1218.577,542.97 1219.183,542.667C1221.305,541.454 1223.427,540.242 1225.853,539.332C1228.581,537.816 1231.613,536.301 1234.341,534.482C1241.01,529.934 1246.467,523.871 1250.105,516.596C1251.318,515.383 1253.44,516.596 1254.349,518.111C1255.259,519.627 1255.259,521.749 1256.774,522.962C1258.593,524.781 1262.838,525.387 1262.534,528.115C1262.534,529.328 1261.625,529.934 1260.715,530.844C1257.987,533.572 1257.078,537.816 1257.987,541.454C1258.897,545.092 1261.928,548.124 1265.566,549.336C1262.231,549.639 1257.987,550.852 1257.987,554.187C1257.987,556.309 1259.806,558.431 1258.593,560.25C1257.381,562.069 1254.349,561.159 1252.833,562.978C1251.621,564.191 1252.53,566.313 1252.53,568.132C1253.137,572.376 1249.802,576.923 1245.558,577.529C1243.739,577.833 1241.617,577.226 1240.707,575.711C1240.101,574.801 1240.101,573.892 1239.798,572.982C1238.282,569.344 1235.857,571.466 1233.432,571.466C1231.613,571.466 1229.187,570.254 1227.065,570.557Z" fill="#10737F" fill-opacity="0.14"/>
<path d="M1291.335,545.092C1291.638,545.092 1292.244,544.788 1292.547,544.788C1291.638,544.182 1290.729,544.485 1289.819,545.092C1288.91,545.698 1288.303,546.607 1287.697,547.214C1285.272,549.639 1281.937,551.155 1278.602,550.852C1276.48,550.548 1274.358,549.942 1272.236,550.245C1269.508,550.852 1267.689,552.974 1266.779,555.702C1266.476,556.915 1266.779,559.037 1267.992,558.734C1268.598,556.611 1270.72,554.793 1273.146,554.186C1275.268,553.58 1277.996,553.58 1280.118,553.883C1281.937,554.186 1283.756,554.793 1285.575,554.489C1287.394,554.186 1289.213,552.974 1289.516,551.155C1289.819,549.942 1288.91,548.426 1289.516,547.214C1290.122,546.001 1291.335,545.092 1290.728,544.182C1290.728,544.182 1291.941,545.092 1291.335,545.092Z" fill="#53A2AB" fill-opacity="0.44"/>
<path d="M1262.838,575.104C1263.748,579.045 1265.567,582.986 1264.051,586.624C1265.567,587.23 1267.385,586.018 1267.992,584.502C1268.598,582.986 1267.992,581.167 1267.689,579.348C1267.385,577.832 1266.779,576.013 1267.385,574.498C1267.385,574.194 1267.689,573.891 1267.992,573.588C1268.295,573.588 1268.295,573.588 1268.598,573.588C1270.72,574.195 1272.236,576.317 1272.842,578.136C1273.449,580.258 1273.448,582.38 1273.752,584.502C1274.055,585.714 1274.358,587.23 1275.571,588.14C1277.389,589.352 1280.118,587.836 1280.724,585.714C1281.331,583.592 1280.724,581.167 1280.421,579.045C1280.118,576.013 1279.815,572.376 1277.086,570.86C1275.874,570.253 1274.358,569.95 1274.055,568.738C1273.752,567.222 1275.267,566.009 1276.783,565.706C1277.996,565.403 1279.512,565.1 1280.724,564.797C1282.24,564.494 1284.362,564.19 1284.665,562.371C1284.968,560.553 1282.543,559.946 1281.027,559.643C1278.905,559.34 1276.783,559.037 1274.964,559.34C1272.842,559.643 1270.72,560.553 1269.811,562.371C1269.508,562.675 1269.507,563.281 1268.901,563.281C1268.295,563.584 1267.689,562.978 1267.385,562.675C1267.082,562.068 1266.779,561.462 1266.476,561.159C1262.535,555.399 1262.535,573.588 1262.838,575.104Z" fill="#10737F" fill-opacity="0.14"/>
<path d="M1299.823,571.466C1297.701,570.86 1295.276,570.86 1292.851,571.769C1292.548,571.769 1291.941,572.072 1291.941,572.375C1291.941,572.679 1292.548,572.982 1292.851,573.285C1294.973,573.891 1297.398,573.588 1299.217,572.679C1298.914,571.769 1297.701,571.466 1296.792,571.769Z" fill="#10737F" fill-opacity="0.14"/>
<path d="M1309.525,570.254C1308.312,569.648 1306.796,569.951 1305.887,570.557C1304.977,571.467 1304.371,572.679 1304.977,573.892C1307.1,574.498 1309.525,571.77 1311.647,572.679C1313.163,573.285 1313.769,575.104 1315.285,575.408C1316.497,575.408 1317.407,573.589 1316.8,572.679C1316.194,571.77 1314.678,571.77 1314.072,571.163C1312.556,569.951 1313.466,567.526 1314.678,565.707C1312.859,565.403 1311.647,567.222 1311.344,569.041C1311.344,569.951 1311.344,570.557 1310.737,571.163C1310.434,571.77 1309.525,572.376 1308.918,572.073Z" fill="#10737F" fill-opacity="0.14"/>
<path d="M1300.127,559.643C1300.127,560.249 1300.127,560.856 1300.43,561.462C1300.733,562.068 1301.34,562.371 1301.946,562.068C1302.249,561.765 1302.552,561.462 1302.855,560.856C1303.462,559.34 1304.068,557.824 1303.462,556.308C1303.158,555.702 1302.552,555.096 1302.552,554.489C1301.946,552.671 1304.068,551.458 1305.584,551.761C1305.281,549.336 1303.158,551.155 1303.158,548.426C1303.158,548.123 1307.706,546.304 1304.068,545.698C1298.611,545.092 1300.127,556.308 1300.127,559.643Z" fill="#53A2AB" fill-opacity="0.44"/>
<path d="M1320.741,556.611C1318.316,556.914 1315.891,556.611 1314.072,555.398C1312.253,556.914 1313.465,559.643 1315.284,560.855C1317.103,562.068 1319.528,562.371 1321.347,563.28C1323.166,564.19 1324.682,566.918 1323.469,568.737C1324.985,569.04 1326.501,569.647 1328.017,569.95C1328.32,571.466 1326.804,572.375 1325.591,573.284C1324.379,574.194 1323.166,576.316 1324.682,576.922C1325.288,578.135 1327.107,578.135 1328.623,577.225C1329.836,576.619 1331.351,575.407 1332.564,576.013C1333.473,576.316 1334.08,577.225 1334.686,577.832C1337.414,580.56 1341.659,581.166 1345.296,582.985C1348.934,584.804 1351.966,589.048 1350.147,592.383C1349.541,593.596 1348.025,594.505 1347.115,595.718C1346.206,596.93 1345.6,598.446 1346.206,599.659C1349.237,599.962 1352.572,598.749 1354.997,596.93C1357.423,599.659 1360.454,602.084 1364.092,602.994C1367.73,603.903 1371.974,602.387 1373.49,599.053C1373.793,598.446 1374.096,597.537 1374.399,597.234C1375.309,596.627 1376.218,596.93 1377.431,596.93C1380.462,597.84 1383.494,598.749 1386.222,600.265C1386.829,600.568 1387.435,600.871 1387.738,601.478C1388.041,602.387 1387.738,603.297 1387.435,603.903C1387.132,606.935 1390.77,609.057 1394.104,609.36C1398.348,609.966 1402.593,610.572 1407.14,610.572C1407.14,608.45 1405.018,606.935 1402.896,606.328C1400.774,605.722 1398.348,605.722 1396.833,604.206C1395.014,602.387 1394.711,599.356 1392.892,597.84C1391.376,596.627 1388.647,595.718 1389.254,593.899C1389.557,591.777 1393.195,592.08 1393.801,590.261C1394.104,589.048 1393.195,587.836 1391.982,587.23C1390.769,586.926 1389.557,586.926 1388.344,586.623C1385.313,586.017 1382.584,583.289 1382.281,579.954C1382.281,578.741 1382.281,577.529 1381.978,576.316C1381.372,574.497 1379.25,573.891 1377.431,573.284C1368.033,570.253 1358.938,567.221 1349.541,564.19C1348.328,563.887 1346.812,563.28 1345.296,563.887C1341.659,565.099 1341.962,571.466 1338.324,572.072C1336.505,572.375 1334.686,570.859 1333.473,569.343C1332.261,567.828 1330.139,566.009 1330.139,563.887C1330.139,562.371 1331.351,561.158 1331.351,559.946C1329.836,555.702 1324.379,556.308 1320.741,556.611Z" fill="#10737F" fill-opacity="0.14"/>
<path d="M1392.589,585.715C1392.892,586.018 1393.498,586.321 1393.801,586.321C1397.742,587.534 1401.986,586.927 1405.624,585.108C1406.837,584.502 1407.746,583.896 1409.262,583.593C1410.171,583.593 1411.081,583.593 1411.687,583.593C1412.597,583.593 1413.506,582.986 1413.506,582.077C1413.809,581.167 1413.203,580.258 1413.506,579.652C1414.112,579.045 1415.325,579.348 1415.931,578.439C1416.538,577.833 1415.931,576.62 1415.022,576.014C1412.294,573.285 1409.262,570.254 1406.23,567.829C1405.927,571.77 1408.656,576.014 1405.624,579.348C1404.108,581.774 1391.679,584.199 1392.589,585.715Z" fill="#10737F" fill-opacity="0.14"/>
<path d="M1430.786,597.84C1432.302,598.447 1433.817,598.447 1435.03,599.053C1436.546,599.659 1437.758,600.569 1438.062,602.084C1438.062,602.084 1438.062,602.084 1438.062,601.781C1437.455,597.84 1433.817,595.718 1430.18,593.899C1429.876,593.596 1429.27,593.293 1428.967,592.99C1428.967,592.687 1424.42,595.718 1430.786,597.84Z" fill="#53A2AB" fill-opacity="0.44"/>
<path d="M1471.105,671.203C1470.801,669.688 1470.195,668.172 1469.286,666.959C1468.376,665.747 1466.557,664.837 1465.042,665.14C1463.526,668.172 1465.951,671.507 1468.679,673.325C1470.498,674.538 1472.924,675.448 1475.046,676.357C1472.014,676.66 1471.408,673.325 1471.105,671.203Z" fill="#53A2AB" fill-opacity="0.44"/>
<path d="M1479.896,643.617C1481.109,646.649 1482.018,649.983 1482.625,653.318C1484.14,652.409 1484.444,649.983 1483.534,648.771C1484.747,649.68 1484.747,651.499 1484.747,652.712C1485.353,656.349 1488.385,659.684 1492.022,660.594C1492.629,659.381 1492.022,658.168 1491.416,657.259C1490.507,656.349 1489.597,655.743 1488.688,654.834C1486.869,653.318 1485.959,650.893 1485.959,648.468C1485.959,646.345 1486.262,643.617 1484.444,642.708C1484.14,643.617 1483.837,644.527 1483.534,645.436C1482.928,645.436 1482.625,644.83 1482.322,644.223C1481.109,641.192 1482.322,636.645 1479.29,634.522C1478.987,635.735 1478.077,637.251 1476.562,637.554C1476.562,639.979 1478.987,641.798 1479.896,643.617Z" fill="#53A2AB" fill-opacity="0.44"/>
<path d="M1442.911,598.75C1445.034,599.659 1447.762,599.356 1449.278,600.872C1450.793,602.388 1450.49,605.116 1452.006,607.238C1452.612,608.148 1453.522,608.754 1454.128,609.36C1454.734,610.27 1455.038,611.482 1454.431,612.392C1453.522,613.301 1451.703,612.695 1451.097,611.482C1450.49,610.27 1450.49,609.057 1450.187,607.541C1449.884,606.329 1449.581,604.813 1448.065,604.207C1446.852,603.904 1445.337,604.51 1444.427,603.6C1444.124,603.297 1444.124,602.994 1443.821,602.388C1442.608,599.053 1438.364,597.537 1437.758,594.203C1439.577,595.718 1440.789,597.84 1442.911,598.75Z" fill="#53A2AB" fill-opacity="0.44"/>
<path d="M1318.618,593.293C1316.496,595.112 1314.677,597.234 1312.858,599.356C1314.071,599.962 1315.89,599.659 1316.799,598.447C1317.709,597.234 1318.012,595.718 1317.103,594.506Z" fill="#10737F" fill-opacity="0.14"/>
<path d="M1332.867,584.501C1334.08,585.411 1335.292,586.927 1335.292,588.442C1335.292,589.958 1333.777,591.474 1332.261,591.171C1332.564,589.049 1332.867,586.624 1333.17,584.501Z" fill="#10737F" fill-opacity="0.14"/>
<path d="M1319.226,618.454C1318.013,616.029 1314.982,615.12 1312.556,616.636C1314.375,618.151 1314.678,621.486 1312.86,623.305C1311.95,624.214 1310.737,624.821 1309.828,625.427C1306.493,627.852 1306.493,633.612 1309.525,636.341C1308.009,637.25 1306.493,637.856 1304.978,638.766C1303.765,634.825 1300.733,631.187 1296.792,629.671C1291.336,633.006 1287.395,638.463 1285.879,644.526C1285.273,644.526 1284.666,644.829 1284.06,644.829C1283.757,646.648 1283.454,648.467 1283.15,650.286C1281.635,648.467 1281.332,646.041 1281.635,643.919C1278.3,644.526 1276.481,647.86 1275.875,651.195C1274.965,654.227 1274.359,657.864 1272.237,659.987C1270.418,661.805 1268.296,662.412 1265.871,663.018C1262.233,664.231 1258.898,665.14 1255.26,666.353C1252.229,667.262 1249.197,668.172 1247.681,670.9C1246.469,673.022 1245.559,676.357 1243.134,676.054C1242.225,676.054 1241.315,675.144 1240.406,674.841C1238.284,674.235 1236.465,676.66 1236.465,678.782C1236.465,680.904 1237.374,683.026 1237.981,684.845C1238.587,686.967 1238.587,689.393 1236.768,690.908C1238.587,690.908 1240.709,691.818 1241.922,693.334C1243.134,694.849 1243.134,697.274 1241.618,698.79C1240.103,700.003 1237.374,699.397 1237.071,697.274C1241.315,708.794 1244.347,720.921 1246.166,733.35C1246.772,738.503 1247.378,743.657 1244.953,748.204C1249.197,751.539 1255.26,751.842 1259.808,749.114C1262.233,747.598 1264.355,745.173 1267.083,743.96C1271.631,741.838 1277.391,743.051 1282.241,741.535C1286.788,740.019 1290.426,736.381 1295.277,735.775C1298.915,735.169 1302.856,736.078 1305.887,734.259C1307.403,733.35 1308.312,732.137 1309.828,730.925C1311.344,730.015 1313.163,729.409 1315.285,729.409C1322.864,729.106 1330.443,734.259 1332.261,741.535C1332.565,743.354 1332.868,745.173 1333.474,746.992C1334.08,748.811 1335.899,750.326 1337.718,750.023C1338.325,744.263 1343.478,739.413 1349.238,739.716C1349.541,741.535 1348.329,743.354 1346.813,744.567C1345.297,745.779 1343.781,746.992 1343.175,748.508C1342.569,750.023 1343.175,752.752 1344.994,752.752C1345.903,750.933 1347.116,749.417 1348.935,748.204C1351.967,750.933 1350.451,756.39 1346.813,757.602C1350.451,756.39 1355.604,756.086 1356.817,759.724C1357.12,760.634 1357.12,761.846 1357.12,763.059C1357.726,768.516 1363.486,771.85 1368.64,774.276C1369.549,774.882 1370.762,775.185 1371.975,774.882C1373.794,774.579 1375.006,772.457 1375.916,770.941C1377.128,769.425 1379.25,767.909 1380.766,769.122C1381.979,770.335 1381.372,772.457 1382.585,773.669C1383.798,775.488 1386.829,774.579 1388.345,772.76C1389.861,770.941 1390.77,768.819 1392.589,767.606C1396.227,765.484 1402.593,767 1403.806,763.059C1404.412,760.937 1402.593,758.815 1401.987,756.693C1401.077,753.358 1403.199,749.72 1405.928,747.295C1408.656,744.87 1411.688,742.748 1413.204,739.413C1415.629,733.956 1413.204,727.59 1414.113,721.527C1415.023,715.464 1419.873,709.704 1417.448,704.247C1416.538,702.125 1414.416,700.306 1413.81,698.184C1412.9,696.062 1413.204,693.333 1411.991,691.515C1411.081,690.302 1409.566,689.999 1408.353,689.089C1404.412,686.361 1404.412,680.601 1402.896,676.054C1400.168,667.565 1392.286,662.412 1386.829,655.439C1385.92,654.227 1385.01,652.711 1384.404,651.195C1383.798,649.376 1384.101,647.557 1384.101,645.435C1383.798,640.888 1381.069,636.644 1377.128,634.218C1376.219,633.612 1375.309,633.309 1374.703,632.4C1373.794,631.187 1373.794,629.671 1373.794,628.155C1373.49,622.699 1371.368,617.545 1368.034,613.604C1365.608,625.427 1363.183,637.25 1360.758,648.77C1359.242,649.679 1357.726,650.589 1355.907,650.589C1355.301,647.557 1354.392,644.526 1353.785,641.494C1350.451,641.797 1346.813,641.797 1343.781,640.282C1340.75,638.766 1338.628,635.128 1339.84,631.793C1340.447,629.974 1342.266,628.155 1341.053,626.64C1344.084,627.852 1346.813,623.002 1344.388,620.577C1340.75,616.939 1337.112,622.395 1333.474,622.092C1328.017,621.789 1324.076,615.726 1319.226,618.454Z" fill="#10737F" fill-opacity="0.14"/>
<path d="M1383.797,801.863C1383.797,802.773 1383.797,803.682 1384.403,804.289C1384.706,804.592 1385.009,804.592 1385.313,804.592C1387.738,804.895 1391.072,804.289 1391.982,802.167C1392.588,800.348 1391.376,797.922 1391.982,796.104C1392.285,795.497 1392.588,794.891 1392.891,794.285C1393.801,792.769 1394.407,790.95 1393.801,789.434C1393.498,787.918 1391.679,786.403 1390.163,786.706C1389.254,787.009 1388.344,787.615 1387.435,787.615C1384.706,788.222 1376.218,782.159 1377.127,789.131C1377.431,791.253 1380.462,793.072 1381.372,794.891C1383.19,796.71 1383.797,799.438 1383.797,801.863Z" fill="#10737F" fill-opacity="0.14"/>
<path d="M1478.987,813.99C1477.168,814.596 1475.046,814.899 1473.227,816.112C1471.711,817.324 1470.802,820.053 1472.62,821.265C1473.833,822.175 1475.652,821.872 1477.168,822.175C1480.502,823.084 1480.806,827.632 1480.502,831.269C1482.928,832.179 1485.353,830.36 1486.566,827.935C1487.778,825.813 1488.688,823.084 1490.81,821.872C1492.326,820.962 1494.144,820.659 1495.054,819.446C1496.57,817.628 1495.66,814.899 1495.963,812.777C1497.176,807.017 1505.361,806.714 1507.483,801.257C1508.999,797.316 1511.727,790.041 1507.18,789.131C1496.267,787.312 1488.688,810.655 1478.987,813.99Z" fill="#53A2AB" fill-opacity="0.44"/>
<path d="M1514.455,793.072C1514.455,793.375 1514.455,793.678 1514.758,793.981C1515.061,794.588 1516.274,794.285 1516.577,793.981C1519.912,791.253 1517.79,785.493 1520.518,782.158C1521.428,780.946 1522.64,780.34 1523.853,779.43C1527.491,776.702 1529.613,772.154 1529.613,767.607C1528.097,768.517 1526.278,769.426 1524.459,769.729C1522.64,770.032 1520.518,769.426 1519.306,767.91C1518.093,766.091 1518.396,763.363 1517.184,761.544C1515.668,759.422 1512.636,759.119 1510.817,756.997C1509.301,755.178 1508.998,752.449 1508.695,750.024C1508.392,747.599 1507.179,744.871 1504.754,744.567C1499.904,750.024 1509.301,756.997 1510.514,761.544C1511.727,766.091 1509.301,767.304 1507.483,770.942C1505.664,774.883 1504.451,777.914 1508.089,780.946C1510.514,782.765 1512.333,780.036 1514.455,783.674C1515.668,785.493 1514.455,790.95 1514.455,793.072Z" fill="#53A2AB" fill-opacity="0.44"/>
<path d="M1265.87,466.576C1265.567,467.485 1265.264,468.091 1265.264,469.001C1265.264,471.729 1268.598,473.548 1268.598,476.277C1268.598,477.489 1268.295,478.399 1268.295,479.611C1268.295,480.824 1268.902,482.037 1270.114,482.037C1271.024,482.037 1271.63,481.127 1272.539,480.521C1273.146,479.914 1274.358,479.308 1274.965,480.218C1275.268,480.521 1275.268,481.127 1275.268,481.43C1274.965,484.462 1274.055,487.19 1272.843,489.919C1274.358,490.525 1276.177,489.615 1277.087,488.1C1277.996,486.584 1277.996,484.765 1278.299,483.249C1278.299,482.34 1278.299,481.43 1277.996,480.824C1277.39,479.611 1276.177,479.005 1275.268,478.096C1273.752,476.277 1273.752,473.548 1274.661,471.426C1275.571,469.304 1277.087,467.182 1277.996,465.06C1278.299,464.454 1278.299,463.847 1278.299,463.241C1278.299,462.635 1277.693,462.028 1277.693,461.422C1277.087,459.906 1276.783,458.391 1276.48,456.875C1274.055,442.93 1266.779,464.454 1265.87,466.576Z" fill="#53A2AB" fill-opacity="0.44"/>
<path d="M1292.244,488.099C1292.547,490.524 1291.334,493.252 1289.515,494.768C1289.212,495.071 1288.606,495.374 1288.303,495.981C1287.393,497.8 1289.515,499.315 1291.031,500.528C1295.882,504.166 1296.488,512.351 1292.244,516.898C1291.941,517.201 1291.334,517.808 1291.031,518.111C1290.728,518.717 1290.728,519.324 1290.728,519.93C1290.728,522.658 1291.031,525.084 1291.941,527.509C1289.515,528.721 1286.181,526.599 1285.271,523.871C1284.362,521.143 1284.968,518.111 1285.271,515.383C1285.574,514.473 1285.574,513.26 1284.968,512.351C1284.059,510.835 1281.633,511.138 1280.421,512.351C1279.208,513.564 1278.905,515.383 1278.299,516.898C1277.692,518.414 1277.086,520.233 1275.57,521.143C1274.358,515.383 1279.208,509.319 1284.968,508.713C1286.181,508.713 1287.696,508.713 1288.606,508.107C1289.818,507.501 1290.425,505.682 1289.515,505.075C1288.303,505.075 1288,503.56 1288,502.65C1288,501.741 1288.303,500.225 1287.393,499.619C1286.484,499.012 1284.968,499.619 1284.362,500.528C1283.755,501.438 1283.452,502.65 1282.846,503.56C1281.936,505.075 1280.118,505.985 1278.299,505.379C1278.299,502.953 1279.814,500.225 1281.936,499.316C1279.814,498.709 1277.692,497.497 1277.086,495.375C1276.177,493.252 1277.692,490.524 1279.814,490.827C1280.724,492.646 1281.33,494.768 1282.24,496.587C1283.755,497.497 1286.181,496.587 1287.09,494.768C1287.999,492.949 1288,490.827 1287.696,489.008C1289.818,490.221 1292.244,487.189 1291.334,484.764C1290.728,483.551 1289.515,482.642 1288.303,482.339C1290.728,484.158 1291.941,485.977 1292.244,488.099Z" fill="#53A2AB" fill-opacity="0.44"/>
<path d="M966.96,111.884C968.476,110.975 967.264,108.246 965.748,107.64C963.929,107.034 962.11,107.64 960.291,107.64C958.472,107.64 956.35,106.731 956.047,104.912C956.047,104.305 956.047,103.699 956.35,103.396C957.563,100.364 961.2,99.152 963.626,97.03C967.264,93.392 967.567,87.632 970.901,83.691C975.449,78.234 983.634,77.931 989.394,73.687C991.213,72.474 992.728,70.655 994.547,69.443C999.398,66.411 1005.461,66.714 1011.221,66.714C1018.8,66.411 1026.075,64.895 1033.048,62.167C1031.532,69.14 1023.347,71.565 1016.374,73.384C1011.827,74.596 1007.28,75.809 1002.733,77.325C996.973,79.144 991.213,81.569 986.665,85.51C981.815,89.451 978.48,94.908 978.177,100.971C978.177,104.305 981.815,110.975 979.693,113.4C976.964,116.432 969.689,113.097 966.96,111.884Z" fill="#53A2AB" fill-opacity="0.44"/>
<path d="M1142.182,30.943C1140.363,31.549 1138.847,32.156 1137.028,32.459C1138.544,34.884 1141.879,36.097 1144.607,35.187C1147.639,34.278 1150.367,31.549 1153.096,32.762C1153.702,33.975 1152.186,35.49 1150.973,36.097C1149.761,36.703 1148.245,38.522 1149.458,39.734C1149.761,40.038 1150.064,40.038 1150.367,40.341C1156.43,42.16 1163.403,40.644 1169.163,43.372C1170.982,44.282 1172.801,45.494 1174.62,45.494C1176.742,45.494 1178.561,42.766 1177.045,41.553C1176.135,40.644 1174.316,40.644 1174.013,39.431C1173.407,37.006 1178.864,36.097 1177.651,33.975C1173.71,33.975 1169.769,34.278 1165.828,34.278C1164.615,34.278 1162.797,34.278 1162.19,33.065C1161.887,32.459 1161.887,31.549 1161.584,30.943C1160.978,30.337 1160.068,30.337 1159.159,30.337C1157.037,30.64 1154.914,30.64 1152.792,30.943C1157.34,30.337 1163.403,28.215 1167.95,27.002C1161.887,19.726 1144.607,20.333 1142.182,30.943Z" fill="#53A2AB" fill-opacity="0.44"/>
<path d="M1197.053,40.643C1197.053,38.218 1193.415,37.005 1190.99,38.218C1188.564,39.431 1187.352,41.553 1185.836,43.675C1184.017,46.1 1181.592,48.222 1179.47,50.344C1185.533,49.435 1191.293,48.828 1197.356,47.919C1199.781,47.616 1202.51,47.009 1203.116,44.887C1200.691,43.372 1198.265,42.462 1195.234,42.159Z" fill="#53A2AB" fill-opacity="0.44"/>
<path d="M1352.875,76.718C1353.481,76.415 1354.391,75.809 1355.3,75.506C1358.635,74.596 1361.666,79.447 1365.001,78.841C1366.517,78.537 1367.426,77.325 1368.942,76.718C1372.277,75.506 1375.914,78.841 1378.946,76.718C1382.887,73.99 1381.371,71.565 1378.037,70.352C1375.005,69.14 1370.761,70.352 1367.426,69.443C1365.001,68.836 1362.879,67.321 1360.454,66.411C1354.997,63.986 1346.509,60.348 1342.871,67.321C1339.233,73.384 1346.509,80.659 1352.875,76.718Z" fill="#53A2AB" fill-opacity="0.44"/>
<path d="M1400.774,75.203C1398.349,73.384 1395.621,71.868 1392.589,70.958C1392.286,70.958 1391.68,70.655 1391.376,70.655C1389.861,70.655 1388.951,72.777 1389.254,74.293C1389.861,75.809 1391.376,76.718 1392.892,77.022C1394.408,77.325 1395.924,77.022 1397.743,77.022C1401.077,76.718 1404.412,77.022 1407.747,77.931C1408.353,75.809 1406.231,73.687 1404.109,73.384C1401.987,73.081 1399.865,73.99 1398.046,74.899Z" fill="#53A2AB" fill-opacity="0.44"/>
<path d="M1370.154,87.328C1368.335,86.419 1366.213,85.813 1364.394,85.51C1363.181,85.206 1361.666,85.813 1361.969,86.722C1361.969,87.025 1362.575,87.328 1362.878,87.632C1365.607,89.147 1368.638,90.36 1371.67,91.269C1373.186,91.573 1375.005,91.573 1375.611,90.36C1375.914,89.451 1375.308,88.238 1374.398,87.632C1372.579,86.116 1369.851,85.51 1367.426,86.116Z" fill="#53A2AB" fill-opacity="0.44"/>
<path d="M779.611,43.675C782.339,45.191 785.371,45.494 788.099,46.707C791.13,48.223 793.556,51.557 794.162,54.892C794.465,57.014 794.465,59.439 795.678,61.258C797.497,63.987 801.438,63.987 803.863,62.168C806.288,60.349 807.501,57.014 807.501,53.983C807.501,51.557 807.198,48.829 808.713,47.01C809.32,46.404 810.532,45.797 811.442,45.494C813.261,44.888 815.383,44.282 817.505,44.585C819.627,44.888 821.446,46.707 821.446,48.526C821.446,50.951 818.717,53.376 819.627,55.498C823.568,55.498 827.509,55.498 831.45,55.195C832.662,53.68 831.753,51.254 830.237,50.345C828.721,49.132 826.599,49.132 824.78,48.223C822.961,47.313 821.446,45.797 821.749,43.675C822.355,40.947 826.599,41.25 829.328,41.25C837.21,41.553 844.182,34.278 843.879,26.396C836.907,25.486 833.572,32.762 827.812,34.884C822.961,36.4 820.536,33.671 816.292,34.278C811.745,34.581 810.532,37.612 806.894,38.522C801.438,39.734 797.497,37.006 791.737,36.4C787.493,36.097 768.091,36.703 779.611,43.675Z" fill="#10737F" fill-opacity="0.14"/>
<path d="M710.492,10.934C706.248,18.513 698.668,24.273 690.18,26.698C686.24,27.911 681.692,28.214 678.66,31.246C676.842,33.065 675.628,35.49 674.72,37.915C672.9,42.462 670.778,47.313 670.778,52.466C670.778,57.62 672.9,62.774 677.448,65.199C671.082,68.23 670.476,78.841 676.538,82.479C674.114,88.542 664.11,85.207 659.258,89.451C655.62,92.786 657.136,98.849 659.258,103.396C661.38,107.944 664.412,113.097 662.594,117.645C655.924,114.916 648.952,112.491 642.282,109.763C639.857,115.219 647.132,122.192 652.286,119.16C647.132,128.255 633.49,126.436 623.789,130.983C613.482,135.531 608.025,147.657 597.718,151.901C592.565,154.023 586.805,154.023 581.651,156.448C576.497,158.57 572.253,164.633 574.678,169.484C575.285,170.393 575.891,171.303 575.891,172.515C575.891,173.728 574.678,174.334 573.769,175.244C565.584,182.216 565.281,194.949 565.887,205.862C562.855,207.984 558.611,204.952 557.096,201.618C555.58,198.284 554.67,194.342 551.639,192.22C548.607,190.098 544.363,191.311 541.028,189.795C537.997,188.583 535.875,185.551 534.056,182.519C530.721,177.063 527.386,171.909 524.052,166.452C521.323,161.905 518.292,157.358 517.382,151.901C516.473,146.747 518.595,140.684 523.142,138.259C526.477,136.44 531.934,134.015 529.508,130.983C528.902,130.377 527.993,130.074 527.386,129.771C521.323,127.649 515.26,125.527 508.894,123.101C511.319,115.826 519.808,110.975 527.386,112.794C530.115,108.247 523.749,103.396 518.595,103.699C513.441,103.699 507.681,105.822 503.437,102.487C507.378,97.03 507.075,89.148 504.044,83.388C501.012,77.325 495.252,73.081 488.886,70.352C486.157,69.14 483.126,68.23 480.094,68.23C475.244,68.23 470.697,70.352 466.149,70.352C459.48,70.352 453.114,66.108 449.476,60.348C445.535,54.892 443.716,48.222 441.594,41.856C447.051,44.888 454.326,44.888 459.177,41.553C464.33,37.915 466.452,30.336 463.118,25.183C470.09,23.667 476.76,22.151 483.732,20.635C485.551,20.332 487.37,19.726 488.886,18.816C490.705,17.604 492.221,15.482 493.736,14.269C497.071,11.541 501.618,10.934 505.862,10.328C517.382,9.115 528.902,7.903 540.725,6.387C542.847,6.084 545.273,5.781 547.395,6.387C553.155,7.903 558.308,14.875 563.462,11.844C563.765,9.722 562.855,7.296 561.643,5.478C568.009,2.446 575.588,3.355 582.864,3.355C597.415,3.659 611.663,0.324 625.911,0.021C640.16,-0.282 654.408,2.749 667.14,8.206C662.896,11.237 657.742,13.36 652.59,14.269C655.924,13.966 659.258,14.572 662.594,16.088C660.168,15.178 648.952,23.97 647.132,25.486C653.196,30.336 666.838,20.332 672.9,17.301C684.724,12.147 696.85,8.812 710.492,10.934Z" fill="#53A2AB" fill-opacity="0.44"/>
<path d="M688.665,165.239C685.33,166.452 682.298,168.271 679.57,170.696C677.145,172.818 674.416,175.547 671.082,174.94C667.747,174.334 666.231,170.696 665.019,167.664C663.503,164.633 660.774,161.601 657.743,162.511C659.562,160.389 661.078,158.57 662.896,156.448C658.955,155.841 654.711,155.235 650.77,154.629C649.861,154.629 648.648,154.326 648.042,153.416C646.526,151.597 648.648,149.172 651.073,148.263C656.227,146.747 661.684,149.172 665.322,152.81C666.837,154.326 668.96,156.145 671.082,155.538C672.294,154.932 672.901,153.416 673.81,152.204C675.932,149.475 679.873,149.172 683.511,149.475C689.271,150.082 701.094,145.837 703.216,152.81C705.641,160.692 693.212,163.42 688.665,165.239Z" fill="#10737F" fill-opacity="0.14"/>
<path d="M185.429,111.581C170.271,117.947 154.204,124.313 137.834,124.01C130.558,124.01 123.585,122.494 116.613,121.281C101.152,118.553 85.691,115.522 71.443,109.155C67.502,107.336 63.864,105.517 59.62,105.214C55.072,104.911 50.525,106.73 46.281,108.852C33.549,115.218 22.029,123.404 12.328,133.711C22.635,135.227 32.033,141.29 38.399,149.475C33.549,151.9 26.879,149.778 24.454,144.927C18.088,143.109 10.206,148.262 9.599,154.932C8.993,161.601 15.359,168.27 22.332,167.664C24.757,164.632 28.395,162.207 32.336,161.904C34.155,164.936 35.974,168.27 37.793,171.302C34.458,175.243 28.698,175.546 23.848,176.759C18.997,177.971 13.237,181.306 13.844,186.46C14.753,194.948 31.123,195.554 30.214,204.042C30.517,201.314 63.864,198.889 47.797,217.988C45.372,221.019 41.431,223.141 37.49,222.838C38.702,225.87 38.399,229.811 35.974,231.933C33.549,234.055 28.698,233.448 28.092,230.114C25.363,235.571 18.391,237.086 12.328,237.693C11.721,240.118 10.812,242.543 10.206,244.968C9.599,241.937 5.658,240.118 2.93,241.634C0.202,243.149 -0.102,247.697 2.324,249.516C4.446,251.335 7.78,251.031 10.509,250.425C11.721,250.122 12.934,249.819 13.54,248.909C13.844,248.303 13.844,247.697 13.844,247.09C13.844,243.756 16.875,241.33 19.907,240.118C22.938,238.905 26.273,238.905 29.304,237.996C34.458,236.783 39.005,234.055 43.249,230.72C47.797,227.082 51.738,222.838 56.891,220.11C58.71,219.2 60.832,218.291 62.954,217.078C76.9,208.59 68.108,193.735 88.419,191.007C88.723,193.735 86.904,196.767 83.872,197.676C90.541,202.527 97.514,187.369 105.396,190.097C107.518,191.007 109.034,192.826 110.853,194.342C114.188,196.767 119.038,196.767 123.282,197.07C140.259,198.586 155.72,211.015 160.57,227.385C167.846,225.263 174.212,233.145 177.85,239.815C183.913,251.031 189.976,262.248 196.039,273.465C199.98,280.438 203.921,287.714 205.739,295.596C208.469,306.812 207.559,318.634 210.287,330.154C213.015,341.372 221.503,352.892 233.327,352.588C235.145,370.17 240.299,387.45 248.485,403.214C244.543,407.156 250.909,413.218 256.367,414.734C261.823,416.25 268.795,420.192 266.673,425.344C273.041,418.372 264.855,407.458 257.277,402.002C249.395,396.546 240.299,387.148 245.149,378.962C247.879,376.234 252.425,379.266 253.639,382.904C254.851,386.542 254.851,390.786 257.277,393.514C259.399,395.938 263.035,396.546 265.765,398.364C276.071,404.428 273.949,421.708 283.953,428.376C287.591,430.802 292.441,431.408 295.473,434.44C297.595,436.562 298.809,439.594 300.323,442.624C305.477,452.326 316.087,457.782 326.091,462.936C329.123,464.452 331.851,465.968 334.883,467.18C351.557,475.366 367.927,483.854 384.601,492.038C386.117,492.948 387.935,493.554 389.755,492.948C396.423,490.22 382.781,478.094 388.541,473.546C380.357,469.606 372.171,465.664 364.289,461.724C369.443,457.176 370.049,448.688 365.805,443.232C368.837,442.624 371.261,439.896 371.869,436.864C368.231,433.226 361.865,436.258 358.833,440.502C356.105,444.746 354.891,450.204 351.253,453.842C342.765,462.026 327.911,453.236 324.577,442.018C321.241,430.802 325.183,418.978 326.395,407.156C327.001,402.608 327.305,397.152 330.943,394.12C339.431,387.45 351.861,401.396 361.865,397.152C365.503,395.332 367.927,391.392 371.565,389.27C377.629,385.632 386.117,388.966 390.361,394.726C394.605,400.486 395.817,407.762 396.727,414.734C398.849,418.07 404.305,414.432 404.003,410.49C403.699,406.55 400.667,403.822 398.545,400.486C393.089,392.302 395.515,379.872 403.699,374.416C410.975,369.262 422.799,367.442 423.101,358.652C423.405,352.892 417.947,348.344 417.947,342.584C417.645,337.734 421.585,333.49 424.921,329.852C434.925,319.848 444.929,309.844 454.629,299.84C457.055,297.414 459.783,294.988 463.117,295.292C466.453,295.596 468.271,301.052 465.239,302.264C477.063,302.568 492.523,299.84 493.433,288.32C488.583,292.564 483.125,295.596 477.063,297.414C476.457,291.958 477.973,286.198 481.609,281.65C477.365,274.071 466.755,271.949 458.571,274.677C450.385,277.406 443.715,283.468 437.349,289.228C446.747,278.012 459.783,268.614 474.335,266.795C479.791,266.189 485.855,266.492 490.705,263.764C497.375,259.823 503.437,250.122 510.107,253.76C505.255,262.248 500.405,271.04 495.251,279.528C500.405,279.224 505.863,278.618 511.015,278.315C513.139,281.954 514.351,286.198 514.047,290.442C520.413,290.138 529.509,285.59 526.477,279.832C524.961,276.799 521.021,276.193 518.595,274.071C511.623,268.311 517.079,256.488 513.441,248C511.623,243.756 507.985,241.027 504.347,237.996C489.493,225.87 477.669,209.802 470.697,191.613C468.877,195.857 467.059,200.405 463.421,203.133C459.783,205.861 453.719,205.861 451.295,201.92C450.081,199.798 450.081,197.07 449.475,194.645C447.959,189.188 442.807,185.55 437.653,182.822C431.893,179.184 424.921,175.546 418.251,177.668C411.581,179.79 410.065,191.613 417.039,192.826C410.671,193.129 410.975,202.83 414.613,208.287C418.251,213.44 423.405,220.11 419.767,225.263C416.735,230.114 408.853,229.507 405.821,234.358C402.789,238.905 406.125,244.665 408.247,249.819C410.671,254.669 410.369,262.551 405.215,263.461C400.667,264.37 397.333,259.217 396.423,254.366C395.211,247.09 396.121,239.208 392.785,232.842C389.451,226.476 378.537,223.141 375.203,229.811C373.385,223.141 367.927,217.684 361.561,215.562C356.105,214.047 350.345,214.35 345.191,211.925C337.611,208.287 334.277,199.798 331.549,191.613C341.553,185.853 351.861,179.487 356.407,169.18C357.621,166.451 358.227,163.117 360.651,160.995C362.773,159.176 365.503,158.569 367.927,156.75C370.049,155.235 371.565,151.597 369.443,149.778C372.475,147.959 375.809,147.353 379.143,147.959C384.903,155.841 367.321,169.18 375.507,174.03C380.053,176.759 384.903,171.302 387.025,166.451C390.663,167.967 394.301,169.483 397.939,170.696C402.487,167.058 397.031,159.782 391.877,157.054C386.419,154.325 379.751,149.475 382.479,144.018C387.329,144.018 392.179,143.715 396.727,143.715C397.031,139.168 393.999,134.62 389.755,133.104C392.179,129.163 394.605,125.526 397.031,121.585C394.907,119.159 391.271,117.947 387.935,118.856C397.637,117.34 407.035,114.612 415.825,110.065C423.101,118.25 429.771,126.738 436.137,135.53C437.047,137.045 438.259,138.561 438.259,140.38C438.259,144.321 433.711,145.837 430.377,147.656C427.043,149.475 424.921,155.538 428.861,156.447C428.255,159.176 424.011,159.176 421.889,157.66C419.767,156.144 417.341,153.719 414.613,153.719C409.157,154.022 410.065,163.42 415.219,165.239C420.373,166.755 425.527,163.42 430.073,160.388C440.077,169.483 452.205,176.455 465.239,180.7C460.087,179.487 456.145,174.03 457.055,168.573C463.117,170.392 468.877,173.121 474.031,176.759C478.579,171.302 472.819,163.723 467.059,159.782C461.299,155.841 454.023,151.294 454.933,144.321C462.511,144.018 470.091,148.565 473.727,155.235C476.457,151.294 479.487,147.05 482.217,143.109C478.881,132.498 458.267,135.53 456.145,124.616C455.841,122.494 456.145,120.069 454.933,118.25C452.811,115.522 448.869,117.037 445.231,116.734C433.409,116.431 426.435,96.726 415.523,101.273C420.069,92.785 407.035,81.871 399.455,87.934C403.699,89.45 408.247,91.572 409.763,95.816C411.279,100.061 406.731,105.517 403.093,103.395C399.153,101.273 400.971,94.907 398.849,90.966C396.121,86.116 388.239,87.025 385.207,91.572C382.175,96.12 382.479,102.183 383.691,107.336C380.963,107.336 378.537,107.336 375.809,107.033C375.203,99.758 376.719,92.179 380.053,85.509C377.021,80.962 370.049,85.206 366.715,89.753C363.077,94.301 359.439,99.151 358.529,104.911C357.317,110.671 359.743,117.34 365.199,119.463C368.533,120.675 372.777,120.069 376.113,121.281C383.995,124.313 380.963,139.168 372.475,138.864C369.747,134.62 368.231,129.467 367.927,124.616C363.683,125.829 360.045,127.951 356.711,130.679C352.467,120.372 346.707,110.671 339.733,102.486C341.553,99.151 343.069,95.816 344.887,92.785C351.861,95.816 360.349,88.541 358.833,81.265C353.073,79.749 347.313,77.93 341.553,79.446C335.793,80.659 330.639,86.116 331.245,91.875C331.851,95.513 334.277,98.242 335.187,101.576C336.097,104.911 333.975,109.762 330.639,109.155C328.821,117.34 346.403,117.644 347.313,126.132C347.919,132.195 339.733,134.317 333.975,134.317C335.793,140.077 335.489,146.443 333.367,151.9C328.821,143.412 331.245,132.195 338.825,126.132C334.277,119.159 323.969,117.037 316.997,121.585C319.725,125.526 323.667,128.557 328.215,129.77C325.789,132.498 323.363,135.227 320.939,138.258C315.785,134.62 308.509,137.349 302.143,137.955C295.777,138.258 287.895,131.286 292.441,126.738C288.501,124.313 283.347,123.707 279.709,126.132C276.071,128.86 275.769,135.53 279.709,137.349C271.221,139.471 256.973,124.01 250.909,135.833C246.969,123.707 240.905,120.069 228.477,119.463C220.291,119.159 196.342,113.096 192.098,119.766C188.763,120.069 185.429,111.581 185.429,111.581Z" fill="#10737F" fill-opacity="0.14"/>
<path d="M208.165,79.447C203.618,80.053 200.889,85.207 200.283,89.754C199.677,94.302 200.283,99.455 197.858,103.396C197.251,104.306 196.645,105.215 196.342,106.428C195.736,109.763 199.98,111.885 203.315,111.278C212.712,109.763 218.775,97.03 228.173,98.546C228.173,100.971 228.476,103.699 228.476,106.125C234.539,106.125 240.906,105.215 246.969,103.396C248.788,104.609 247.878,107.64 245.756,108.55C243.634,109.459 241.512,109.156 239.39,109.459C237.268,109.763 234.842,110.672 234.539,113.097C238.783,111.885 243.028,110.672 247.272,111.581C251.516,112.491 255.457,115.826 255.457,120.373C249.394,120.07 243.331,120.373 237.571,120.979C240.906,124.92 246.969,124.314 251.819,124.92C256.973,125.527 263.036,129.468 261.217,134.318C268.189,127.042 279.406,124.617 288.804,128.558C291.229,129.468 293.351,130.68 295.776,131.287C298.202,131.893 301.233,131.287 302.446,129.164C303.658,127.042 302.446,123.405 300.021,123.708C303.355,123.405 306.084,120.676 306.993,117.645C301.536,119.464 294.867,116.432 292.442,110.975C290.32,106.125 291.532,99.758 287.894,95.818C290.926,96.727 294.261,93.089 293.351,89.754C292.442,86.42 289.107,84.601 285.772,84.298C283.65,84.298 281.225,84.904 280.012,86.723C278.8,88.542 279.103,91.27 280.922,92.483C278.497,91.27 275.768,90.058 273.343,88.845C272.434,95.211 284.56,98.849 281.831,104.609C280.012,108.247 273.646,105.822 273.04,101.881C272.434,99.152 273.04,95.818 270.615,94.605C266.067,92.483 262.733,103.699 258.185,100.971C258.489,98.546 258.792,95.818 259.095,93.392C253.335,93.089 247.575,94.908 243.634,98.849C244.24,96.424 244.543,93.999 245.15,91.573C239.087,88.239 233.024,100.062 226.354,97.94C232.72,100.062 246.969,87.632 235.752,82.479C233.024,81.266 227.567,83.085 224.535,83.085C218.775,82.176 213.319,78.841 208.165,79.447Z" fill="#53A2AB" fill-opacity="0.44"/>
<path d="M235.752,53.377C231.508,51.255 226.051,53.68 222.414,56.711C218.776,59.743 215.744,63.987 211.197,66.109C209.075,67.019 206.65,67.625 205.437,69.444C212.713,69.444 219.988,68.837 227.264,67.928C226.961,70.353 225.748,72.778 223.929,74.294C227.264,75.507 230.296,71.263 230.599,67.625C230.599,66.412 230.902,65.2 231.811,64.593C232.418,63.987 233.63,63.987 234.54,63.987C237.571,63.381 240.3,60.652 239.997,57.621C239.693,54.589 235.449,52.467 233.024,54.286Z" fill="#53A2AB" fill-opacity="0.44"/>
<path d="M258.792,73.688C259.701,73.082 260.308,72.172 260.004,70.96C255.457,70.96 251.213,67.322 250.607,62.774C247.878,61.259 243.937,62.471 243.028,65.2C241.815,67.928 243.937,71.566 246.969,72.172C242.725,73.991 238.177,75.81 233.933,77.932C242.421,82.48 252.426,72.475 261.52,74.597C261.52,75.81 261.52,76.72 261.52,77.932C257.579,77.932 253.638,79.751 250.91,82.783C257.882,83.389 264.855,81.57 270.918,77.932C272.434,77.023 274.253,75.507 276.072,75.204C277.891,74.901 279.406,75.507 281.225,75.81C285.166,76.416 290.32,73.991 290.32,70.05C287.591,69.141 284.56,68.838 281.832,69.141C280.922,63.684 274.253,60.349 269.402,62.774C269.402,66.412 271.221,70.05 273.95,72.475C271.221,74.901 266.977,75.204 263.642,73.385C262.127,72.475 260.611,71.263 259.095,71.263C257.276,71.263 254.851,72.475 253.941,70.96Z" fill="#53A2AB" fill-opacity="0.44"/>
<path d="M263.946,47.01C256.973,46.1 250.001,47.313 243.938,50.344C247.272,51.86 250.607,53.376 253.942,54.892C254.851,55.195 255.457,55.498 256.367,55.498C256.973,55.498 257.883,55.195 258.489,54.892C261.824,53.376 264.855,52.163 268.19,50.647C267.583,49.738 266.977,49.132 266.371,48.222C267.887,49.132 270.009,47.919 270.009,46.1C270.009,44.281 268.493,42.765 266.977,42.462C265.462,41.856 263.643,42.159 261.824,42.765C259.702,43.372 257.883,43.978 256.064,44.584C256.973,46.706 259.095,48.222 261.217,48.829C261.217,49.738 261.217,50.344 261.217,51.254Z" fill="#53A2AB" fill-opacity="0.44"/>
<path d="M311.845,48.222C310.329,48.222 309.419,46.403 309.419,45.191C309.419,43.675 309.723,42.159 308.813,40.946C306.994,37.612 302.144,40.037 298.506,39.431C296.384,39.127 294.565,37.612 292.443,36.702C290.321,35.793 287.592,36.399 286.986,38.521C286.38,40.946 289.108,42.765 291.533,42.765C293.959,42.765 296.384,41.856 298.809,42.765C299.112,42.765 299.718,43.068 300.022,43.372C301.841,45.797 295.474,47.313 296.081,50.041C296.384,51.557 298.203,51.86 299.415,51.86C301.537,52.163 303.659,52.163 305.782,52.466C307.904,52.769 310.329,52.769 312.148,51.557C313.967,50.344 313.967,47.009 311.845,46.403Z" fill="#53A2AB" fill-opacity="0.44"/>
<path d="M322.757,70.049C323.97,68.533 323.363,66.411 321.848,65.198C320.332,63.986 318.21,63.986 316.391,63.986C310.934,63.986 305.477,64.592 300.324,66.108C298.808,66.411 296.989,67.017 295.473,66.714C293.958,66.411 292.139,64.895 292.745,63.076C290.623,65.501 293.351,69.746 296.383,70.655C299.717,71.564 303.052,70.655 306.387,70.655C309.722,70.958 313.662,73.08 313.359,76.415C313.359,77.324 313.056,77.931 313.359,78.84C313.662,79.75 314.875,80.053 315.785,80.053C320.332,79.75 323.667,74.596 322.151,70.352C320.938,70.655 320.029,69.746 319.422,68.836C321.544,67.927 323.06,66.411 323.363,64.289C319.726,62.773 315.481,63.379 311.844,65.198Z" fill="#53A2AB" fill-opacity="0.44"/>
<path d="M320.939,88.846C322.757,87.633 321.545,83.995 319.423,83.389C317.301,82.783 314.875,83.995 313.056,85.208C313.056,87.027 312.753,89.149 312.753,90.968C310.631,90.361 308.206,90.968 306.387,92.18C309.722,93.09 312.45,95.818 313.056,99.153C310.025,101.275 305.174,99.759 303.659,96.424C303.052,94.909 302.749,92.483 301.233,92.18C298.808,91.271 297.596,95.212 298.505,97.334C301.233,103.094 310.025,102.791 314.875,107.035C316.694,108.551 319.423,110.673 320.635,109.157C321.848,107.641 320.332,105.822 318.816,104.61C320.635,104.913 322.454,104.913 323.97,104.306C325.486,103.7 326.698,101.578 325.789,100.062C325.486,99.153 324.576,98.85 323.667,98.243C320.939,96.121 320.029,92.18 321.545,89.149C320.635,88.846 319.726,88.239 318.816,87.936Z" fill="#53A2AB" fill-opacity="0.44"/>
<path d="M406.428,73.384C400.668,69.746 393.089,68.837 386.42,70.353C381.569,71.565 377.022,73.99 372.172,74.597C364.896,75.203 357.923,70.656 353.982,64.593C359.439,60.955 367.624,68.231 373.384,64.896C374.9,63.986 376.113,62.167 377.931,61.561C379.75,60.652 381.873,60.955 383.691,61.561C393.089,63.077 402.184,64.896 411.582,66.412C412.794,62.471 409.156,57.923 405.215,57.923C410.066,56.104 414.916,53.982 419.767,52.163C422.192,51.254 424.92,50.041 426.133,47.616C427.346,45.191 426.436,41.553 424.011,41.25C435.228,37.309 446.141,32.458 456.448,26.698C455.539,24.88 454.326,23.061 453.417,21.242C460.693,21.848 467.968,19.726 473.728,15.179C465.543,14.572 457.661,15.179 449.779,17.301C463.118,19.12 477.063,16.694 489.189,10.934C484.945,6.993 476.76,12.147 472.516,8.206C471.303,6.993 470.697,5.175 469.181,4.265C467.665,2.749 465.24,2.749 463.118,2.446C441.291,1.234 419.464,1.84 397.636,4.265C393.999,4.568 389.451,6.084 389.451,9.722C384.298,9.419 379.144,9.419 373.687,9.116C370.049,14.269 362.471,16.088 356.711,13.663C355.498,15.785 353.982,17.907 352.77,19.726C356.408,22.151 360.955,23.364 365.199,23.061C367.927,28.517 376.719,29.73 380.66,25.183C382.479,31.549 391.877,30.336 397.333,27.002C402.79,23.667 410.066,19.12 415.219,23.061C408.247,28.517 399.455,31.246 390.664,30.639C392.786,33.368 394.908,35.793 397.333,38.521C391.877,38.825 387.329,35.49 382.479,32.762C377.628,30.033 371.565,28.214 367.321,31.549C371.262,34.884 375.203,37.915 379.144,41.25C368.231,35.49 357.62,29.73 346.707,24.273C343.675,22.454 339.734,20.939 336.399,22.151C333.065,23.364 332.155,29.124 335.49,30.336C332.762,30.943 330.639,33.065 329.73,35.49C336.096,36.096 342.462,37.915 348.222,40.644C345.494,41.553 342.766,42.462 340.037,43.372C346.1,45.494 352.467,47.313 358.53,49.435C359.742,49.738 361.258,50.344 362.471,49.738C363.683,49.132 363.986,47.616 364.593,46.403C366.412,43.069 371.565,41.553 374.9,43.675C373.99,45.494 373.384,47.313 372.475,49.132C375.506,49.132 378.235,49.132 381.266,49.132C381.266,50.648 381.266,52.467 381.266,53.982C385.51,54.589 389.754,54.589 393.999,53.679C392.483,59.439 384.298,59.742 379.144,57.014C373.99,54.285 370.049,49.435 364.29,47.616C366.108,51.86 368.837,55.498 372.475,58.226C364.896,57.014 357.014,57.62 350.041,60.349C349.435,58.833 348.526,57.317 347.919,55.801C342.159,58.226 343.069,66.715 344.888,72.778C345.494,74.597 346.1,76.416 347.313,77.931C350.041,81.266 354.892,81.569 359.136,81.569C365.502,81.872 371.868,81.872 378.235,82.176C387.329,82.176 406.731,86.42 406.428,73.384Z" fill="#53A2AB" fill-opacity="0.44"/>
<path d="M336.399,66.411C338.218,65.198 341.25,66.107 342.159,64.288C342.766,62.773 341.25,61.257 339.734,60.651C338.218,59.741 336.703,58.529 337.006,57.013C335.793,57.316 334.58,57.013 333.368,56.406C336.096,55.8 338.825,54.891 341.25,54.284C342.159,53.981 343.675,53.072 343.069,52.162C342.766,51.859 342.463,51.859 342.159,51.556C340.644,51.253 338.825,50.95 337.309,50.04C335.793,49.131 335.187,47.009 336.399,45.796C335.49,45.796 334.58,45.493 333.671,45.493C333.671,44.887 333.671,43.977 333.671,43.371C328.821,43.371 324.273,42.765 319.423,42.158C318.816,45.19 321.848,48.828 324.88,48.221C325.486,48.221 326.092,47.918 326.395,48.221C326.698,48.524 327.002,49.131 327.002,49.434C327.608,50.647 329.427,51.253 330.639,50.647C330.336,51.556 329.73,52.465 328.821,53.072C330.336,53.981 332.155,54.284 333.671,54.588C332.458,55.8 330.639,56.406 329.124,56.71C329.73,57.316 330.639,57.922 331.246,58.529C329.427,58.529 327.608,58.529 325.789,58.529C325.183,60.347 327.002,61.863 328.517,62.47C330.336,63.076 339.128,68.836 333.974,71.261C330.943,72.777 329.73,67.623 330.639,65.804C332.458,69.745 331.852,75.202 334.884,78.537C337.006,80.962 340.34,81.568 342.463,78.234C346.1,73.08 337.309,71.261 336.399,66.411Z" fill="#53A2AB" fill-opacity="0.44"/>
<path d="M389.149,503.863C387.027,509.623 393.696,515.99 399.456,513.867C400.972,513.261 402.487,512.049 404.003,511.745C408.854,510.836 411.582,516.899 412.491,521.75C413.704,527.206 414.917,532.966 412.795,538.12C410.369,544.183 403.7,548.73 403.094,555.096C402.487,560.553 406.125,566.01 404.306,571.164C403.397,573.589 401.578,575.408 400.668,577.53C399.153,581.774 400.972,586.321 402.791,590.262C408.854,603.601 414.917,616.94 420.98,630.279C422.496,633.31 423.708,636.342 426.437,638.464C428.559,639.98 431.287,640.889 433.409,642.102C437.047,644.527 439.169,648.165 441.291,652.106C445.232,659.078 448.87,666.051 450.689,673.933C452.811,684.543 450.689,695.456 448.87,706.066C445.838,721.528 442.807,736.988 439.775,752.45C436.441,769.426 433.106,786.706 429.771,803.682C433.409,801.56 436.137,797.922 437.047,793.678C438.866,804.896 436.441,816.414 430.984,826.116C430.378,821.872 430.074,817.628 429.468,813.686C425.224,822.478 423.102,832.482 423.405,842.182C423.405,844.002 423.708,845.82 424.921,847.034C426.133,848.246 427.952,848.55 429.468,849.156C432.803,850.974 434.015,855.218 432.5,858.554C434.319,858.856 435.834,859.462 437.653,859.766C440.382,861.888 434.015,864.92 434.015,868.254C434.015,869.77 435.228,870.68 436.137,871.588C440.988,875.834 445.838,880.078 450.689,884.322C454.024,885.23 457.661,886.444 460.996,885.838C464.331,885.23 467.969,882.806 468.272,879.168C468.575,874.318 463.724,871.286 460.39,867.648C455.539,862.192 454.024,854.006 455.539,846.428C457.055,838.848 460.087,832.178 463.724,825.51C461.602,824.6 459.48,823.994 457.055,823.084C457.358,818.234 462.209,815.202 465.543,811.262C471.303,804.288 470.697,793.072 464.331,787.008C466.756,785.19 469.181,783.674 471.606,781.856C473.729,784.886 475.547,788.222 477.67,791.254C482.52,787.312 484.339,780.036 481.914,774.276C493.13,777.004 505.56,767.91 506.469,756.39C503.741,756.39 501.619,753.056 502.528,750.63C503.438,747.902 507.075,746.992 509.198,748.508C507.985,751.844 511.623,755.178 514.958,754.874C518.292,754.572 521.021,751.54 521.93,748.206C523.143,744.87 523.143,741.536 523.749,738.202C524.658,732.744 527.084,727.59 530.722,723.65C533.753,720.316 537.391,717.284 539.21,713.04C540.422,710.008 540.422,706.37 541.029,703.338C542.848,692.424 550.73,683.027 561.037,679.39C561.34,684.24 568.919,683.331 572.557,679.996C578.014,675.145 581.348,668.476 582.561,661.2C583.47,654.834 582.561,648.165 585.592,642.708C586.805,640.283 588.625,638.161 589.533,635.735C590.139,633.613 589.837,631.188 589.837,628.763C590.443,616.334 603.781,606.633 602.267,594.506C601.357,586.624 594.385,580.865 588.017,576.014C578.317,568.738 568.009,561.16 555.883,559.644C548.304,558.734 539.816,560.25 532.844,556.612C535.875,556.309 537.997,553.278 538.3,550.246C538.604,547.214 537.088,544.183 535.875,541.455C534.966,539.636 534.056,537.817 533.147,535.695C529.509,528.116 523.749,519.021 515.261,520.234C512.835,520.537 510.107,521.75 507.985,520.537C506.166,519.324 505.863,516.596 504.65,514.474C500.406,506.289 484.945,509.623 482.52,501.135C481.914,499.013 482.52,495.981 480.701,494.466C479.488,492.95 477.366,492.95 475.244,493.253C466.453,493.556 457.965,493.859 449.173,494.162C448.87,497.497 446.748,500.832 443.716,502.045C444.019,504.167 444.626,505.986 444.929,508.108C444.323,511.745 438.26,511.139 436.744,508.108C435.228,504.773 436.744,500.832 438.563,497.8C440.382,494.769 442.504,491.434 442.504,487.796C438.563,485.977 434.622,489.918 431.893,493.253C429.165,496.588 423.405,499.316 420.98,495.981C421.283,499.619 421.586,503.257 421.889,506.895C416.432,511.745 406.125,509.623 403.094,502.954C400.972,505.682 398.546,508.411 395.212,509.32C391.877,510.23 387.633,508.108 387.633,504.773C389.452,512.049 396.727,517.808 404.306,517.808Z" fill="#53A2AB" fill-opacity="0.44"/>
<path d="M381.266,432.621C383.994,435.35 387.935,431.409 391.877,430.803C395.514,430.499 398.546,433.228 401.274,435.653C404.003,438.078 408.247,440.2 410.975,437.775C412.188,443.535 420.07,446.263 424.617,442.626C424.314,444.748 426.739,445.96 428.861,445.657C430.983,445.354 432.499,444.141 434.621,443.838C437.653,443.535 440.381,446.263 440.381,448.992C440.381,450.204 438.865,450.507 437.956,450.204C437.047,449.901 435.834,449.295 434.924,449.901C434.318,450.204 434.015,451.114 433.712,451.72C432.196,453.842 428.558,453.236 426.133,452.326C423.405,451.417 419.767,451.114 418.857,453.842C427.042,455.358 435.531,455.358 443.716,453.539C443.11,454.145 443.413,455.358 444.322,455.661C445.232,455.964 446.141,455.964 447.051,455.661C450.385,454.752 454.023,454.145 457.358,453.236C459.48,454.448 462.208,454.448 464.33,453.236C464.33,454.145 464.027,455.055 464.027,455.964C467.968,457.783 473.425,455.964 475.547,452.326C469.787,451.417 464.027,450.508 458.267,449.598C454.023,448.992 449.779,448.082 446.444,445.96C442.806,443.838 440.078,440.503 436.137,439.291C430.68,437.472 424.314,440.2 419.16,438.078C414.007,435.956 410.672,429.59 405.215,429.287C403.396,429.287 401.578,429.893 399.759,429.287C395.514,427.468 396.121,423.527 390.664,425.346C388.845,426.255 382.176,433.531 381.266,432.621Z" fill="#53A2AB" fill-opacity="0.44"/>
<path d="M843.274,323.487C840.546,328.944 839.333,335.007 840.546,340.767C842.365,351.074 850.247,360.472 848.125,370.476C844.79,369.566 841.152,368.657 837.817,367.747Z" fill="#53A2AB" fill-opacity="0.44"/>
<path d="M880.258,187.369C879.955,187.975 879.651,188.582 879.651,189.188Z" fill="#53A2AB" fill-opacity="0.44"/>
<path d="M880.863,183.428C880.863,181.003 879.651,178.578 878.135,176.759Z" fill="#53A2AB" fill-opacity="0.44"/>
</g>
</svg>
