<svg width="274" height="274" viewBox="0 0 274 274" fill="none" xmlns="http://www.w3.org/2000/svg" xmlns:xlink="http://www.w3.org/1999/xlink">
<path d="M81.33,115.576L81.33,128.888L68.019,136.446L54.707,128.887L54.707,115.575C54.707,108.223 60.667,102.263 68.019,102.263C75.371,102.264 81.33,108.224 81.33,115.576Z" fill="#FFBD86"/>
<path d="M121.204,171.823L154.187,171.823C159.637,166.948 163.07,159.864 163.07,151.976C163.07,137.272 151.15,125.353 136.447,125.353C121.743,125.353 109.823,137.272 109.823,151.976C109.823,156.638 111.025,161.018 113.13,164.829L121.204,171.823Z" fill="#FFBD86"/>
<path d="M149.301,128.659C151.406,132.47 152.607,136.85 152.607,141.512C152.607,156.215 140.687,168.135 125.984,168.135C121.322,168.135 116.942,166.934 113.131,164.828C117.666,173.036 126.406,178.598 136.448,178.598C151.151,178.598 163.071,166.678 163.071,151.975C163.071,141.933 157.51,133.193 149.301,128.659Z" fill="#F6A96C"/>
<path d="M191.563,115.576L191.563,128.888L204.875,136.446L218.187,128.887L218.187,115.575C218.187,108.223 212.227,102.263 204.875,102.263C197.523,102.264 191.563,108.224 191.563,115.576Z" fill="#F6A96C"/>
<path d="M207.094,128.886L191.563,128.886L191.563,169.322L166.077,178.598L106.817,178.598L81.33,169.322L81.33,128.886L54.707,128.886L54.707,174.29C54.707,179.92 57.378,185.216 61.906,188.563L98.699,215.762C100.114,216.807 100.949,218.462 100.949,220.222L100.949,267.56C100.949,270.504 103.335,272.89 106.279,272.89L166.615,272.89C169.559,272.89 171.945,270.504 171.945,267.56L171.945,220.222C171.945,218.462 172.78,216.807 174.195,215.762L210.989,188.563C215.516,185.216 218.187,179.92 218.187,174.29L218.187,139.979L207.094,128.886Z" fill="#128593"/>
<path d="M207.094,128.886L207.094,174.29C207.094,176.392 206.085,178.393 204.395,179.642L165.351,208.504C162.522,210.595 160.852,213.906 160.852,217.425L160.852,267.56C160.852,270.504 158.466,272.89 155.522,272.89L166.616,272.89C169.559,272.89 171.945,270.504 171.945,267.56L171.945,220.222C171.945,218.462 172.78,216.807 174.195,215.762L210.989,188.563C215.516,185.216 218.188,179.92 218.188,174.29L218.188,128.886L207.094,128.886Z" fill="#107380"/>
<path d="M141.42,3.092L150.368,21.221C151.176,22.857 152.737,23.992 154.544,24.255L174.55,27.162C179.1,27.823 180.916,33.414 177.624,36.622L163.147,50.734C161.84,52.008 161.243,53.844 161.552,55.643L164.969,75.569C165.747,80.099 160.991,83.555 156.922,81.415L139.028,72.008C137.412,71.159 135.482,71.159 133.866,72.008L115.972,81.415C111.903,83.555 107.147,80.099 107.924,75.569L111.342,55.643C111.65,53.844 111.054,52.008 109.746,50.734L95.27,36.622C91.978,33.413 93.794,27.823 98.344,27.162L118.35,24.255C120.157,23.992 121.718,22.858 122.526,21.221L131.473,3.092C133.507,-1.031 139.386,-1.031 141.42,3.092Z" fill="#FFE177"/>
<path d="M177.625,36.623C180.917,33.414 179.1,27.824 174.551,27.163L159.225,24.936C153.691,45.207 135.157,60.113 113.131,60.113C112.278,60.113 111.43,60.089 110.588,60.045L107.925,75.57C107.148,80.1 111.904,83.556 115.973,81.416L133.867,72.009C135.483,71.16 137.413,71.16 139.029,72.009L156.923,81.416C160.992,83.556 165.747,80.1 164.97,75.57L161.553,55.644C161.244,53.845 161.841,52.009 163.148,50.735L177.625,36.623Z" fill="#FFD15B"/>
<path d="M234.107,24.352L217.634,45.779C214.83,49.426 217.43,54.706 222.031,54.706L227.411,54.706L227.411,89.854C227.411,92.917 229.894,95.4 232.957,95.4L244.051,95.4C247.114,95.4 249.597,92.917 249.597,89.854L249.597,54.706L254.977,54.706C259.578,54.706 262.179,49.426 259.374,45.779L242.901,24.352C240.681,21.463 236.327,21.463 234.107,24.352Z" fill="#8BC727"/>
<path d="M29.993,24.352L13.521,45.779C10.717,49.426 13.317,54.706 17.918,54.706L23.297,54.706L23.297,89.854C23.297,92.917 25.781,95.4 28.844,95.4L39.937,95.4C43,95.4 45.484,92.917 45.484,89.854L45.484,54.706L50.864,54.706C55.465,54.706 58.065,49.426 55.261,45.779L38.788,24.352C36.568,21.463 32.214,21.463 29.993,24.352Z" fill="#97D729"/>
<path d="M258.974,115.587L262.261,122.247C262.558,122.849 263.132,123.265 263.796,123.362L271.146,124.43C272.817,124.673 273.484,126.727 272.275,127.906L266.957,133.09C266.477,133.558 266.258,134.232 266.371,134.893L267.626,142.213C267.912,143.878 266.165,145.147 264.67,144.361L258.096,140.905C257.502,140.593 256.793,140.593 256.199,140.905L249.626,144.361C248.131,145.147 246.383,143.878 246.669,142.213L247.925,134.893C248.038,134.232 247.819,133.558 247.339,133.09L242.021,127.906C240.812,126.727 241.479,124.673 243.15,124.43L250.5,123.362C251.164,123.265 251.738,122.849 252.035,122.247L255.322,115.587C256.067,114.072 258.227,114.072 258.974,115.587Z" fill="#FFD15B"/>
<path d="M13.918,115.587L10.631,122.247C10.335,122.849 9.761,123.265 9.097,123.362L1.747,124.43C0.076,124.673 -0.592,126.727 0.618,127.906L5.936,133.09C6.416,133.558 6.635,134.232 6.522,134.893L5.266,142.213C4.98,143.878 6.727,145.147 8.222,144.361L14.796,140.905C15.39,140.593 16.099,140.593 16.693,140.905L23.266,144.361C24.761,145.147 26.509,143.878 26.223,142.213L24.967,134.893C24.854,134.232 25.073,133.558 25.553,133.09L30.871,127.906C32.081,126.727 31.413,124.673 29.742,124.43L22.392,123.362C21.728,123.265 21.154,122.849 20.857,122.247L17.57,115.587C16.825,114.072 14.666,114.072 13.918,115.587Z" fill="#FFE177"/>
</svg>
