<svg width="268" height="268" viewBox="0 0 268 268" fill="none" xmlns="http://www.w3.org/2000/svg" xmlns:xlink="http://www.w3.org/1999/xlink">
<path d="M133.802,0C124.713,0 117.318,7.395 117.318,16.484C117.318,26.601 123.095,37.355 133.802,37.355C144.508,37.355 150.275,26.602 150.275,16.484C150.275,7.394 142.885,0 133.802,0Z" fill="#F6DCCD"/>
<path d="M133.803,0C132.766,0 131.753,0.101 130.769,0.285C138.407,1.714 144.209,8.432 144.209,16.484C144.209,25.599 139.521,35.226 130.769,37.045C131.732,37.245 132.742,37.355 133.803,37.355C144.502,37.355 150.276,26.602 150.276,16.484C150.276,7.394 142.886,0 133.803,0Z" fill="#F1CBBC"/>
<path d="M145.794,37.357L121.799,37.357C108.807,37.357 98.237,47.292 98.237,59.503L98.237,75.829L169.355,75.829L169.355,59.503C169.355,47.292 158.786,37.357 145.794,37.357Z" fill="#128593"/>
<path d="M145.795,37.353L138.328,37.353C151.32,37.353 161.89,47.287 161.89,59.499L161.89,75.825L169.356,75.825L169.356,59.499C169.356,47.287 158.787,37.353 145.795,37.353Z" fill="#10737F"/>
<path d="M155.665,75.831L155.665,61.609C155.665,59.547 153.994,57.875 151.932,57.875C149.869,57.875 148.198,59.546 148.198,61.609L148.198,75.831L155.665,75.831Z" fill="#10737F"/>
<path d="M119.382,75.831L119.382,61.609C119.382,59.547 117.711,57.875 115.649,57.875C113.586,57.875 111.915,59.546 111.915,61.609L111.915,75.831L119.382,75.831Z" fill="#10737F"/>
<path d="M35.514,150.944C26.425,150.944 19.03,158.339 19.03,167.428C19.03,177.546 24.807,188.299 35.514,188.299C46.22,188.299 51.986,177.546 51.986,167.428C51.986,158.339 44.597,150.944 35.514,150.944Z" fill="#F6DCCD"/>
<path d="M35.515,150.944C34.478,150.944 33.465,151.045 32.48,151.229C40.119,152.658 45.921,159.376 45.921,167.428C45.921,176.543 41.233,186.17 32.48,187.99C33.444,188.19 34.454,188.299 35.515,188.299C46.214,188.299 51.988,177.546 51.988,167.428C51.988,158.339 44.598,150.944 35.515,150.944Z" fill="#F1CBBC"/>
<path d="M47.506,188.301L23.511,188.301C10.519,188.301 -0.051,198.236 -0.051,210.447L-0.051,226.773L71.067,226.773L71.067,210.447C71.067,198.236 60.497,188.301 47.506,188.301Z" fill="#128593"/>
<path d="M47.506,188.302L40.039,188.302C53.031,188.302 63.601,198.236 63.601,210.448L63.601,226.774L71.067,226.774L71.067,210.448C71.067,198.236 60.497,188.302 47.506,188.302Z" fill="#10737F"/>
<path d="M57.378,226.771L57.378,212.548C57.378,210.487 55.707,208.815 53.645,208.815C51.582,208.815 49.911,210.486 49.911,212.548L49.911,226.771L57.378,226.771Z" fill="#10737F"/>
<path d="M21.095,226.771L21.095,212.548C21.095,210.487 19.424,208.815 17.361,208.815C15.299,208.815 13.628,210.486 13.628,212.548L13.628,226.771L21.094,226.771L21.095,226.771Z" fill="#10737F"/>
<path d="M232.05,150.944C222.961,150.944 215.566,158.339 215.566,167.428C215.566,177.546 221.343,188.299 232.05,188.299C242.756,188.299 248.523,177.546 248.523,167.428C248.523,158.339 241.133,150.944 232.05,150.944Z" fill="#F6DCCD"/>
<path d="M232.051,150.944C231.014,150.944 230.001,151.045 229.017,151.229C236.656,152.658 242.457,159.376 242.457,167.428C242.457,176.543 237.769,186.17 229.017,187.99C229.98,188.19 230.99,188.299 232.051,188.299C242.75,188.299 248.524,177.546 248.524,167.428C248.524,158.339 241.134,150.944 232.051,150.944Z" fill="#F1CBBC"/>
<path d="M244.042,188.301L220.047,188.301C207.055,188.301 196.485,198.236 196.485,210.447L196.485,226.773L267.604,226.773L267.604,210.447C267.604,198.236 257.034,188.301 244.042,188.301Z" fill="#128593"/>
<path d="M244.042,188.302L236.575,188.302C249.567,188.302 260.137,198.236 260.137,210.448L260.137,226.774L267.603,226.774L267.603,210.448C267.603,198.236 257.034,188.302 244.042,188.302Z" fill="#10737F"/>
<path d="M253.913,226.771L253.913,212.548C253.913,210.487 252.242,208.815 250.18,208.815C248.117,208.815 246.446,210.486 246.446,212.548L246.446,226.771L253.913,226.771L253.913,226.771Z" fill="#10737F"/>
<path d="M217.63,226.771L217.63,212.548C217.63,210.487 215.959,208.815 213.897,208.815C211.834,208.815 210.163,210.486 210.163,212.548L210.163,226.771L217.63,226.771L217.63,226.771Z" fill="#10737F"/>
<path d="M133.798,267.7C107.742,267.7 83.064,259.318 62.428,243.461C60.498,241.979 60.136,239.212 61.619,237.282C63.102,235.353 65.869,234.99 67.798,236.473C86.88,251.136 109.702,258.888 133.798,258.888C157.894,258.888 180.7,251.136 199.781,236.473C201.71,234.99 204.477,235.353 205.96,237.282C207.443,239.211 207.081,241.978 205.151,243.461C184.517,259.318 159.843,267.7 133.798,267.7L133.798,267.7ZM246.133,145.244C243.869,145.244 241.943,143.509 241.747,141.212C238.439,102.473 214.383,68.296 178.969,52.017C176.758,51.001 175.79,48.384 176.806,46.173C177.822,43.962 180.441,42.994 182.65,44.009C220.941,61.611 246.949,98.569 250.527,140.462C250.735,142.887 248.937,145.021 246.513,145.228C246.385,145.239 246.257,145.244 246.133,145.244ZM21.462,145.228C21.336,145.228 21.21,145.222 21.083,145.211C18.658,145.004 16.86,142.87 17.067,140.445C20.646,98.558 46.649,61.612 84.93,44.025C87.142,43.008 89.758,43.978 90.773,46.19C91.79,48.401 90.82,51.018 88.609,52.033C53.206,68.299 29.157,102.464 25.848,141.196C25.652,143.493 23.726,145.228 21.462,145.228Z" fill="#A79BA7"/>
</svg>
