<svg width="226" height="226" viewBox="0 0 226 226" fill="none" xmlns="http://www.w3.org/2000/svg" xmlns:xlink="http://www.w3.org/1999/xlink">
<path d="M15.047,225.249C7.072,225.249 0.582,218.763 0.582,210.785L0.582,125.56C0.582,125.488 0.582,125.415 0.591,125.343C1.076,119.827 3.893,114.784 8.311,111.512L46.468,83.284C50.591,80.232 55.677,78.972 60.784,79.735C65.891,80.501 70.385,83.19 73.436,87.318C76.934,92.042 78.198,97.421 76.901,102.073C76.871,102.188 76.833,102.294 76.79,102.396L52.94,157.095C51.162,161.183 47.812,163.786 43.752,164.242C39.56,164.72 35.224,162.822 32.704,159.421C30.278,156.129 29.908,151.907 31.683,147.83L36.968,135.706L29.517,143.545L29.517,210.785C29.517,218.763 23.023,225.249 15.047,225.249Z" clip-rule="evenodd" fill-rule="evenodd" fill="#10737F"/>
<path d="M15.047,225.25C7.072,225.25 0.582,218.765 0.582,210.787L0.582,125.562C0.582,125.489 0.582,125.417 0.591,125.344C1.076,119.829 3.893,114.786 8.311,111.513L45.663,83.88C48.84,82.578 52.329,82.151 55.828,82.673C60.935,83.439 65.429,86.128 68.48,90.256C71.979,94.98 73.242,100.359 71.945,105.011L47.985,160.033C47.327,161.547 46.452,162.856 45.407,163.929C44.871,164.074 44.319,164.18 43.753,164.243C39.561,164.722 35.224,162.823 32.705,159.422C30.279,156.131 29.909,151.909 31.684,147.832L36.969,135.707L36.962,135.715L51.005,103.981C51.545,102.738 50.975,101.3 49.737,100.755C48.498,100.215 47.055,100.785 46.519,102.024L28.829,141.995L24.562,146.483L24.562,213.724C24.562,217.977 22.717,221.805 19.785,224.453C18.298,224.969 16.705,225.25 15.047,225.25Z" clip-rule="evenodd" fill-rule="evenodd" fill="#128593"/>
<path d="M113.159,62.365C96,62.365 82.041,48.402 82.041,31.247C82.041,14.084 96,0.125 113.159,0.125C130.322,0.125 144.281,14.084 144.281,31.247C144.281,48.402 130.322,62.365 113.159,62.365Z" clip-rule="evenodd" fill-rule="evenodd" fill="#00CD8A"/>
<path d="M113.159,62.362C96,62.362 82.041,48.399 82.041,31.244C82.041,19.959 88.076,10.06 97.087,4.603C99.584,3.955 102.202,3.61 104.9,3.61C122.063,3.61 136.022,17.569 136.022,34.732C136.022,46.012 129.987,55.91 120.974,61.368C118.476,62.017 115.857,62.362 113.159,62.362Z" clip-rule="evenodd" fill-rule="evenodd" fill="#00E499"/>
<path d="M108.499,43.003C107.848,43.003 107.227,42.744 106.767,42.288L97.451,32.973C96.498,32.015 96.498,30.466 97.451,29.513C98.409,28.555 99.958,28.555 100.915,29.513L108.499,37.097L125.403,20.193C126.36,19.235 127.91,19.235 128.867,20.193C129.82,21.15 129.82,22.699 128.867,23.652L110.235,42.288C109.772,42.744 109.15,43.003 108.499,43.003Z" clip-rule="evenodd" fill-rule="evenodd" fill="#ECEFF1"/>
<path d="M211.269,225.249C203.293,225.249 196.803,218.764 196.803,210.786L196.803,143.545L189.347,135.706L194.633,147.83C196.412,151.907 196.037,156.129 193.608,159.421C191.097,162.827 186.76,164.721 182.56,164.242C178.509,163.787 175.159,161.178 173.376,157.095L149.531,102.396C149.489,102.294 149.446,102.188 149.416,102.073C148.122,97.421 149.386,92.042 152.881,87.318C155.932,83.19 160.426,80.5 165.533,79.734C170.636,78.973 175.721,80.232 179.849,83.283L218.002,111.512C222.428,114.784 225.24,119.827 225.726,125.342C225.73,125.415 225.739,125.487 225.739,125.56L225.739,210.785C225.738,218.764 219.248,225.249 211.269,225.249Z" clip-rule="evenodd" fill-rule="evenodd" fill="#10626C"/>
<path d="M211.27,225.249C203.295,225.249 196.805,218.764 196.805,210.786L196.805,143.546L189.35,135.708L174.379,101.253C173.834,100.014 172.395,99.444 171.152,99.985C169.914,100.529 169.352,101.967 169.889,103.21L194.043,158.789L194.04,158.794L194.036,158.799L194.03,158.81L194.024,158.819L193.952,158.93L193.946,158.939L193.939,158.949L193.937,158.953L193.932,158.959C193.904,159.002 193.874,159.045 193.845,159.088L193.838,159.098L193.831,159.108L193.83,159.11L193.825,159.118L193.818,159.127L193.735,159.245L193.728,159.255L193.721,159.265L193.72,159.266L193.714,159.275C193.679,159.324 193.644,159.372 193.608,159.421C191.097,162.827 186.76,164.721 182.56,164.242C178.509,163.787 175.159,161.178 173.376,157.095L149.531,102.396C149.489,102.294 149.446,102.188 149.416,102.073C148.122,97.421 149.386,92.042 152.881,87.318C152.925,87.257 152.971,87.197 153.016,87.137L153.025,87.126L153.032,87.116C153.077,87.057 153.123,86.998 153.168,86.94L153.176,86.93C153.322,86.743 153.47,86.559 153.622,86.377L153.625,86.374C153.673,86.317 153.721,86.26 153.77,86.204L153.777,86.196L153.781,86.19C153.826,86.138 153.871,86.086 153.917,86.034L153.933,86.016L153.946,86.001C153.993,85.948 154.041,85.895 154.088,85.843L154.095,85.835C154.143,85.782 154.191,85.729 154.239,85.677L154.252,85.664L154.267,85.648C154.365,85.542 154.465,85.437 154.565,85.334L154.574,85.324L154.579,85.32L154.592,85.305L154.724,85.172L154.764,85.132L154.888,85.008L154.912,84.984L154.941,84.956L155.047,84.854L155.082,84.82L155.1,84.803L155.239,84.672L155.254,84.659L155.262,84.651L155.263,84.651L155.405,84.52L155.425,84.501L155.427,84.5L155.448,84.481L155.588,84.356L155.59,84.354L155.603,84.343L155.62,84.328L155.748,84.215L155.815,84.158L155.931,84.059L155.977,84.021L155.981,84.017L156.038,83.97L156.118,83.903L156.152,83.876C157.556,83.309 159.04,82.903 160.578,82.673C165.681,81.911 170.767,83.17 174.895,86.222L213.047,114.45C217.473,117.722 220.286,122.765 220.772,128.281C220.776,128.353 220.784,128.426 220.784,128.498L220.784,213.723C220.784,217.976 218.94,221.804 216.008,224.453L216.007,224.453C215.939,224.476 215.871,224.499 215.803,224.522L215.655,224.57L215.48,224.625L215.313,224.675L215.136,224.725L214.969,224.771L214.799,224.814L214.613,224.86L214.461,224.895C214.389,224.912 214.315,224.927 214.242,224.943L214.134,224.965C214.052,224.982 213.969,224.998 213.886,225.013L213.781,225.032C213.692,225.048 213.602,225.062 213.513,225.077L213.438,225.088C213.337,225.104 213.236,225.118 213.135,225.131L213.09,225.137C212.983,225.15 212.876,225.162 212.768,225.173L212.732,225.177C212.623,225.188 212.514,225.198 212.404,225.207L212.368,225.21C212.252,225.219 212.136,225.226 212.02,225.232L212.011,225.232C211.891,225.239 211.77,225.243 211.65,225.246L211.638,225.246C211.514,225.247 211.392,225.249 211.27,225.249ZM194.634,147.831L189.635,136.363L194.888,148.452L194.884,148.442L194.854,148.364L194.85,148.355L194.846,148.345L194.842,148.335L194.838,148.325L194.834,148.315L194.83,148.306L194.826,148.296L194.819,148.276L194.815,148.267L194.811,148.257L194.807,148.247L194.803,148.237L194.799,148.227L194.795,148.218L194.787,148.198L194.783,148.188L194.779,148.178L194.776,148.169L194.724,148.043L194.72,148.033L194.716,148.023L194.715,148.021L194.712,148.014L194.708,148.004L194.704,147.994L194.641,147.849L194.637,147.839L194.634,147.831Z" clip-rule="evenodd" fill-rule="evenodd" fill="#10737F"/>
<path d="M83.652,96.687C79.286,96.687 75.098,95.185 71.689,92.372C67.808,89.167 65.412,84.648 64.936,79.634C64.455,74.625 65.957,69.732 69.162,65.85C72.366,61.973 76.89,59.573 81.895,59.097C86.904,58.615 91.802,60.122 95.679,63.327C99.561,66.527 101.96,71.046 102.442,76.059C102.914,81.069 101.416,85.962 98.211,89.839C95.002,93.721 90.483,96.116 85.474,96.597C84.865,96.658 84.257,96.687 83.652,96.687ZM142.662,96.687C142.058,96.687 141.45,96.657 140.841,96.597C135.832,96.117 131.308,93.721 128.108,89.839C124.899,85.962 123.397,81.068 123.878,76.059C124.359,71.046 126.755,66.527 130.632,63.327C134.513,60.122 139.407,58.615 144.416,59.097C149.429,59.573 153.953,61.973 157.154,65.85C160.358,69.732 161.86,74.625 161.38,79.634C160.903,84.648 158.503,89.167 154.622,92.372C151.216,95.185 147.025,96.687 142.662,96.687Z" clip-rule="evenodd" fill-rule="evenodd" fill="#DDC6B9"/>
<path d="M83.652,96.684C79.286,96.684 75.098,95.182 71.689,92.369C67.808,89.165 65.412,84.645 64.936,79.632C64.455,74.623 65.957,69.729 69.162,65.848C70.488,64.243 72.041,62.892 73.759,61.825C74.733,61.571 75.734,61.394 76.755,61.297C81.765,60.815 86.663,62.322 90.54,65.527C94.421,68.727 96.821,73.246 97.302,78.259C97.774,83.269 96.277,88.162 93.072,92.039C91.743,93.646 90.19,94.998 88.471,96.065C87.497,96.319 86.496,96.496 85.474,96.595C84.865,96.655 84.257,96.684 83.652,96.684ZM132.742,61.809C134.845,61.262 137.049,61.083 139.276,61.297C144.289,61.773 148.813,64.173 152.014,68.05C155.218,71.932 156.72,76.825 156.24,81.834C155.763,86.848 153.363,91.367 149.482,94.572C148.809,95.128 148.105,95.632 147.376,96.084C145.848,96.481 144.267,96.685 142.662,96.685C142.058,96.685 141.45,96.655 140.841,96.595C135.832,96.115 131.308,93.719 128.108,89.837C124.899,85.96 123.397,81.066 123.878,76.057C124.359,71.044 126.755,66.525 130.632,63.324C131.306,62.767 132.011,62.261 132.742,61.809Z" clip-rule="evenodd" fill-rule="evenodd" fill="#F6DCCD"/>
</svg>
