<svg width="226" height="226" viewBox="0 0 226 226" fill="none" xmlns="http://www.w3.org/2000/svg" xmlns:xlink="http://www.w3.org/1999/xlink">
<path d="M14.992,224.327C7.016,224.327 0.526,217.841 0.526,209.864L0.526,124.638C0.526,124.566 0.526,124.493 0.535,124.421C1.02,118.906 3.838,113.863 8.255,110.59L46.412,82.362C50.536,79.31 55.621,78.051 60.728,78.813C65.835,79.579 70.329,82.268 73.381,86.397C76.879,91.12 78.143,96.5 76.845,101.151C76.815,101.266 76.777,101.372 76.734,101.475L52.885,156.173C51.106,160.261 47.757,162.864 43.696,163.32C39.505,163.798 35.168,161.9 32.649,158.499C30.223,155.207 29.853,150.986 31.627,146.908L36.913,134.784L29.461,142.623L29.461,209.864C29.461,217.841 22.967,224.327 14.992,224.327Z" clip-rule="evenodd" fill-rule="evenodd" fill="#10737F"/>
<path d="M14.992,224.329C7.016,224.329 0.526,217.843 0.526,209.865L0.526,124.64C0.526,124.567 0.526,124.495 0.535,124.423C1.02,118.907 3.838,113.864 8.255,110.592L45.608,82.958C48.784,81.656 52.273,81.229 55.773,81.751C60.879,82.517 65.373,85.206 68.425,89.335C71.923,94.058 73.187,99.438 71.889,104.089L47.929,159.111C47.271,160.625 46.397,161.934 45.352,163.007C44.816,163.153 44.263,163.258 43.697,163.321C39.506,163.8 35.169,161.901 32.65,158.501C30.224,155.209 29.854,150.987 31.628,146.91L36.914,134.785L36.906,134.793L50.949,103.059C51.49,101.816 50.919,100.378 49.681,99.834C48.443,99.293 47,99.863 46.464,101.102L28.773,141.074L24.507,145.562L24.507,212.802C24.507,217.055 22.661,220.884 19.729,223.532C18.243,224.047 16.649,224.329 14.992,224.329Z" clip-rule="evenodd" fill-rule="evenodd" fill="#128593"/>
<path d="M113.104,61.443C95.945,61.443 81.986,47.48 81.986,30.325C81.986,13.162 95.945,-0.797 113.104,-0.797C130.268,-0.797 144.226,13.162 144.226,30.325C144.226,47.48 130.267,61.443 113.104,61.443Z" clip-rule="evenodd" fill-rule="evenodd" fill="#00CD8A"/>
<path d="M113.104,61.44C95.945,61.44 81.986,47.477 81.986,30.323C81.986,19.037 88.021,9.138 97.033,3.681C99.53,3.033 102.148,2.688 104.845,2.688C122.008,2.688 135.967,16.647 135.967,33.81C135.967,45.09 129.932,54.988 120.92,60.446C118.421,61.095 115.802,61.44 113.104,61.44Z" clip-rule="evenodd" fill-rule="evenodd" fill="#00E499"/>
<path d="M108.444,42.082C107.793,42.082 107.171,41.822 106.711,41.367L97.396,32.051C96.442,31.094 96.442,29.544 97.396,28.591C98.353,27.634 99.902,27.634 100.86,28.591L108.444,36.175L125.347,19.271C126.305,18.314 127.854,18.314 128.811,19.271C129.764,20.228 129.764,21.778 128.811,22.731L110.18,41.367C109.716,41.822 109.095,42.082 108.444,42.082Z" clip-rule="evenodd" fill-rule="evenodd" fill="#ECEFF1"/>
<path d="M211.214,224.327C203.238,224.327 196.749,217.842 196.749,209.864L196.749,142.623L189.293,134.784L194.578,146.909C196.357,150.985 195.983,155.208 193.553,158.499C191.042,161.905 186.705,163.799 182.505,163.32C178.454,162.865 175.104,160.256 173.321,156.173L149.476,101.474C149.434,101.372 149.391,101.266 149.361,101.151C148.068,96.499 149.332,91.12 152.826,86.396C155.877,82.268 160.371,79.579 165.478,78.813C170.581,78.051 175.666,79.31 179.794,82.362L217.947,110.59C222.373,113.862 225.186,118.905 225.671,124.421C225.676,124.493 225.684,124.566 225.684,124.638L225.684,209.863C225.683,217.842 219.193,224.327 211.214,224.327Z" clip-rule="evenodd" fill-rule="evenodd" fill="#10626C"/>
<path d="M211.215,224.328C203.24,224.328 196.75,217.842 196.75,209.864L196.75,142.624L189.296,134.786L174.324,100.331C173.779,99.093 172.34,98.522 171.098,99.063C169.859,99.607 169.297,101.046 169.834,102.288L193.988,157.867L193.985,157.872L193.982,157.878L193.975,157.888L193.969,157.898L193.897,158.008L193.891,158.018L193.884,158.027L193.882,158.031L193.877,158.037C193.849,158.08 193.82,158.123 193.79,158.166L193.783,158.176L193.777,158.186L193.775,158.188L193.77,158.196L193.763,158.206L193.68,158.323L193.673,158.333L193.666,158.343L193.665,158.344L193.659,158.353C193.624,158.402 193.589,158.45 193.553,158.499C191.042,161.905 186.705,163.799 182.505,163.32C178.454,162.865 175.104,160.256 173.321,156.173L149.476,101.474C149.434,101.372 149.391,101.266 149.361,101.151C148.068,96.499 149.332,91.12 152.826,86.396C152.87,86.336 152.916,86.275 152.961,86.215L152.97,86.204L152.978,86.195C153.023,86.135 153.068,86.076 153.114,86.018L153.121,86.008C153.267,85.821 153.416,85.637 153.567,85.456L153.57,85.453C153.618,85.395 153.666,85.339 153.715,85.282L153.722,85.274L153.727,85.269C153.772,85.216 153.817,85.164 153.862,85.112L153.878,85.094L153.891,85.08C153.938,85.026 153.986,84.973 154.033,84.921L154.041,84.913C154.089,84.86 154.137,84.807 154.185,84.755L154.197,84.742L154.212,84.726C154.31,84.62 154.41,84.515 154.51,84.412L154.519,84.402L154.524,84.398L154.538,84.384L154.669,84.25L154.709,84.21L154.833,84.086L154.858,84.062L154.886,84.035L154.992,83.932L155.027,83.899L155.046,83.881L155.185,83.75L155.199,83.737L155.208,83.729L155.208,83.729L155.35,83.598L155.371,83.579L155.372,83.578L155.394,83.559L155.533,83.434L155.536,83.432L155.548,83.421L155.565,83.406L155.694,83.294L155.761,83.236L155.876,83.137L155.922,83.099L155.927,83.095L155.983,83.048L156.064,82.981L156.097,82.954C157.502,82.387 158.985,81.981 160.524,81.751C165.626,80.989 170.712,82.249 174.84,85.3L212.993,113.528C217.418,116.801 220.231,121.844 220.717,127.359C220.721,127.431 220.73,127.504 220.73,127.576L220.73,212.801C220.73,217.054 218.885,220.883 215.953,223.531L215.952,223.531C215.884,223.555 215.816,223.578 215.748,223.6L215.6,223.648L215.425,223.703L215.258,223.753L215.082,223.803L214.914,223.849L214.744,223.892L214.558,223.938L214.407,223.973C214.334,223.99 214.26,224.005 214.187,224.021L214.08,224.043C213.997,224.06 213.914,224.076 213.831,224.091L213.726,224.11C213.637,224.126 213.548,224.141 213.458,224.155L213.383,224.167C213.282,224.182 213.181,224.196 213.08,224.209L213.036,224.215C212.928,224.228 212.821,224.24 212.714,224.252L212.677,224.256C212.568,224.266 212.459,224.276 212.349,224.285L212.314,224.288C212.198,224.297 212.082,224.304 211.965,224.31L211.956,224.31C211.836,224.317 211.716,224.321 211.595,224.324L211.583,224.325C211.459,224.326 211.337,224.328 211.215,224.328ZM194.579,146.909L189.58,135.441L194.833,147.53L194.829,147.52L194.799,147.443L194.795,147.433L194.791,147.423L194.787,147.413L194.783,147.403L194.78,147.394L194.776,147.384L194.772,147.374L194.764,147.355L194.76,147.345L194.756,147.335L194.752,147.325L194.748,147.315L194.744,147.306L194.74,147.296L194.733,147.276L194.729,147.266L194.725,147.257L194.721,147.247L194.669,147.121L194.665,147.111L194.661,147.101L194.66,147.099L194.657,147.092L194.653,147.082L194.649,147.073L194.587,146.927L194.582,146.917L194.579,146.909Z" clip-rule="evenodd" fill-rule="evenodd" fill="#10737F"/>
<path d="M83.597,95.765C79.23,95.765 75.043,94.263 71.634,91.45C67.753,88.245 65.357,83.726 64.88,78.712C64.399,73.703 65.901,68.81 69.106,64.928C72.311,61.051 76.834,58.651 81.839,58.175C86.848,57.693 91.746,59.2 95.623,62.405C99.505,65.605 101.905,70.124 102.386,75.137C102.858,80.147 101.36,85.04 98.155,88.917C94.947,92.799 90.427,95.194 85.418,95.675C84.81,95.736 84.201,95.765 83.597,95.765ZM142.607,95.765C142.002,95.765 141.394,95.735 140.786,95.675C135.776,95.195 131.253,92.799 128.053,88.917C124.844,85.04 123.341,80.146 123.822,75.137C124.303,70.124 126.699,65.605 130.576,62.405C134.457,59.2 139.351,57.693 144.361,58.175C149.374,58.651 153.897,61.051 157.098,64.928C160.303,68.81 161.805,73.703 161.324,78.712C160.847,83.726 158.447,88.245 154.566,91.45C151.161,94.263 146.969,95.765 142.607,95.765Z" clip-rule="evenodd" fill-rule="evenodd" fill="#DDC6B9"/>
<path d="M83.597,95.763C79.23,95.763 75.043,94.26 71.634,91.447C67.753,88.243 65.357,83.723 64.88,78.71C64.399,73.701 65.901,68.807 69.106,64.926C70.433,63.321 71.985,61.97 73.704,60.903C74.678,60.649 75.679,60.472 76.7,60.375C81.709,59.894 86.607,61.4 90.484,64.605C94.366,67.805 96.765,72.325 97.247,77.338C97.719,82.347 96.221,87.241 93.016,91.118C91.688,92.725 90.135,94.076 88.416,95.143C87.442,95.397 86.44,95.575 85.418,95.673C84.81,95.733 84.201,95.763 83.597,95.763ZM132.687,60.887C134.79,60.34 136.994,60.161 139.221,60.375C144.234,60.851 148.757,63.251 151.958,67.128C155.163,71.01 156.665,75.904 156.184,80.913C155.707,85.926 153.307,90.446 149.426,93.65C148.754,94.206 148.05,94.71 147.32,95.163C145.793,95.559 144.211,95.763 142.607,95.763C142.002,95.763 141.394,95.733 140.786,95.674C135.776,95.193 131.253,92.797 128.053,88.915C124.844,85.038 123.341,80.144 123.822,75.136C124.303,70.122 126.699,65.603 130.576,62.403C131.25,61.845 131.956,61.339 132.687,60.887Z" clip-rule="evenodd" fill-rule="evenodd" fill="#F6DCCD"/>
</svg>
