<svg width="226" height="226" viewBox="0 0 226 226" fill="none" xmlns="http://www.w3.org/2000/svg" xmlns:xlink="http://www.w3.org/1999/xlink">
<path d="M15.047,224.684C7.072,224.684 0.582,218.199 0.582,210.221L0.582,124.995C0.582,124.923 0.582,124.85 0.591,124.778C1.076,119.263 3.893,114.22 8.311,110.947L46.468,82.719C50.591,79.668 55.677,78.408 60.784,79.17C65.891,79.936 70.385,82.626 73.436,86.754C76.934,91.478 78.198,96.857 76.901,101.508C76.871,101.623 76.833,101.73 76.79,101.832L52.94,156.53C51.162,160.618 47.812,163.222 43.752,163.677C39.56,164.156 35.224,162.257 32.704,158.856C30.278,155.564 29.908,151.343 31.683,147.266L36.968,135.141L29.517,142.98L29.517,210.221C29.517,218.199 23.023,224.684 15.047,224.684Z" clip-rule="evenodd" fill-rule="evenodd" fill="#10737F"/>
<path d="M15.047,224.686C7.072,224.686 0.582,218.2 0.582,210.223L0.582,124.997C0.582,124.925 0.582,124.852 0.591,124.78C1.076,119.265 3.893,114.222 8.311,110.949L45.663,83.316C48.84,82.013 52.329,81.586 55.828,82.108C60.935,82.874 65.429,85.564 68.48,89.692C71.979,94.416 73.242,99.795 71.945,104.446L47.985,159.469C47.327,160.982 46.452,162.292 45.407,163.365C44.871,163.51 44.319,163.615 43.753,163.679C39.561,164.157 35.224,162.259 32.705,158.858C30.279,155.566 29.909,151.345 31.684,147.267L36.969,135.143L36.962,135.151L51.005,103.417C51.545,102.174 50.975,100.736 49.737,100.191C48.498,99.651 47.055,100.221 46.519,101.459L28.829,141.431L24.562,145.919L24.562,213.159C24.562,217.412 22.717,221.241 19.785,223.889C18.298,224.404 16.705,224.686 15.047,224.686Z" clip-rule="evenodd" fill-rule="evenodd" fill="#128593"/>
<path d="M113.159,61.801C96,61.801 82.042,47.838 82.042,30.683C82.042,13.52 96,-0.439 113.159,-0.439C130.323,-0.439 144.282,13.52 144.282,30.683C144.281,47.838 130.323,61.801 113.159,61.801Z" clip-rule="evenodd" fill-rule="evenodd" fill="#00CD8A"/>
<path d="M113.159,61.798C96,61.798 82.042,47.835 82.042,30.68C82.042,19.395 88.077,9.496 97.088,4.039C99.585,3.391 102.203,3.045 104.9,3.045C122.063,3.045 136.022,17.004 136.022,34.167C136.022,45.447 129.987,55.346 120.975,60.804C118.477,61.452 115.857,61.798 113.159,61.798Z" clip-rule="evenodd" fill-rule="evenodd" fill="#00E499"/>
<path d="M108.5,42.439C107.849,42.439 107.227,42.18 106.767,41.724L97.452,32.408C96.498,31.451 96.498,29.902 97.452,28.948C98.409,27.991 99.958,27.991 100.916,28.948L108.5,36.532L125.403,19.628C126.361,18.671 127.91,18.671 128.867,19.628C129.82,20.586 129.82,22.135 128.867,23.088L110.236,41.724C109.772,42.18 109.151,42.439 108.5,42.439Z" clip-rule="evenodd" fill-rule="evenodd" fill="#ECEFF1"/>
<path d="M211.269,224.684C203.294,224.684 196.804,218.199 196.804,210.221L196.804,142.981L189.348,135.141L194.634,147.266C196.412,151.343 196.038,155.565 193.608,158.856C191.097,162.263 186.761,164.156 182.561,163.677C178.509,163.222 175.16,160.614 173.377,156.531L149.532,101.832C149.489,101.729 149.447,101.623 149.417,101.508C148.123,96.857 149.387,91.478 152.881,86.754C155.933,82.626 160.426,79.936 165.534,79.17C170.636,78.408 175.722,79.668 179.85,82.719L218.002,110.947C222.429,114.22 225.241,119.263 225.727,124.778C225.731,124.85 225.739,124.923 225.739,124.995L225.739,210.22C225.738,218.199 219.249,224.684 211.269,224.684Z" clip-rule="evenodd" fill-rule="evenodd" fill="#10626C"/>
<path d="M211.271,224.685C203.295,224.685 196.806,218.2 196.806,210.222L196.806,142.981L189.351,135.144L174.379,100.688C173.834,99.45 172.396,98.88 171.153,99.42C169.915,99.965 169.353,101.403 169.889,102.646L194.043,158.225L194.041,158.23L194.037,158.235L194.031,158.245L194.024,158.255L193.953,158.365L193.947,158.375L193.94,158.385L193.937,158.388L193.933,158.395C193.904,158.438 193.875,158.481 193.846,158.524L193.839,158.534L193.832,158.543L193.831,158.545L193.825,158.553L193.818,158.563L193.736,158.681L193.729,158.691L193.722,158.7L193.721,158.701L193.715,158.71C193.68,158.759 193.645,158.808 193.608,158.857C191.097,162.263 186.761,164.157 182.561,163.677C178.509,163.222 175.16,160.614 173.377,156.531L149.532,101.832C149.489,101.729 149.447,101.623 149.417,101.508C148.123,96.857 149.387,91.478 152.881,86.754C152.926,86.693 152.971,86.633 153.017,86.573L153.026,86.561L153.033,86.552C153.078,86.493 153.124,86.434 153.169,86.375L153.176,86.366C153.322,86.178 153.471,85.994 153.623,85.813L153.625,85.81C153.673,85.753 153.722,85.696 153.771,85.639L153.778,85.631L153.782,85.626C153.827,85.574 153.872,85.522 153.918,85.47L153.934,85.452L153.947,85.437C153.994,85.384 154.041,85.331 154.089,85.278L154.096,85.27C154.144,85.217 154.192,85.165 154.24,85.113L154.252,85.099L154.267,85.083C154.366,84.977 154.465,84.873 154.566,84.769L154.575,84.76L154.579,84.755L154.593,84.741L154.725,84.607L154.764,84.567L154.889,84.444L154.913,84.42L154.941,84.392L155.048,84.289L155.082,84.256L155.101,84.238L155.24,84.108L155.254,84.094L155.263,84.087L155.264,84.086L155.405,83.955L155.426,83.937L155.428,83.935L155.449,83.916L155.589,83.791L155.591,83.789L155.603,83.779L155.62,83.764L155.749,83.651L155.816,83.593L155.932,83.495L155.978,83.456L155.982,83.452L156.039,83.405L156.119,83.339L156.152,83.311C157.557,82.744 159.04,82.339 160.579,82.108C165.682,81.347 170.767,82.606 174.896,85.657L213.048,113.885C217.474,117.158 220.287,122.201 220.772,127.716C220.777,127.789 220.785,127.861 220.785,127.934L220.785,213.159C220.785,217.411 218.94,221.24 216.009,223.888L216.007,223.889C215.94,223.912 215.872,223.935 215.804,223.958L215.656,224.006L215.48,224.06L215.314,224.11L215.137,224.161L214.969,224.206L214.8,224.25L214.613,224.295L214.462,224.331C214.389,224.347 214.316,224.363 214.242,224.379L214.135,224.401C214.052,224.417 213.97,224.433 213.886,224.449L213.782,224.468C213.693,224.483 213.603,224.498 213.513,224.512L213.439,224.524C213.338,224.539 213.236,224.553 213.135,224.567L213.091,224.572C212.984,224.586 212.877,224.598 212.769,224.609L212.733,224.613C212.624,224.624 212.514,224.634 212.404,224.642L212.369,224.645C212.253,224.654 212.137,224.661 212.021,224.667L212.011,224.668C211.891,224.674 211.771,224.679 211.651,224.682L211.638,224.682C211.514,224.683 211.393,224.685 211.271,224.685ZM194.635,147.267L189.635,135.798L194.888,147.888L194.884,147.878L194.854,147.8L194.851,147.79L194.847,147.78L194.843,147.771L194.839,147.761L194.835,147.751L194.831,147.741L194.827,147.732L194.819,147.712L194.815,147.702L194.811,147.692L194.808,147.683L194.804,147.673L194.8,147.663L194.796,147.653L194.788,147.634L194.784,147.624L194.78,147.614L194.776,147.604L194.724,147.478L194.72,147.469L194.716,147.459L194.715,147.456L194.713,147.45L194.709,147.44L194.704,147.43L194.642,147.285L194.638,147.275L194.635,147.267Z" clip-rule="evenodd" fill-rule="evenodd" fill="#10737F"/>
<path d="M83.652,96.123C79.286,96.123 75.098,94.62 71.689,91.807C67.808,88.603 65.412,84.083 64.936,79.07C64.455,74.061 65.957,69.167 69.162,65.286C72.366,61.409 76.89,59.009 81.895,58.532C86.904,58.051 91.802,59.558 95.679,62.762C99.561,65.962 101.96,70.482 102.442,75.495C102.914,80.504 101.416,85.398 98.211,89.275C95.002,93.156 90.483,95.552 85.474,96.033C84.865,96.093 84.257,96.123 83.652,96.123ZM142.662,96.123C142.058,96.123 141.45,96.093 140.841,96.033C135.832,95.552 131.308,93.156 128.108,89.275C124.899,85.398 123.397,80.504 123.878,75.495C124.359,70.482 126.755,65.962 130.632,62.762C134.513,59.558 139.407,58.051 144.416,58.532C149.429,59.009 153.953,61.409 157.154,65.286C160.358,69.167 161.86,74.061 161.38,79.07C160.903,84.083 158.503,88.603 154.622,91.807C151.216,94.62 147.025,96.123 142.662,96.123Z" clip-rule="evenodd" fill-rule="evenodd" fill="#DDC6B9"/>
<path d="M83.652,96.12C79.286,96.12 75.098,94.618 71.689,91.805C67.808,88.6 65.412,84.081 64.936,79.068C64.455,74.058 65.957,69.165 69.162,65.283C70.488,63.679 72.041,62.327 73.759,61.26C74.733,61.007 75.734,60.829 76.755,60.732C81.765,60.251 86.663,61.758 90.54,64.962C94.421,68.162 96.821,72.682 97.302,77.695C97.774,82.704 96.277,87.598 93.072,91.475C91.743,93.082 90.19,94.433 88.471,95.5C87.497,95.754 86.496,95.932 85.474,96.03C84.865,96.091 84.257,96.12 83.652,96.12ZM132.742,61.244C134.845,60.697 137.049,60.518 139.276,60.732C144.289,61.209 148.813,63.609 152.014,67.486C155.218,71.367 156.72,76.261 156.24,81.27C155.763,86.283 153.363,90.803 149.482,94.007C148.809,94.564 148.105,95.068 147.376,95.52C145.848,95.917 144.267,96.121 142.662,96.121C142.058,96.121 141.45,96.091 140.841,96.031C135.832,95.55 131.308,93.154 128.108,89.273C124.899,85.396 123.397,80.502 123.878,75.493C124.359,70.48 126.755,65.96 130.632,62.76C131.306,62.202 132.011,61.697 132.742,61.244Z" clip-rule="evenodd" fill-rule="evenodd" fill="#F6DCCD"/>
</svg>
