<svg width="280" height="274" viewBox="0 0 280 274" fill="none" xmlns="http://www.w3.org/2000/svg" xmlns:xlink="http://www.w3.org/1999/xlink">
<path d="M72.158,272.316C65.67,272.316 59.949,268.966 56.632,263.912C53.314,268.966 47.593,272.316 41.105,272.316C30.874,272.316 22.551,263.99 22.551,253.762L22.551,132.91C10.274,131.366 0.73,120.84 0.73,108.166L0.73,43.228C0.73,35.544 6.983,29.29 14.668,29.29C22.354,29.29 28.607,35.544 28.607,43.228L28.607,97.44L87.685,97.44C101.386,97.44 112.532,108.585 112.532,122.29L112.532,166.483C112.532,179.163 102.99,189.65 90.712,191.146L90.712,253.762C90.712,263.99 82.389,272.316 72.158,272.316Z" clip-rule="evenodd" fill-rule="evenodd" fill="#10737F"/>
<path d="M72.157,272.316C67.347,272.316 62.959,270.474 59.659,267.462L59.659,199.763C59.659,198.091 58.303,196.733 56.631,196.733C54.959,196.733 53.604,198.091 53.604,199.763L53.604,267.462C50.303,270.474 45.914,272.316 41.104,272.316C30.873,272.316 22.55,263.99 22.55,253.76L22.55,132.91C10.273,131.366 0.729,120.84 0.729,108.166L0.729,43.228C0.729,41.364 1.098,39.586 1.765,37.959C3.606,37.061 5.672,36.556 7.855,36.556C15.541,36.556 21.794,42.81 21.794,50.494L21.794,104.707L80.871,104.707C94.573,104.707 105.719,115.851 105.719,129.557L105.719,173.749C105.719,178.514 104.371,182.969 102.037,186.754C98.759,189.082 94.894,190.636 90.711,191.146L90.711,128.261C90.711,126.589 89.356,125.231 87.684,125.231C86.011,125.231 84.656,126.589 84.656,128.261L85.148,261.028C85.148,264.124 83.136,267.046 81.788,269.614C78.979,271.328 75.681,272.316 72.157,272.316Z" clip-rule="evenodd" fill-rule="evenodd" fill="#128593"/>
<path d="M56.631,103.495C43.468,103.495 32.76,92.786 32.76,79.623C32.76,66.462 43.468,55.754 56.631,55.754C69.794,55.754 80.502,66.462 80.502,79.623C80.502,92.786 69.794,103.495 56.631,103.495Z" clip-rule="evenodd" fill-rule="evenodd" fill="#D9B7A9"/>
<path d="M56.631,103.495C43.468,103.495 32.76,92.786 32.76,79.623C32.76,71.169 37.179,63.728 43.828,59.485C46.211,58.686 48.759,58.251 51.408,58.251C64.571,58.251 75.278,68.96 75.278,82.121C75.278,90.577 70.859,98.019 64.21,102.262C61.828,103.061 59.279,103.495 56.631,103.495Z" clip-rule="evenodd" fill-rule="evenodd" fill="#F1CBBC"/>
<path d="M70.552,48.332C70.032,48.332 69.511,48.199 69.041,47.93L56.632,40.79L44.221,47.93C43.186,48.524 41.898,48.455 40.931,47.755C39.966,47.052 39.502,45.85 39.749,44.68L42.703,30.67L32.078,21.072C31.191,20.272 30.86,19.025 31.227,17.889C31.597,16.753 32.599,15.942 33.786,15.814L48.022,14.295L53.867,1.226C54.354,0.135 55.436,-0.568 56.631,-0.568C57.825,-0.568 58.907,0.135 59.395,1.226L65.239,14.295L79.477,15.814C80.664,15.942 81.666,16.753 82.036,17.889C82.403,19.025 82.07,20.272 81.185,21.072L70.56,30.669L73.514,44.68C73.76,45.849 73.297,47.052 72.33,47.754C71.803,48.138 71.178,48.332 70.552,48.332Z" clip-rule="evenodd" fill-rule="evenodd" fill="#E6BD5C"/>
<path d="M70.552,48.332C70.032,48.332 69.511,48.199 69.041,47.93L56.631,40.79L44.22,47.93C43.186,48.524 41.898,48.455 40.931,47.755C39.965,47.052 39.502,45.85 39.749,44.68L42.702,30.67L32.078,21.072C31.504,20.553 31.162,19.848 31.092,19.106C31.429,18.926 31.802,18.809 32.196,18.766L46.715,17.217L52.991,3.185C53.54,2.679 54.267,2.384 55.042,2.384C56.235,2.384 57.318,3.086 57.806,4.178L63.65,17.247L77.888,18.766C79.074,18.894 80.077,19.705 80.447,20.841C80.528,21.094 80.576,21.352 80.589,21.61L68.703,32.348L71.925,47.632C71.95,47.747 71.967,47.861 71.978,47.976C71.534,48.212 71.043,48.332 70.552,48.332Z" clip-rule="evenodd" fill-rule="evenodd" fill="#FFD266"/>
<path d="M276.249,269.744L199.189,269.744C197.516,269.744 196.161,268.385 196.161,266.717C196.161,243.802 214.804,225.157 237.718,225.157C260.634,225.157 279.275,243.802 279.275,266.717C279.275,268.385 277.921,269.744 276.249,269.744Z" clip-rule="evenodd" fill-rule="evenodd" fill="#10737F"/>
<path d="M185.033,269.744L107.973,269.744C106.301,269.744 104.945,268.385 104.945,266.717C104.945,243.802 123.588,225.157 146.503,225.157C169.418,225.157 188.061,243.802 188.061,266.717C188.061,268.385 186.705,269.744 185.033,269.744Z" clip-rule="evenodd" fill-rule="evenodd" fill="#10737F"/>
<path d="M212.663,233.584C218.115,230.949 224.228,229.471 230.679,229.471C253.164,229.471 271.532,247.423 272.215,269.744L199.189,269.744C197.516,269.744 196.161,268.385 196.161,266.716C196.162,253.205 202.645,241.179 212.663,233.584Z" clip-rule="evenodd" fill-rule="evenodd" fill="#128593"/>
<path d="M180.999,269.744L107.973,269.744C106.301,269.744 104.945,268.385 104.945,266.716C104.945,253.205 111.429,241.18 121.446,233.584C126.9,230.949 133.012,229.471 139.464,229.471C161.948,229.471 180.317,247.423 180.999,269.744Z" clip-rule="evenodd" fill-rule="evenodd" fill="#128593"/>
<path d="M237.719,231.213C225.674,231.213 215.875,221.415 215.875,209.371C215.875,197.327 225.674,187.528 237.719,187.528C249.763,187.528 259.563,197.326 259.563,209.371C259.563,221.415 249.763,231.213 237.719,231.213Z" clip-rule="evenodd" fill-rule="evenodd" fill="#D9B7A9"/>
<path d="M146.503,231.213C134.457,231.213 124.659,221.415 124.659,209.371C124.659,197.327 134.458,187.528 146.503,187.528C158.546,187.528 168.346,197.326 168.346,209.371C168.346,221.415 158.546,231.213 146.503,231.213Z" clip-rule="evenodd" fill-rule="evenodd" fill="#D9B7A9"/>
<path d="M228.522,189.561C229.524,189.42 230.547,189.344 231.586,189.344C243.631,189.344 253.431,199.142 253.431,211.187C253.431,219.948 248.245,227.519 240.782,230.996C239.781,231.137 238.758,231.212 237.717,231.212C225.673,231.212 215.874,221.415 215.874,209.37C215.874,200.609 221.06,193.038 228.522,189.561Z" clip-rule="evenodd" fill-rule="evenodd" fill="#F1CBBC"/>
<path d="M146.503,231.212C134.457,231.212 124.659,221.415 124.659,209.37C124.659,200.609 129.845,193.038 137.307,189.561C138.309,189.42 139.332,189.344 140.372,189.344C152.415,189.344 162.215,199.142 162.215,211.187C162.215,219.948 157.028,227.519 149.566,230.996C148.565,231.138 147.543,231.212 146.503,231.212Z" clip-rule="evenodd" fill-rule="evenodd" fill="#F1CBBC"/>
</svg>
