<svg width="226" height="226" viewBox="0 0 226 226" fill="none" xmlns="http://www.w3.org/2000/svg" xmlns:xlink="http://www.w3.org/1999/xlink">
<path d="M14.465,225.124C6.49,225.124 0,218.638 0,210.66L0,125.435C0,125.363 0,125.29 0.009,125.218C0.494,119.702 3.311,114.659 7.729,111.387L45.886,83.159C50.009,80.107 55.095,78.847 60.202,79.61C65.309,80.376 69.803,83.065 72.854,87.193C76.352,91.917 77.616,97.296 76.319,101.948C76.289,102.063 76.251,102.169 76.208,102.271L52.358,156.97C50.58,161.058 47.23,163.661 43.17,164.117C38.978,164.595 34.642,162.697 32.122,159.296C29.696,156.004 29.326,151.782 31.101,147.705L36.386,135.581L28.935,143.42L28.935,210.66C28.935,218.638 22.441,225.124 14.465,225.124Z" clip-rule="evenodd" fill-rule="evenodd" fill="#10737F"/>
<path d="M14.465,225.125C6.49,225.125 0,218.64 0,210.662L0,125.437C0,125.364 0,125.292 0.009,125.219C0.494,119.704 3.311,114.661 7.729,111.388L45.081,83.755C48.258,82.453 51.747,82.026 55.246,82.548C60.353,83.314 64.847,86.003 67.898,90.131C71.397,94.855 72.66,100.234 71.363,104.886L47.403,159.908C46.745,161.422 45.87,162.731 44.825,163.804C44.289,163.949 43.737,164.055 43.171,164.118C38.979,164.597 34.642,162.698 32.123,159.297C29.697,156.006 29.327,151.784 31.102,147.707L36.387,135.582L36.38,135.59L50.423,103.856C50.963,102.613 50.393,101.175 49.155,100.63C47.916,100.09 46.473,100.66 45.937,101.899L28.247,141.87L23.98,146.358L23.98,213.599C23.98,217.852 22.135,221.68 19.203,224.328C17.716,224.844 16.123,225.125 14.465,225.125Z" clip-rule="evenodd" fill-rule="evenodd" fill="#128593"/>
<path d="M112.577,62.24C95.418,62.24 81.459,48.277 81.459,31.122C81.459,13.959 95.418,0 112.577,0C129.74,0 143.699,13.959 143.699,31.122C143.699,48.277 129.74,62.24 112.577,62.24Z" clip-rule="evenodd" fill-rule="evenodd" fill="#00CD8A"/>
<path d="M112.577,62.237C95.418,62.237 81.459,48.274 81.459,31.119C81.459,19.834 87.494,9.935 96.505,4.478C99.002,3.83 101.62,3.485 104.318,3.485C121.481,3.485 135.44,17.444 135.44,34.607C135.44,45.887 129.405,55.785 120.392,61.243C117.894,61.892 115.275,62.237 112.577,62.237Z" clip-rule="evenodd" fill-rule="evenodd" fill="#00E499"/>
<path d="M107.917,42.878C107.266,42.878 106.645,42.619 106.185,42.163L96.869,32.848C95.916,31.89 95.916,30.341 96.869,29.388C97.827,28.43 99.376,28.43 100.333,29.388L107.917,36.972L124.821,20.068C125.778,19.11 127.327,19.11 128.285,20.068C129.238,21.025 129.238,22.574 128.285,23.527L109.653,42.163C109.19,42.619 108.568,42.878 107.917,42.878Z" clip-rule="evenodd" fill-rule="evenodd" fill="#ECEFF1"/>
<path d="M210.686,225.124C202.711,225.124 196.221,218.639 196.221,210.661L196.221,143.42L188.765,135.581L194.051,147.705C195.83,151.782 195.455,156.004 193.025,159.296C190.515,162.702 186.178,164.596 181.978,164.117C177.926,163.662 174.577,161.053 172.794,156.97L148.949,102.271C148.907,102.169 148.864,102.063 148.834,101.948C147.54,97.296 148.804,91.917 152.299,87.193C155.35,83.065 159.844,80.375 164.951,79.609C170.053,78.848 175.139,80.107 179.267,83.158L217.42,111.387C221.846,114.659 224.658,119.702 225.144,125.217C225.148,125.29 225.157,125.362 225.157,125.435L225.157,210.66C225.156,218.639 218.666,225.124 210.686,225.124Z" clip-rule="evenodd" fill-rule="evenodd" fill="#10626C"/>
<path d="M210.688,225.124C202.713,225.124 196.223,218.639 196.223,210.661L196.223,143.421L188.768,135.583L173.796,101.128C173.252,99.889 171.813,99.319 170.57,99.86C169.332,100.404 168.77,101.842 169.306,103.085L193.461,158.664L193.458,158.669L193.454,158.674L193.448,158.685L193.442,158.694L193.37,158.805L193.364,158.814L193.357,158.824L193.354,158.828L193.35,158.834C193.322,158.877 193.292,158.92 193.263,158.963L193.256,158.973L193.249,158.983L193.248,158.985L193.242,158.993L193.235,159.002L193.153,159.12L193.146,159.13L193.139,159.14L193.138,159.141L193.132,159.15C193.097,159.199 193.062,159.247 193.026,159.296C190.515,162.702 186.178,164.596 181.978,164.117C177.926,163.662 174.577,161.053 172.794,156.97L148.949,102.271C148.907,102.169 148.864,102.063 148.834,101.948C147.54,97.296 148.804,91.917 152.299,87.193C152.343,87.132 152.389,87.072 152.434,87.012L152.443,87.001L152.45,86.991C152.495,86.932 152.541,86.873 152.586,86.815L152.594,86.805C152.74,86.618 152.888,86.434 153.04,86.252L153.043,86.249C153.091,86.192 153.139,86.135 153.188,86.079L153.195,86.071L153.199,86.065C153.244,86.013 153.289,85.961 153.335,85.909L153.351,85.891L153.364,85.876C153.411,85.823 153.459,85.77 153.506,85.718L153.513,85.71C153.561,85.657 153.609,85.604 153.657,85.552L153.67,85.539L153.685,85.523C153.783,85.417 153.882,85.312 153.983,85.209L153.992,85.199L153.997,85.195L154.01,85.18L154.142,85.047L154.182,85.007L154.306,84.883L154.33,84.859L154.359,84.831L154.465,84.729L154.5,84.695L154.518,84.678L154.657,84.547L154.671,84.534L154.68,84.526L154.681,84.526L154.823,84.395L154.843,84.376L154.845,84.375L154.866,84.356L155.006,84.231L155.008,84.229L155.02,84.218L155.038,84.203L155.166,84.09L155.233,84.033L155.349,83.934L155.395,83.896L155.399,83.892L155.456,83.845L155.536,83.778L155.57,83.751C156.974,83.184 158.458,82.778 159.996,82.548C165.099,81.786 170.185,83.045 174.313,86.097L212.465,114.325C216.891,117.597 219.704,122.64 220.189,128.156C220.194,128.228 220.202,128.301 220.202,128.373L220.202,213.598C220.202,217.851 218.357,221.679 215.426,224.328L215.424,224.328C215.357,224.351 215.289,224.374 215.221,224.397L215.073,224.445L214.897,224.5L214.731,224.55L214.554,224.6L214.386,224.646L214.217,224.689L214.03,224.735L213.879,224.77C213.806,224.787 213.733,224.802 213.659,224.818L213.552,224.84C213.47,224.857 213.387,224.873 213.304,224.888L213.199,224.907C213.11,224.923 213.02,224.937 212.931,224.952L212.856,224.963C212.755,224.979 212.654,224.993 212.552,225.006L212.508,225.012C212.401,225.025 212.294,225.037 212.186,225.048L212.15,225.052C212.041,225.063 211.932,225.073 211.822,225.082L211.786,225.085C211.67,225.094 211.554,225.101 211.438,225.107L211.428,225.107C211.309,225.114 211.188,225.118 211.068,225.121L211.056,225.121C210.932,225.122 210.81,225.124 210.688,225.124ZM194.052,147.706L189.053,136.238L194.305,148.327L194.302,148.317L194.272,148.239L194.268,148.23L194.264,148.22L194.26,148.21L194.256,148.2L194.252,148.19L194.248,148.181L194.244,148.171L194.236,148.151L194.233,148.142L194.229,148.132L194.225,148.122L194.221,148.112L194.217,148.102L194.213,148.093L194.205,148.073L194.201,148.063L194.197,148.053L194.193,148.044L194.141,147.918L194.138,147.908L194.134,147.898L194.133,147.896L194.13,147.889L194.126,147.879L194.121,147.869L194.059,147.724L194.055,147.714L194.052,147.706Z" clip-rule="evenodd" fill-rule="evenodd" fill="#10737F"/>
<path d="M83.07,96.562C78.704,96.562 74.516,95.06 71.107,92.247C67.226,89.042 64.83,84.523 64.354,79.509C63.873,74.5 65.375,69.607 68.58,65.725C71.784,61.848 76.308,59.448 81.313,58.972C86.322,58.49 91.22,59.997 95.097,63.202C98.979,66.402 101.378,70.921 101.86,75.934C102.332,80.944 100.834,85.837 97.629,89.714C94.42,93.596 89.901,95.991 84.892,96.472C84.283,96.533 83.675,96.562 83.07,96.562ZM142.08,96.562C141.476,96.562 140.868,96.532 140.259,96.472C135.25,95.992 130.726,93.596 127.526,89.714C124.317,85.837 122.815,80.943 123.296,75.934C123.777,70.921 126.173,66.402 130.05,63.202C133.931,59.997 138.825,58.49 143.834,58.972C148.847,59.448 153.371,61.848 156.572,65.725C159.776,69.607 161.278,74.5 160.798,79.509C160.321,84.523 157.921,89.042 154.04,92.247C150.634,95.06 146.443,96.562 142.08,96.562Z" clip-rule="evenodd" fill-rule="evenodd" fill="#DDC6B9"/>
<path d="M83.07,96.559C78.704,96.559 74.516,95.057 71.107,92.244C67.226,89.04 64.83,84.52 64.354,79.507C63.873,74.498 65.375,69.604 68.58,65.723C69.906,64.118 71.459,62.767 73.177,61.7C74.151,61.446 75.152,61.269 76.173,61.172C81.183,60.69 86.081,62.197 89.958,65.402C93.839,68.602 96.239,73.121 96.72,78.134C97.192,83.144 95.695,88.037 92.49,91.914C91.161,93.521 89.608,94.873 87.889,95.94C86.915,96.194 85.914,96.371 84.892,96.47C84.283,96.53 83.675,96.559 83.07,96.559ZM132.16,61.684C134.263,61.137 136.467,60.958 138.694,61.172C143.707,61.648 148.231,64.048 151.432,67.925C154.636,71.807 156.138,76.7 155.658,81.709C155.181,86.723 152.781,91.242 148.9,94.447C148.227,95.003 147.523,95.507 146.794,95.959C145.266,96.356 143.685,96.56 142.08,96.56C141.476,96.56 140.868,96.53 140.259,96.47C135.25,95.99 130.726,93.594 127.526,89.712C124.317,85.835 122.815,80.941 123.296,75.932C123.777,70.919 126.173,66.4 130.05,63.199C130.724,62.642 131.429,62.136 132.16,61.684Z" clip-rule="evenodd" fill-rule="evenodd" fill="#F6DCCD"/>
</svg>
