<svg width="1536" height="886" viewBox="0 0 1536 886" fill="none" xmlns="http://www.w3.org/2000/svg" xmlns:xlink="http://www.w3.org/1999/xlink">
<g opacity="0.5">
<path d="M956.204,490.523C944.382,498.708 928.616,501.134 914.672,496.889C913.156,496.283 911.338,495.677 910.73,494.161C909.518,492.039 911.338,489.614 911.64,487.188C912.55,480.216 902.546,477.184 899.514,471.121C898.302,468.696 898.302,465.665 897.998,462.936C896.18,438.381 883.448,416.554 872.534,394.423C871.624,392.908 871.018,391.089 871.32,389.27C871.624,387.451 873.746,385.935 875.262,386.844C874.05,391.089 876.778,395.939 880.718,397.152C882.538,390.179 883.448,380.781 877.08,377.144C874.958,375.931 872.23,375.628 869.806,375.628C860.104,375.021 850.1,375.628 840.399,377.144C838.883,377.447 837.064,377.75 835.549,376.84C834.336,376.234 833.73,374.718 832.82,373.506C830.395,370.171 824.029,368.655 820.694,371.384C817.056,374.415 819.785,381.085 812.509,381.994C808.568,382.6 804.627,380.478 800.989,378.356C797.048,376.234 793.41,373.809 790.379,370.474C789.469,369.262 788.56,368.049 787.347,367.139C784.922,365.624 781.587,366.533 778.556,366.23C775.524,366.23 771.886,364.108 772.796,361.076C773.099,360.167 773.705,359.561 774.312,358.651C777.949,352.891 773.099,344.706 766.43,342.584C759.76,340.462 752.788,342.584 746.118,344.706C736.114,347.738 726.413,351.072 716.409,354.104C712.771,355.317 708.83,356.529 704.889,355.62C701.555,355.013 698.22,353.194 695.188,354.407C691.247,356.529 691.854,362.592 689.428,366.23C687.003,369.868 682.153,371.08 679.728,374.718C676.999,378.962 678.515,384.419 678.212,389.573C677.605,399.274 669.723,406.549 662.751,413.219C655.778,419.888 648.503,428.68 650.322,438.381C650.928,441.412 652.14,444.141 652.444,447.172C652.747,449.597 651.837,452.023 651.231,454.448C649.109,462.027 646.987,469.606 645.168,476.881C652.141,489.007 659.719,500.83 667.905,512.047C671.846,517.504 676.393,523.264 682.153,526.902C687.913,530.843 695.188,532.965 701.858,531.146C704.889,530.236 707.618,528.721 710.649,528.417C714.893,528.114 719.138,529.933 723.382,529.933C728.535,529.63 732.78,526.598 736.721,523.567C740.662,520.535 745.209,517.504 750.059,517.201C755.213,517.201 760.367,521.445 759.457,526.295C759.154,527.508 758.851,528.417 758.851,529.63C759.154,532.055 762.185,532.662 764.611,532.358C767.036,532.055 769.461,531.146 771.583,532.358C774.312,533.874 774.918,537.815 773.705,540.847C772.493,545.091 769.764,548.425 767.642,552.367C765.823,556.307 764.914,561.159 767.642,564.795C768.855,566.615 770.977,567.827 772.796,569.343C775.524,571.769 777.343,575.407 778.556,578.741C784.316,593.595 785.831,610.269 782.497,626.033C780.981,633.005 776.737,638.463 775.221,645.131C773.705,652.407 779.465,660.289 782.8,666.353C787.954,675.447 790.985,685.451 791.591,695.759C791.895,700.003 791.895,704.247 793.713,707.885C795.229,710.613 797.351,712.735 799.473,715.161C807.052,724.255 807.962,736.987 808.568,748.811C810.084,750.933 813.418,750.933 815.844,749.719C818.269,748.507 820.088,746.689 822.513,745.475C828.273,742.445 835.549,743.959 841.915,743.353C853.132,742.141 863.136,732.743 864.954,721.527C865.56,718.495 865.56,715.161 866.774,712.431C868.896,708.187 873.746,705.157 874.352,700.609C874.656,698.789 874.05,696.667 874.656,694.849C875.868,689.089 884.962,687.271 885.57,681.207C885.872,678.479 884.356,675.751 883.144,673.021C879.81,665.139 882.538,655.439 889.51,650.285C891.936,648.467 894.966,647.253 897.696,645.435C910.124,636.643 909.822,617.847 904.668,603.599C902.546,598.143 899.818,592.383 900.424,586.319C900.726,582.379 902.242,578.741 904.062,575.103C908.608,566.311 914.976,558.429 922.554,552.367C927.404,548.425 933.164,544.787 936.196,538.725C938.014,535.087 938.318,531.146 939.834,527.508C942.258,520.839 947.412,515.382 951.656,509.622C955.9,504.771 958.932,497.193 956.204,490.523ZM883.144,635.733C882.84,638.159 880.112,640.585 877.99,639.069C877.99,632.399 876.474,626.033 874.958,619.667C874.352,616.635 873.746,613.603 872.836,610.573C872.534,609.057 872.23,607.541 870.714,606.935C869.806,606.327 868.592,606.631 867.684,606.025C866.47,605.115 866.47,602.993 865.56,602.083C864.046,600.569 861.62,601.175 859.802,599.961C857.982,598.749 857.678,596.627 857.376,594.505L854.648,572.375C854.648,571.465 854.344,570.555 854.95,569.949C855.556,569.041 856.466,568.737 857.376,568.433C861.316,566.917 864.652,563.887 866.47,560.249C867.38,558.733 867.684,556.913 868.896,555.399C872.534,550.245 877.688,551.761 878.294,556.913C878.9,563.887 876.172,562.977 872.23,565.403C869.198,567.221 864.046,570.555 861.924,573.587C858.892,578.437 861.62,579.651 863.742,584.197C865.864,588.441 863.742,594.201 867.076,597.839C869.198,600.265 872.534,600.569 874.958,602.083C878.9,604.509 880.416,609.663 880.718,614.513C881.022,619.363 880.416,624.215 881.628,628.761C882.538,630.883 883.448,633.309 883.144,635.733Z" fill="#10737F" fill-opacity="0.14"/>
<path d="M922.25,646.042C919.825,650.589 924.978,656.046 924.372,661.503C924.069,666.96 917.703,670.294 916.49,675.751C915.884,677.873 916.49,680.298 916.793,682.42C917.703,686.665 919.218,690.606 921.037,694.547C921.644,695.759 922.25,696.972 923.462,697.881C926.494,700.913 931.951,699.7 934.982,696.669C938.014,693.637 939.226,689.393 939.833,685.149C940.439,680.905 940.742,676.661 942.258,672.72C944.683,666.96 950.14,662.109 949.837,656.046C949.534,653.015 948.018,649.983 947.411,646.951C946.805,643.92 947.412,639.979 950.14,638.766C950.443,640.888 950.746,642.707 951.049,644.829C959.235,642.404 949.23,615.727 940.439,629.065C936.801,634.522 940.439,638.16 933.467,641.191C929.829,642.404 924.675,641.798 922.25,646.042Z" fill="#53A2AB" fill-opacity="0.44"/>
<path d="M1534.924,171.605C1534.622,170.695 1534.014,170.089 1533.408,169.483C1528.558,164.936 1523.102,161.298 1517.342,157.963C1520.98,157.66 1524.92,157.357 1527.952,155.538C1531.286,153.719 1533.712,150.384 1533.408,146.746C1532.5,140.38 1523.708,136.742 1524.618,130.679C1524.92,127.951 1527.346,124.919 1526.132,122.494C1525.224,120.675 1523.102,120.372 1520.98,120.069C1510.672,118.553 1500.364,117.34 1490.36,115.825C1490.664,119.766 1489.754,124.01 1486.42,126.435C1483.388,128.86 1477.932,127.951 1476.416,124.313C1475.81,123.1 1475.81,121.585 1474.9,120.372C1473.08,117.947 1469.444,119.462 1466.714,120.372C1460.652,122.797 1453.68,122.797 1447.92,120.372C1446.706,119.766 1445.494,119.159 1444.888,117.947C1444.282,116.128 1445.494,114.309 1445.494,112.49C1445.798,109.458 1442.462,106.73 1439.128,106.427C1436.096,106.124 1432.762,107.336 1429.73,108.549C1420.938,111.277 1410.328,111.884 1403.052,106.124C1400.93,104.305 1399.112,102.183 1396.686,100.667C1393.352,98.545 1389.41,98.242 1385.47,97.635C1375.466,96.726 1365.764,95.513 1355.76,94.604C1354.85,94.604 1353.638,94.301 1353.032,94.907C1351.82,95.816 1352.122,97.635 1351.516,99.151C1350.606,102.183 1347.272,103.698 1344.24,103.698C1341.208,104.002 1338.178,103.092 1335.146,103.395C1333.024,103.698 1330.598,104.608 1328.476,104.305C1326.052,104.305 1323.626,102.486 1323.93,100.364C1321.2,102.183 1319.078,105.517 1319.078,108.852C1313.318,109.458 1306.044,105.517 1307.256,99.757C1307.558,98.242 1308.468,97.029 1308.468,95.513C1309.378,86.419 1286.338,84.297 1281.184,88.238C1279.668,89.45 1278.76,90.663 1277.244,91.875C1271.786,96.726 1261.48,94.907 1258.144,88.238C1249.96,87.328 1241.774,87.328 1233.892,88.238C1230.558,82.781 1222.07,85.206 1216.612,88.844C1211.156,92.179 1203.274,95.816 1199.03,90.663C1212.672,87.631 1226.01,81.265 1236.924,72.474C1238.136,71.564 1239.35,70.352 1239.046,68.836C1238.742,67.926 1238.136,67.017 1237.228,66.714C1232.074,63.076 1225.708,61.257 1219.644,61.56C1215.096,61.56 1209.64,62.47 1206.912,59.135C1205.092,57.013 1204.79,53.678 1202.668,51.859C1200.546,50.04 1197.514,50.647 1194.786,50.95C1189.026,51.859 1182.962,53.072 1177.202,53.981C1176.294,54.284 1175.384,54.284 1174.778,54.891C1173.868,55.8 1173.868,57.316 1173.868,58.529C1173.262,66.411 1163.56,71.867 1156.588,68.23C1154.466,67.017 1152.648,65.198 1150.222,64.592C1147.19,63.682 1144.158,64.592 1141.128,65.804C1129.002,70.048 1116.874,74.293 1104.748,78.537C1108.084,80.659 1112.328,81.568 1115.966,80.356C1117.178,82.478 1114.146,84.297 1111.722,84.6C1102.324,86.419 1093.228,88.541 1083.832,90.36C1088.984,94.301 1094.138,98.545 1099.292,103.092C1101.718,101.273 1103.84,105.821 1102.93,108.549C1102.02,111.277 1100.504,114.915 1102.626,116.734C1099.898,115.825 1097.472,113.703 1095.958,110.974C1097.472,109.762 1098.988,108.852 1100.504,107.639C1097.17,108.246 1093.836,106.124 1092.622,103.092C1086.56,101.88 1081.102,99.454 1076.252,95.816C1075.342,97.939 1076.556,100.97 1078.98,101.88C1076.858,102.183 1074.736,102.486 1072.312,102.789C1072.918,106.124 1075.95,108.852 1079.586,109.458C1075.342,110.671 1070.492,109.458 1066.854,106.73C1070.19,101.88 1065.338,93.998 1059.578,94.907C1062.914,95.21 1063.52,100.061 1062.004,103.092C1060.488,106.124 1058.062,108.852 1058.062,112.187C1058.062,116.431 1062.004,121.281 1058.67,124.01C1062.61,127.344 1069.886,121.281 1073.22,125.222C1074.13,126.435 1074.434,128.254 1074.736,129.77C1075.95,134.317 1081.102,137.349 1085.65,136.742C1082.922,140.986 1076.556,136.742 1073.828,132.801C1070.796,128.86 1064.43,124.616 1062.004,128.86C1061.094,130.376 1061.398,131.892 1061.398,133.711C1061.094,145.534 1047.452,154.931 1036.54,150.687C1040.784,145.534 1050.484,147.656 1053.818,141.896C1055.032,139.471 1054.728,136.742 1054.426,134.014C1053.212,125.222 1052,116.431 1050.484,107.639C1051.394,103.698 1051.394,99.454 1051.394,95.513C1046.846,97.029 1039.268,97.029 1039.57,92.179C1035.63,98.545 1031.689,105.214 1027.748,111.58C1025.323,115.521 1023.504,121.585 1027.748,123.707C1030.476,122.494 1033.811,124.919 1034.417,127.648C1035.327,130.376 1034.114,133.408 1032.902,136.136C1027.142,119.766 997.129,127.344 989.551,111.884C985.913,113.399 989.247,118.856 992.885,120.069C996.523,121.281 1001.374,123.707 1000.161,127.344C999.252,130.073 995.311,130.073 992.279,130.073C983.791,129.467 974.999,131.589 967.42,135.833C966.814,132.801 966.208,129.77 965.298,126.738C958.932,131.285 952.869,135.53 946.503,140.077C943.471,142.199 940.137,144.321 936.499,144.927C932.861,145.231 928.617,143.108 928.01,139.471C927.404,135.833 932.861,132.498 935.286,135.53C936.195,128.86 927.101,123.1 921.341,127.041C924.979,133.408 925.282,141.593 921.644,147.959C920.431,150.384 918.309,152.506 915.581,153.113C912.853,153.416 909.821,151.294 910.427,148.565C907.093,151.597 905.274,156.144 905.274,160.691C899.817,162.51 893.148,160.388 889.813,155.538C890.116,158.266 890.722,160.691 891.026,163.42C887.085,167.664 878.293,164.632 877.99,158.872C877.99,157.054 878.293,155.538 878.293,153.719C878.293,147.959 873.139,143.412 868.289,140.077C875.262,142.805 882.537,145.534 889.51,148.262C893.451,149.778 897.695,151.294 901.939,150.384C908.002,149.172 911.943,140.986 906.486,136.742C896.785,129.163 885.569,123.403 873.746,120.069C870.411,119.159 866.773,118.25 863.439,119.462C860.71,120.372 857.072,122.191 855.557,119.766C858.285,120.069 861.316,119.159 863.135,117.037C857.375,115.825 851.616,114.915 845.552,114.612C838.883,120.675 834.033,129.163 836.155,137.652C839.186,150.99 856.466,161.904 850.1,174.03C856.163,172.818 862.226,171.302 867.986,172.818C871.017,173.727 874.049,175.546 876.171,177.971L876.171,177.668C877.99,177.062 879.809,176.455 881.628,177.062C883.447,177.668 884.962,179.487 884.053,181.306C883.447,182.518 881.931,183.428 882.537,184.641C882.84,185.247 883.75,185.55 884.659,185.853C886.781,186.46 887.994,189.188 887.085,191.31C884.053,191.007 880.718,191.007 877.687,190.704C876.777,193.129 875.262,195.251 874.049,197.373C869.805,206.771 872.836,217.684 873.139,228.295C873.443,233.752 872.23,239.511 869.502,244.059C870.108,244.059 870.714,243.756 871.321,243.756C883.144,241.634 896.482,244.665 903.758,254.366C911.034,263.764 908.608,280.436 897.392,284.682C893.148,286.5 888.297,286.196 884.356,288.622C882.84,289.532 881.628,291.35 881.021,293.17C888.297,289.228 895.573,285.288 903.758,283.772C901.939,287.712 898.604,290.44 894.36,291.654C895.573,292.562 895.27,294.686 894.057,295.594C892.845,296.504 891.026,296.2 889.51,295.898C887.994,295.594 886.175,295.292 884.659,295.594C883.144,295.898 882.234,297.11 881.628,298.322C881.325,298.93 881.325,299.536 881.325,300.142C881.325,300.446 881.325,301.052 881.628,301.354C885.872,298.02 892.238,297.716 896.482,301.052C897.998,302.264 899.514,304.082 901.03,305.296C902.849,306.508 905.577,307.114 906.79,308.934C908.305,310.752 907.093,314.39 904.971,314.086C904.971,315.3 906.183,315.906 907.093,316.21C908.305,316.512 909.518,316.21 910.427,316.816C912.853,318.028 912.246,321.666 910.427,323.484C908.305,325 905.577,325.304 902.849,325.304C895.876,325.304 888.903,325.606 882.537,322.576C879.506,321.362 876.777,319.24 873.746,318.332C870.714,317.118 867.076,317.118 864.348,319.24C863.135,320.15 862.529,321.666 861.316,322.576C858.588,325 854.041,325.606 851.009,323.484C848.584,321.666 847.371,318.332 847.978,315.3C845.249,318.332 842.824,321.666 841.005,325.304C842.521,329.548 844.037,334.096 845.552,338.34C846.159,339.856 846.462,341.068 847.068,342.584C848.584,346.828 851.009,351.678 855.253,351.982C861.013,352.284 866.47,344.706 871.017,351.678C871.927,352.89 872.23,354.71 872.23,356.226C872.23,359.256 876.474,363.198 878.899,360.772C878.596,358.65 878.293,356.226 879.506,354.104C880.415,351.982 883.447,350.768 885.266,352.284C886.478,353.194 886.781,355.012 886.781,356.528C886.781,358.65 886.781,361.076 886.478,363.198C885.872,368.654 883.75,374.112 879.202,376.84C875.565,378.962 870.714,380.78 873.443,385.328C874.049,386.238 876.777,385.024 877.384,386.238C879.203,388.662 877.99,391.088 877.99,393.816C878.293,399.576 884.962,402.608 888.6,407.156C893.754,413.522 892.541,422.616 894.967,430.498C900.12,446.262 919.825,456.57 918.916,472.94C918.613,479.306 915.278,487.492 920.735,491.128C924.372,493.554 929.223,491.736 933.164,489.916C940.44,486.582 948.018,483.246 955.294,479.61C958.326,478.094 961.357,476.578 962.873,473.85C963.782,472.334 963.783,470.514 964.995,469.302C966.511,467.482 969.542,467.18 971.968,466.27C977.424,464.452 981.062,459.298 983.791,454.144C986.822,448.688 988.944,442.928 990.763,436.864C991.066,435.348 991.673,433.53 991.066,432.014C989.551,426.254 979.243,425.648 978.94,419.584C978.637,417.16 980.456,414.734 981.365,412.308C982.275,409.884 981.365,406.246 978.637,406.548C977.121,411.096 975.605,415.644 971.968,418.978C968.633,422.312 962.873,423.526 959.235,420.798C956.507,418.676 955.597,415.038 953.778,412.006C951.05,407.458 945.593,404.73 943.168,400.182C940.743,395.332 944.381,387.45 949.231,389.572C951.656,398.364 957.719,406.246 965.905,410.794C971.058,408.974 975.606,406.852 980.153,404.124C982.275,402.304 985.306,405.64 985.61,408.67C985.913,411.702 985.306,415.038 987.732,416.856C988.944,417.766 990.46,417.766 991.976,417.766C1004.102,417.766 1016.228,416.25 1028.051,413.522C1025.626,420.494 1031.992,428.982 1039.57,428.68C1038.662,431.71 1035.63,433.832 1032.902,433.832C1034.417,436.562 1035.932,439.592 1038.358,441.412C1041.086,443.23 1045.028,443.836 1047.15,441.412C1049.272,439.29 1049.574,435.348 1052.304,434.136C1055.638,432.924 1058.67,436.864 1058.366,440.2C1058.062,443.836 1055.94,446.566 1054.728,449.9C1052.304,456.57 1054.426,464.148 1056.85,470.818C1061.094,483.854 1065.338,497.496 1074.13,508.408C1077.162,505.378 1080.194,502.648 1083.528,499.618C1087.772,500.224 1087.772,506.286 1086.56,510.228C1085.346,514.168 1083.832,519.626 1087.468,522.05C1090.804,523.87 1095.048,520.838 1095.958,517.2C1096.564,513.562 1095.048,509.924 1093.228,506.286C1091.106,502.042 1088.984,497.496 1086.862,493.252C1086.256,491.736 1085.346,490.22 1085.346,488.4C1085.346,486.884 1086.256,485.672 1086.862,484.46C1088.682,480.216 1089.288,475.364 1088.682,470.818C1100.202,465.058 1109.6,455.66 1115.36,444.444C1116.268,442.624 1117.178,440.806 1118.694,439.896C1123.242,436.562 1131.124,441.412 1135.368,437.168C1141.128,439.29 1145.978,443.836 1148.706,449.294C1150.828,453.234 1152.648,458.692 1156.892,458.994C1149.918,461.722 1145.372,469.302 1145.978,476.578C1152.95,478.396 1160.53,471.728 1159.922,464.754C1162.652,463.238 1166.288,465.058 1167.502,467.786C1169.018,470.514 1168.714,473.85 1168.714,476.88C1168.108,486.278 1167.502,495.676 1167.198,504.77C1166.896,507.5 1166.896,510.53 1168.412,512.956C1169.926,515.078 1172.656,516.29 1173.564,518.716C1175.08,522.354 1172.048,526.902 1173.868,530.236C1174.778,532.054 1176.9,532.662 1178.718,534.176C1182.054,536.906 1183.266,541.452 1185.69,545.09C1188.116,548.728 1193.876,551.154 1196.604,547.516C1190.844,542.968 1187.206,535.996 1186.904,528.72C1186.904,526.902 1186.904,525.386 1186.298,523.87C1185.388,522.05 1183.568,520.838 1182.054,519.322C1172.958,511.138 1174.172,496.888 1175.99,484.762C1180.234,490.826 1186.904,495.07 1194.18,496.586C1191.754,501.436 1193.876,507.802 1198.424,510.53C1198.726,505.68 1202.364,501.436 1206.912,500.224C1209.034,499.618 1211.156,499.618 1212.974,498.708C1218.734,496.282 1219.34,488.704 1219.038,482.64C1219.038,480.216 1218.734,477.79 1217.522,475.668C1215.4,472.334 1210.852,471.728 1207.518,469.604C1201.454,465.968 1198.424,457.782 1200.848,451.112C1203.274,444.444 1210.852,440.2 1217.826,441.714C1220.25,442.624 1219.038,446.262 1217.218,447.778C1215.096,449.294 1212.368,450.204 1211.458,452.628C1210.246,455.964 1214.188,459.6 1217.522,458.692C1220.856,458.086 1223.282,454.448 1223.282,450.81C1223.586,447.172 1222.372,443.836 1220.856,440.502C1228.132,442.018 1236.318,439.592 1241.472,433.832C1242.986,432.318 1244.2,430.498 1246.018,429.286C1249.656,427.164 1254.81,428.376 1257.538,425.344C1259.66,423.222 1259.66,419.584 1260.266,416.25C1261.48,410.49 1266.026,405.942 1268.756,400.788C1271.484,395.636 1273.908,387.45 1272.696,381.69C1271.786,377.446 1269.362,373.506 1267.846,369.564C1266.634,366.532 1266.026,363.804 1265.724,360.47C1265.42,359.256 1265.42,357.742 1266.026,356.832C1266.936,354.71 1269.664,354.406 1271.484,353.194C1274.212,351.374 1275.728,347.738 1274.818,344.402C1266.936,347.13 1257.842,345.008 1251.778,339.248C1253.598,335.914 1257.538,334.398 1260.874,332.58C1264.208,330.76 1267.846,328.032 1267.542,324.092C1269.664,324.092 1271.786,324.092 1273.908,324.092C1274.212,327.728 1272.392,331.064 1269.664,333.186C1272.696,335.61 1276.94,333.186 1280.274,331.366C1283.61,329.548 1289.37,329.548 1289.976,333.488C1290.278,337.126 1284.822,339.552 1285.428,343.19C1289.37,341.978 1293.614,347.13 1291.492,350.768C1290.886,351.678 1289.976,352.588 1290.28,353.8C1290.582,355.012 1292.098,355.62 1293.31,356.226C1296.646,358.044 1298.162,362.592 1296.342,365.926C1298.768,364.108 1300.89,362.288 1303.314,360.47C1303.92,362.592 1306.346,364.108 1308.468,363.502C1310.59,362.894 1312.106,360.47 1311.5,358.348C1311.196,356.226 1309.074,354.71 1308.468,352.89C1307.558,349.86 1309.68,346.524 1308.772,343.492C1307.862,341.068 1305.436,339.856 1303.314,338.34C1301.192,336.824 1299.374,334.096 1300.586,331.974C1301.192,330.76 1303.012,330.154 1304.224,329.244C1310.59,325.304 1312.106,313.784 1319.686,313.48C1321.2,313.48 1322.716,313.784 1324.232,313.784C1328.476,313.178 1329.992,308.024 1332.114,304.082C1336.662,295.292 1347.272,291.048 1351.82,282.558C1355.458,275.89 1355.154,268.008 1357.276,260.732C1358.792,255.578 1361.824,250.122 1360.004,244.968C1357.58,238.602 1347.272,237.389 1343.634,242.846C1344.24,239.511 1344.846,236.48 1345.454,233.145C1343.028,240.421 1328.174,233.752 1341.208,226.779C1350,221.929 1357.882,215.562 1364.248,207.68C1366.37,204.952 1368.492,202.224 1371.222,200.405C1381.528,193.432 1395.776,202.224 1407.902,198.889C1408.206,200.101 1408.812,201.314 1409.116,202.527C1405.78,203.739 1402.75,205.255 1399.414,206.468C1406.386,209.802 1413.662,201.92 1421.242,202.527C1423.364,202.527 1426.698,202.527 1426.698,200.405C1424.576,200.101 1422.152,198.889 1422.454,197.07C1422.454,196.464 1423.06,195.857 1423.666,195.251C1425.486,193.129 1427.608,191.007 1429.73,188.885C1433.064,185.247 1438.522,181.609 1442.16,184.641C1444.888,187.066 1443.674,192.523 1440.038,193.129C1442.462,195.554 1446.404,193.432 1448.828,191.007C1451.254,188.582 1454.286,185.853 1457.316,187.066C1458.226,185.247 1458.226,183.125 1457.316,181.306C1459.742,179.79 1463.076,179.487 1465.806,180.396C1463.986,181.912 1463.076,183.731 1462.774,186.156C1462.47,187.672 1462.774,188.885 1462.168,190.4C1460.652,195.554 1453.982,196.16 1449.132,198.283C1440.644,202.224 1437.916,213.137 1430.336,218.594C1428.518,219.806 1426.396,221.019 1424.88,222.535C1421.544,226.173 1421.848,231.933 1423.666,236.48C1425.182,241.027 1427.91,245.575 1428.214,250.728C1428.214,251.638 1428.214,252.546 1428.214,253.456C1427.91,256.79 1431.852,258.61 1434.278,256.184C1434.884,255.578 1435.49,254.972 1436.096,254.366C1438.824,251.638 1441.552,248.909 1442.766,245.271C1443.676,242.846 1443.978,239.511 1446.404,238.299C1448.222,237.389 1450.344,237.693 1452.164,237.389C1453.982,237.086 1456.104,234.964 1455.194,233.448C1451.86,231.023 1452.466,225.263 1456.104,223.747C1457.62,224.354 1459.136,225.263 1460.652,225.87C1464.29,224.354 1458.832,218.594 1460.652,214.956C1461.258,213.743 1463.076,212.834 1463.076,211.318C1463.076,209.499 1460.348,209.196 1458.53,209.499C1457.316,203.436 1461.562,196.767 1467.32,195.251C1467.32,196.464 1467.018,197.676 1467.018,198.889C1470.05,197.07 1472.778,195.251 1475.81,193.432C1476.416,194.948 1476.718,196.16 1477.326,197.676C1480.962,199.495 1483.692,191.613 1487.33,192.826C1488.238,193.129 1488.542,193.735 1489.452,194.342C1492.18,196.464 1496.726,194.948 1497.636,191.613C1500.364,179.184 1515.522,178.577 1528.558,177.365C1531.286,175.849 1535.53,174.333 1534.924,171.605ZM969.542,325C967.42,326.82 964.389,327.426 961.357,327.122C960.751,327.728 961.054,328.942 961.964,329.244C962.873,329.85 963.782,329.85 964.389,330.458C965.601,331.67 964.995,333.488 965.298,335.308C965.601,338.036 968.027,339.856 968.633,342.584C969.846,347.13 964.692,351.374 959.841,351.374C949.837,351.374 942.865,343.492 940.44,334.702C938.924,329.85 936.196,316.21 943.774,315.602C941.349,312.572 943.774,309.236 942.562,305.902C941.652,304.082 939.833,303.174 938.621,301.96C935.892,299.232 936.499,294.382 938.621,291.35C940.743,288.318 944.381,286.196 948.019,284.984C951.656,283.468 955.597,282.558 958.932,284.074C962.57,285.59 964.389,290.44 961.964,293.17C959.235,296.2 953.475,294.382 950.747,297.716C949.231,299.536 949.837,302.87 951.353,304.69C952.869,306.508 955.294,307.72 957.719,308.63C958.932,309.236 960.448,309.842 961.054,311.056C961.964,312.874 960.145,314.996 959.235,316.816C958.326,318.634 958.326,321.968 960.448,321.968C962.57,321.968 962.873,318.938 964.086,317.422C965.601,314.996 969.846,315.3 971.361,317.724C972.271,319.544 971.665,323.182 969.542,325ZM1218.432,232.236C1218.128,233.145 1217.522,234.055 1217.218,234.964C1216.916,235.874 1216.916,237.086 1216.612,238.299C1215.704,241.33 1212.974,243.452 1210.246,245.575C1208.428,246.787 1206.608,248.303 1205.396,250.425C1205.092,251.334 1204.486,252.244 1204.184,252.85C1201.454,257.398 1193.572,258.306 1198.726,251.94C1201.758,248 1206.306,242.543 1210.246,239.208C1211.458,237.996 1213.278,237.086 1213.884,235.57C1215.4,233.145 1214.49,230.114 1214.49,227.385C1214.49,224.657 1216.612,221.322 1219.34,221.929C1220.25,225.263 1219.948,228.901 1218.432,232.236ZM879.202,183.428C879.202,183.731 879.202,184.034 879.202,184.337C879.202,185.55 878.899,186.46 878.596,187.369C878.899,187.369 879.506,187.369 879.809,187.369C880.415,185.853 880.112,184.641 879.202,183.428ZM858.588,250.425C863.742,250.122 867.38,246.787 869.805,242.543C864.954,243.756 860.407,246.181 858.588,250.425Z" fill="#53A2AB" fill-opacity="0.44"/>
<path d="M897.997,283.166C893.753,284.985 888.903,284.682 884.961,287.107C883.447,288.017 882.234,289.835 881.627,291.654C881.021,291.958 880.415,292.261 879.808,292.564C868.592,298.93 872.836,284.985 862.225,284.985C851.918,284.985 854.95,302.265 850.402,300.749C849.19,303.477 851.009,306.509 850.402,309.237C850.099,310.147 849.493,311.056 849.19,311.966C848.887,312.572 848.887,313.178 848.583,313.786C845.855,316.816 843.43,320.152 841.611,323.79C841.611,323.486 841.308,322.88 841.308,322.576C838.882,320.152 834.335,322.88 833.426,326.214C832.516,329.55 834.032,333.186 835.245,336.522C836.154,339.856 836.457,343.798 834.032,346.526C832.819,347.738 830.697,348.648 832.516,351.68C833.123,352.892 834.638,353.196 835.851,352.892C838.579,352.588 841.005,357.44 838.276,357.742C833.426,358.348 829.788,353.196 828.272,348.648C826.756,344.1 825.847,338.644 821.603,335.916C819.481,334.702 816.752,334.096 815.843,331.672C814.327,328.034 818.874,323.79 817.359,320.152C815.54,316.514 809.78,318.03 806.748,315.3C804.323,313.178 804.626,308.631 802.201,306.509C800.988,305.296 799.169,304.993 797.654,304.387C792.5,302.568 788.559,298.324 786.437,293.473C783.405,294.08 784.012,298.324 785.224,300.749C790.378,310.753 798.866,318.938 808.87,324.092C805.536,325.608 804.02,329.55 802.807,332.884C800.685,338.038 798.866,343.19 796.744,348.344C793.713,348.042 790.378,347.436 787.953,345.616C785.527,343.798 784.012,339.856 786.134,337.432C789.468,340.766 796.138,339.554 797.957,335.308C800.079,331.064 796.744,325.304 792.197,324.698C794.016,319.242 787.953,314.392 782.496,312.269C777.039,310.147 770.37,307.418 769.46,301.658C767.035,299.536 762.791,300.446 760.062,302.568C757.334,304.69 754.909,307.418 751.877,308.328C748.846,309.54 744.298,307.722 744.298,304.084C742.783,305.599 740.964,306.812 739.448,308.328C743.086,309.237 740.964,315.3 737.629,317.12C734.294,318.938 729.444,319.848 728.534,323.79C728.231,325.304 728.534,326.82 728.534,328.336C728.534,330.762 727.322,332.884 726.412,335.006C723.684,340.16 720.349,346.222 714.286,347.132C710.951,347.738 705.495,348.042 706.101,351.68C701.251,347.436 694.278,345.314 687.912,346.526C688.215,343.494 688.821,340.462 689.124,337.432C687.002,337.128 684.577,336.824 682.455,336.522C685.79,331.672 687.002,325.304 685.79,319.544C684.88,316.21 683.971,311.966 687.306,310.753C685.487,309.237 684.274,307.418 683.668,304.993C688.215,302.871 693.672,302.871 698.522,304.387C700.644,304.993 702.463,306.206 704.585,306.812C710.648,308.631 717.924,306.509 721.259,301.355C724.593,296.202 723.381,288.017 717.924,284.985C714.893,283.469 711.558,283.166 708.829,281.65C706.101,279.831 704.585,275.284 707.314,273.465C709.739,277.103 714.893,278.012 718.53,275.89C717.015,273.162 716.105,269.827 716.408,266.493C718.834,265.583 722.168,268.008 721.865,270.737C726.412,270.737 730.96,267.705 732.475,263.461C733.082,261.945 733.082,260.43 734.294,259.217C735.81,257.701 737.932,257.398 740.054,256.489C744.905,254.67 747.936,248.607 746.421,243.756C752.787,240.725 759.759,239.512 766.732,239.815C764.307,235.268 761.578,230.417 761.881,225.264C762.185,220.11 766.429,214.653 771.582,215.26C772.492,218.291 772.189,221.626 771.582,224.657C773.098,224.96 774.614,225.264 776.13,225.567C772.795,228.295 769.46,233.449 773.098,236.177C775.826,238.299 779.767,235.571 783.102,236.177C784.618,236.48 785.831,237.39 787.346,237.996C794.016,239.815 800.685,228.598 806.142,232.539C807.961,233.752 808.87,236.48 812.205,236.177C814.024,235.874 815.54,234.661 816.449,233.146C818.268,229.811 817.662,226.173 817.965,222.535C818.268,219.504 819.784,215.866 822.815,215.26C826.15,214.35 829.485,217.078 832.819,217.382C838.579,217.988 843.127,210.106 839.792,205.255C835.245,208.59 829.788,210.409 824.331,209.803C822.815,207.074 826.15,203.74 829.182,202.527C839.489,197.98 851.312,196.464 862.225,198.586C864.347,196.767 861.316,193.736 858.891,192.523C856.465,191.31 853.737,188.279 855.859,186.46C848.583,183.428 842.217,193.736 834.335,194.039C826.15,194.342 821.603,183.732 824.634,176.153C827.666,168.574 835.245,164.027 842.217,160.086C837.67,152.81 825.544,152.204 820.087,159.176C820.693,164.633 818.571,170.696 814.327,174.334C810.083,177.972 802.807,181.609 804.323,187.066C805.536,191.917 813.418,194.342 812.508,199.192C811.599,203.74 804.02,203.74 802.201,208.287C800.988,211.319 803.413,215.26 801.898,218.291C800.382,221.323 795.835,221.323 793.106,223.445C791.287,224.96 790.075,227.083 788.559,228.598C786.74,230.114 783.708,230.72 782.496,228.902C781.283,227.083 782.799,224.657 783.708,222.232C786.437,215.866 782.496,208.893 778.555,203.133C770.673,202.527 766.732,217.382 759.456,214.35C757.334,213.441 756.121,211.319 755.212,209.5C752.484,204.346 749.452,198.889 748.239,192.826C747.33,186.763 748.239,180.397 752.484,175.85C757.94,170.09 767.338,169.786 773.401,164.633C780.374,158.873 781.89,148.263 789.468,143.412C794.016,140.381 800.685,138.865 801.291,133.408C796.441,133.711 791.59,134.317 786.74,134.621C788.862,130.68 794.319,128.558 798.563,129.77C796.744,125.829 801.291,121.585 805.536,120.979C809.78,120.372 814.327,121.585 818.571,120.372C821.906,119.463 824.634,116.734 827.969,115.522C830.697,114.309 834.032,114.006 837.064,113.703C840.398,113.4 844.036,113.4 847.371,113.703C840.701,119.766 835.851,128.254 837.973,136.743C841.005,150.081 858.284,160.995 851.918,173.121C857.981,171.909 864.044,170.393 869.804,171.909C872.836,172.818 875.867,174.637 877.989,177.062C877.686,179.487 879.505,181.609 880.718,183.732C880.718,184.035 880.718,184.338 880.718,184.641C880.718,185.854 880.415,186.763 880.111,187.673C874.958,187.369 863.135,184.944 868.895,193.432C871.32,190.401 872.533,192.22 875.564,191.917C876.777,191.917 877.989,190.401 877.383,189.491C877.989,189.491 878.596,189.491 879.505,189.491C878.596,191.917 877.08,194.039 875.867,196.161C871.623,205.559 874.655,216.472 874.958,227.083C875.261,232.539 874.048,238.299 871.32,242.847C871.926,242.847 872.533,242.543 873.139,242.543C884.961,240.421 898.301,243.453 905.577,253.154C911.639,262.248 909.215,278.619 897.997,283.166Z" fill="#53A2AB" fill-opacity="0.44"/>
<path d="M677.604,237.694C677.604,240.726 680.333,243.151 679.726,246.183C678.817,248.911 674.876,250.124 674.876,253.155C674.573,256.49 679.12,257.702 682.455,256.793C688.215,255.58 693.671,251.942 697.006,247.092C698.522,244.667 699.431,240.423 696.4,239.513C700.341,238.301 703.979,236.785 707.92,235.572C710.951,237.997 713.983,242.242 711.557,245.576C710.042,247.395 706.101,248.911 707.313,251.033C707.92,251.942 709.132,252.549 709.132,253.458C709.435,254.671 708.223,255.277 707.616,256.187C703.979,259.218 701.857,263.765 702.16,268.616C707.616,263.765 714.892,261.037 722.168,261.34C723.987,261.34 725.806,261.643 727.018,260.431C728.231,259.218 727.625,256.49 726.109,256.793C728.231,255.277 730.353,253.761 732.172,252.246C732.778,251.942 733.081,251.639 733.385,251.033C733.991,249.82 732.778,248.608 731.566,248.001C730.353,247.698 728.837,247.698 727.625,247.092C724.896,245.879 724.593,242.242 723.684,239.513C722.774,236.785 719.439,233.753 717.317,235.875C717.924,233.147 718.53,230.419 717.317,227.69C716.105,225.265 712.77,223.446 710.648,224.962C709.435,223.143 712.467,221.324 713.983,219.505C715.802,217.686 715.498,214.351 713.983,212.836C712.164,211.017 709.132,211.017 707.313,212.836C707.616,207.682 708.526,201.316 713.68,199.8C714.892,199.497 716.408,199.497 717.924,198.891C719.136,198.284 720.652,197.072 720.349,195.859C720.652,197.375 723.38,197.678 724.29,196.162C725.199,194.95 725.199,192.827 724.896,191.312C720.955,190.099 719.439,196.768 715.498,197.981C713.68,198.587 711.861,197.981 710.042,198.587C706.101,200.406 707.01,207.682 702.766,208.895C701.857,209.198 700.644,208.895 699.734,209.501C697.916,210.41 697.612,212.836 698.219,214.958C698.825,217.08 699.431,219.202 698.522,221.021C697.916,221.93 697.006,223.143 697.309,224.052C697.916,225.568 700.038,224.962 701.25,225.568C704.888,226.781 702.766,231.025 700.947,232.844C698.522,234.966 694.581,234.36 691.852,234.056C687.608,233.45 677.604,229.812 677.604,237.694Z" fill="#53A2AB" fill-opacity="0.44"/>
<path d="M767.643,321.971C767.036,321.668 766.733,321.062 766.127,320.759C767.643,320.455 768.552,318.94 768.855,317.121C768.855,315.605 768.249,314.089 767.339,312.877C766.43,311.361 764.611,309.845 762.792,310.451C760.67,311.361 760.367,314.392 761.276,316.818C761.883,318.94 763.095,321.668 761.58,323.79C762.489,323.487 763.398,323.79 764.005,324.396C760.67,326.518 760.064,333.188 764.914,333.491C769.765,333.794 770.674,327.731 765.824,326.518C765.824,326.215 767.946,321.971 767.643,321.971Z" fill="#53A2AB" fill-opacity="0.44"/>
<path d="M1317.562,374.416C1317.866,371.687 1318.169,368.656 1320.291,367.443C1320.897,369.262 1322.413,370.778 1323.929,371.687C1325.444,370.778 1326.354,369.262 1327.263,367.746C1328.173,366.231 1329.385,364.715 1331.204,364.412C1333.023,364.109 1334.842,365.928 1333.933,367.443C1338.48,369.262 1341.512,362.593 1345.453,360.168C1347.575,358.955 1350.303,358.652 1352.728,358.046C1355.154,357.439 1357.882,355.923 1358.185,353.195C1358.488,351.679 1357.882,350.164 1357.579,348.648C1357.579,345.616 1360.004,342.888 1361.52,340.159C1364.248,335.309 1364.248,329.246 1361.823,324.092C1360.307,321.364 1358.488,318.939 1357.579,316.21C1356.972,313.179 1358.488,309.541 1361.52,309.541C1362.429,311.966 1363.339,314.998 1366.067,315.907C1368.492,316.817 1371.827,313.785 1370.008,311.663C1372.737,310.753 1375.768,310.753 1378.8,311.057C1380.012,309.238 1379.709,306.509 1378.193,304.994C1387.288,301.659 1395.473,295.293 1401.536,287.714C1393.048,292.867 1384.863,298.021 1376.374,303.478C1375.465,304.084 1374.252,304.69 1373.04,304.387C1372.13,304.084 1371.524,302.872 1370.918,301.962C1368.795,297.718 1363.945,294.99 1359.095,294.99C1359.398,298.931 1360.004,302.872 1360.307,307.116C1357.579,306.509 1354.85,309.238 1354.244,311.966C1353.638,314.695 1354.244,317.726 1354.547,320.758C1355.457,331.065 1350.606,341.372 1342.421,347.435C1342.421,345.919 1342.421,344.1 1342.421,342.585C1338.177,343.191 1339.996,351.376 1336.055,353.498C1334.842,354.105 1333.63,354.105 1332.417,354.105C1326.354,354.711 1326.354,361.077 1319.685,358.652C1319.078,366.837 1308.771,365.321 1309.377,373.506C1309.68,380.479 1316.35,385.633 1317.562,374.416Z" fill="#10737F" fill-opacity="0.14"/>
<path d="M1371.524,246.485C1371.524,247.091 1371.827,247.697 1371.524,248.304C1371.221,249.516 1370.615,250.426 1370.008,251.335C1369.402,253.154 1370.615,255.276 1372.131,256.489C1373.646,258.005 1375.162,258.914 1376.072,260.733C1377.587,263.764 1376.375,267.705 1378.8,270.131C1378.194,271.95 1375.465,271.343 1373.949,270.131C1372.434,268.918 1370.615,267.705 1369.099,268.615C1367.28,271.343 1368.19,274.981 1369.705,278.013C1371.221,281.044 1373.04,284.076 1372.737,287.41C1372.737,288.926 1371.524,290.745 1370.008,290.442C1369.402,290.442 1369.099,289.836 1368.493,289.533C1366.371,287.41 1364.249,285.288 1363.945,282.56C1363.642,280.438 1364.249,278.619 1364.855,276.497C1366.067,272.253 1366.067,268.009 1365.461,263.764C1365.158,261.946 1364.855,260.127 1364.855,258.308C1364.855,254.973 1366.674,251.032 1364.855,248.304C1364.249,247.394 1363.339,246.485 1363.642,245.575C1364.552,243.756 1368.19,240.725 1369.705,239.209C1370.918,241.634 1371.221,244.059 1371.524,246.485Z" fill="#10737F" fill-opacity="0.14"/>
<path d="M1157.498,533.572C1160.226,535.694 1163.864,537.21 1165.38,540.241C1166.592,542.667 1166.592,545.698 1168.411,547.517C1169.321,548.427 1170.836,549.033 1172.049,549.942C1174.474,552.064 1173.868,556.309 1175.081,559.34C1176.899,563.887 1182.053,566.313 1182.963,570.86C1183.266,572.376 1182.962,574.195 1183.872,575.71C1185.085,578.439 1189.026,579.045 1191.148,581.47C1192.057,582.683 1192.663,583.896 1193.573,585.411C1195.998,588.746 1201.152,589.959 1205.093,588.14C1203.88,586.018 1202.971,583.593 1202.971,581.167C1202.971,579.652 1203.274,578.136 1202.971,576.923C1202.364,573.588 1199.03,571.163 1198.12,567.828C1199.636,566.616 1201.758,568.435 1202.668,569.951C1203.88,571.466 1205.699,573.285 1207.215,572.073C1204.183,568.132 1200.849,564.797 1197.211,561.765C1197.514,563.281 1195.695,564.191 1194.179,563.584C1192.967,562.978 1192.057,561.765 1191.451,560.553C1190.844,559.643 1190.238,558.734 1190.541,557.521C1190.541,556.612 1191.148,555.702 1191.148,555.096C1191.451,553.277 1190.238,551.458 1188.722,550.549C1187.207,549.336 1185.388,548.73 1184.175,547.517C1181.447,544.789 1181.144,540.241 1177.809,538.423C1176.293,537.513 1174.474,537.513 1172.655,536.907C1167.805,534.482 1166.895,527.206 1161.135,524.781C1153.253,520.536 1151.435,529.025 1157.498,533.572Z" fill="#10737F" fill-opacity="0.14"/>
<path d="M1206.607,588.442C1205.395,589.958 1204.182,591.777 1202.97,593.293C1202.666,593.596 1202.363,593.899 1202.363,594.506C1202.363,595.718 1204.182,596.021 1205.395,595.718C1209.336,595.112 1212.974,595.415 1216.915,596.324C1223.281,597.84 1229.344,601.478 1235.71,600.872C1236.62,600.872 1237.529,600.569 1238.742,600.872C1239.651,601.175 1240.864,601.478 1241.773,601.781C1244.198,602.388 1246.927,602.084 1248.746,600.872C1246.927,599.053 1244.198,599.356 1241.773,599.053C1239.348,598.75 1236.62,597.84 1236.316,595.415C1236.316,594.809 1236.316,594.202 1236.316,593.596C1236.013,592.383 1234.498,591.474 1232.982,591.474C1231.466,591.474 1230.253,591.777 1228.738,591.474C1226.312,591.171 1224.797,588.746 1222.371,588.442C1219.946,588.139 1219.037,589.958 1217.218,589.958C1213.277,590.261 1210.245,583.592 1206.607,588.442Z" fill="#10737F" fill-opacity="0.14"/>
<path d="M1261.48,602.388C1263.602,602.388 1265.421,603.904 1267.543,603.297C1268.149,602.994 1268.452,602.691 1269.058,602.691C1269.665,602.691 1270.271,602.994 1270.877,603.297C1276.334,605.723 1283.004,598.447 1288.46,600.872C1287.248,606.329 1279.972,608.148 1277.244,612.695C1282.094,612.089 1286.641,609.361 1289.976,605.723C1290.886,604.813 1291.795,603.601 1292.705,602.994C1293.311,602.691 1294.22,602.388 1294.827,601.782C1296.342,600.872 1297.252,599.053 1297.252,597.234C1295.736,597.234 1293.917,597.538 1292.401,598.447C1291.189,599.053 1290.279,599.963 1289.067,600.266C1286.945,600.872 1285.126,599.66 1283.004,599.356C1278.759,598.75 1274.515,603.297 1270.574,602.388C1269.058,602.085 1268.149,600.266 1266.33,599.963C1264.814,599.66 1262.086,600.266 1260.57,599.963C1258.448,599.66 1254.507,597.538 1252.991,599.66C1248.141,606.026 1260.267,602.388 1261.48,602.388Z" fill="#10737F" fill-opacity="0.14"/>
<path d="M1260.267,608.148C1261.176,607.238 1262.692,607.845 1263.601,608.754C1264.511,609.664 1265.117,610.876 1266.026,611.786C1267.239,612.392 1268.755,612.392 1269.664,611.482C1270.271,610.876 1270.574,610.27 1270.271,609.36C1269.967,608.754 1269.058,608.451 1268.452,608.148C1267.845,607.845 1266.936,607.541 1266.33,607.541C1265.117,607.238 1263.904,606.632 1262.389,606.935C1261.176,607.238 1259.66,608.148 1259.66,609.36Z" fill="#10737F" fill-opacity="0.14"/>
<path d="M1225.404,570.557C1222.979,570.86 1219.947,570.86 1219.038,568.738C1218.432,567.525 1219.038,566.01 1219.038,564.494C1219.038,562.069 1217.522,560.25 1216.613,558.128C1214.794,554.49 1214.187,550.549 1214.794,546.608C1215.097,545.698 1215.097,544.486 1216.006,543.879C1216.31,543.273 1216.916,542.97 1217.522,542.667C1219.644,541.454 1221.766,540.242 1224.192,539.332C1226.92,537.816 1229.951,536.301 1232.68,534.482C1239.349,529.934 1244.806,523.871 1248.444,516.596C1249.656,515.383 1251.779,516.596 1252.688,518.111C1253.597,519.627 1253.597,521.749 1255.113,522.962C1256.932,524.781 1261.176,525.387 1260.873,528.115C1260.873,529.328 1259.964,529.934 1259.054,530.844C1256.326,533.572 1255.416,537.816 1256.326,541.454C1257.235,545.092 1260.267,548.124 1263.905,549.336C1260.57,549.639 1256.326,550.852 1256.326,554.187C1256.326,556.309 1258.145,558.431 1256.932,560.25C1255.72,562.069 1252.688,561.159 1251.172,562.978C1249.96,564.191 1250.869,566.313 1250.869,568.132C1251.475,572.376 1248.141,576.923 1243.897,577.529C1242.078,577.833 1239.956,577.226 1239.046,575.711C1238.44,574.801 1238.44,573.892 1238.137,572.982C1236.621,569.344 1234.196,571.466 1231.77,571.466C1229.951,571.466 1227.526,570.254 1225.404,570.557Z" fill="#10737F" fill-opacity="0.14"/>
<path d="M1289.673,545.091C1289.976,545.091 1290.582,544.788 1290.885,544.788C1289.976,544.182 1289.066,544.485 1288.157,545.091C1287.247,545.697 1286.641,546.607 1286.035,547.213C1283.61,549.638 1280.275,551.154 1276.94,550.851C1274.818,550.548 1272.696,549.942 1270.574,550.245C1267.846,550.851 1266.027,552.973 1265.117,555.702C1264.814,556.914 1265.117,559.036 1266.33,558.733C1266.936,556.611 1269.058,554.792 1271.483,554.186C1273.605,553.579 1276.334,553.579 1278.456,553.883C1280.275,554.186 1282.094,554.792 1283.913,554.489C1285.732,554.186 1287.551,552.973 1287.854,551.154C1288.157,549.942 1287.247,548.426 1287.854,547.213C1288.46,546.001 1289.673,545.091 1289.066,544.182C1289.066,544.182 1290.279,545.091 1289.673,545.091Z" fill="#53A2AB" fill-opacity="0.44"/>
<path d="M1261.176,575.103C1262.085,579.044 1263.904,582.985 1262.389,586.623C1263.904,587.23 1265.723,586.017 1266.33,584.501C1266.936,582.985 1266.33,581.166 1266.026,579.348C1265.723,577.832 1265.117,576.013 1265.723,574.497C1265.723,574.194 1266.026,573.891 1266.33,573.588C1266.633,573.588 1266.633,573.588 1266.936,573.588C1269.058,574.194 1270.574,576.316 1271.18,578.135C1271.786,580.257 1271.786,582.379 1272.09,584.501C1272.393,585.714 1272.696,587.23 1273.908,588.139C1275.727,589.352 1278.456,587.836 1279.062,585.714C1279.668,583.592 1279.062,581.166 1278.759,579.044C1278.456,576.013 1278.153,572.375 1275.424,570.859C1274.212,570.253 1272.696,569.95 1272.393,568.737C1272.09,567.221 1273.605,566.009 1275.121,565.706C1276.334,565.403 1277.849,565.099 1279.062,564.796C1280.578,564.493 1282.7,564.19 1283.003,562.371C1283.306,560.552 1280.881,559.946 1279.365,559.643C1277.243,559.339 1275.121,559.036 1273.302,559.339C1271.18,559.643 1269.058,560.552 1268.149,562.371C1267.845,562.674 1267.845,563.28 1267.239,563.28C1266.633,563.584 1266.026,562.977 1265.723,562.674C1265.42,562.068 1265.117,561.462 1264.814,561.158C1260.873,555.398 1260.873,573.588 1261.176,575.103Z" fill="#10737F" fill-opacity="0.14"/>
<path d="M1298.161,571.466C1296.039,570.859 1293.614,570.859 1291.189,571.769C1290.886,571.769 1290.279,572.072 1290.279,572.375C1290.279,572.678 1290.886,572.981 1291.189,573.284C1293.311,573.891 1295.736,573.588 1297.555,572.678C1297.252,571.769 1296.039,571.466 1295.13,571.769Z" fill="#10737F" fill-opacity="0.14"/>
<path d="M1307.864,570.254C1306.651,569.648 1305.135,569.951 1304.226,570.558C1303.316,571.467 1302.71,572.68 1303.316,573.892C1305.438,574.499 1307.864,571.77 1309.986,572.68C1311.501,573.286 1312.108,575.105 1313.624,575.408C1314.836,575.408 1315.746,573.589 1315.139,572.68C1314.533,571.77 1313.017,571.77 1312.411,571.164C1310.895,569.951 1311.805,567.526 1313.017,565.707C1311.198,565.404 1309.986,567.223 1309.682,569.042C1309.682,569.951 1309.683,570.558 1309.076,571.164C1308.773,571.77 1307.864,572.377 1307.257,572.073Z" fill="#10737F" fill-opacity="0.14"/>
<path d="M1298.465,559.643C1298.465,560.249 1298.465,560.855 1298.768,561.462C1299.071,562.068 1299.677,562.371 1300.284,562.068C1300.587,561.765 1300.89,561.462 1301.193,560.855C1301.8,559.339 1302.406,557.824 1301.8,556.308C1301.496,555.702 1300.89,555.095 1300.89,554.489C1300.284,552.67 1302.406,551.457 1303.922,551.761C1303.618,549.335 1301.496,551.154 1301.496,548.426C1301.496,548.123 1306.044,546.304 1302.406,545.697C1296.949,545.091 1298.465,556.308 1298.465,559.643Z" fill="#53A2AB" fill-opacity="0.44"/>
<path d="M1319.079,556.611C1316.654,556.914 1314.228,556.611 1312.41,555.398C1310.591,556.914 1311.803,559.643 1313.622,560.855C1315.441,562.068 1317.866,562.371 1319.685,563.28C1321.504,564.19 1323.02,566.918 1321.807,568.737C1323.323,569.04 1324.839,569.647 1326.355,569.95C1326.658,571.466 1325.142,572.375 1323.929,573.284C1322.717,574.194 1321.504,576.316 1323.02,576.922C1323.626,578.135 1325.445,578.135 1326.961,577.225C1328.174,576.619 1329.689,575.407 1330.902,576.013C1331.811,576.316 1332.418,577.225 1333.024,577.832C1335.752,580.56 1339.997,581.166 1343.634,582.985C1347.272,584.804 1350.304,589.048 1348.485,592.383C1347.879,593.596 1346.363,594.505 1345.453,595.718C1344.544,596.93 1343.938,598.446 1344.544,599.659C1347.575,599.962 1350.91,598.749 1353.335,596.93C1355.761,599.659 1358.792,602.084 1362.43,602.994C1366.068,603.903 1370.312,602.387 1371.828,599.053C1372.131,598.446 1372.434,597.537 1372.737,597.234C1373.647,596.627 1374.556,596.93 1375.769,596.93C1378.8,597.84 1381.832,598.749 1384.56,600.265C1385.167,600.568 1385.773,600.871 1386.076,601.478C1386.379,602.387 1386.076,603.297 1385.773,603.903C1385.47,606.935 1389.108,609.057 1392.442,609.36C1396.686,609.966 1400.931,610.572 1405.478,610.572C1405.478,608.45 1403.356,606.935 1401.234,606.328C1399.112,605.722 1396.686,605.722 1395.171,604.206C1393.352,602.387 1393.049,599.356 1391.23,597.84C1389.714,596.627 1386.985,595.718 1387.592,593.899C1387.895,591.777 1391.533,592.08 1392.139,590.261C1392.442,589.048 1391.533,587.836 1390.32,587.23C1389.107,586.926 1387.895,586.926 1386.682,586.623C1383.651,586.017 1380.922,583.289 1380.619,579.954C1380.619,578.741 1380.619,577.529 1380.316,576.316C1379.71,574.497 1377.588,573.891 1375.769,573.284C1366.371,570.253 1357.276,567.221 1347.879,564.19C1346.666,563.887 1345.15,563.28 1343.634,563.887C1339.997,565.099 1340.3,571.466 1336.662,572.072C1334.843,572.375 1333.024,570.859 1331.811,569.343C1330.599,567.828 1328.477,566.009 1328.477,563.887C1328.477,562.371 1329.689,561.158 1329.689,559.946C1328.174,555.702 1322.717,556.308 1319.079,556.611Z" fill="#10737F" fill-opacity="0.14"/>
<path d="M1390.926,585.714C1391.23,586.017 1391.836,586.321 1392.139,586.321C1396.08,587.533 1400.324,586.927 1403.962,585.108C1405.175,584.502 1406.084,583.895 1407.6,583.592C1408.509,583.592 1409.419,583.592 1410.025,583.592C1410.935,583.592 1411.844,582.986 1411.844,582.076C1412.147,581.167 1411.541,580.257 1411.844,579.651C1412.45,579.045 1413.663,579.348 1414.269,578.439C1414.876,577.832 1414.269,576.62 1413.36,576.013C1410.631,573.285 1407.6,570.253 1404.568,567.828C1404.265,571.769 1406.994,576.013 1403.962,579.348C1402.446,581.773 1390.017,584.198 1390.926,585.714Z" fill="#10737F" fill-opacity="0.14"/>
<path d="M1429.125,597.84C1430.641,598.447 1432.156,598.447 1433.369,599.053C1434.885,599.659 1436.097,600.569 1436.401,602.084C1436.401,602.084 1436.401,602.084 1436.401,601.781C1435.794,597.84 1432.156,595.718 1428.518,593.899C1428.215,593.596 1427.609,593.293 1427.306,592.99C1427.306,592.687 1422.759,595.718 1429.125,597.84Z" fill="#53A2AB" fill-opacity="0.44"/>
<path d="M1469.443,671.204C1469.139,669.688 1468.533,668.172 1467.624,666.96C1466.714,665.747 1464.895,664.838 1463.379,665.141C1461.864,668.172 1464.289,671.507 1467.017,673.326C1468.836,674.539 1471.261,675.448 1473.383,676.357C1470.352,676.661 1469.746,673.326 1469.443,671.204Z" fill="#53A2AB" fill-opacity="0.44"/>
<path d="M1478.235,643.617C1479.448,646.649 1480.357,649.983 1480.963,653.318C1482.479,652.409 1482.782,649.983 1481.873,648.771C1483.086,649.68 1483.086,651.499 1483.086,652.712C1483.692,656.349 1486.723,659.684 1490.361,660.594C1490.968,659.381 1490.361,658.168 1489.755,657.259C1488.846,656.349 1487.936,655.743 1487.027,654.834C1485.208,653.318 1484.298,650.893 1484.298,648.468C1484.298,646.345 1484.601,643.617 1482.782,642.708C1482.479,643.617 1482.176,644.527 1481.873,645.436C1481.267,645.436 1480.964,644.83 1480.66,644.223C1479.448,641.192 1480.66,636.645 1477.629,634.522C1477.326,635.735 1476.416,637.251 1474.9,637.554C1474.9,639.979 1477.326,641.798 1478.235,643.617Z" fill="#53A2AB" fill-opacity="0.44"/>
<path d="M1441.249,598.75C1443.371,599.66 1446.1,599.357 1447.616,600.873C1449.131,602.388 1448.828,605.117 1450.344,607.239C1450.95,608.148 1451.86,608.755 1452.466,609.361C1453.072,610.27 1453.375,611.483 1452.769,612.392C1451.86,613.302 1450.041,612.696 1449.434,611.483C1448.828,610.27 1448.828,609.058 1448.525,607.542C1448.222,606.329 1447.919,604.814 1446.403,604.207C1445.19,603.904 1443.675,604.51 1442.765,603.601C1442.462,603.298 1442.462,602.995 1442.159,602.388C1440.946,599.054 1436.702,597.538 1436.096,594.203C1437.915,595.719 1439.127,597.841 1441.249,598.75Z" fill="#53A2AB" fill-opacity="0.44"/>
<path d="M1316.957,593.293C1314.835,595.112 1313.016,597.234 1311.197,599.356C1312.41,599.962 1314.229,599.659 1315.138,598.447C1316.048,597.234 1316.351,595.718 1315.442,594.506Z" fill="#10737F" fill-opacity="0.14"/>
<path d="M1331.206,584.502C1332.418,585.411 1333.631,586.927 1333.631,588.443C1333.631,589.959 1332.115,591.474 1330.6,591.171C1330.903,589.049 1331.206,586.624 1331.509,584.502Z" fill="#10737F" fill-opacity="0.14"/>
<path d="M1317.564,618.454C1316.351,616.029 1313.32,615.119 1310.894,616.635C1312.713,618.151 1313.016,621.486 1311.198,623.304C1310.288,624.214 1309.075,624.82 1308.166,625.426C1304.831,627.852 1304.831,633.612 1307.863,636.34C1306.347,637.25 1304.831,637.856 1303.316,638.765C1302.103,634.824 1299.071,631.186 1295.13,629.671C1289.674,633.005 1285.733,638.462 1284.217,644.525C1283.611,644.525 1283.004,644.828 1282.398,644.828C1282.095,646.647 1281.792,648.466 1281.488,650.285C1279.973,648.466 1279.67,646.041 1279.973,643.919C1276.638,644.525 1274.819,647.86 1274.213,651.195C1273.303,654.226 1272.697,657.864 1270.575,659.986C1268.756,661.805 1266.634,662.411 1264.209,663.018C1260.571,664.23 1257.236,665.14 1253.598,666.352C1250.567,667.262 1247.535,668.171 1246.019,670.9C1244.807,673.022 1243.897,676.356 1241.472,676.053C1240.563,676.053 1239.653,675.144 1238.744,674.841C1236.622,674.234 1234.803,676.66 1234.803,678.782C1234.803,680.904 1235.712,683.026 1236.319,684.845C1236.925,686.967 1236.925,689.392 1235.106,690.908C1236.925,690.908 1239.047,691.817 1240.259,693.333C1241.472,694.849 1241.472,697.274 1239.956,698.79C1238.441,700.002 1235.712,699.396 1235.409,697.274C1239.653,708.794 1242.685,720.92 1244.504,733.349C1245.11,738.503 1245.716,743.657 1243.291,748.204C1247.535,751.539 1253.598,751.842 1258.146,749.113C1260.571,747.598 1262.693,745.172 1265.421,743.96C1269.969,741.838 1275.729,743.05 1280.579,741.535C1285.126,740.019 1288.764,736.381 1293.615,735.775C1297.253,735.168 1301.194,736.078 1304.225,734.259C1305.741,733.349 1306.65,732.137 1308.166,730.924C1309.682,730.015 1311.501,729.408 1313.623,729.408C1321.202,729.105 1328.781,734.259 1330.599,741.535C1330.903,743.354 1331.206,745.172 1331.812,746.991C1332.418,748.81 1334.237,750.326 1336.056,750.023C1336.663,744.263 1341.816,739.412 1347.576,739.716C1347.879,741.535 1346.667,743.354 1345.151,744.566C1343.635,745.779 1342.119,746.991 1341.513,748.507C1340.907,750.023 1341.513,752.751 1343.332,752.751C1344.241,750.932 1345.454,749.417 1347.273,748.204C1350.305,750.932 1348.789,756.389 1345.151,757.602C1348.789,756.389 1353.942,756.086 1355.155,759.724C1355.458,760.633 1355.458,761.846 1355.458,763.059C1356.064,768.515 1361.824,771.85 1366.978,774.275C1367.887,774.882 1369.1,775.185 1370.313,774.882C1372.132,774.578 1373.344,772.456 1374.254,770.941C1375.466,769.425 1377.588,767.909 1379.104,769.122C1380.317,770.334 1379.71,772.456 1380.923,773.669C1382.136,775.488 1385.167,774.578 1386.683,772.759C1388.199,770.941 1389.108,768.818 1390.927,767.606C1394.565,765.484 1400.931,767 1402.144,763.059C1402.75,760.936 1400.931,758.814 1400.325,756.692C1399.415,753.358 1401.537,749.72 1404.266,747.294C1406.994,744.869 1410.026,742.747 1411.542,739.413C1413.967,733.956 1411.542,727.589 1412.451,721.526C1413.361,715.463 1418.211,709.703 1415.786,704.247C1414.876,702.125 1412.754,700.306 1412.148,698.184C1411.238,696.061 1411.542,693.333 1410.329,691.514C1409.419,690.302 1407.904,689.998 1406.691,689.089C1402.75,686.361 1402.75,680.601 1401.234,676.053C1398.506,667.565 1390.624,662.411 1385.167,655.439C1384.258,654.226 1383.348,652.71 1382.742,651.195C1382.136,649.376 1382.439,647.557 1382.439,645.435C1382.136,640.887 1379.407,636.643 1375.466,634.218C1374.557,633.612 1373.647,633.309 1373.041,632.399C1372.132,631.186 1372.132,629.671 1372.132,628.155C1371.828,622.698 1369.706,617.545 1366.372,613.604C1363.946,625.427 1361.521,637.25 1359.096,648.769C1357.58,649.679 1356.064,650.588 1354.245,650.588C1353.639,647.557 1352.73,644.525 1352.123,641.494C1348.789,641.797 1345.151,641.797 1342.119,640.281C1339.088,638.765 1336.966,635.128 1338.178,631.793C1338.785,629.974 1340.604,628.155 1339.391,626.639C1342.422,627.852 1345.151,623.001 1342.726,620.576C1339.088,616.938 1335.45,622.395 1331.812,622.092C1326.355,621.789 1322.414,615.726 1317.564,618.454Z" fill="#10737F" fill-opacity="0.14"/>
<path d="M1382.136,801.863C1382.136,802.773 1382.136,803.682 1382.742,804.289C1383.045,804.592 1383.348,804.592 1383.651,804.592C1386.077,804.895 1389.411,804.289 1390.321,802.167C1390.927,800.348 1389.714,797.922 1390.321,796.104C1390.624,795.497 1390.927,794.891 1391.23,794.285C1392.14,792.769 1392.746,790.95 1392.14,789.434C1391.837,787.918 1390.018,786.403 1388.502,786.706C1387.592,787.009 1386.683,787.615 1385.773,787.615C1383.045,788.222 1374.557,782.159 1375.466,789.131C1375.769,791.253 1378.801,793.072 1379.71,794.891C1381.529,796.71 1382.136,799.438 1382.136,801.863Z" fill="#10737F" fill-opacity="0.14"/>
<path d="M1477.325,813.99C1475.506,814.596 1473.384,814.899 1471.565,816.112C1470.049,817.324 1469.139,820.053 1470.958,821.265C1472.171,822.175 1473.99,821.872 1475.506,822.175C1478.84,823.084 1479.144,827.632 1478.84,831.269C1481.266,832.179 1483.691,830.36 1484.903,827.935C1486.116,825.813 1487.025,823.084 1489.148,821.872C1490.663,820.962 1492.482,820.659 1493.392,819.446C1494.907,817.628 1493.998,814.899 1494.301,812.777C1495.514,807.017 1503.699,806.714 1505.821,801.257C1507.337,797.316 1510.065,790.041 1505.518,789.131C1494.604,787.312 1487.026,810.655 1477.325,813.99Z" fill="#53A2AB" fill-opacity="0.44"/>
<path d="M1512.794,793.072C1512.794,793.375 1512.794,793.678 1513.097,793.981C1513.4,794.588 1514.613,794.285 1514.916,793.981C1518.251,791.253 1516.129,785.493 1518.857,782.158C1519.766,780.946 1520.979,780.34 1522.192,779.43C1525.829,776.702 1527.952,772.154 1527.952,767.607C1526.436,768.517 1524.617,769.426 1522.798,769.729C1520.979,770.032 1518.857,769.426 1517.644,767.91C1516.432,766.091 1516.735,763.363 1515.522,761.544C1514.007,759.422 1510.975,759.119 1509.156,756.997C1507.64,755.178 1507.337,752.449 1507.034,750.024C1506.731,747.599 1505.518,744.871 1503.093,744.567C1498.243,750.024 1507.64,756.997 1508.853,761.544C1510.066,766.091 1507.64,767.304 1505.821,770.942C1504.002,774.883 1502.79,777.914 1506.428,780.946C1508.853,782.765 1510.672,780.036 1512.794,783.674C1514.007,785.493 1512.794,790.95 1512.794,793.072Z" fill="#53A2AB" fill-opacity="0.44"/>
<path d="M1264.208,466.575C1263.905,467.485 1263.602,468.091 1263.602,469C1263.602,471.729 1266.936,473.548 1266.936,476.276C1266.936,477.489 1266.633,478.398 1266.633,479.611C1266.633,480.824 1267.239,482.036 1268.452,482.036C1269.362,482.036 1269.968,481.127 1270.877,480.52C1271.484,479.914 1272.696,479.308 1273.302,480.217C1273.606,480.52 1273.606,481.127 1273.606,481.43C1273.302,484.461 1272.393,487.19 1271.18,489.918C1272.696,490.524 1274.515,489.615 1275.425,488.099C1276.334,486.583 1276.334,484.765 1276.637,483.249C1276.637,482.339 1276.637,481.43 1276.334,480.824C1275.728,479.611 1274.515,479.005 1273.606,478.095C1272.09,476.276 1272.09,473.548 1272.999,471.426C1273.909,469.304 1275.425,467.182 1276.334,465.059C1276.637,464.453 1276.637,463.847 1276.637,463.24C1276.637,462.634 1276.031,462.028 1276.031,461.422C1275.425,459.906 1275.121,458.39 1274.818,456.874C1272.393,442.929 1265.117,464.453 1264.208,466.575Z" fill="#53A2AB" fill-opacity="0.44"/>
<path d="M1290.582,488.099C1290.885,490.524 1289.672,493.252 1287.853,494.768C1287.55,495.071 1286.944,495.374 1286.641,495.981C1285.731,497.8 1287.853,499.315 1289.369,500.528C1294.22,504.166 1294.826,512.351 1290.582,516.898C1290.278,517.201 1289.672,517.808 1289.369,518.111C1289.066,518.717 1289.066,519.324 1289.066,519.93C1289.066,522.658 1289.369,525.084 1290.278,527.509C1287.853,528.721 1284.519,526.599 1283.609,523.871C1282.7,521.143 1283.306,518.111 1283.609,515.383C1283.912,514.473 1283.912,513.26 1283.306,512.351C1282.396,510.835 1279.971,511.138 1278.759,512.351C1277.546,513.564 1277.243,515.383 1276.636,516.898C1276.03,518.414 1275.424,520.233 1273.908,521.143C1272.695,515.383 1277.546,509.319 1283.306,508.713C1284.519,508.713 1286.034,508.713 1286.944,508.107C1288.156,507.501 1288.763,505.682 1287.853,505.075C1286.641,505.075 1286.337,503.56 1286.337,502.65C1286.337,501.741 1286.641,500.225 1285.731,499.619C1284.822,499.012 1283.306,499.619 1282.7,500.528C1282.093,501.438 1281.79,502.65 1281.184,503.56C1280.274,505.075 1278.455,505.985 1276.636,505.379C1276.636,502.953 1278.152,500.225 1280.274,499.316C1278.152,498.709 1276.03,497.497 1275.424,495.375C1274.514,493.252 1276.03,490.524 1278.152,490.827C1279.062,492.646 1279.668,494.768 1280.578,496.587C1282.093,497.497 1284.518,496.587 1285.428,494.768C1286.337,492.949 1286.337,490.827 1286.034,489.008C1288.156,490.221 1290.582,487.189 1289.672,484.764C1289.066,483.551 1287.853,482.642 1286.641,482.339C1289.066,484.158 1290.278,485.977 1290.582,488.099Z" fill="#53A2AB" fill-opacity="0.44"/>
<path d="M965.298,111.884C966.814,110.975 965.601,108.246 964.086,107.64C962.267,107.034 960.448,107.64 958.629,107.64C956.81,107.64 954.688,106.731 954.385,104.912C954.385,104.305 954.385,103.699 954.688,103.396C955.901,100.364 959.538,99.152 961.964,97.03C965.601,93.392 965.905,87.632 969.239,83.691C973.787,78.234 981.972,77.931 987.732,73.687C989.551,72.474 991.066,70.655 992.885,69.443C997.736,66.411 1003.799,66.714 1009.559,66.714C1017.138,66.411 1024.413,64.895 1031.386,62.167C1029.87,69.14 1021.685,71.565 1014.712,73.384C1010.165,74.596 1005.618,75.809 1001.071,77.325C995.311,79.144 989.551,81.569 985.003,85.51C980.153,89.451 976.818,94.908 976.515,100.971C976.515,104.305 980.153,110.975 978.031,113.4C975.302,116.432 968.027,113.097 965.298,111.884Z" fill="#53A2AB" fill-opacity="0.44"/>
<path d="M1140.521,30.943C1138.702,31.549 1137.186,32.156 1135.367,32.459C1136.883,34.884 1140.218,36.097 1142.946,35.187C1145.978,34.278 1148.706,31.549 1151.434,32.762C1152.041,33.975 1150.525,35.49 1149.312,36.097C1148.1,36.703 1146.584,38.522 1147.797,39.734C1148.1,40.038 1148.403,40.038 1148.706,40.341C1154.769,42.16 1161.742,40.644 1167.502,43.372C1169.32,44.282 1171.139,45.494 1172.958,45.494C1175.08,45.494 1176.899,42.766 1175.384,41.553C1174.474,40.644 1172.655,40.644 1172.352,39.431C1171.746,37.006 1177.203,36.097 1175.99,33.975C1172.049,33.975 1168.108,34.278 1164.167,34.278C1162.954,34.278 1161.135,34.278 1160.529,33.065C1160.226,32.459 1160.226,31.549 1159.923,30.943C1159.316,30.337 1158.407,30.337 1157.498,30.337C1155.375,30.64 1153.253,30.64 1151.131,30.943C1155.679,30.337 1161.742,28.215 1166.289,27.002C1160.226,19.726 1142.946,20.333 1140.521,30.943Z" fill="#53A2AB" fill-opacity="0.44"/>
<path d="M1195.392,40.643C1195.392,38.218 1191.754,37.005 1189.328,38.218C1186.903,39.431 1185.691,41.553 1184.175,43.675C1182.356,46.1 1179.931,48.222 1177.809,50.344C1183.872,49.435 1189.632,48.828 1195.695,47.919C1198.12,47.616 1200.848,47.009 1201.455,44.887C1199.029,43.372 1196.604,42.462 1193.573,42.159Z" fill="#53A2AB" fill-opacity="0.44"/>
<path d="M1351.214,76.718C1351.82,76.415 1352.729,75.809 1353.639,75.506C1356.974,74.596 1360.005,79.447 1363.34,78.841C1364.856,78.537 1365.765,77.325 1367.281,76.718C1370.616,75.506 1374.253,78.841 1377.285,76.718C1381.226,73.99 1379.71,71.565 1376.376,70.352C1373.344,69.14 1369.1,70.352 1365.765,69.443C1363.34,68.836 1361.218,67.321 1358.793,66.411C1353.336,63.986 1344.848,60.348 1341.21,67.321C1337.572,73.384 1344.847,80.659 1351.214,76.718Z" fill="#53A2AB" fill-opacity="0.44"/>
<path d="M1399.113,75.203C1396.688,73.384 1393.959,71.868 1390.928,70.958C1390.625,70.958 1390.019,70.655 1389.715,70.655C1388.2,70.655 1387.29,72.777 1387.593,74.293C1388.2,75.809 1389.715,76.718 1391.231,77.022C1392.747,77.325 1394.263,77.022 1396.082,77.022C1399.416,76.718 1402.751,77.022 1406.086,77.931C1406.692,75.809 1404.57,73.687 1402.448,73.384C1400.326,73.081 1398.204,73.99 1396.385,74.899Z" fill="#53A2AB" fill-opacity="0.44"/>
<path d="M1368.492,87.328C1366.673,86.419 1364.551,85.813 1362.732,85.51C1361.519,85.206 1360.004,85.813 1360.307,86.722C1360.307,87.025 1360.913,87.328 1361.216,87.632C1363.945,89.147 1366.976,90.36 1370.008,91.269C1371.524,91.573 1373.342,91.573 1373.949,90.36C1374.252,89.451 1373.646,88.238 1372.736,87.632C1370.917,86.116 1368.189,85.51 1365.764,86.116Z" fill="#53A2AB" fill-opacity="0.44"/>
<path d="M777.948,43.675C780.677,45.191 783.708,45.494 786.437,46.707C789.468,48.223 791.894,51.557 792.5,54.892C792.803,57.014 792.803,59.439 794.016,61.258C795.835,63.987 799.776,63.987 802.201,62.168C804.626,60.349 805.839,57.014 805.839,53.983C805.839,51.557 805.536,48.829 807.051,47.01C807.658,46.404 808.87,45.797 809.78,45.494C811.599,44.888 813.721,44.282 815.843,44.585C817.965,44.888 819.784,46.707 819.784,48.526C819.784,50.951 817.055,53.376 817.965,55.498C821.906,55.498 825.847,55.498 829.788,55.195C831,53.68 830.091,51.254 828.575,50.345C827.059,49.132 824.937,49.132 823.118,48.223C821.299,47.313 819.784,45.797 820.087,43.675C820.693,40.947 824.937,41.25 827.666,41.25C835.548,41.553 842.52,34.278 842.217,26.396C835.245,25.486 831.91,32.762 826.15,34.884C821.299,36.4 818.874,33.671 814.63,34.278C810.083,34.581 808.87,37.612 805.232,38.522C799.776,39.734 795.835,37.006 790.075,36.4C785.83,36.097 766.429,36.703 777.948,43.675Z" fill="#10737F" fill-opacity="0.14"/>
<path d="M708.83,10.934C704.586,18.513 697.006,24.273 688.518,26.698C684.578,27.911 680.03,28.214 676.998,31.246C675.18,33.065 673.966,35.49 673.058,37.915C671.238,42.462 669.116,47.313 669.116,52.466C669.116,57.62 671.238,62.774 675.786,65.199C669.42,68.23 668.814,78.841 674.876,82.479C672.452,88.542 662.448,85.207 657.596,89.451C653.958,92.786 655.474,98.849 657.596,103.396C659.718,107.944 662.75,113.097 660.932,117.645C654.262,114.916 647.29,112.491 640.62,109.763C638.194,115.219 645.47,122.192 650.624,119.16C645.47,128.255 631.828,126.436 622.127,130.983C611.82,135.531 606.363,147.657 596.056,151.901C590.902,154.023 585.142,154.023 579.989,156.448C574.835,158.57 570.591,164.633 573.016,169.484C573.623,170.393 574.229,171.303 574.229,172.515C574.229,173.728 573.016,174.334 572.107,175.244C563.922,182.216 563.618,194.949 564.225,205.862C561.193,207.984 556.949,204.952 555.433,201.618C553.918,198.284 553.008,194.342 549.977,192.22C546.945,190.098 542.701,191.311 539.366,189.795C536.335,188.583 534.212,185.551 532.394,182.519C529.059,177.063 525.724,171.909 522.39,166.452C519.661,161.905 516.63,157.358 515.72,151.901C514.811,146.747 516.933,140.684 521.48,138.259C524.815,136.44 530.271,134.015 527.846,130.983C527.24,130.377 526.331,130.074 525.724,129.771C519.661,127.649 513.598,125.527 507.232,123.101C509.657,115.826 518.145,110.975 525.724,112.794C528.453,108.247 522.086,103.396 516.933,103.699C511.779,103.699 506.019,105.822 501.775,102.487C505.716,97.03 505.413,89.148 502.381,83.388C499.35,77.325 493.59,73.081 487.224,70.352C484.495,69.14 481.464,68.23 478.432,68.23C473.582,68.23 469.034,70.352 464.487,70.352C457.818,70.352 451.452,66.108 447.814,60.348C443.873,54.892 442.054,48.222 439.932,41.856C445.388,44.888 452.664,44.888 457.515,41.553C462.668,37.915 464.79,30.336 461.456,25.183C468.428,23.667 475.097,22.151 482.07,20.635C483.889,20.332 485.708,19.726 487.224,18.816C489.043,17.604 490.558,15.482 492.074,14.269C495.409,11.541 499.956,10.934 504.2,10.328C515.72,9.115 527.24,7.903 539.063,6.387C541.185,6.084 543.61,5.781 545.732,6.387C551.492,7.903 556.646,14.875 561.8,11.844C562.103,9.722 561.193,7.296 559.981,5.478C566.347,2.446 573.926,3.355 581.201,3.355C595.753,3.659 610.001,0.324 624.249,0.021C638.497,-0.282 652.746,2.749 665.478,8.206C661.234,11.237 656.08,13.36 650.928,14.269C654.262,13.966 657.596,14.572 660.932,16.088C658.506,15.178 647.29,23.97 645.47,25.486C651.534,30.336 665.176,20.332 671.238,17.301C683.062,12.147 695.188,8.812 708.83,10.934Z" fill="#53A2AB" fill-opacity="0.44"/>
<path d="M687.003,165.239C683.668,166.452 680.637,168.271 677.908,170.696C675.483,172.818 672.755,175.547 669.42,174.94C666.085,174.334 664.57,170.696 663.357,167.664C661.841,164.633 659.113,161.601 656.081,162.511C657.9,160.389 659.416,158.57 661.235,156.448C657.294,155.841 653.05,155.235 649.109,154.629C648.199,154.629 646.987,154.326 646.38,153.416C644.865,151.597 646.987,149.172 649.412,148.263C654.565,146.747 660.022,149.172 663.66,152.81C665.176,154.326 667.298,156.145 669.42,155.538C670.633,154.932 671.239,153.416 672.148,152.204C674.27,149.475 678.211,149.172 681.849,149.475C687.609,150.082 699.432,145.837 701.554,152.81C703.979,160.692 691.55,163.42 687.003,165.239Z" fill="#10737F" fill-opacity="0.14"/>
<path d="M183.767,111.581C168.609,117.947 152.542,124.313 136.172,124.01C128.896,124.01 121.924,122.494 114.951,121.281C99.49,118.553 84.029,115.522 69.781,109.155C65.84,107.336 62.202,105.517 57.958,105.214C53.411,104.911 48.864,106.73 44.619,108.852C31.887,115.218 20.367,123.404 10.666,133.711C20.973,135.227 30.371,141.29 36.737,149.475C31.887,151.9 25.218,149.778 22.792,144.927C16.426,143.109 8.544,148.262 7.938,154.932C7.331,161.601 13.698,168.27 20.67,167.664C23.095,164.632 26.733,162.207 30.674,161.904C32.493,164.936 34.312,168.27 36.131,171.302C32.796,175.243 27.036,175.546 22.186,176.759C17.336,177.971 11.576,181.306 12.182,186.46C13.091,194.948 29.462,195.554 28.552,204.042C28.855,201.314 62.202,198.889 46.135,217.988C43.71,221.019 39.769,223.141 35.828,222.838C37.041,225.87 36.737,229.811 34.312,231.933C31.887,234.055 27.036,233.448 26.43,230.114C23.702,235.571 16.729,237.086 10.666,237.693C10.06,240.118 9.15,242.543 8.544,244.968C7.938,241.937 3.997,240.118 1.268,241.634C-1.46,243.149 -1.763,247.697 0.662,249.516C2.784,251.335 6.119,251.031 8.847,250.425C10.06,250.122 11.272,249.819 11.879,248.909C12.182,248.303 12.182,247.697 12.182,247.09C12.182,243.756 15.213,241.33 18.245,240.118C21.277,238.905 24.611,238.905 27.643,237.996C32.796,236.783 37.344,234.055 41.588,230.72C46.135,227.082 50.076,222.838 55.23,220.11C57.049,219.2 59.171,218.291 61.293,217.078C75.238,208.59 66.446,193.735 86.758,191.007C87.061,193.735 85.242,196.767 82.211,197.676C88.88,202.527 95.852,187.369 103.734,190.097C105.857,191.007 107.372,192.826 109.191,194.342C112.526,196.767 117.376,196.767 121.621,197.07C138.597,198.586 154.058,211.015 158.908,227.385C166.184,225.263 172.55,233.145 176.188,239.815C182.251,251.031 188.314,262.248 194.378,273.465C198.319,280.438 202.26,287.714 204.078,295.596C206.808,306.812 205.898,318.634 208.626,330.154C211.354,341.372 219.842,352.892 231.666,352.588C233.484,370.17 238.638,387.45 246.824,403.214C242.882,407.156 249.248,413.218 254.706,414.734C260.162,416.25 267.134,420.192 265.012,425.344C271.38,418.372 263.194,407.458 255.616,402.002C247.734,396.546 238.638,387.148 243.488,378.962C246.218,376.234 250.764,379.266 251.978,382.904C253.19,386.542 253.19,390.786 255.616,393.514C257.738,395.938 261.374,396.546 264.104,398.364C274.41,404.428 272.288,421.708 282.292,428.376C285.93,430.802 290.78,431.408 293.812,434.44C295.934,436.562 297.148,439.594 298.662,442.624C303.816,452.326 314.426,457.782 324.43,462.936C327.462,464.452 330.19,465.968 333.222,467.18C349.896,475.366 366.266,483.854 382.94,492.038C384.456,492.948 386.274,493.554 388.094,492.948C394.762,490.22 381.12,478.094 386.88,473.546C378.696,469.606 370.51,465.664 362.628,461.724C367.782,457.176 368.388,448.688 364.144,443.232C367.176,442.624 369.6,439.896 370.208,436.864C366.57,433.226 360.204,436.258 357.172,440.502C354.444,444.746 353.23,450.204 349.592,453.842C341.104,462.026 326.25,453.236 322.916,442.018C319.58,430.802 323.522,418.978 324.734,407.156C325.34,402.608 325.644,397.152 329.282,394.12C337.77,387.45 350.2,401.396 360.204,397.152C363.842,395.332 366.266,391.392 369.904,389.27C375.968,385.632 384.456,388.966 388.7,394.726C392.944,400.486 394.156,407.762 395.066,414.734C397.188,418.07 402.644,414.432 402.342,410.49C402.038,406.55 399.006,403.822 396.884,400.486C391.428,392.302 393.854,379.872 402.038,374.416C409.314,369.262 421.138,367.442 421.44,358.652C421.744,352.892 416.286,348.344 416.286,342.584C415.984,337.734 419.924,333.49 423.26,329.852C433.264,319.848 443.268,309.844 452.968,299.84C455.394,297.414 458.122,294.988 461.456,295.292C464.792,295.596 466.61,301.052 463.578,302.264C475.402,302.568 490.862,299.84 491.772,288.32C486.922,292.564 481.464,295.596 475.402,297.414C474.796,291.958 476.312,286.198 479.948,281.65C475.704,274.071 465.094,271.949 456.91,274.677C448.724,277.406 442.054,283.468 435.688,289.228C445.086,278.012 458.122,268.614 472.674,266.795C478.13,266.189 484.194,266.492 489.044,263.764C495.714,259.823 501.776,250.122 508.446,253.76C503.594,262.248 498.744,271.04 493.59,279.528C498.744,279.224 504.202,278.618 509.354,278.315C511.478,281.954 512.69,286.198 512.386,290.442C518.752,290.138 527.848,285.59 524.816,279.832C523.3,276.799 519.36,276.193 516.934,274.071C509.962,268.311 515.418,256.488 511.78,248C509.962,243.756 506.324,241.027 502.686,237.996C487.832,225.87 476.008,209.802 469.036,191.613C467.216,195.857 465.398,200.405 461.76,203.133C458.122,205.861 452.058,205.861 449.634,201.92C448.42,199.798 448.42,197.07 447.814,194.645C446.298,189.188 441.146,185.55 435.992,182.822C430.232,179.184 423.26,175.546 416.59,177.668C409.92,179.79 408.404,191.613 415.378,192.826C409.01,193.129 409.314,202.83 412.952,208.287C416.59,213.44 421.744,220.11 418.106,225.263C415.074,230.114 407.192,229.507 404.16,234.358C401.128,238.905 404.464,244.665 406.586,249.819C409.01,254.669 408.708,262.551 403.554,263.461C399.006,264.37 395.672,259.217 394.762,254.366C393.55,247.09 394.46,239.208 391.124,232.842C387.79,226.476 376.876,223.141 373.542,229.811C371.724,223.141 366.266,217.684 359.9,215.562C354.444,214.047 348.684,214.35 343.53,211.925C335.95,208.287 332.616,199.798 329.888,191.613C339.892,185.853 350.2,179.487 354.746,169.18C355.96,166.451 356.566,163.117 358.99,160.995C361.112,159.176 363.842,158.569 366.266,156.75C368.388,155.235 369.904,151.597 367.782,149.778C370.814,147.959 374.148,147.353 377.482,147.959C383.242,155.841 365.66,169.18 373.846,174.03C378.392,176.759 383.242,171.302 385.364,166.451C389.002,167.967 392.64,169.483 396.278,170.696C400.826,167.058 395.37,159.782 390.216,157.054C384.758,154.325 378.09,149.475 380.818,144.018C385.668,144.018 390.518,143.715 395.066,143.715C395.37,139.168 392.338,134.62 388.094,133.104C390.518,129.163 392.944,125.526 395.37,121.585C393.246,119.159 389.61,117.947 386.274,118.856C395.976,117.34 405.374,114.612 414.164,110.065C421.44,118.25 428.11,126.738 434.476,135.53C435.386,137.045 436.598,138.561 436.598,140.38C436.598,144.321 432.05,145.837 428.716,147.656C425.382,149.475 423.26,155.538 427.2,156.447C426.594,159.176 422.35,159.176 420.228,157.66C418.106,156.144 415.68,153.719 412.952,153.719C407.496,154.022 408.404,163.42 413.558,165.239C418.712,166.755 423.866,163.42 428.412,160.388C438.416,169.483 450.544,176.455 463.578,180.7C458.426,179.487 454.484,174.03 455.394,168.573C461.456,170.392 467.216,173.121 472.37,176.759C476.918,171.302 471.158,163.723 465.398,159.782C459.638,155.841 452.362,151.294 453.272,144.321C460.85,144.018 468.43,148.565 472.066,155.235C474.796,151.294 477.826,147.05 480.556,143.109C477.22,132.498 456.606,135.53 454.484,124.616C454.18,122.494 454.484,120.069 453.272,118.25C451.15,115.522 447.208,117.037 443.57,116.734C431.748,116.431 424.774,96.726 413.862,101.273C418.408,92.785 405.374,81.871 397.794,87.934C402.038,89.45 406.586,91.572 408.102,95.816C409.618,100.061 405.07,105.517 401.432,103.395C397.492,101.273 399.31,94.907 397.188,90.966C394.46,86.116 386.578,87.025 383.546,91.572C380.514,96.12 380.818,102.183 382.03,107.336C379.302,107.336 376.876,107.336 374.148,107.033C373.542,99.758 375.058,92.179 378.392,85.509C375.36,80.962 368.388,85.206 365.054,89.753C361.416,94.301 357.778,99.151 356.868,104.911C355.656,110.671 358.082,117.34 363.538,119.463C366.872,120.675 371.116,120.069 374.452,121.281C382.334,124.313 379.302,139.168 370.814,138.864C368.086,134.62 366.57,129.467 366.266,124.616C362.022,125.829 358.384,127.951 355.05,130.679C350.806,120.372 345.046,110.671 338.072,102.486C339.892,99.151 341.408,95.816 343.226,92.785C350.2,95.816 358.688,88.541 357.172,81.265C351.412,79.749 345.652,77.93 339.892,79.446C334.132,80.659 328.978,86.116 329.584,91.875C330.19,95.513 332.616,98.242 333.526,101.576C334.436,104.911 332.314,109.762 328.978,109.155C327.16,117.34 344.742,117.644 345.652,126.132C346.258,132.195 338.072,134.317 332.314,134.317C334.132,140.077 333.828,146.443 331.706,151.9C327.16,143.412 329.584,132.195 337.164,126.132C332.616,119.159 322.308,117.037 315.336,121.585C318.064,125.526 322.006,128.557 326.554,129.77C324.128,132.498 321.702,135.227 319.278,138.258C314.124,134.62 306.848,137.349 300.482,137.955C294.116,138.258 286.234,131.286 290.78,126.738C286.84,124.313 281.686,123.707 278.048,126.132C274.41,128.86 274.108,135.53 278.048,137.349C269.56,139.471 255.312,124.01 249.248,135.833C245.308,123.707 239.244,120.069 226.816,119.463C218.63,119.159 194.681,113.096 190.436,119.766C187.102,120.069 183.767,111.581 183.767,111.581Z" fill="#10737F" fill-opacity="0.14"/>
<path d="M206.504,79.447C201.957,80.053 199.229,85.207 198.622,89.754C198.016,94.302 198.622,99.455 196.197,103.396C195.591,104.306 194.985,105.215 194.681,106.428C194.075,109.763 198.319,111.885 201.654,111.278C211.052,109.763 217.115,97.03 226.513,98.546C226.513,100.971 226.816,103.699 226.816,106.125C232.879,106.125 239.245,105.215 245.308,103.396C247.127,104.609 246.218,107.64 244.095,108.55C241.973,109.459 239.851,109.156 237.729,109.459C235.607,109.763 233.182,110.672 232.879,113.097C237.123,111.885 241.367,110.672 245.611,111.581C249.855,112.491 253.796,115.826 253.796,120.373C247.733,120.07 241.67,120.373 235.91,120.979C239.245,124.92 245.308,124.314 250.159,124.92C255.312,125.527 261.375,129.468 259.556,134.318C266.529,127.042 277.746,124.617 287.143,128.558C289.569,129.468 291.691,130.68 294.116,131.287C296.541,131.893 299.573,131.287 300.785,129.164C301.998,127.042 300.785,123.405 298.36,123.708C301.695,123.405 304.423,120.676 305.333,117.645C299.876,119.464 293.206,116.432 290.781,110.975C288.659,106.125 289.872,99.758 286.234,95.818C289.265,96.727 292.6,93.089 291.691,89.754C290.781,86.42 287.446,84.601 284.112,84.298C281.99,84.298 279.564,84.904 278.352,86.723C277.139,88.542 277.442,91.27 279.261,92.483C276.836,91.27 274.108,90.058 271.682,88.845C270.773,95.211 282.899,98.849 280.171,104.609C278.352,108.247 271.986,105.822 271.379,101.881C270.773,99.152 271.379,95.818 268.954,94.605C264.407,92.483 261.072,103.699 256.525,100.971C256.828,98.546 257.131,95.818 257.434,93.392C251.674,93.089 245.914,94.908 241.973,98.849C242.58,96.424 242.883,93.999 243.489,91.573C237.426,88.239 231.363,100.062 224.694,97.94C231.06,100.062 245.308,87.632 234.091,82.479C231.363,81.266 225.906,83.085 222.875,83.085C217.115,82.176 211.658,78.841 206.504,79.447Z" fill="#53A2AB" fill-opacity="0.44"/>
<path d="M234.091,53.377C229.847,51.255 224.39,53.68 220.752,56.711C217.114,59.743 214.083,63.987 209.535,66.109C207.413,67.019 204.988,67.625 203.775,69.444C211.051,69.444 218.327,68.837 225.602,67.928C225.299,70.353 224.087,72.778 222.268,74.294C225.602,75.507 228.634,71.263 228.937,67.625C228.937,66.412 229.24,65.2 230.15,64.593C230.756,63.987 231.969,63.987 232.878,63.987C235.91,63.381 238.638,60.652 238.335,57.621C238.032,54.589 233.788,52.467 231.362,54.286Z" fill="#53A2AB" fill-opacity="0.44"/>
<path d="M257.13,73.688C258.039,73.082 258.646,72.172 258.343,70.96C253.795,70.96 249.551,67.322 248.945,62.774C246.217,61.259 242.276,62.471 241.366,65.2C240.153,67.928 242.276,71.566 245.307,72.172C241.063,73.991 236.516,75.81 232.271,77.932C240.76,82.48 250.764,72.475 259.858,74.597C259.858,75.81 259.858,76.72 259.858,77.932C255.917,77.932 251.976,79.751 249.248,82.783C256.221,83.389 263.193,81.57 269.256,77.932C270.772,77.023 272.591,75.507 274.41,75.204C276.229,74.901 277.745,75.507 279.563,75.81C283.504,76.416 288.658,73.991 288.658,70.05C285.93,69.141 282.898,68.838 280.17,69.141C279.26,63.684 272.591,60.349 267.74,62.774C267.74,66.412 269.559,70.05 272.288,72.475C269.559,74.901 265.315,75.204 261.98,73.385C260.465,72.475 258.949,71.263 257.433,71.263C255.614,71.263 253.189,72.475 252.28,70.96Z" fill="#53A2AB" fill-opacity="0.44"/>
<path d="M262.284,47.01C255.311,46.1 248.338,47.313 242.275,50.344C245.61,51.86 248.945,53.376 252.279,54.892C253.189,55.195 253.795,55.498 254.705,55.498C255.311,55.498 256.22,55.195 256.827,54.892C260.161,53.376 263.193,52.163 266.528,50.647C265.921,49.738 265.315,49.132 264.709,48.222C266.225,49.132 268.347,47.919 268.347,46.1C268.347,44.281 266.831,42.765 265.315,42.462C263.799,41.856 261.98,42.159 260.161,42.765C258.039,43.372 256.22,43.978 254.402,44.584C255.311,46.706 257.433,48.222 259.555,48.829C259.555,49.738 259.555,50.344 259.555,51.254Z" fill="#53A2AB" fill-opacity="0.44"/>
<path d="M310.182,48.222C308.667,48.222 307.757,46.403 307.757,45.191C307.757,43.675 308.06,42.159 307.151,40.946C305.332,37.612 300.482,40.037 296.844,39.431C294.722,39.127 292.903,37.612 290.781,36.702C288.659,35.793 285.93,36.399 285.324,38.521C284.718,40.946 287.446,42.765 289.871,42.765C292.296,42.765 294.722,41.856 297.147,42.765C297.45,42.765 298.056,43.068 298.36,43.372C300.178,45.797 293.812,47.313 294.419,50.041C294.722,51.557 296.541,51.86 297.753,51.86C299.875,52.163 301.997,52.163 304.119,52.466C306.241,52.769 308.667,52.769 310.486,51.557C312.305,50.344 312.305,47.009 310.182,46.403Z" fill="#53A2AB" fill-opacity="0.44"/>
<path d="M321.095,70.049C322.308,68.533 321.702,66.411 320.186,65.198C318.67,63.986 316.548,63.986 314.729,63.986C309.273,63.986 303.816,64.592 298.662,66.108C297.146,66.411 295.327,67.017 293.812,66.714C292.296,66.411 290.477,64.895 291.083,63.076C288.961,65.501 291.69,69.746 294.721,70.655C298.056,71.564 301.391,70.655 304.725,70.655C308.06,70.958 312.001,73.08 311.698,76.415C311.698,77.324 311.395,77.931 311.698,78.84C312.001,79.75 313.213,80.053 314.123,80.053C318.67,79.75 322.005,74.596 320.489,70.352C319.277,70.655 318.367,69.746 317.761,68.836C319.883,67.927 321.399,66.411 321.702,64.289C318.064,62.773 313.82,63.379 310.182,65.198Z" fill="#53A2AB" fill-opacity="0.44"/>
<path d="M319.276,88.846C321.095,87.633 319.883,83.995 317.761,83.389C315.639,82.783 313.213,83.995 311.394,85.208C311.394,87.027 311.091,89.149 311.091,90.968C308.969,90.361 306.544,90.968 304.725,92.18C308.06,93.09 310.788,95.818 311.394,99.153C308.363,101.275 303.512,99.759 301.997,96.424C301.39,94.909 301.087,92.483 299.571,92.18C297.146,91.271 295.934,95.212 296.843,97.334C299.571,103.094 308.363,102.791 313.213,107.035C315.032,108.551 317.761,110.673 318.973,109.157C320.186,107.641 318.67,105.822 317.154,104.61C318.973,104.913 320.792,104.913 322.308,104.306C323.824,103.7 325.036,101.578 324.127,100.062C323.824,99.153 322.914,98.85 322.005,98.243C319.276,96.121 318.367,92.18 319.883,89.149C318.973,88.846 318.064,88.239 317.154,87.936Z" fill="#53A2AB" fill-opacity="0.44"/>
<path d="M404.766,73.384C399.006,69.746 391.428,68.837 384.758,70.353C379.908,71.565 375.36,73.99 370.51,74.597C363.234,75.203 356.262,70.656 352.321,64.593C357.777,60.955 365.963,68.231 371.723,64.896C373.238,63.986 374.451,62.167 376.27,61.561C378.089,60.652 380.211,60.955 382.03,61.561C391.428,63.077 400.522,64.896 409.92,66.412C411.133,62.471 407.495,57.923 403.554,57.923C408.404,56.104 413.255,53.982 418.105,52.163C420.53,51.254 423.259,50.041 424.471,47.616C425.684,45.191 424.775,41.553 422.349,41.25C433.566,37.309 444.48,32.458 454.787,26.698C453.877,24.88 452.665,23.061 451.755,21.242C459.031,21.848 466.307,19.726 472.067,15.179C463.881,14.572 455.999,15.179 448.117,17.301C461.456,19.12 475.401,16.694 487.527,10.934C483.283,6.993 475.098,12.147 470.854,8.206C469.641,6.993 469.035,5.175 467.519,4.265C466.003,2.749 463.578,2.749 461.456,2.446C439.629,1.234 417.802,1.84 395.975,4.265C392.337,4.568 387.79,6.084 387.79,9.722C382.636,9.419 377.483,9.419 372.026,9.116C368.388,14.269 360.809,16.088 355.049,13.663C353.836,15.785 352.321,17.907 351.108,19.726C354.746,22.151 359.293,23.364 363.537,23.061C366.266,28.517 375.057,29.73 378.998,25.183C380.817,31.549 390.215,30.336 395.672,27.002C401.129,23.667 408.404,19.12 413.558,23.061C406.585,28.517 397.794,31.246 389.002,30.639C391.124,33.368 393.247,35.793 395.672,38.521C390.215,38.825 385.668,35.49 380.817,32.762C375.967,30.033 369.904,28.214 365.66,31.549C369.601,34.884 373.542,37.915 377.483,41.25C366.569,35.49 355.959,29.73 345.045,24.273C342.013,22.454 338.072,20.939 334.738,22.151C331.403,23.364 330.494,29.124 333.828,30.336C331.1,30.943 328.978,33.065 328.068,35.49C334.435,36.096 340.801,37.915 346.561,40.644C343.832,41.553 341.104,42.462 338.376,43.372C344.439,45.494 350.805,47.313 356.868,49.435C358.081,49.738 359.596,50.344 360.809,49.738C362.022,49.132 362.325,47.616 362.931,46.403C364.75,43.069 369.904,41.553 373.238,43.675C372.329,45.494 371.723,47.313 370.813,49.132C373.845,49.132 376.573,49.132 379.605,49.132C379.605,50.648 379.605,52.467 379.605,53.982C383.849,54.589 388.093,54.589 392.337,53.679C390.821,59.439 382.636,59.742 377.483,57.014C372.329,54.285 368.388,49.435 362.628,47.616C364.447,51.86 367.175,55.498 370.813,58.226C363.234,57.014 355.352,57.62 348.38,60.349C347.773,58.833 346.864,57.317 346.258,55.801C340.498,58.226 341.407,66.715 343.226,72.778C343.832,74.597 344.439,76.416 345.651,77.931C348.38,81.266 353.23,81.569 357.474,81.569C363.841,81.872 370.207,81.872 376.573,82.176C385.668,82.176 405.07,86.42 404.766,73.384Z" fill="#53A2AB" fill-opacity="0.44"/>
<path d="M334.738,66.411C336.557,65.198 339.589,66.107 340.498,64.288C341.104,62.773 339.589,61.257 338.073,60.651C336.557,59.741 335.041,58.529 335.345,57.013C334.132,57.316 332.919,57.013 331.707,56.406C334.435,55.8 337.163,54.891 339.589,54.284C340.498,53.981 342.014,53.072 341.408,52.162C341.105,51.859 340.801,51.859 340.498,51.556C338.982,51.253 337.163,50.95 335.648,50.04C334.132,49.131 333.526,47.009 334.738,45.796C333.829,45.796 332.919,45.493 332.01,45.493C332.01,44.887 332.01,43.977 332.01,43.371C327.159,43.371 322.612,42.765 317.762,42.158C317.155,45.19 320.187,48.828 323.218,48.221C323.825,48.221 324.431,47.918 324.734,48.221C325.037,48.524 325.34,49.131 325.34,49.434C325.947,50.647 327.766,51.253 328.978,50.647C328.675,51.556 328.069,52.465 327.159,53.072C328.675,53.981 330.494,54.284 332.01,54.588C330.797,55.8 328.978,56.406 327.463,56.71C328.069,57.316 328.978,57.922 329.585,58.529C327.766,58.529 325.947,58.529 324.128,58.529C323.522,60.347 325.34,61.863 326.856,62.47C328.675,63.076 337.467,68.836 332.313,71.261C329.281,72.777 328.069,67.623 328.978,65.804C330.797,69.745 330.191,75.202 333.222,78.537C335.345,80.962 338.679,81.568 340.801,78.234C344.439,73.08 335.648,71.261 334.738,66.411Z" fill="#53A2AB" fill-opacity="0.44"/>
<path d="M387.486,503.863C385.364,509.623 392.034,515.989 397.794,513.867C399.309,513.261 400.825,512.048 402.341,511.745C407.192,510.836 409.92,516.899 410.829,521.749C412.042,527.206 413.255,532.966 411.133,538.119C408.707,544.182 402.038,548.73 401.432,555.096C400.825,560.553 404.463,566.01 402.644,571.163C401.735,573.588 399.916,575.407 399.006,577.529C397.491,581.774 399.31,586.321 401.128,590.262C407.192,603.601 413.255,616.939 419.318,630.278C420.834,633.31 422.046,636.341 424.775,638.463C426.897,639.979 429.625,640.889 431.747,642.101C435.385,644.526 437.507,648.164 439.629,652.105C443.57,659.078 447.208,666.05 449.027,673.932C451.149,684.543 449.027,695.456 447.208,706.066C444.176,721.528 441.145,736.988 438.113,752.45C434.779,769.426 431.444,786.706 428.109,803.682C431.747,801.56 434.475,797.922 435.385,793.678C437.204,804.896 434.779,816.414 429.322,826.116C428.716,821.872 428.412,817.628 427.806,813.686C423.562,822.478 421.44,832.482 421.743,842.182C421.743,844.002 422.046,845.82 423.259,847.034C424.471,848.246 426.29,848.55 427.806,849.156C431.141,850.974 432.353,855.218 430.838,858.554C432.657,858.856 434.172,859.462 435.991,859.766C438.72,861.888 432.353,864.92 432.353,868.254C432.353,869.77 433.566,870.68 434.475,871.588C439.326,875.834 444.176,880.078 449.027,884.322C452.362,885.23 455.999,886.444 459.334,885.838C462.669,885.23 466.307,882.806 466.61,879.168C466.913,874.318 462.062,871.286 458.728,867.648C453.877,862.192 452.362,854.006 453.877,846.428C455.393,838.848 458.425,832.178 462.062,825.51C459.94,824.6 457.818,823.994 455.393,823.084C455.696,818.234 460.547,815.202 463.881,811.262C469.641,804.288 469.035,793.072 462.669,787.008C465.094,785.19 467.519,783.674 469.944,781.856C472.067,784.886 473.885,788.222 476.008,791.254C480.858,787.312 482.677,780.036 480.252,774.276C491.468,777.004 503.898,767.91 504.807,756.39C502.079,756.39 499.957,753.056 500.866,750.63C501.776,747.902 505.413,746.992 507.536,748.508C506.323,751.844 509.961,755.178 513.296,754.874C516.63,754.572 519.359,751.54 520.268,748.206C521.481,744.87 521.481,741.536 522.087,738.202C522.996,732.744 525.422,727.59 529.06,723.65C532.091,720.316 535.729,717.284 537.548,713.04C538.76,710.008 538.76,706.37 539.367,703.338C541.186,692.424 549.068,683.027 559.375,679.389C559.678,684.24 567.257,683.33 570.895,679.996C576.352,675.145 579.686,668.476 580.899,661.2C581.808,654.834 580.899,648.164 583.93,642.708C585.143,640.282 586.963,638.16 587.871,635.735C588.477,633.613 588.175,631.188 588.175,628.762C588.781,616.333 602.119,606.632 600.605,594.506C599.695,586.624 592.723,580.864 586.355,576.014C576.655,568.738 566.347,561.159 554.221,559.643C546.642,558.734 538.154,560.25 531.182,556.612C534.213,556.309 536.335,553.277 536.638,550.246C536.942,547.214 535.426,544.183 534.213,541.454C533.304,539.635 532.394,537.816 531.485,535.694C527.847,528.115 522.087,519.021 513.599,520.233C511.173,520.536 508.445,521.749 506.323,520.537C504.504,519.324 504.201,516.596 502.988,514.473C498.744,506.288 483.283,509.623 480.858,501.135C480.252,499.012 480.858,495.981 479.039,494.465C477.826,492.949 475.704,492.949 473.582,493.253C464.791,493.556 456.303,493.859 447.511,494.162C447.208,497.497 445.086,500.831 442.054,502.044C442.357,504.166 442.964,505.985 443.267,508.107C442.661,511.745 436.598,511.139 435.082,508.107C433.566,504.772 435.082,500.831 436.901,497.8C438.72,494.768 440.842,491.434 440.842,487.796C436.901,485.977 432.96,489.918 430.231,493.253C427.503,496.587 421.743,499.316 419.318,495.981C419.621,499.619 419.924,503.257 420.227,506.895C414.77,511.745 404.463,509.623 401.432,502.953C399.309,505.682 396.884,508.41 393.55,509.32C390.215,510.229 385.971,508.107 385.971,504.772C387.79,512.048 395.065,517.808 402.644,517.808Z" fill="#53A2AB" fill-opacity="0.44"/>
<path d="M379.605,432.622C382.334,435.35 386.275,431.409 390.216,430.803C393.854,430.5 396.885,433.228 399.614,435.654C402.342,438.079 406.586,440.201 409.315,437.776C410.527,443.536 418.409,446.264 422.956,442.626C422.653,444.748 425.078,445.961 427.201,445.658C429.323,445.354 430.838,444.142 432.961,443.839C435.992,443.536 438.72,446.264 438.72,448.992C438.72,450.205 437.205,450.508 436.295,450.205C435.386,449.902 434.173,449.296 433.264,449.902C432.657,450.205 432.354,451.114 432.051,451.721C430.535,453.843 426.897,453.237 424.472,452.327C421.744,451.418 418.106,451.114 417.196,453.843C425.382,455.359 433.87,455.359 442.055,453.54C441.449,454.146 441.752,455.359 442.661,455.662C443.571,455.965 444.48,455.965 445.39,455.662C448.725,454.752 452.362,454.146 455.697,453.236C457.819,454.449 460.548,454.449 462.67,453.236C462.67,454.146 462.366,455.055 462.366,455.965C466.307,457.784 471.764,455.965 473.886,452.327C468.126,451.418 462.366,450.508 456.606,449.599C452.362,448.992 448.118,448.083 444.784,445.961C441.146,443.839 438.417,440.504 434.476,439.291C429.02,437.472 422.653,440.201 417.5,438.079C412.346,435.957 409.011,429.59 403.555,429.287C401.736,429.287 399.917,429.894 398.098,429.287C393.854,427.468 394.46,423.527 389.003,425.346C387.184,426.256 380.515,433.531 379.605,432.622Z" fill="#53A2AB" fill-opacity="0.44"/>
<path d="M841.613,323.486C838.885,328.943 837.672,335.006 838.885,340.766C840.704,351.073 848.586,360.471 846.463,370.475C843.129,369.566 839.491,368.656 836.156,367.747Z" fill="#53A2AB" fill-opacity="0.44"/>
<path d="M878.597,187.369C878.293,187.975 877.99,188.582 877.99,189.188Z" fill="#53A2AB" fill-opacity="0.44"/>
<path d="M879.201,183.428C879.201,181.003 877.988,178.578 876.473,176.759Z" fill="#53A2AB" fill-opacity="0.44"/>
</g>
</svg>
