<svg width="244" height="254" viewBox="0 0 244 254" fill="none" xmlns="http://www.w3.org/2000/svg" xmlns:xlink="http://www.w3.org/1999/xlink">
<path d="M143.432,197.86L143.432,148.963L121.147,148.963L121.147,164.316L71.134,164.316C65.784,164.362 61.457,168.689 61.457,174.039L61.457,197.906C61.457,210.886 71.971,221.401 84.952,221.401L84.998,221.401L119.984,221.401C132.965,221.354 143.479,210.84 143.432,197.86Z" fill="#10737F"/>
<path d="M121.193,222.889C120.821,214.003 113.563,207.024 104.677,207.024L100.257,207.024C91.371,207.024 84.113,214.049 83.787,222.935L121.193,222.889Z" fill="#EFCDB1"/>
<path d="M102.446,206.79C100.911,206.743 99.701,205.534 99.655,203.999L99.655,184.691C99.655,183.156 100.911,181.9 102.446,181.9C103.981,181.9 105.238,183.156 105.238,184.691L105.238,203.999C105.284,205.534 104.074,206.743 102.539,206.79L102.493,206.79L102.446,206.79Z" fill="#414042"/>
<path d="M121.24,235.633L121.24,222.886L83.788,222.886L83.788,235.633C83.741,244.752 91.138,252.149 100.257,252.196L100.304,252.196L104.723,252.196C113.842,252.149 121.24,244.752 121.24,235.633Z" fill="#8A5D3B"/>
<path d="M121.194,189.995C119.659,189.995 118.403,188.739 118.403,187.204L118.403,166.687C118.403,165.151 119.659,163.895 121.194,163.895C122.73,163.895 123.986,165.151 123.986,166.687L123.986,187.204C123.986,188.739 122.73,189.995 121.194,189.995Z" fill="#10626C"/>
<path d="M143.387,148.961L143.387,136.772C143.387,133.748 140.968,131.328 137.944,131.328L126.592,131.328C123.568,131.328 121.149,133.748 121.149,136.772L121.149,148.961L143.387,148.961Z" fill="#EFCDB1"/>
<path d="M203.448,133.144L157.389,116.628L149.852,137.61L164.321,142.775L147.433,189.903C145.618,194.928 148.224,200.464 153.248,202.279L175.72,210.327C187.955,214.701 201.401,208.373 205.774,196.138L217.591,163.199C221.964,151.009 215.637,137.564 203.448,133.144Z" fill="#128593"/>
<path d="M219.405,162.593C210.937,159.894 201.865,164.36 198.888,172.735L197.399,176.875C194.421,185.25 198.562,194.461 206.797,197.811L219.405,162.593Z" fill="#EFCDB1"/>
<path d="M195.306,176.597C194.981,176.597 194.655,176.551 194.376,176.411L176.185,169.898C174.743,169.386 173.998,167.758 174.51,166.315C175.022,164.873 176.557,164.129 177.999,164.64L178.046,164.64L196.237,171.154C197.679,171.619 198.516,173.201 198.005,174.69C197.633,175.853 196.516,176.644 195.306,176.597Z" fill="#414042"/>
<path d="M231.455,166.872L220.056,162.778L219.405,162.592L206.797,197.81L207.402,198.043L218.8,202.137C227.407,205.208 236.852,200.741 239.922,192.134L241.411,187.994C244.482,179.433 240.015,169.989 231.455,166.872Z" fill="#8A5D3B"/>
<path d="M185.817,153.292L184.886,153.153L165.579,146.221C164.136,145.709 163.392,144.081 163.904,142.638C164.416,141.196 166.044,140.452 167.486,140.963L186.794,147.896C188.236,148.407 188.98,149.943 188.469,151.385L188.469,151.431C188.05,152.548 187.026,153.292 185.817,153.292Z" fill="#10737F"/>
<path d="M157.389,116.627L145.897,112.533C143.059,111.51 139.942,112.998 138.919,115.79L138.919,115.836L135.104,126.49C134.08,129.328 135.569,132.445 138.36,133.469L138.407,133.469L149.852,137.609L157.389,116.627Z" fill="#EFCDB1"/>
<path d="M163.018,58.33L134.08,97.783L152.038,110.949L161.11,98.574L201.447,128.163C205.774,131.326 211.822,130.396 214.985,126.069L229.129,106.808C236.805,96.34 234.525,81.639 224.058,73.962L195.817,53.259C185.35,45.629 170.694,47.909 163.018,58.33Z" fill="#10737F"/>
<path d="M195.772,51.352C190.794,58.703 192.515,68.659 199.68,73.916L203.216,76.521C210.381,81.732 220.383,80.429 225.92,73.497L195.772,51.352Z" fill="#EFCDB1"/>
<path d="M188.234,96.017C187.63,96.017 187.071,95.831 186.606,95.505C185.35,94.574 185.071,92.853 186.001,91.597L197.4,76.011C198.33,74.755 200.052,74.476 201.308,75.406C202.564,76.337 202.843,78.058 201.913,79.314L190.468,94.9C189.956,95.598 189.118,96.017 188.234,96.017Z" fill="#414042"/>
<path d="M203.261,41.07L196.096,50.84L195.77,51.352L225.918,73.497L226.337,72.986L233.501,63.169C238.898,55.818 237.27,45.49 229.919,40.093L226.383,37.488C219.032,32.091 208.704,33.673 203.307,41.024C203.261,41.024 203.261,41.07 203.261,41.07Z" fill="#8A5D3B"/>
<path d="M162.507,96.665L174.65,80.149Z" fill="#10626C"/>
<path d="M162.506,99.456C161.902,99.456 161.343,99.27 160.832,98.944C159.575,98.014 159.343,96.292 160.273,95.036L172.37,78.474C173.3,77.217 175.021,76.938 176.278,77.869C177.534,78.799 177.813,80.521 176.882,81.777L164.74,98.339C164.228,99.037 163.39,99.456 162.506,99.456Z" fill="#10626C"/>
<path d="M134.08,97.782L126.869,107.598C125.101,110.018 125.613,113.414 128.032,115.228L137.197,121.928C139.617,123.696 143.013,123.184 144.827,120.765L152.039,110.948L134.08,97.782Z" fill="#EFCDB1"/>
<path d="M67.041,158.64L112.449,140.403L104.167,119.746L89.885,125.468L71.228,79.037C69.274,74.106 63.691,71.64 58.713,73.594C58.713,73.594 58.667,73.594 58.667,73.641L36.475,82.573C24.472,87.412 18.656,101.09 23.448,113.093L36.521,145.567C41.313,157.617 54.945,163.479 66.995,158.64L67.041,158.64Z" fill="#128593"/>
<path d="M35.543,147.288C43.638,143.659 47.453,134.261 44.15,126.026L42.475,121.932C39.172,113.697 29.96,109.557 21.633,112.534L35.543,147.288Z" fill="#EFCDB1"/>
<path d="M46.104,125.655C44.988,125.655 43.964,124.957 43.546,123.887C42.987,122.445 43.639,120.816 45.081,120.258L62.993,113.047C64.435,112.489 66.063,113.186 66.668,114.629C67.226,116.071 66.529,117.699 65.086,118.258L47.175,125.469C46.849,125.608 46.477,125.655 46.104,125.655Z" fill="#414042"/>
<path d="M23.726,152.032L34.985,147.519L35.543,147.286L21.632,112.533L20.981,112.765L9.769,117.278C1.301,120.674 -2.793,130.305 0.604,138.772L2.232,142.867C5.628,151.334 15.259,155.428 23.726,152.032Z" fill="#8A5D3B"/>
<path d="M68.716,136.773C67.18,136.819 65.878,135.61 65.878,134.075C65.831,132.911 66.576,131.841 67.646,131.376L86.674,123.746C88.116,123.188 89.745,123.839 90.303,125.282C90.908,126.677 90.256,128.306 88.861,128.864C88.814,128.864 88.814,128.864 88.768,128.91L69.739,136.587C69.414,136.726 69.088,136.773 68.716,136.773Z" fill="#10737F"/>
<path d="M112.447,140.402L123.752,135.843C126.544,134.726 127.893,131.562 126.776,128.771L122.543,118.21C121.426,115.419 118.262,114.069 115.471,115.186L104.166,119.745L112.447,140.402Z" fill="#EFCDB1"/>
<path d="M75.09,70.986L102.213,111.694L120.73,99.365L112.216,86.618L153.901,58.889C158.321,55.912 159.531,49.91 156.553,45.444L143.34,25.578C136.129,14.785 121.567,11.854 110.774,19.018L81.65,38.419C70.856,45.583 67.925,60.192 75.09,70.986Z" fill="#128593"/>
<path d="M79.789,37.858C85,45.023 94.91,46.837 102.307,41.906L105.982,39.486C113.38,34.601 115.613,24.692 110.96,17.108L79.789,37.858Z" fill="#EFCDB1"/>
<path d="M116.542,62.102C115.612,62.102 114.728,61.636 114.216,60.845L103.515,44.748C102.585,43.492 102.864,41.771 104.074,40.84C105.33,39.91 107.051,40.189 107.982,41.398C108.028,41.491 108.121,41.584 108.168,41.677L118.868,57.728C119.706,59.031 119.38,60.752 118.077,61.636C117.612,61.915 117.1,62.102 116.542,62.102Z" fill="#414042"/>
<path d="M72.717,27.206L79.416,37.302L79.789,37.86L110.96,17.11L110.588,16.552L103.888,6.456C98.817,-1.127 88.535,-3.174 80.952,1.897L77.323,4.316C69.739,9.341 67.646,19.53 72.67,27.16L72.717,27.206Z" fill="#8A5D3B"/>
<path d="M110.914,87.457C109.984,87.457 109.1,86.992 108.588,86.201L97.236,69.126C96.352,67.823 96.724,66.102 98.027,65.265C99.33,64.381 101.051,64.753 101.889,66.009L113.24,83.083C114.078,84.34 113.752,86.061 112.543,86.898C112.496,86.898 112.496,86.945 112.45,86.945C111.984,87.271 111.473,87.457 110.914,87.457Z" fill="#10737F"/>
<path d="M102.214,111.694L108.96,121.837C110.588,124.349 113.938,125.047 116.404,123.418C116.45,123.418 116.45,123.372 116.497,123.372L125.988,117.091C128.5,115.416 129.151,112.02 127.477,109.508L120.731,99.365L102.214,111.694Z" fill="#EFCDB1"/>
</svg>
