<svg width="270" height="268" viewBox="0 0 270 268" fill="none" xmlns="http://www.w3.org/2000/svg" xmlns:xlink="http://www.w3.org/1999/xlink">
<path d="M134.747,0.209C125.658,0.209 118.264,7.604 118.264,16.693C118.264,26.81 124.041,37.564 134.747,37.564C145.454,37.564 151.22,26.811 151.22,16.693C151.22,7.603 143.83,0.209 134.747,0.209Z" fill="#F6DCCD"/>
<path d="M134.748,0.209C133.711,0.209 132.698,0.31 131.714,0.494C139.352,1.923 145.154,8.641 145.154,16.693C145.154,25.808 140.466,35.435 131.714,37.254C132.677,37.454 133.687,37.564 134.748,37.564C145.447,37.564 151.221,26.811 151.221,16.693C151.221,7.603 143.831,0.209 134.748,0.209Z" fill="#F1CBBC"/>
<path d="M146.739,37.566L122.744,37.566C109.752,37.566 99.182,47.501 99.182,59.712L99.182,76.038L170.3,76.038L170.3,59.712C170.3,47.501 159.731,37.566 146.739,37.566Z" fill="#128593"/>
<path d="M146.74,37.561L139.274,37.561C152.266,37.561 162.836,47.496 162.836,59.707L162.836,76.034L170.302,76.034L170.302,59.707C170.302,47.496 159.732,37.561 146.74,37.561Z" fill="#10737F"/>
<path d="M156.61,76.041L156.61,61.818C156.61,59.756 154.939,58.084 152.877,58.084C150.814,58.084 149.143,59.755 149.143,61.818L149.143,76.041L156.61,76.041Z" fill="#10737F"/>
<path d="M120.327,76.041L120.327,61.818C120.327,59.756 118.656,58.084 116.594,58.084C114.532,58.084 112.86,59.755 112.86,61.818L112.86,76.041L120.327,76.041Z" fill="#10737F"/>
<path d="M36.459,151.153C27.37,151.153 19.975,158.548 19.975,167.637C19.975,177.754 25.752,188.508 36.459,188.508C47.165,188.508 52.931,177.755 52.931,167.637C52.931,158.547 45.542,151.153 36.459,151.153Z" fill="#F6DCCD"/>
<path d="M36.46,151.153C35.423,151.153 34.409,151.254 33.425,151.438C41.064,152.867 46.865,159.585 46.865,167.637C46.865,176.752 42.177,186.379 33.425,188.198C34.388,188.398 35.399,188.508 36.46,188.508C47.159,188.508 52.932,177.755 52.932,167.637C52.932,158.547 45.543,151.153 36.46,151.153Z" fill="#F1CBBC"/>
<path d="M48.45,188.51L24.456,188.51C11.464,188.51 0.894,198.445 0.894,210.656L0.894,226.982L72.012,226.982L72.012,210.656C72.012,198.445 61.442,188.51 48.45,188.51Z" fill="#128593"/>
<path d="M48.45,188.511L40.983,188.511C53.975,188.511 64.545,198.445 64.545,210.657L64.545,226.983L72.011,226.983L72.011,210.657C72.011,198.445 61.442,188.511 48.45,188.511Z" fill="#10737F"/>
<path d="M58.322,226.981L58.322,212.758C58.322,210.696 56.651,209.024 54.589,209.024C52.527,209.024 50.855,210.695 50.855,212.758L50.855,226.981L58.322,226.981Z" fill="#10737F"/>
<path d="M22.04,226.981L22.04,212.758C22.04,210.696 20.368,209.024 18.306,209.024C16.244,209.024 14.573,210.695 14.573,212.758L14.573,226.981L22.039,226.981L22.04,226.981Z" fill="#10737F"/>
<path d="M232.992,151.153C223.903,151.153 216.509,158.548 216.509,167.637C216.509,177.754 222.286,188.508 232.992,188.508C243.699,188.508 249.465,177.755 249.465,167.637C249.465,158.547 242.075,151.153 232.992,151.153Z" fill="#F6DCCD"/>
<path d="M232.993,151.153C231.956,151.153 230.943,151.254 229.958,151.438C237.597,152.867 243.399,159.585 243.399,167.637C243.399,176.752 238.711,186.379 229.958,188.198C230.922,188.398 231.932,188.508 232.993,188.508C243.692,188.508 249.466,177.755 249.466,167.637C249.466,158.547 242.076,151.153 232.993,151.153Z" fill="#F1CBBC"/>
<path d="M244.984,188.51L220.989,188.51C207.997,188.51 197.427,198.445 197.427,210.656L197.427,226.982L268.546,226.982L268.546,210.656C268.546,198.445 257.976,188.51 244.984,188.51Z" fill="#128593"/>
<path d="M244.984,188.511L237.517,188.511C250.509,188.511 261.079,198.445 261.079,210.657L261.079,226.983L268.546,226.983L268.546,210.657C268.546,198.445 257.976,188.511 244.984,188.511Z" fill="#10737F"/>
<path d="M254.855,226.981L254.855,212.758C254.855,210.696 253.184,209.024 251.122,209.024C249.059,209.024 247.388,210.695 247.388,212.758L247.388,226.981L254.855,226.981L254.855,226.981Z" fill="#10737F"/>
<path d="M218.572,226.981L218.572,212.758C218.572,210.696 216.901,209.024 214.839,209.024C212.776,209.024 211.105,210.695 211.105,212.758L211.105,226.981L218.572,226.981L218.572,226.981Z" fill="#10737F"/>
<path d="M134.743,267.909C108.687,267.909 84.009,259.527 63.373,243.67C61.443,242.187 61.081,239.421 62.564,237.491C64.047,235.561 66.814,235.199 68.743,236.682C87.825,251.345 110.647,259.097 134.743,259.097C158.839,259.097 181.645,251.345 200.726,236.682C202.655,235.199 205.422,235.561 206.905,237.49C208.388,239.42 208.026,242.187 206.096,243.67C185.462,259.527 160.788,267.909 134.743,267.909L134.743,267.909ZM247.078,145.452C244.814,145.452 242.888,143.718 242.692,141.42C239.384,102.682 215.328,68.505 179.914,52.226C177.703,51.209 176.735,48.593 177.751,46.382C178.767,44.17 181.386,43.203 183.595,44.218C221.886,61.82 247.894,98.777 251.472,140.671C251.68,143.095 249.882,145.229 247.458,145.436C247.33,145.447 247.202,145.452 247.078,145.452ZM22.407,145.436C22.281,145.436 22.155,145.431 22.028,145.42C19.603,145.213 17.805,143.079 18.012,140.654C21.591,98.767 47.594,61.821 85.875,44.234C88.087,43.217 90.703,44.187 91.718,46.398C92.735,48.61 91.765,51.227 89.554,52.242C54.151,68.508 30.102,102.673 26.793,141.405C26.597,143.702 24.671,145.436 22.407,145.436Z" fill="#A79BA7"/>
<path d="M206.061,181.666L193.814,129.5C193.248,127.12 190.836,125.622 188.439,126.189L178.372,128.552C175.976,129.101 174.495,131.53 175.044,133.909L176.458,139.922L173.181,141.115C168.971,142.629 164.777,142.38 160.784,140.366L155.159,137.539C161.975,128.777 166.802,116.317 166.802,99.73C166.802,97.785 165.527,96.07 163.664,95.51L135.825,87.141C134.997,86.892 134.115,86.892 133.288,87.141L105.448,95.51C103.586,96.07 102.31,97.785 102.31,99.73C102.31,115.847 106.866,128.071 113.377,136.789L93.714,136.789L94.39,133.91C94.956,131.53 93.458,129.101 91.062,128.552L80.995,126.189C78.616,125.623 76.203,127.121 75.637,129.5L63.374,181.666C62.825,184.062 64.322,186.475 66.702,187.041L76.769,189.404C79.165,189.97 81.578,188.472 82.144,186.076L83.558,180.052L115.972,212.367C118.834,215.229 123.526,215.229 126.389,212.351C129.251,209.489 129.234,204.796 126.372,201.934C123.51,199.072 134.675,210.221 134.675,210.221C137.537,213.083 142.229,213.066 145.091,210.204C147.954,207.326 147.954,202.65 145.075,199.788L151.182,205.861C154.044,208.723 158.737,208.723 161.599,205.861C164.461,202.982 164.461,198.29 161.582,195.428C164.461,198.29 169.154,198.29 172.015,195.411C174.877,192.549 174.861,187.857 171.999,184.994L171.988,184.983C174.955,187.771 179.114,188.497 182.865,186.841L187.053,184.994L187.307,186.076C187.857,188.472 190.269,189.97 192.665,189.404L202.732,187.041C205.129,186.475 206.626,184.062 206.06,181.666L206.061,181.666Z" fill="#F6DCCD"/>
<path d="M163.665,95.51L135.826,87.141C134.999,86.892 134.116,86.892 133.289,87.141L105.449,95.51C103.587,96.07 102.311,97.785 102.311,99.73C102.311,129.823 118.185,146.36 133.041,151.802C133.531,151.981 134.044,152.07 134.557,152.07C135.07,152.07 135.583,151.981 136.072,151.802C150.928,146.36 166.802,129.823 166.802,99.73C166.802,97.785 165.527,96.07 163.664,95.51L163.665,95.51Z" fill="#8AC9FE"/>
<path d="M176.457,139.925L173.18,141.118C168.97,142.632 164.777,142.382 160.783,140.369L155.158,137.542C149.607,144.677 142.739,149.362 136.071,151.804C135.582,151.984 135.069,152.073 134.556,152.073C134.043,152.073 133.53,151.983 133.041,151.804C128.503,150.142 123.872,147.439 119.627,143.637L106.987,157.808C105.939,159.006 105.522,160.453 105.805,162.018C106.088,163.582 106.987,164.813 108.384,165.545C114.258,168.657 121.447,168.407 127.271,164.547L134.992,159.406C138.985,156.744 144.177,157.259 147.571,160.654L171.765,184.782C174.744,187.744 179.02,188.542 182.864,186.845L187.053,184.998L176.457,139.926L176.457,139.925Z" fill="#E2B8AA"/>
<path d="M75.637,129.5L63.374,181.666C62.825,184.062 64.322,186.475 66.702,187.041L76.769,189.404C79.165,189.97 81.578,188.472 82.144,186.076L94.39,133.909C94.956,131.53 93.458,129.101 91.062,128.552L80.995,126.189C78.616,125.623 76.203,127.12 75.637,129.5Z" fill="#837683"/>
<path d="M91.062,128.552L89.531,128.193L77.737,178.429C77.171,180.825 74.758,182.323 72.362,181.757L63.824,179.754L63.374,181.667C62.825,184.063 64.322,186.476 66.702,187.042L76.769,189.405C79.165,189.971 81.578,188.473 82.144,186.077L94.39,133.911C94.956,131.531 93.458,129.101 91.062,128.552Z" fill="#7A6D7A"/>
<path d="M193.812,129.5L206.06,181.666C206.625,184.062 205.128,186.475 202.731,187.041L192.664,189.404C190.268,189.97 187.855,188.472 187.306,186.076L175.042,133.909C174.493,131.53 175.974,129.101 178.37,128.552L188.437,126.189C190.834,125.623 193.246,127.121 193.812,129.5L193.812,129.5Z" fill="#837683"/>
<path d="M206.06,181.666L193.813,129.5C193.248,127.12 190.835,125.622 188.439,126.189L186.572,126.627L198.562,177.7C199.128,180.096 197.631,182.508 195.234,183.075L187.052,184.995L187.307,186.076C187.856,188.472 190.269,189.97 192.665,189.404L202.732,187.041C205.128,186.475 206.626,184.063 206.06,181.666L206.06,181.666Z" fill="#7A6D7A"/>
<path d="M154.875,202.357L138.24,185.773C137.411,184.946 136.123,184.792 135.123,185.401C133.714,186.258 133.481,188.209 134.649,189.374L151.181,205.856C154.043,208.718 158.735,208.718 161.598,205.856C162.178,205.273 162.634,204.613 162.978,203.911C160.293,205.051 157.054,204.536 154.875,202.357Z" fill="#F1CBBC"/>
<path d="M138.369,206.717L125.285,193.658C124.455,192.83 123.167,192.676 122.166,193.286C120.757,194.143 120.524,196.093 121.692,197.258L134.675,210.216C137.537,213.078 142.229,213.062 145.091,210.2C145.671,209.617 146.127,208.958 146.472,208.258C143.786,209.402 140.548,208.896 138.369,206.717Z" fill="#F1CBBC"/>
<path d="M165.276,191.926L151.205,177.889C150.376,177.061 149.089,176.908 148.087,177.516C146.678,178.373 146.445,180.324 147.613,181.489L161.582,195.425C164.461,198.288 169.153,198.288 172.015,195.409C172.594,194.83 173.05,194.173 173.393,193.475C170.708,194.62 167.467,194.105 165.276,191.927L165.276,191.926Z" fill="#F1CBBC"/>
<path d="M186.065,180.794L179.64,183.627C175.796,185.324 171.519,184.525 168.541,181.563L144.347,157.435C140.952,154.041 135.761,153.525 131.767,156.187L124.046,161.329C118.493,165.009 111.704,165.4 105.992,162.733C106.393,163.955 107.209,164.927 108.384,165.542C114.258,168.654 121.446,168.405 127.27,164.544L134.991,159.403C138.985,156.741 144.176,157.256 147.571,160.651L171.765,184.779C174.744,187.741 179.02,188.539 182.864,186.842L187.052,184.995L186.065,180.794L186.065,180.794Z" fill="#D3A69B"/>
<path d="M119.666,208.869L84.923,174.234L83.557,180.053L115.972,212.369C118.834,215.231 123.526,215.231 126.388,212.352C126.967,211.773 127.422,211.117 127.766,210.418C125.081,211.564 121.844,211.048 119.666,208.869Z" fill="#F1CBBC"/>
<path d="M134.557,152.07C134.043,152.07 133.531,151.981 133.041,151.802C118.185,146.36 102.311,129.823 102.311,99.73C102.311,97.785 103.586,96.07 105.449,95.51L133.289,87.141C134.116,86.892 134.999,86.892 135.826,87.141L163.665,95.51C165.528,96.07 166.803,97.785 166.803,99.73C166.803,129.823 150.929,146.36 136.073,151.802C135.584,151.981 135.071,152.07 134.558,152.07L134.557,152.07ZM111.195,102.985C112.194,125.437 123.481,138.158 134.557,142.923C145.632,138.158 156.92,125.437 157.918,102.985L134.557,95.962L111.195,102.985Z" fill="#60B7FF"/>
<path d="M163.663,95.508L162.169,95.059C163.185,95.921 163.82,97.228 163.82,98.666C163.82,125.912 152.099,142.604 139.375,150.402C153.187,143.831 166.801,127.597 166.801,99.728C166.801,97.783 165.526,96.068 163.663,95.508Z" fill="#49A9EA"/>
<path d="M131.699,130.539C130.561,130.539 129.464,130.099 128.642,129.306L122.256,123.154C120.503,121.466 120.451,118.677 122.14,116.923C123.827,115.171 126.617,115.118 128.371,116.807L131.494,119.816L140.528,109.908C142.168,108.109 144.955,107.98 146.753,109.62C148.552,111.26 148.681,114.047 147.041,115.845L134.956,129.102C134.154,129.981 133.031,130.499 131.842,130.537C131.795,130.539 131.747,130.539 131.699,130.539Z" fill="#D8ECFE"/>
</svg>
