<svg width="280" height="274" viewBox="0 0 280 274" fill="none" xmlns="http://www.w3.org/2000/svg" xmlns:xlink="http://www.w3.org/1999/xlink">
<path d="M72.157,273.884C65.67,273.884 59.949,270.534 56.631,265.48C53.314,270.534 47.593,273.884 41.105,273.884C30.874,273.884 22.551,265.558 22.551,255.33L22.551,134.478C10.273,132.934 0.73,122.408 0.73,109.734L0.73,44.796C0.73,37.112 6.983,30.858 14.668,30.858C22.354,30.858 28.607,37.112 28.607,44.796L28.607,99.009L87.684,99.009C101.386,99.009 112.532,110.153 112.532,123.859L112.532,168.051C112.532,180.732 102.99,191.218 90.712,192.715L90.712,255.33C90.712,265.558 82.388,273.884 72.157,273.884Z" clip-rule="evenodd" fill-rule="evenodd" fill="#10737F"/>
<path d="M72.157,273.885C67.347,273.885 62.959,272.043 59.659,269.031L59.659,201.332C59.659,199.66 58.303,198.301 56.631,198.301C54.958,198.301 53.603,199.66 53.603,201.332L53.603,269.031C50.303,272.043 45.914,273.885 41.104,273.885C30.873,273.885 22.55,265.559 22.55,255.329L22.55,134.478C10.272,132.934 0.729,122.408 0.729,109.734L0.729,44.796C0.729,42.932 1.098,41.154 1.765,39.528C3.605,38.629 5.672,38.125 7.854,38.125C15.54,38.125 21.793,44.378 21.793,52.063L21.793,106.275L80.871,106.275C94.572,106.275 105.719,117.419 105.719,131.125L105.719,175.317C105.719,180.083 104.371,184.538 102.037,188.323C98.759,190.651 94.894,192.204 90.711,192.715L90.711,129.829C90.711,128.157 89.355,126.8 87.683,126.8C86.011,126.8 84.656,128.157 84.656,129.829L85.148,262.597C85.148,265.693 83.135,268.615 81.788,271.183C78.979,272.897 75.681,273.885 72.157,273.885Z" clip-rule="evenodd" fill-rule="evenodd" fill="#128593"/>
<path d="M56.631,105.063C43.468,105.063 32.76,94.355 32.76,81.191C32.76,68.031 43.468,57.322 56.631,57.322C69.794,57.322 80.501,68.031 80.501,81.191C80.501,94.355 69.794,105.063 56.631,105.063Z" clip-rule="evenodd" fill-rule="evenodd" fill="#D9B7A9"/>
<path d="M56.631,105.064C43.468,105.064 32.76,94.355 32.76,81.192C32.76,72.738 37.179,65.296 43.828,61.054C46.211,60.254 48.759,59.82 51.408,59.82C64.57,59.82 75.278,70.529 75.278,83.689C75.278,92.145 70.859,99.588 64.209,103.83C61.828,104.629 59.279,105.064 56.631,105.064Z" clip-rule="evenodd" fill-rule="evenodd" fill="#F1CBBC"/>
<path d="M70.552,49.901C70.032,49.901 69.511,49.767 69.041,49.498L56.631,42.358L44.22,49.498C43.186,50.092 41.898,50.023 40.931,49.323C39.965,48.621 39.502,47.418 39.748,46.249L42.702,32.238L32.078,22.64C31.191,21.84 30.859,20.593 31.227,19.457C31.597,18.321 32.598,17.511 33.786,17.383L48.022,15.863L53.867,2.794C54.354,1.703 55.436,1 56.631,1C57.824,1 58.906,1.703 59.395,2.794L65.239,15.863L79.476,17.383C80.663,17.511 81.665,18.321 82.035,19.457C82.403,20.593 82.07,21.84 81.185,22.64L70.56,32.238L73.514,46.248C73.76,47.417 73.297,48.62 72.33,49.322C71.803,49.706 71.178,49.901 70.552,49.901Z" clip-rule="evenodd" fill-rule="evenodd" fill="#E6BD5C"/>
<path d="M70.551,49.901C70.032,49.901 69.511,49.767 69.041,49.498L56.631,42.358L44.22,49.498C43.185,50.092 41.897,50.023 40.931,49.323C39.965,48.621 39.502,47.418 39.748,46.249L42.702,32.238L32.077,22.64C31.503,22.122 31.162,21.416 31.092,20.674C31.429,20.495 31.802,20.377 32.196,20.335L46.715,18.785L52.991,4.753C53.539,4.247 54.267,3.952 55.042,3.952C56.235,3.952 57.317,4.654 57.806,5.746L63.65,18.815L77.887,20.335C79.074,20.463 80.076,21.273 80.446,22.409C80.528,22.662 80.575,22.92 80.589,23.178L68.703,33.916L71.925,49.201C71.949,49.315 71.966,49.43 71.977,49.545C71.533,49.781 71.043,49.901 70.551,49.901Z" clip-rule="evenodd" fill-rule="evenodd" fill="#FFD266"/>
<path d="M276.249,271.312L199.189,271.312C197.516,271.312 196.161,269.954 196.161,268.285C196.161,245.371 214.804,226.725 237.718,226.725C260.634,226.725 279.275,245.371 279.275,268.285C279.275,269.954 277.92,271.312 276.249,271.312Z" clip-rule="evenodd" fill-rule="evenodd" fill="#10737F"/>
<path d="M185.033,271.312L107.973,271.312C106.301,271.312 104.945,269.954 104.945,268.285C104.945,245.371 123.588,226.725 146.503,226.725C169.418,226.725 188.06,245.371 188.06,268.285C188.06,269.954 186.704,271.312 185.033,271.312Z" clip-rule="evenodd" fill-rule="evenodd" fill="#10737F"/>
<path d="M212.662,235.152C218.115,232.518 224.228,231.04 230.679,231.04C253.164,231.04 271.531,248.991 272.214,271.312L199.189,271.312C197.516,271.312 196.161,269.954 196.161,268.285C196.162,254.774 202.644,242.748 212.662,235.152Z" clip-rule="evenodd" fill-rule="evenodd" fill="#128593"/>
<path d="M180.999,271.312L107.973,271.312C106.301,271.312 104.945,269.954 104.945,268.285C104.945,254.774 111.428,242.748 121.446,235.152C126.899,232.518 133.012,231.04 139.464,231.04C161.948,231.04 180.317,248.991 180.999,271.312Z" clip-rule="evenodd" fill-rule="evenodd" fill="#128593"/>
<path d="M237.719,232.781C225.674,232.781 215.875,222.984 215.875,210.939C215.875,198.895 225.674,189.097 237.719,189.097C249.763,189.097 259.563,198.894 259.563,210.939C259.563,222.984 249.763,232.781 237.719,232.781Z" clip-rule="evenodd" fill-rule="evenodd" fill="#D9B7A9"/>
<path d="M146.503,232.781C134.457,232.781 124.659,222.984 124.659,210.939C124.659,198.895 134.457,189.097 146.503,189.097C158.546,189.097 168.346,198.894 168.346,210.939C168.346,222.984 158.546,232.781 146.503,232.781Z" clip-rule="evenodd" fill-rule="evenodd" fill="#D9B7A9"/>
<path d="M228.522,191.129C229.524,190.988 230.547,190.913 231.586,190.913C243.631,190.913 253.431,200.71 253.431,212.755C253.431,221.517 248.245,229.088 240.782,232.565C239.781,232.706 238.758,232.781 237.717,232.781C225.673,232.781 215.874,222.983 215.874,210.938C215.874,202.177 221.06,194.606 228.522,191.129Z" clip-rule="evenodd" fill-rule="evenodd" fill="#F1CBBC"/>
<path d="M146.503,232.781C134.457,232.781 124.659,222.983 124.659,210.938C124.659,202.177 129.844,194.606 137.307,191.129C138.309,190.988 139.331,190.913 140.372,190.913C152.415,190.913 162.215,200.71 162.215,212.755C162.215,221.517 157.028,229.088 149.566,232.565C148.565,232.706 147.542,232.781 146.503,232.781Z" clip-rule="evenodd" fill-rule="evenodd" fill="#F1CBBC"/>
</svg>
