<svg width="82" height="122" viewBox="0 0 82 122" fill="none" xmlns="http://www.w3.org/2000/svg" xmlns:xlink="http://www.w3.org/1999/xlink">
<path d="M81.133,65.748L81.133,16.852L58.848,16.852L58.848,32.205L8.834,32.205C3.484,32.251 -0.843,36.578 -0.843,41.928L-0.843,65.795C-0.843,78.775 9.672,89.29 22.652,89.29L22.698,89.29L57.685,89.29C70.665,89.243 81.179,78.729 81.133,65.748Z" fill="#10737F"/>
<path d="M58.893,90.778C58.521,81.892 51.263,74.913 42.377,74.913L37.957,74.913C29.071,74.913 21.813,81.938 21.487,90.824L58.893,90.778Z" fill="#EFCDB1"/>
<path d="M40.146,74.679C38.611,74.632 37.401,73.423 37.354,71.888L37.354,52.58C37.354,51.045 38.611,49.789 40.146,49.789C41.681,49.789 42.937,51.045 42.937,52.58L42.937,71.888C42.984,73.423 41.774,74.632 40.239,74.679L40.192,74.679L40.146,74.679Z" fill="#414042"/>
<path d="M58.94,103.522L58.94,90.774L21.488,90.774L21.488,103.522C21.441,112.641 28.838,120.038 37.957,120.085L38.004,120.085L42.423,120.085C51.542,120.038 58.94,112.641 58.94,103.522Z" fill="#8A5D3B"/>
<path d="M58.894,57.884C57.359,57.884 56.103,56.628 56.103,55.093L56.103,34.576C56.103,33.04 57.359,31.784 58.894,31.784C60.429,31.784 61.685,33.04 61.685,34.576L61.685,55.093C61.685,56.628 60.429,57.884 58.894,57.884Z" fill="#10626C"/>
<path d="M81.087,16.85L81.087,4.661C81.087,1.637 78.668,-0.783 75.644,-0.783L64.292,-0.783C61.268,-0.783 58.849,1.637 58.849,4.661L58.849,16.85L81.087,16.85Z" fill="#EFCDB1"/>
</svg>
