<svg width="280" height="272" viewBox="0 0 280 272" fill="none" xmlns="http://www.w3.org/2000/svg" xmlns:xlink="http://www.w3.org/1999/xlink">
<path d="M72.158,271.884C65.67,271.884 59.949,268.534 56.632,263.48C53.314,268.534 47.593,271.884 41.105,271.884C30.874,271.884 22.551,263.558 22.551,253.33L22.551,132.478C10.274,130.934 0.73,120.408 0.73,107.734L0.73,42.796C0.73,35.112 6.983,28.858 14.668,28.858C22.354,28.858 28.607,35.112 28.607,42.796L28.607,97.009L87.685,97.009C101.386,97.009 112.532,108.153 112.532,121.859L112.532,166.051C112.532,178.732 102.99,189.218 90.712,190.715L90.712,253.33C90.712,263.558 82.389,271.884 72.158,271.884Z" clip-rule="evenodd" fill-rule="evenodd" fill="#10737F"/>
<path d="M72.158,271.885C67.348,271.885 62.96,270.043 59.66,267.031L59.66,199.332C59.66,197.66 58.304,196.301 56.632,196.301C54.96,196.301 53.605,197.66 53.605,199.332L53.605,267.031C50.304,270.043 45.915,271.885 41.105,271.885C30.874,271.885 22.551,263.559 22.551,253.329L22.551,132.478C10.274,130.934 0.73,120.408 0.73,107.734L0.73,42.796C0.73,40.932 1.099,39.154 1.766,37.528C3.607,36.629 5.673,36.125 7.856,36.125C15.542,36.125 21.795,42.378 21.795,50.063L21.795,104.275L80.872,104.275C94.574,104.275 105.72,115.419 105.72,129.125L105.72,173.317C105.72,178.083 104.372,182.538 102.038,186.323C98.76,188.651 94.895,190.204 90.712,190.715L90.712,127.829C90.712,126.157 89.357,124.8 87.685,124.8C86.012,124.8 84.657,126.157 84.657,127.829L85.149,260.597C85.149,263.693 83.137,266.615 81.789,269.183C78.98,270.897 75.682,271.885 72.158,271.885Z" clip-rule="evenodd" fill-rule="evenodd" fill="#128593"/>
<path d="M56.633,103.063C43.47,103.063 32.762,92.355 32.762,79.191C32.762,66.031 43.47,55.322 56.633,55.322C69.796,55.322 80.503,66.031 80.503,79.191C80.503,92.355 69.796,103.063 56.633,103.063Z" clip-rule="evenodd" fill-rule="evenodd" fill="#D9B7A9"/>
<path d="M56.633,103.064C43.47,103.064 32.762,92.355 32.762,79.192C32.762,70.738 37.181,63.296 43.83,59.054C46.212,58.254 48.761,57.82 51.41,57.82C64.572,57.82 75.28,68.529 75.28,81.689C75.28,90.145 70.861,97.588 64.211,101.83C61.83,102.629 59.281,103.064 56.633,103.064Z" clip-rule="evenodd" fill-rule="evenodd" fill="#F1CBBC"/>
<path d="M70.552,47.901C70.033,47.901 69.512,47.767 69.042,47.498L56.632,40.358L44.221,47.498C43.186,48.092 41.898,48.023 40.932,47.323C39.966,46.621 39.503,45.418 39.749,44.249L42.703,30.238L32.078,20.64C31.192,19.84 30.86,18.593 31.228,17.457C31.598,16.321 32.599,15.511 33.787,15.383L48.023,13.863L53.867,0.794C54.355,-0.297 55.437,-1 56.632,-1C57.825,-1 58.907,-0.297 59.396,0.794L65.24,13.863L79.477,15.383C80.664,15.511 81.666,16.321 82.036,17.457C82.404,18.593 82.071,19.84 81.186,20.64L70.561,30.238L73.515,44.248C73.761,45.417 73.298,46.62 72.331,47.322C71.804,47.706 71.179,47.901 70.552,47.901Z" clip-rule="evenodd" fill-rule="evenodd" fill="#E6BD5C"/>
<path d="M70.553,47.901C70.033,47.901 69.513,47.767 69.043,47.498L56.633,40.358L44.222,47.498C43.187,48.092 41.899,48.023 40.932,47.323C39.967,46.621 39.503,45.418 39.75,44.249L42.704,30.238L32.079,20.64C31.505,20.122 31.163,19.416 31.094,18.674C31.43,18.495 31.803,18.377 32.198,18.335L46.717,16.785L52.992,2.753C53.541,2.248 54.268,1.952 55.043,1.952C56.237,1.952 57.319,2.654 57.808,3.746L63.652,16.816L77.889,18.335C79.076,18.463 80.078,19.273 80.448,20.409C80.53,20.662 80.577,20.92 80.591,21.178L68.704,31.916L71.927,47.201C71.951,47.315 71.968,47.43 71.979,47.545C71.535,47.781 71.045,47.901 70.553,47.901Z" clip-rule="evenodd" fill-rule="evenodd" fill="#FFD266"/>
<path d="M276.25,269.312L199.19,269.312C197.517,269.312 196.162,267.954 196.162,266.285C196.162,243.371 214.805,224.725 237.719,224.725C260.635,224.725 279.276,243.371 279.276,266.285C279.276,267.954 277.922,269.312 276.25,269.312Z" clip-rule="evenodd" fill-rule="evenodd" fill="#10737F"/>
<path d="M185.033,269.312L107.973,269.312C106.301,269.312 104.945,267.954 104.945,266.285C104.945,243.371 123.588,224.725 146.503,224.725C169.418,224.725 188.061,243.371 188.061,266.285C188.061,267.954 186.705,269.312 185.033,269.312Z" clip-rule="evenodd" fill-rule="evenodd" fill="#10737F"/>
<path d="M212.664,233.152C218.116,230.518 224.229,229.04 230.68,229.04C253.165,229.04 271.533,246.991 272.216,269.312L199.19,269.312C197.517,269.312 196.162,267.954 196.162,266.285C196.163,252.774 202.646,240.748 212.664,233.152Z" clip-rule="evenodd" fill-rule="evenodd" fill="#128593"/>
<path d="M180.999,269.312L107.973,269.312C106.301,269.312 104.945,267.954 104.945,266.285C104.945,252.774 111.429,240.748 121.446,233.152C126.9,230.518 133.012,229.04 139.464,229.04C161.948,229.04 180.317,246.991 180.999,269.312Z" clip-rule="evenodd" fill-rule="evenodd" fill="#128593"/>
<path d="M237.72,230.781C225.676,230.781 215.877,220.984 215.877,208.939C215.877,196.895 225.676,187.097 237.72,187.097C249.765,187.097 259.565,196.894 259.565,208.939C259.565,220.984 249.765,230.781 237.72,230.781Z" clip-rule="evenodd" fill-rule="evenodd" fill="#D9B7A9"/>
<path d="M146.504,230.781C134.458,230.781 124.66,220.984 124.66,208.939C124.66,196.895 134.458,187.097 146.504,187.097C158.547,187.097 168.347,196.894 168.347,208.939C168.347,220.984 158.547,230.781 146.504,230.781Z" clip-rule="evenodd" fill-rule="evenodd" fill="#D9B7A9"/>
<path d="M228.523,189.129C229.525,188.988 230.548,188.913 231.587,188.913C243.632,188.913 253.432,198.71 253.432,210.755C253.432,219.517 248.246,227.088 240.783,230.565C239.782,230.706 238.759,230.781 237.718,230.781C225.674,230.781 215.875,220.983 215.875,208.938C215.875,200.177 221.061,192.606 228.523,189.129Z" clip-rule="evenodd" fill-rule="evenodd" fill="#F1CBBC"/>
<path d="M146.504,230.781C134.458,230.781 124.66,220.983 124.66,208.938C124.66,200.177 129.845,192.606 137.308,189.129C138.31,188.988 139.332,188.913 140.373,188.913C152.416,188.913 162.216,198.71 162.216,210.755C162.216,219.517 157.029,227.088 149.567,230.565C148.566,230.706 147.543,230.781 146.504,230.781Z" clip-rule="evenodd" fill-rule="evenodd" fill="#F1CBBC"/>
</svg>
