<svg width="274" height="274" viewBox="0 0 274 274" fill="none" xmlns="http://www.w3.org/2000/svg" xmlns:xlink="http://www.w3.org/1999/xlink">
<path d="M82.221,116.576L82.221,129.888L68.91,137.446L55.598,129.887L55.598,116.575C55.598,109.223 61.558,103.263 68.91,103.263C76.262,103.264 82.221,109.224 82.221,116.576Z" fill="#FFBD86"/>
<path d="M122.095,172.823L155.078,172.823C160.529,167.948 163.962,160.864 163.962,152.976C163.962,138.272 152.042,126.353 137.338,126.353C122.635,126.353 110.715,138.272 110.715,152.976C110.715,157.638 111.916,162.018 114.022,165.829L122.095,172.823Z" fill="#FFBD86"/>
<path d="M150.191,129.659C152.296,133.47 153.498,137.85 153.498,142.512C153.498,157.215 141.578,169.135 126.875,169.135C122.212,169.135 117.832,167.934 114.021,165.828C118.556,174.037 127.296,179.598 137.338,179.598C152.042,179.598 163.962,167.679 163.962,152.975C163.962,142.934 158.4,134.194 150.191,129.659Z" fill="#F6A96C"/>
<path d="M192.455,116.576L192.455,129.888L205.767,137.446L219.079,129.887L219.079,116.575C219.079,109.223 213.119,103.263 205.767,103.263C198.415,103.264 192.455,109.224 192.455,116.576Z" fill="#F6A96C"/>
<path d="M207.984,129.886L192.454,129.886L192.454,170.322L166.968,179.598L107.708,179.598L82.221,170.322L82.221,129.886L55.598,129.886L55.598,175.29C55.598,180.92 58.269,186.216 62.796,189.563L99.59,216.762C101.005,217.807 101.84,219.462 101.84,221.222L101.84,268.56C101.84,271.504 104.226,273.89 107.17,273.89L167.506,273.89C170.45,273.89 172.836,271.504 172.836,268.56L172.836,221.222C172.836,219.462 173.67,217.807 175.085,216.762L211.879,189.563C216.407,186.216 219.078,180.92 219.078,175.29L219.078,140.979L207.984,129.886Z" fill="#128593"/>
<path d="M207.984,129.886L207.984,175.29C207.984,177.392 206.975,179.393 205.285,180.642L166.241,209.504C163.411,211.595 161.742,214.906 161.742,218.425L161.742,268.56C161.742,271.504 159.356,273.89 156.412,273.89L167.505,273.89C170.449,273.89 172.835,271.504 172.835,268.56L172.835,221.222C172.835,219.462 173.67,217.807 175.085,216.762L211.879,189.563C216.406,186.216 219.077,180.92 219.077,175.29L219.077,129.886L207.984,129.886Z" fill="#107380"/>
<path d="M142.312,4.092L151.259,22.221C152.067,23.857 153.629,24.992 155.435,25.255L175.441,28.162C179.991,28.823 181.808,34.414 178.515,37.622L164.039,51.734C162.731,53.008 162.135,54.844 162.443,56.643L165.861,76.569C166.638,81.099 161.882,84.555 157.813,82.415L139.919,73.008C138.303,72.159 136.373,72.159 134.757,73.008L116.863,82.415C112.794,84.555 108.039,81.099 108.816,76.569L112.233,56.643C112.542,54.844 111.945,53.008 110.638,51.734L96.161,37.622C92.87,34.413 94.686,28.823 99.235,28.162L119.241,25.255C121.048,24.992 122.61,23.858 123.417,22.221L132.365,4.092C134.399,-0.031 140.277,-0.031 142.312,4.092Z" fill="#FFE177"/>
<path d="M178.515,37.623C181.806,34.414 179.99,28.824 175.44,28.163L160.114,25.936C154.581,46.207 136.047,61.113 114.021,61.113C113.168,61.113 112.32,61.089 111.477,61.045L108.815,76.57C108.038,81.1 112.793,84.556 116.862,82.416L134.756,73.009C136.372,72.16 138.302,72.16 139.918,73.009L157.812,82.416C161.882,84.556 166.637,81.1 165.86,76.57L162.442,56.644C162.134,54.845 162.73,53.009 164.038,51.735L178.515,37.623Z" fill="#FFD15B"/>
<path d="M234.997,25.352L218.525,46.779C215.721,50.427 218.321,55.706 222.922,55.706L228.301,55.706L228.301,90.854C228.301,93.917 230.784,96.4 233.848,96.4L244.941,96.4C248.004,96.4 250.488,93.917 250.488,90.854L250.488,55.706L255.867,55.706C260.469,55.706 263.069,50.427 260.265,46.779L243.792,25.352C241.572,22.464 237.218,22.464 234.997,25.352Z" fill="#8BC727"/>
<path d="M30.884,25.352L14.411,46.779C11.607,50.427 14.208,55.706 18.808,55.706L24.188,55.706L24.188,90.854C24.188,93.917 26.671,96.4 29.735,96.4L40.828,96.4C43.891,96.4 46.375,93.917 46.375,90.854L46.375,55.706L51.754,55.706C56.356,55.706 58.956,50.427 56.151,46.779L39.679,25.352C37.458,22.464 33.104,22.464 30.884,25.352Z" fill="#97D729"/>
<path d="M259.864,116.587L263.151,123.248C263.448,123.849 264.021,124.266 264.685,124.362L272.035,125.43C273.707,125.673 274.374,127.727 273.165,128.906L267.847,134.09C267.366,134.558 267.147,135.232 267.26,135.893L268.516,143.214C268.802,144.878 267.054,146.148 265.559,145.361L258.986,141.906C258.392,141.593 257.683,141.593 257.089,141.906L250.515,145.361C249.02,146.148 247.273,144.878 247.559,143.214L248.814,135.893C248.928,135.232 248.709,134.558 248.229,134.09L242.911,128.906C241.701,127.727 242.368,125.673 244.04,125.43L251.39,124.362C252.053,124.266 252.627,123.849 252.924,123.248L256.211,116.587C256.957,115.073 259.117,115.073 259.864,116.587Z" fill="#FFD15B"/>
<path d="M14.809,116.587L11.522,123.248C11.225,123.849 10.652,124.266 9.988,124.362L2.638,125.43C0.966,125.673 0.299,127.727 1.508,128.906L6.826,134.09C7.307,134.558 7.526,135.232 7.412,135.893L6.156,143.214C5.871,144.878 7.618,146.148 9.113,145.361L15.687,141.906C16.281,141.593 16.989,141.593 17.583,141.906L24.157,145.361C25.652,146.148 27.399,144.878 27.114,143.214L25.858,135.893C25.744,135.232 25.963,134.558 26.444,134.09L31.762,128.906C32.971,127.727 32.304,125.673 30.632,125.43L23.282,124.362C22.619,124.266 22.045,123.849 21.748,123.248L18.461,116.587C17.716,115.073 15.556,115.073 14.809,116.587Z" fill="#FFE177"/>
<path d="M199.663,73.572L196.45,73.572L196.45,68.695C196.45,66.487 194.66,64.698 192.452,64.698C190.245,64.698 188.455,66.487 188.455,68.695L188.455,73.572L185.242,73.572C183.034,73.572 181.244,75.361 181.244,77.569C181.244,79.778 183.034,81.567 185.242,81.567L188.455,81.567L188.455,86.444C188.455,88.652 190.245,90.441 192.452,90.441C194.66,90.441 196.45,88.652 196.45,86.444L196.45,81.567L199.663,81.567C201.87,81.567 203.66,79.778 203.66,77.569C203.66,75.361 201.87,73.572 199.663,73.572Z" fill="#FFD15B"/>
<path d="M89.43,73.572L86.217,73.572L86.217,68.695C86.217,66.487 84.427,64.698 82.219,64.698C80.012,64.698 78.222,66.487 78.222,68.695L78.222,73.572L75.009,73.572C72.801,73.572 71.012,75.361 71.012,77.569C71.012,79.778 72.801,81.567 75.009,81.567L78.222,81.567L78.222,86.444C78.222,88.652 80.012,90.441 82.219,90.441C84.427,90.441 86.217,88.652 86.217,86.444L86.217,81.567L89.43,81.567C91.638,81.567 93.428,79.778 93.428,77.569C93.428,75.361 91.638,73.572 89.43,73.572Z" fill="#FFE177"/>
</svg>
