<svg width="270" height="268" viewBox="0 0 270 268" fill="none" xmlns="http://www.w3.org/2000/svg" xmlns:xlink="http://www.w3.org/1999/xlink">
<path d="M134.693,-1C125.603,-1 118.209,6.395 118.209,15.484C118.209,25.601 123.986,36.355 134.693,36.355C145.399,36.355 151.165,25.602 151.165,15.484C151.165,6.394 143.776,-1 134.693,-1Z" fill="#F6DCCD"/>
<path d="M134.693,-1C133.656,-1 132.643,-0.899 131.658,-0.715C139.297,0.714 145.098,7.432 145.098,15.484C145.098,24.599 140.41,34.226 131.658,36.045C132.622,36.245 133.632,36.355 134.693,36.355C145.392,36.355 151.165,25.602 151.165,15.484C151.165,6.394 143.776,-1 134.693,-1Z" fill="#F1CBBC"/>
<path d="M146.683,36.357L122.689,36.357C109.697,36.357 99.127,46.292 99.127,58.503L99.127,74.829L170.245,74.829L170.245,58.503C170.245,46.292 159.675,36.357 146.683,36.357Z" fill="#128593"/>
<path d="M146.685,36.352L139.219,36.352C152.211,36.352 162.781,46.287 162.781,58.498L162.781,74.825L170.247,74.825L170.247,58.498C170.247,46.287 159.677,36.352 146.685,36.352Z" fill="#10737F"/>
<path d="M156.555,74.832L156.555,60.609C156.555,58.547 154.884,56.875 152.821,56.875C150.759,56.875 149.088,58.546 149.088,60.609L149.088,74.832L156.555,74.832Z" fill="#10737F"/>
<path d="M120.272,74.832L120.272,60.609C120.272,58.547 118.601,56.875 116.538,56.875C114.476,56.875 112.805,58.546 112.805,60.609L112.805,74.832L120.272,74.832Z" fill="#10737F"/>
<path d="M36.405,149.944C27.316,149.944 19.922,157.339 19.922,166.428C19.922,176.545 25.699,187.299 36.405,187.299C47.112,187.299 52.878,176.546 52.878,166.428C52.878,157.338 45.489,149.944 36.405,149.944Z" fill="#F6DCCD"/>
<path d="M36.406,149.944C35.369,149.944 34.355,150.045 33.371,150.229C41.01,151.658 46.811,158.376 46.811,166.428C46.811,175.543 42.123,185.17 33.371,186.989C34.334,187.189 35.345,187.299 36.406,187.299C47.105,187.299 52.878,176.546 52.878,166.428C52.878,157.338 45.489,149.944 36.406,149.944Z" fill="#F1CBBC"/>
<path d="M48.396,187.301L24.402,187.301C11.41,187.301 0.84,197.236 0.84,209.447L0.84,225.773L71.958,225.773L71.958,209.447C71.958,197.236 61.388,187.301 48.396,187.301Z" fill="#128593"/>
<path d="M48.394,187.302L40.928,187.302C53.92,187.302 64.49,197.236 64.49,209.448L64.49,225.774L71.956,225.774L71.956,209.448C71.956,197.236 61.386,187.302 48.394,187.302Z" fill="#10737F"/>
<path d="M58.268,225.772L58.268,211.549C58.268,209.487 56.597,207.815 54.534,207.815C52.472,207.815 50.801,209.486 50.801,211.549L50.801,225.772L58.268,225.772Z" fill="#10737F"/>
<path d="M21.985,225.772L21.985,211.549C21.985,209.487 20.313,207.815 18.251,207.815C16.189,207.815 14.518,209.486 14.518,211.549L14.518,225.772L21.984,225.772L21.985,225.772Z" fill="#10737F"/>
<path d="M232.941,149.944C223.851,149.944 216.457,157.339 216.457,166.428C216.457,176.545 222.234,187.299 232.941,187.299C243.647,187.299 249.413,176.546 249.413,166.428C249.413,157.338 242.024,149.944 232.941,149.944Z" fill="#F6DCCD"/>
<path d="M232.941,149.944C231.904,149.944 230.891,150.045 229.906,150.229C237.545,151.658 243.346,158.376 243.346,166.428C243.346,175.543 238.658,185.17 229.906,186.989C230.87,187.189 231.88,187.299 232.941,187.299C243.64,187.299 249.413,176.546 249.413,166.428C249.413,157.338 242.024,149.944 232.941,149.944Z" fill="#F1CBBC"/>
<path d="M244.931,187.301L220.937,187.301C207.945,187.301 197.375,197.236 197.375,209.447L197.375,225.773L268.493,225.773L268.493,209.447C268.493,197.236 257.923,187.301 244.931,187.301Z" fill="#128593"/>
<path d="M244.931,187.302L237.465,187.302C250.457,187.302 261.027,197.236 261.027,209.448L261.027,225.774L268.493,225.774L268.493,209.448C268.493,197.236 257.923,187.302 244.931,187.302Z" fill="#10737F"/>
<path d="M254.803,225.772L254.803,211.549C254.803,209.487 253.132,207.815 251.069,207.815C249.007,207.815 247.336,209.486 247.336,211.549L247.336,225.772L254.802,225.772L254.803,225.772Z" fill="#10737F"/>
<path d="M218.52,225.772L218.52,211.549C218.52,209.487 216.849,207.815 214.786,207.815C212.724,207.815 211.053,209.486 211.053,211.549L211.053,225.772L218.519,225.772L218.52,225.772Z" fill="#10737F"/>
<path d="M134.688,266.7C108.633,266.7 83.954,258.318 63.318,242.461C61.389,240.978 61.027,238.212 62.509,236.282C63.993,234.352 66.759,233.99 68.689,235.473C87.77,250.136 110.592,257.888 134.688,257.888C158.784,257.888 181.591,250.136 200.672,235.473C202.601,233.99 205.368,234.352 206.851,236.281C208.334,238.211 207.972,240.978 206.042,242.461C185.407,258.318 160.734,266.7 134.688,266.7L134.688,266.7ZM247.023,144.243C244.759,144.243 242.833,142.509 242.637,140.211C239.329,101.473 215.273,67.296 179.86,51.017C177.648,50 176.68,47.384 177.696,45.173C178.713,42.961 181.332,41.994 183.54,43.009C221.831,60.611 247.839,97.568 251.417,139.462C251.625,141.886 249.827,144.02 247.403,144.227C247.275,144.238 247.147,144.243 247.023,144.243ZM22.353,144.227C22.227,144.227 22.1,144.222 21.973,144.211C19.548,144.004 17.751,141.87 17.958,139.445C21.536,97.558 47.54,60.612 85.82,43.025C88.033,42.008 90.648,42.978 91.664,45.19C92.68,47.401 91.711,50.018 89.499,51.033C54.096,67.299 30.048,101.464 26.738,140.196C26.542,142.493 24.617,144.227 22.353,144.227Z" fill="#A79BA7"/>
<path d="M206.006,180.457L193.759,128.291C193.193,125.911 190.78,124.413 188.384,124.98L178.317,127.343C175.921,127.892 174.44,130.321 174.989,132.7L176.403,138.713L173.126,139.906C168.916,141.42 164.722,141.171 160.729,139.157L155.104,136.33C161.92,127.568 166.747,115.108 166.747,98.521C166.747,96.576 165.472,94.861 163.609,94.301L135.77,85.932C134.942,85.683 134.06,85.683 133.232,85.932L105.393,94.301C103.531,94.861 102.255,96.576 102.255,98.521C102.255,114.638 106.81,126.862 113.322,135.58L93.659,135.58L94.335,132.701C94.901,130.321 93.403,127.892 91.007,127.343L80.94,124.98C78.561,124.414 76.148,125.912 75.582,128.291L63.319,180.457C62.769,182.853 64.267,185.266 66.647,185.832L76.714,188.195C79.11,188.761 81.522,187.263 82.089,184.867L83.503,178.843L115.917,211.158C118.779,214.02 123.471,214.02 126.333,211.142C129.195,208.28 129.179,203.587 126.317,200.725C123.455,197.863 134.62,209.012 134.62,209.012C137.482,211.874 142.174,211.857 145.036,208.995C147.898,206.117 147.898,201.441 145.02,198.579L151.127,204.652C153.989,207.514 158.681,207.514 161.543,204.652C164.406,201.773 164.406,197.081 161.527,194.219C164.406,197.081 169.099,197.081 171.96,194.202C174.822,191.34 174.806,186.648 171.944,183.785L171.933,183.774C174.899,186.562 179.059,187.288 182.809,185.632L186.998,183.785L187.252,184.867C187.801,187.263 190.214,188.761 192.61,188.195L202.677,185.832C205.074,185.266 206.571,182.853 206.005,180.457L206.006,180.457Z" fill="#F6DCCD"/>
<path d="M163.61,94.301L135.77,85.932C134.943,85.683 134.061,85.683 133.233,85.932L105.394,94.301C103.532,94.861 102.256,96.576 102.256,98.521C102.256,128.614 118.13,145.151 132.986,150.593C133.475,150.772 133.989,150.861 134.501,150.861C135.014,150.861 135.528,150.772 136.017,150.593C150.873,145.151 166.747,128.614 166.747,98.521C166.747,96.576 165.472,94.861 163.609,94.301L163.61,94.301Z" fill="#8AC9FE"/>
<path d="M176.402,138.716L173.125,139.909C168.915,141.423 164.722,141.173 160.728,139.16L155.103,136.333C149.552,143.468 142.684,148.153 136.016,150.595C135.527,150.775 135.014,150.864 134.501,150.864C133.988,150.864 133.475,150.774 132.986,150.595C128.448,148.933 123.818,146.231 119.572,142.428L106.932,156.599C105.884,157.797 105.467,159.244 105.751,160.809C106.034,162.373 106.932,163.604 108.33,164.336C114.204,167.448 121.392,167.198 127.216,163.338L134.937,158.197C138.93,155.535 144.122,156.05 147.517,159.445L171.711,183.573C174.69,186.535 178.966,187.333 182.809,185.636L186.998,183.789L176.402,138.717L176.402,138.716Z" fill="#E2B8AA"/>
<path d="M75.582,128.291L63.318,180.457C62.77,182.853 64.267,185.266 66.647,185.832L76.713,188.195C79.11,188.761 81.523,187.263 82.088,184.867L94.335,132.701C94.901,130.321 93.403,127.892 91.007,127.343L80.94,124.98C78.56,124.414 76.148,125.911 75.582,128.291Z" fill="#837683"/>
<path d="M91.007,127.343L89.476,126.984L77.682,177.22C77.116,179.616 74.703,181.114 72.307,180.548L63.769,178.545L63.319,180.458C62.769,182.854 64.267,185.267 66.647,185.833L76.714,188.196C79.11,188.762 81.522,187.264 82.089,184.868L94.335,132.702C94.901,130.322 93.403,127.893 91.007,127.343Z" fill="#7A6D7A"/>
<path d="M193.757,128.291L206.005,180.457C206.57,182.853 205.073,185.266 202.676,185.832L192.609,188.195C190.213,188.761 187.8,187.263 187.251,184.867L174.987,132.701C174.438,130.321 175.919,127.892 178.315,127.343L188.382,124.98C190.779,124.414 193.191,125.912 193.757,128.291L193.757,128.291Z" fill="#837683"/>
<path d="M206.005,180.457L193.757,128.291C193.192,125.911 190.779,124.413 188.383,124.98L186.516,125.418L198.506,176.491C199.072,178.887 197.575,181.299 195.178,181.866L186.996,183.786L187.251,184.867C187.8,187.263 190.213,188.761 192.609,188.195L202.676,185.832C205.073,185.266 206.57,182.854 206.004,180.457L206.005,180.457Z" fill="#7A6D7A"/>
<path d="M154.819,201.148L138.184,184.564C137.355,183.737 136.067,183.583 135.067,184.192C133.658,185.049 133.425,187 134.593,188.165L151.125,204.647C153.987,207.509 158.68,207.509 161.542,204.647C162.122,204.064 162.578,203.404 162.923,202.702C160.237,203.842 156.998,203.327 154.819,201.148Z" fill="#F1CBBC"/>
<path d="M138.313,205.508L125.229,192.449C124.399,191.621 123.111,191.467 122.11,192.077C120.701,192.934 120.468,194.884 121.636,196.049L134.619,209.007C137.481,211.869 142.173,211.853 145.035,208.991C145.615,208.408 146.071,207.749 146.416,207.049C143.73,208.193 140.491,207.687 138.313,205.508Z" fill="#F1CBBC"/>
<path d="M165.219,190.717L151.148,176.68C150.319,175.852 149.032,175.699 148.03,176.307C146.621,177.164 146.388,179.115 147.556,180.28L161.525,194.216C164.404,197.079 169.096,197.079 171.958,194.2C172.537,193.621 172.993,192.964 173.336,192.266C170.651,193.411 167.41,192.896 165.219,190.718L165.219,190.717Z" fill="#F1CBBC"/>
<path d="M186.011,179.585L179.585,182.418C175.741,184.115 171.465,183.316 168.486,180.354L144.292,156.226C140.897,152.832 135.707,152.316 131.713,154.978L123.991,160.12C118.439,163.8 111.649,164.191 105.938,161.524C106.338,162.746 107.154,163.718 108.329,164.333C114.203,167.445 121.392,167.196 127.215,163.335L134.936,158.194C138.93,155.532 144.122,156.047 147.516,159.442L171.71,183.57C174.689,186.532 178.965,187.33 182.809,185.633L186.998,183.786L186.01,179.585L186.011,179.585Z" fill="#D3A69B"/>
<path d="M119.611,207.661L84.868,173.026L83.502,178.844L115.917,211.16C118.779,214.022 123.471,214.022 126.333,211.144C126.912,210.565 127.367,209.908 127.711,209.21C125.026,210.355 121.789,209.839 119.611,207.661Z" fill="#F1CBBC"/>
<path d="M134.501,150.861C133.988,150.861 133.475,150.772 132.986,150.593C118.13,145.151 102.256,128.614 102.256,98.521C102.256,96.576 103.531,94.861 105.394,94.301L133.233,85.932C134.061,85.683 134.943,85.683 135.77,85.932L163.61,94.301C165.472,94.861 166.748,96.576 166.748,98.521C166.748,128.614 150.874,145.151 136.018,150.593C135.529,150.772 135.015,150.861 134.502,150.861L134.501,150.861ZM111.14,101.776C112.138,124.228 123.426,136.949 134.501,141.714C145.576,136.949 156.864,124.228 157.863,101.776L134.501,94.753L111.14,101.776Z" fill="#60B7FF"/>
<path d="M163.609,94.299L162.114,93.85C163.13,94.712 163.766,96.019 163.766,97.457C163.766,124.703 152.044,141.395 139.32,149.193C153.132,142.622 166.746,126.388 166.746,98.519C166.746,96.574 165.472,94.859 163.609,94.299Z" fill="#49A9EA"/>
<path d="M131.644,129.33C130.506,129.33 129.409,128.89 128.587,128.097L122.201,121.945C120.448,120.257 120.396,117.468 122.085,115.714C123.772,113.962 126.562,113.909 128.316,115.598L131.439,118.607L140.473,108.699C142.113,106.9 144.9,106.771 146.698,108.411C148.497,110.051 148.626,112.838 146.986,114.636L134.901,127.893C134.099,128.772 132.976,129.29 131.787,129.328C131.74,129.33 131.692,129.33 131.644,129.33Z" fill="#D8ECFE"/>
</svg>
