<svg width="274" height="274" viewBox="0 0 274 274" fill="none" xmlns="http://www.w3.org/2000/svg" xmlns:xlink="http://www.w3.org/1999/xlink">
<path d="M82.275,115.785L82.275,129.097L68.964,136.655L55.652,129.096L55.652,115.784C55.652,108.432 61.612,102.472 68.964,102.472C76.316,102.473 82.275,108.433 82.275,115.785Z" fill="#FFBD86"/>
<path d="M122.149,172.032L155.132,172.032C160.582,167.157 164.015,160.073 164.015,152.185C164.015,137.481 152.095,125.562 137.392,125.562C122.688,125.562 110.768,137.481 110.768,152.185C110.768,156.847 111.97,161.227 114.076,165.038L122.149,172.032Z" fill="#FFBD86"/>
<path d="M150.245,128.868C152.351,132.679 153.552,137.059 153.552,141.721C153.552,156.424 141.632,168.344 126.929,168.344C122.267,168.344 117.887,167.143 114.076,165.037C118.61,173.246 127.35,178.807 137.392,178.807C152.096,178.807 164.016,166.888 164.016,152.184C164.016,142.142 158.454,133.402 150.245,128.868Z" fill="#F6A96C"/>
<path d="M192.509,115.785L192.509,129.097L205.821,136.655L219.133,129.096L219.133,115.784C219.133,108.432 213.173,102.472 205.821,102.472C198.468,102.473 192.509,108.433 192.509,115.785Z" fill="#F6A96C"/>
<path d="M208.039,129.095L192.508,129.095L192.508,169.531L167.022,178.807L107.762,178.807L82.275,169.531L82.275,129.095L55.652,129.095L55.652,174.499C55.652,180.129 58.323,185.425 62.85,188.772L99.644,215.971C101.059,217.016 101.894,218.671 101.894,220.431L101.894,267.769C101.894,270.713 104.28,273.099 107.224,273.099L167.56,273.099C170.504,273.099 172.89,270.713 172.89,267.769L172.89,220.431C172.89,218.671 173.725,217.016 175.14,215.971L211.934,188.772C216.461,185.425 219.132,180.129 219.132,174.499L219.132,140.188L208.039,129.095Z" fill="#128593"/>
<path d="M208.039,129.095L208.039,174.499C208.039,176.601 207.03,178.602 205.34,179.851L166.296,208.713C163.466,210.804 161.797,214.115 161.797,217.634L161.797,267.769C161.797,270.713 159.411,273.099 156.467,273.099L167.56,273.099C170.504,273.099 172.89,270.713 172.89,267.769L172.89,220.431C172.89,218.671 173.725,217.016 175.14,215.971L211.934,188.772C216.461,185.425 219.132,180.129 219.132,174.499L219.132,129.095L208.039,129.095Z" fill="#107380"/>
<path d="M142.366,3.301L151.313,21.43C152.121,23.066 153.683,24.201 155.489,24.464L175.495,27.371C180.045,28.032 181.861,33.623 178.569,36.831L164.093,50.943C162.785,52.217 162.189,54.053 162.497,55.852L165.915,75.778C166.692,80.308 161.936,83.764 157.867,81.624L139.973,72.217C138.357,71.368 136.427,71.368 134.811,72.217L116.917,81.624C112.848,83.764 108.092,80.308 108.869,75.778L112.287,55.852C112.595,54.053 111.999,52.217 110.692,50.943L96.215,36.831C92.923,33.622 94.74,28.032 99.289,27.371L119.295,24.464C121.102,24.201 122.664,23.067 123.471,21.43L132.419,3.301C134.452,-0.822 140.331,-0.822 142.366,3.301Z" fill="#FFE177"/>
<path d="M178.57,36.832C181.861,33.623 180.045,28.033 175.495,27.372L160.169,25.145C154.636,45.416 136.102,60.322 114.076,60.322C113.222,60.322 112.375,60.298 111.532,60.254L108.87,75.779C108.092,80.309 112.848,83.765 116.917,81.625L134.811,72.218C136.427,71.369 138.357,71.369 139.973,72.218L157.867,81.625C161.937,83.765 166.692,80.309 165.915,75.779L162.497,55.853C162.189,54.054 162.785,52.218 164.093,50.944L178.57,36.832Z" fill="#FFD15B"/>
<path d="M235.051,24.561L218.579,45.988C215.775,49.635 218.375,54.915 222.976,54.915L228.355,54.915L228.355,90.063C228.355,93.126 230.839,95.609 233.902,95.609L244.995,95.609C248.058,95.609 250.542,93.126 250.542,90.063L250.542,54.915L255.922,54.915C260.523,54.915 263.123,49.635 260.319,45.988L243.846,24.561C241.626,21.673 237.272,21.673 235.051,24.561Z" fill="#8BC727"/>
<path d="M30.938,24.561L14.465,45.988C11.661,49.635 14.262,54.915 18.863,54.915L24.242,54.915L24.242,90.063C24.242,93.126 26.725,95.609 29.789,95.609L40.882,95.609C43.945,95.609 46.429,93.126 46.429,90.063L46.429,54.915L51.808,54.915C56.41,54.915 59.01,49.635 56.206,45.988L39.733,24.561C37.513,21.673 33.159,21.673 30.938,24.561Z" fill="#97D729"/>
<path d="M259.919,115.796L263.206,122.457C263.503,123.058 264.076,123.475 264.741,123.571L272.09,124.639C273.762,124.882 274.429,126.936 273.22,128.115L267.902,133.299C267.421,133.767 267.202,134.441 267.315,135.102L268.571,142.422C268.857,144.087 267.11,145.356 265.615,144.57L259.041,141.114C258.447,140.802 257.738,140.802 257.144,141.114L250.57,144.57C249.075,145.356 247.328,144.087 247.614,142.422L248.87,135.102C248.983,134.441 248.764,133.767 248.284,133.299L242.966,128.115C241.756,126.936 242.424,124.882 244.095,124.639L251.445,123.571C252.109,123.475 252.683,123.058 252.98,122.457L256.266,115.796C257.012,114.282 259.172,114.282 259.919,115.796Z" fill="#FFD15B"/>
<path d="M14.864,115.796L11.577,122.457C11.28,123.058 10.706,123.475 10.042,123.571L2.692,124.639C1.021,124.882 0.354,126.936 1.563,128.115L6.881,133.299C7.361,133.767 7.58,134.441 7.467,135.102L6.211,142.422C5.925,144.087 7.673,145.356 9.168,144.57L15.741,141.114C16.335,140.802 17.044,140.802 17.638,141.114L24.212,144.57C25.707,145.356 27.454,144.087 27.168,142.422L25.913,135.102C25.799,134.441 26.018,133.767 26.498,133.299L31.817,128.115C33.026,126.936 32.359,124.882 30.687,124.639L23.337,123.571C22.674,123.475 22.1,123.058 21.803,122.457L18.516,115.796C17.771,114.282 15.611,114.282 14.864,115.796Z" fill="#FFE177"/>
<path d="M199.718,72.781L196.505,72.781L196.505,67.904C196.505,65.696 194.715,63.907 192.508,63.907C190.3,63.907 188.51,65.696 188.51,67.904L188.51,72.781L185.297,72.781C183.089,72.781 181.3,74.57 181.3,76.778C181.3,78.986 183.089,80.776 185.297,80.776L188.51,80.776L188.51,85.653C188.51,87.861 190.3,89.65 192.508,89.65C194.715,89.65 196.505,87.861 196.505,85.653L196.505,80.776L199.718,80.776C201.926,80.776 203.716,78.986 203.716,76.778C203.716,74.57 201.926,72.781 199.718,72.781Z" fill="#FFD15B"/>
<path d="M89.486,72.781L86.273,72.781L86.273,67.904C86.273,65.696 84.483,63.907 82.275,63.907C80.067,63.907 78.278,65.696 78.278,67.904L78.278,72.781L75.065,72.781C72.857,72.781 71.067,74.57 71.067,76.778C71.067,78.986 72.857,80.776 75.065,80.776L78.278,80.776L78.278,85.653C78.278,87.861 80.067,89.65 82.275,89.65C84.483,89.65 86.273,87.861 86.273,85.653L86.273,80.776L89.486,80.776C91.694,80.776 93.483,78.986 93.483,76.778C93.483,74.57 91.694,72.781 89.486,72.781Z" fill="#FFE177"/>
</svg>
