<svg width="270" height="270" viewBox="0 0 270 270" fill="none" xmlns="http://www.w3.org/2000/svg" xmlns:xlink="http://www.w3.org/1999/xlink">
<path d="M134.693,1C125.603,1 118.209,8.395 118.209,17.484C118.209,27.601 123.986,38.355 134.693,38.355C145.399,38.355 151.165,27.602 151.165,17.484C151.165,8.394 143.776,1 134.693,1Z" fill="#F6DCCD"/>
<path d="M134.693,1C133.656,1 132.643,1.101 131.658,1.285C139.297,2.714 145.098,9.432 145.098,17.484C145.098,26.599 140.41,36.226 131.658,38.045C132.622,38.245 133.632,38.355 134.693,38.355C145.392,38.355 151.165,27.602 151.165,17.484C151.165,8.394 143.776,1 134.693,1Z" fill="#F1CBBC"/>
<path d="M146.683,38.357L122.689,38.357C109.697,38.357 99.127,48.292 99.127,60.503L99.127,76.829L170.245,76.829L170.245,60.503C170.245,48.292 159.675,38.357 146.683,38.357Z" fill="#128593"/>
<path d="M146.685,38.352L139.219,38.352C152.211,38.352 162.781,48.287 162.781,60.498L162.781,76.825L170.247,76.825L170.247,60.498C170.247,48.287 159.677,38.352 146.685,38.352Z" fill="#10737F"/>
<path d="M156.555,76.832L156.555,62.609C156.555,60.547 154.884,58.875 152.821,58.875C150.759,58.875 149.088,60.546 149.088,62.609L149.088,76.832L156.555,76.832Z" fill="#10737F"/>
<path d="M120.272,76.832L120.272,62.609C120.272,60.547 118.601,58.875 116.538,58.875C114.476,58.875 112.805,60.546 112.805,62.609L112.805,76.832L120.272,76.832Z" fill="#10737F"/>
<path d="M36.405,151.944C27.316,151.944 19.922,159.339 19.922,168.428C19.922,178.545 25.699,189.299 36.405,189.299C47.112,189.299 52.878,178.546 52.878,168.428C52.878,159.338 45.489,151.944 36.405,151.944Z" fill="#F6DCCD"/>
<path d="M36.406,151.944C35.369,151.944 34.355,152.045 33.371,152.229C41.01,153.658 46.811,160.376 46.811,168.428C46.811,177.543 42.123,187.17 33.371,188.99C34.334,189.19 35.345,189.299 36.406,189.299C47.105,189.299 52.878,178.546 52.878,168.428C52.878,159.338 45.489,151.944 36.406,151.944Z" fill="#F1CBBC"/>
<path d="M48.396,189.301L24.402,189.301C11.41,189.301 0.84,199.236 0.84,211.447L0.84,227.773L71.958,227.773L71.958,211.447C71.958,199.236 61.388,189.301 48.396,189.301Z" fill="#128593"/>
<path d="M48.394,189.302L40.928,189.302C53.92,189.302 64.49,199.237 64.49,211.448L64.49,227.774L71.956,227.774L71.956,211.448C71.956,199.237 61.386,189.302 48.394,189.302Z" fill="#10737F"/>
<path d="M58.268,227.772L58.268,213.549C58.268,211.487 56.597,209.815 54.534,209.815C52.472,209.815 50.801,211.486 50.801,213.549L50.801,227.772L58.268,227.772Z" fill="#10737F"/>
<path d="M21.985,227.772L21.985,213.549C21.985,211.487 20.313,209.815 18.251,209.815C16.189,209.815 14.518,211.486 14.518,213.549L14.518,227.772L21.984,227.772L21.985,227.772Z" fill="#10737F"/>
<path d="M232.941,151.944C223.851,151.944 216.457,159.339 216.457,168.428C216.457,178.545 222.234,189.299 232.941,189.299C243.647,189.299 249.413,178.546 249.413,168.428C249.413,159.338 242.024,151.944 232.941,151.944Z" fill="#F6DCCD"/>
<path d="M232.941,151.944C231.904,151.944 230.891,152.045 229.906,152.229C237.545,153.658 243.346,160.376 243.346,168.428C243.346,177.543 238.658,187.17 229.906,188.99C230.87,189.19 231.88,189.299 232.941,189.299C243.64,189.299 249.413,178.546 249.413,168.428C249.413,159.338 242.024,151.944 232.941,151.944Z" fill="#F1CBBC"/>
<path d="M244.931,189.301L220.937,189.301C207.945,189.301 197.375,199.236 197.375,211.447L197.375,227.773L268.493,227.773L268.493,211.447C268.493,199.236 257.923,189.301 244.931,189.301Z" fill="#128593"/>
<path d="M244.931,189.302L237.465,189.302C250.457,189.302 261.027,199.237 261.027,211.448L261.027,227.774L268.493,227.774L268.493,211.448C268.493,199.237 257.923,189.302 244.931,189.302Z" fill="#10737F"/>
<path d="M254.803,227.772L254.803,213.549C254.803,211.487 253.132,209.815 251.069,209.815C249.007,209.815 247.336,211.486 247.336,213.549L247.336,227.772L254.802,227.772L254.803,227.772Z" fill="#10737F"/>
<path d="M218.52,227.772L218.52,213.549C218.52,211.487 216.849,209.815 214.786,209.815C212.724,209.815 211.053,211.486 211.053,213.549L211.053,227.772L218.519,227.772L218.52,227.772Z" fill="#10737F"/>
<path d="M134.688,268.7C108.633,268.7 83.954,260.318 63.318,244.461C61.389,242.978 61.027,240.212 62.509,238.282C63.993,236.352 66.759,235.99 68.689,237.473C87.77,252.136 110.592,259.888 134.688,259.888C158.784,259.888 181.591,252.136 200.672,237.473C202.601,235.99 205.368,236.352 206.851,238.281C208.334,240.211 207.972,242.978 206.042,244.461C185.407,260.318 160.734,268.7 134.688,268.7L134.688,268.7ZM247.023,146.243C244.759,146.243 242.833,144.509 242.637,142.211C239.329,103.473 215.273,69.296 179.86,53.017C177.648,52 176.68,49.384 177.696,47.173C178.713,44.961 181.332,43.994 183.54,45.009C221.831,62.61 247.839,99.568 251.417,141.462C251.625,143.886 249.827,146.02 247.403,146.227C247.275,146.238 247.147,146.243 247.023,146.243ZM22.353,146.227C22.227,146.227 22.1,146.222 21.973,146.211C19.548,146.004 17.751,143.87 17.958,141.445C21.536,99.558 47.54,62.612 85.82,45.025C88.033,44.008 90.648,44.978 91.664,47.189C92.68,49.401 91.711,52.017 89.499,53.033C54.096,69.299 30.048,103.464 26.738,142.196C26.542,144.493 24.617,146.227 22.353,146.227Z" fill="#A79BA7"/>
<path d="M206.006,182.457L193.759,130.291C193.193,127.911 190.78,126.413 188.384,126.98L178.317,129.343C175.921,129.892 174.44,132.321 174.989,134.7L176.403,140.713L173.126,141.906C168.916,143.42 164.722,143.171 160.729,141.157L155.104,138.33C161.92,129.568 166.747,117.108 166.747,100.521C166.747,98.576 165.472,96.861 163.609,96.301L135.77,87.932C134.942,87.683 134.06,87.683 133.232,87.932L105.393,96.301C103.531,96.861 102.255,98.576 102.255,100.521C102.255,116.638 106.81,128.862 113.322,137.58L93.659,137.58L94.335,134.701C94.901,132.321 93.403,129.892 91.007,129.343L80.94,126.98C78.561,126.414 76.148,127.912 75.582,130.291L63.319,182.457C62.769,184.853 64.267,187.266 66.647,187.832L76.714,190.195C79.11,190.761 81.522,189.263 82.089,186.867L83.503,180.843L115.917,213.158C118.779,216.02 123.471,216.02 126.333,213.142C129.195,210.28 129.179,205.587 126.317,202.725C123.455,199.863 134.62,211.012 134.62,211.012C137.482,213.874 142.174,213.857 145.036,210.995C147.898,208.117 147.898,203.441 145.02,200.579L151.127,206.652C153.989,209.514 158.681,209.514 161.543,206.652C164.406,203.773 164.406,199.081 161.527,196.219C164.406,199.081 169.099,199.081 171.96,196.202C174.822,193.34 174.806,188.648 171.944,185.785L171.933,185.774C174.899,188.562 179.059,189.288 182.809,187.632L186.998,185.785L187.252,186.867C187.801,189.263 190.214,190.761 192.61,190.195L202.677,187.832C205.074,187.266 206.571,184.853 206.005,182.457L206.006,182.457Z" fill="#F6DCCD"/>
<path d="M163.61,96.301L135.77,87.932C134.943,87.683 134.061,87.683 133.233,87.932L105.394,96.301C103.532,96.861 102.256,98.576 102.256,100.521C102.256,130.614 118.13,147.151 132.986,152.593C133.475,152.772 133.989,152.861 134.501,152.861C135.014,152.861 135.528,152.772 136.017,152.593C150.873,147.151 166.747,130.614 166.747,100.521C166.747,98.576 165.472,96.861 163.609,96.301L163.61,96.301Z" fill="#8AC9FE"/>
<path d="M176.402,140.715L173.125,141.909C168.915,143.423 164.722,143.173 160.728,141.16L155.103,138.333C149.552,145.467 142.684,150.153 136.016,152.595C135.527,152.775 135.014,152.864 134.501,152.864C133.988,152.864 133.475,152.774 132.986,152.595C128.448,150.933 123.818,148.23 119.572,144.428L106.932,158.599C105.884,159.797 105.467,161.244 105.751,162.809C106.034,164.373 106.932,165.604 108.33,166.336C114.204,169.448 121.392,169.198 127.216,165.338L134.937,160.197C138.93,157.534 144.122,158.05 147.517,161.445L171.711,185.573C174.69,188.535 178.966,189.333 182.809,187.636L186.998,185.789L176.402,140.717L176.402,140.715Z" fill="#E2B8AA"/>
<path d="M75.582,130.291L63.318,182.457C62.77,184.853 64.267,187.266 66.647,187.832L76.713,190.195C79.11,190.761 81.523,189.263 82.088,186.867L94.335,134.7C94.901,132.321 93.403,129.892 91.007,129.343L80.94,126.979C78.56,126.414 76.148,127.911 75.582,130.291Z" fill="#837683"/>
<path d="M91.007,129.343L89.476,128.984L77.682,179.22C77.116,181.616 74.703,183.114 72.307,182.548L63.769,180.545L63.319,182.458C62.769,184.854 64.267,187.267 66.647,187.833L76.714,190.196C79.11,190.762 81.522,189.264 82.089,186.868L94.335,134.702C94.901,132.322 93.403,129.892 91.007,129.343Z" fill="#7A6D7A"/>
<path d="M193.757,130.291L206.005,182.457C206.57,184.853 205.073,187.266 202.676,187.832L192.609,190.195C190.213,190.761 187.8,189.263 187.251,186.867L174.987,134.7C174.438,132.321 175.919,129.892 178.315,129.343L188.382,126.979C190.779,126.414 193.191,127.911 193.757,130.291L193.757,130.291Z" fill="#837683"/>
<path d="M206.005,182.457L193.757,130.291C193.192,127.911 190.779,126.413 188.383,126.98L186.516,127.418L198.506,178.491C199.072,180.887 197.575,183.299 195.178,183.866L186.996,185.786L187.251,186.867C187.8,189.263 190.213,190.761 192.609,190.195L202.676,187.832C205.073,187.266 206.57,184.854 206.004,182.457L206.005,182.457Z" fill="#7A6D7A"/>
<path d="M154.819,203.148L138.184,186.563C137.355,185.737 136.067,185.583 135.067,186.192C133.658,187.049 133.425,189 134.593,190.165L151.125,206.647C153.987,209.509 158.68,209.509 161.542,206.647C162.122,206.064 162.578,205.404 162.923,204.702C160.237,205.842 156.998,205.327 154.819,203.148Z" fill="#F1CBBC"/>
<path d="M138.313,207.508L125.229,194.449C124.399,193.621 123.111,193.467 122.11,194.076C120.701,194.933 120.468,196.884 121.636,198.049L134.619,211.007C137.481,213.869 142.173,213.853 145.035,210.991C145.615,210.408 146.071,209.749 146.416,209.048C143.73,210.193 140.491,209.687 138.313,207.508Z" fill="#F1CBBC"/>
<path d="M165.219,192.717L151.148,178.68C150.319,177.852 149.032,177.699 148.03,178.307C146.621,179.164 146.388,181.115 147.556,182.28L161.525,196.216C164.404,199.078 169.096,199.078 171.958,196.2C172.537,195.621 172.993,194.964 173.336,194.266C170.651,195.411 167.41,194.896 165.219,192.717L165.219,192.717Z" fill="#F1CBBC"/>
<path d="M186.011,181.585L179.585,184.418C175.741,186.115 171.465,185.316 168.486,182.354L144.292,158.226C140.897,154.831 135.707,154.316 131.713,156.978L123.991,162.119C118.439,165.8 111.649,166.191 105.938,163.524C106.338,164.746 107.154,165.717 108.329,166.333C114.203,169.445 121.392,169.195 127.215,165.335L134.936,160.194C138.93,157.532 144.122,158.047 147.516,161.442L171.71,185.57C174.689,188.532 178.965,189.33 182.809,187.633L186.998,185.786L186.01,181.585L186.011,181.585Z" fill="#D3A69B"/>
<path d="M119.611,209.66L84.868,175.025L83.502,180.844L115.917,213.16C118.779,216.022 123.471,216.022 126.333,213.143C126.912,212.564 127.367,211.908 127.711,211.209C125.026,212.355 121.789,211.839 119.611,209.66Z" fill="#F1CBBC"/>
<path d="M134.501,152.861C133.988,152.861 133.475,152.772 132.986,152.593C118.13,147.151 102.256,130.614 102.256,100.521C102.256,98.576 103.531,96.861 105.394,96.301L133.233,87.932C134.061,87.683 134.943,87.683 135.77,87.932L163.61,96.301C165.472,96.861 166.748,98.576 166.748,100.521C166.748,130.614 150.874,147.151 136.018,152.593C135.529,152.772 135.015,152.861 134.502,152.861L134.501,152.861ZM111.14,103.776C112.138,126.228 123.426,138.949 134.501,143.714C145.576,138.949 156.864,126.228 157.863,103.776L134.501,96.753L111.14,103.776Z" fill="#60B7FF"/>
<path d="M163.609,96.299L162.114,95.85C163.13,96.712 163.766,98.019 163.766,99.456C163.766,126.703 152.044,143.394 139.32,151.193C153.132,144.622 166.746,128.388 166.746,100.519C166.746,98.574 165.472,96.859 163.609,96.299Z" fill="#49A9EA"/>
<path d="M131.644,131.33C130.506,131.33 129.409,130.89 128.587,130.097L122.201,123.945C120.448,122.257 120.396,119.468 122.085,117.714C123.772,115.962 126.562,115.909 128.316,117.598L131.439,120.607L140.473,110.698C142.113,108.9 144.9,108.771 146.698,110.411C148.497,112.051 148.626,114.838 146.986,116.636L134.901,129.893C134.099,130.772 132.976,131.29 131.787,131.328C131.74,131.33 131.692,131.33 131.644,131.33Z" fill="#D8ECFE"/>
</svg>
