<svg width="32" height="22" viewBox="0 0 32 22" fill="none" xmlns="http://www.w3.org/2000/svg" xmlns:xlink="http://www.w3.org/1999/xlink">
<path d="M20.396,10.959L17.872,13.491C16.849,14.518 15.048,14.54 14.002,13.491L11.479,10.959L2.414,20.053C2.751,20.209 3.123,20.302 3.519,20.302L28.355,20.302C28.751,20.302 29.123,20.209 29.46,20.053L20.396,10.959Z" fill="#128593"/>
<path d="M28.355,-0.885L3.519,-0.885C3.123,-0.885 2.751,-0.792 2.414,-0.636L12.1,9.083C12.101,9.083 12.102,9.083 12.102,9.084C12.103,9.085 12.103,9.085 12.103,9.085L15.252,12.245C15.587,12.58 16.287,12.58 16.622,12.245L19.771,9.086C19.771,9.086 19.772,9.085 19.772,9.084C19.772,9.084 19.774,9.083 19.774,9.083L29.46,-0.636C29.123,-0.792 28.751,-0.885 28.355,-0.885Z" fill="#128593"/>
<path d="M1.149,0.6C0.974,0.953 0.867,1.344 0.867,1.764L0.867,17.655C0.867,18.075 0.974,18.466 1.149,18.819L10.229,9.71L1.149,0.6Z" fill="#128593"/>
<path d="M30.721,0.6L21.641,9.71L30.721,18.82C30.895,18.467 31.002,18.075 31.002,17.655L31.002,1.764C31.002,1.344 30.895,0.953 30.721,0.6Z" fill="#128593"/>
</svg>
