<svg width="128" height="90" viewBox="0 0 128 90" fill="none" xmlns="http://www.w3.org/2000/svg" xmlns:xlink="http://www.w3.org/1999/xlink">
<path d="M66.741,86.529L112.149,68.291L103.868,47.635L89.585,53.357L70.929,6.926C68.975,1.995 63.392,-0.471 58.414,1.483C58.414,1.483 58.367,1.483 58.367,1.529L36.175,10.462C24.172,15.3 18.356,28.978 23.148,40.982L36.222,73.455C41.013,85.505 54.645,91.367 66.695,86.529L66.741,86.529Z" fill="#128593"/>
<path d="M35.244,75.177C43.339,71.548 47.154,62.15 43.851,53.915L42.176,49.821C38.873,41.586 29.661,37.446 21.333,40.423L35.244,75.177Z" fill="#EFCDB1"/>
<path d="M45.804,53.544C44.688,53.544 43.664,52.846 43.246,51.776C42.687,50.334 43.339,48.705 44.781,48.147L62.693,40.936C64.135,40.377 65.763,41.075 66.368,42.518C66.926,43.96 66.228,45.588 64.786,46.146L46.874,53.358C46.549,53.497 46.177,53.544 45.804,53.544Z" fill="#414042"/>
<path d="M23.426,79.92L34.685,75.408L35.243,75.175L21.332,40.421L20.681,40.654L9.469,45.167C1.001,48.563 -3.093,58.194 0.303,66.661L1.932,70.755C5.328,79.222 14.959,83.317 23.426,79.92Z" fill="#8A5D3B"/>
<path d="M68.415,64.662C66.88,64.708 65.577,63.498 65.577,61.963C65.531,60.8 66.275,59.73 67.345,59.265L86.374,51.635C87.816,51.076 89.444,51.728 90.002,53.17C90.607,54.566 89.956,56.194 88.56,56.752C88.514,56.752 88.514,56.752 88.467,56.799L69.439,64.475C69.113,64.615 68.787,64.662 68.415,64.662Z" fill="#10737F"/>
<path d="M112.147,68.291L123.452,63.731C126.243,62.615 127.592,59.451 126.476,56.66L122.242,46.099C121.126,43.307 117.962,41.958 115.171,43.075L103.865,47.634L112.147,68.291Z" fill="#EFCDB1"/>
</svg>
