<svg width="32" height="22" viewBox="0 0 32 22" fill="none" xmlns="http://www.w3.org/2000/svg" xmlns:xlink="http://www.w3.org/1999/xlink">
<path d="M20.005,11.91L17.481,14.442C16.458,15.469 14.657,15.492 13.612,14.442L11.088,11.91L2.023,21.004C2.361,21.16 2.733,21.253 3.128,21.253L27.965,21.253C28.36,21.253 28.732,21.16 29.069,21.004L20.005,11.91Z" fill="#128593"/>
<path d="M27.965,0.066L3.128,0.066C2.733,0.066 2.361,0.16 2.023,0.316L11.709,10.034C11.71,10.034 11.711,10.034 11.712,10.035C11.712,10.036 11.712,10.037 11.712,10.037L14.862,13.197C15.196,13.531 15.897,13.531 16.231,13.197L19.38,10.037C19.38,10.037 19.381,10.036 19.382,10.035C19.382,10.035 19.383,10.034 19.384,10.034L29.069,0.315C28.732,0.159 28.36,0.066 27.965,0.066Z" fill="#128593"/>
<path d="M0.758,1.551C0.584,1.904 0.477,2.296 0.477,2.715L0.477,18.606C0.477,19.026 0.584,19.418 0.758,19.771L9.838,10.661L0.758,1.551Z" fill="#128593"/>
<path d="M30.33,1.551L21.25,10.661L30.33,19.771C30.505,19.418 30.612,19.026 30.612,18.606L30.612,2.716C30.612,2.296 30.505,1.904 30.33,1.551Z" fill="#128593"/>
</svg>
