<svg width="32" height="22" viewBox="0 0 32 22" fill="none" xmlns="http://www.w3.org/2000/svg" xmlns:xlink="http://www.w3.org/1999/xlink">
<path d="M20.396,11.523L17.872,14.056C16.849,15.083 15.048,15.105 14.002,14.056L11.479,11.523L2.414,20.617C2.751,20.773 3.123,20.866 3.519,20.866L28.355,20.866C28.751,20.866 29.123,20.773 29.46,20.617L20.396,11.523Z" fill="#128593"/>
<path d="M28.355,-0.32L3.519,-0.32C3.123,-0.32 2.751,-0.227 2.414,-0.071L12.1,9.647C12.101,9.648 12.102,9.648 12.102,9.648C12.103,9.649 12.103,9.65 12.103,9.65L15.252,12.81C15.587,13.144 16.287,13.144 16.622,12.81L19.771,9.65C19.771,9.65 19.772,9.649 19.772,9.648C19.772,9.648 19.774,9.648 19.774,9.647L29.46,-0.071C29.123,-0.227 28.751,-0.32 28.355,-0.32Z" fill="#128593"/>
<path d="M1.149,1.164C0.974,1.517 0.867,1.909 0.867,2.329L0.867,18.219C0.867,18.639 0.974,19.031 1.149,19.384L10.229,10.274L1.149,1.164Z" fill="#128593"/>
<path d="M30.721,1.164L21.641,10.274L30.721,19.384C30.895,19.031 31.002,18.639 31.002,18.219L31.002,2.329C31.002,1.909 30.895,1.517 30.721,1.164Z" fill="#128593"/>
</svg>
