<svg width="274" height="274" viewBox="0 0 274 274" fill="none" xmlns="http://www.w3.org/2000/svg" xmlns:xlink="http://www.w3.org/1999/xlink">
<path d="M82.276,116.349L82.276,129.661L68.964,137.22L55.652,129.661L55.652,116.349C55.652,108.997 61.612,103.037 68.964,103.037C76.316,103.037 82.276,108.997 82.276,116.349Z" fill="#FFBD86"/>
<path d="M122.15,172.596L155.133,172.596C160.583,167.721 164.016,160.638 164.016,152.749C164.016,138.046 152.097,126.126 137.393,126.126C122.689,126.126 110.77,138.046 110.77,152.749C110.77,157.411 111.971,161.792 114.077,165.602L122.15,172.596Z" fill="#FFBD86"/>
<path d="M150.246,129.432C152.351,133.243 153.553,137.623 153.553,142.285C153.553,156.989 141.633,168.909 126.929,168.909C122.267,168.909 117.887,167.707 114.076,165.601C118.611,173.81 127.351,179.372 137.393,179.372C152.097,179.372 164.016,167.452 164.016,152.748C164.016,142.707 158.455,133.967 150.246,129.432Z" fill="#F6A96C"/>
<path d="M192.51,116.349L192.51,129.661L205.822,137.22L219.134,129.661L219.134,116.349C219.134,108.997 213.174,103.037 205.822,103.037C198.47,103.037 192.51,108.997 192.51,116.349Z" fill="#F6A96C"/>
<path d="M208.039,129.659L192.509,129.659L192.509,170.096L167.022,179.372L107.762,179.372L82.276,170.096L82.276,129.659L55.652,129.659L55.652,175.064C55.652,180.694 58.324,185.99 62.851,189.337L99.645,216.535C101.059,217.581 101.895,219.236 101.895,220.995L101.895,268.334C101.895,271.277 104.281,273.664 107.225,273.664L167.561,273.664C170.504,273.664 172.891,271.277 172.891,268.334L172.891,220.995C172.891,219.236 173.725,217.581 175.14,216.535L211.934,189.337C216.461,185.99 219.133,180.694 219.133,175.064L219.133,140.752L208.039,129.659Z" fill="#128593"/>
<path d="M208.038,129.659L208.038,175.064C208.038,177.166 207.029,179.167 205.339,180.416L166.296,209.277C163.466,211.369 161.797,214.679 161.797,218.198L161.797,268.334C161.797,271.277 159.41,273.664 156.467,273.664L167.56,273.664C170.504,273.664 172.89,271.277 172.89,268.334L172.89,220.995C172.89,219.236 173.724,217.581 175.14,216.535L211.933,189.337C216.461,185.99 219.132,180.694 219.132,175.064L219.132,129.659L208.038,129.659Z" fill="#107380"/>
<path d="M142.367,3.865L151.314,21.994C152.122,23.631 153.684,24.766 155.49,25.028L175.496,27.935C180.046,28.596 181.862,34.187 178.57,37.396L164.094,51.507C162.786,52.782 162.19,54.617 162.498,56.417L165.916,76.342C166.693,80.873 161.937,84.328 157.868,82.189L139.974,72.782C138.358,71.932 136.428,71.932 134.812,72.782L116.918,82.189C112.849,84.328 108.093,80.873 108.87,76.342L112.288,56.417C112.596,54.617 112,52.782 110.693,51.507L96.216,37.396C92.924,34.187 94.741,28.596 99.29,27.935L119.296,25.028C121.103,24.766 122.665,23.631 123.472,21.994L132.42,3.865C134.453,-0.257 140.332,-0.257 142.367,3.865Z" fill="#FFE177"/>
<path d="M178.57,37.397C181.861,34.188 180.045,28.597 175.495,27.936L160.169,25.709C154.636,45.981 136.101,60.887 114.076,60.887C113.222,60.887 112.374,60.862 111.532,60.818L108.869,76.343C108.092,80.874 112.848,84.329 116.917,82.19L134.811,72.783C136.427,71.933 138.357,71.933 139.973,72.783L157.867,82.19C161.937,84.329 166.692,80.874 165.915,76.343L162.497,56.418C162.189,54.618 162.785,52.783 164.092,51.508L178.57,37.397Z" fill="#FFD15B"/>
<path d="M235.052,25.125L218.579,46.552C215.775,50.2 218.376,55.479 222.976,55.479L228.356,55.479L228.356,90.627C228.356,93.69 230.839,96.174 233.903,96.174L244.996,96.174C248.059,96.174 250.543,93.69 250.543,90.627L250.543,55.479L255.922,55.479C260.524,55.479 263.124,50.2 260.319,46.552L243.847,25.125C241.626,22.237 237.272,22.237 235.052,25.125Z" fill="#8BC727"/>
<path d="M30.939,25.125L14.466,46.552C11.662,50.2 14.262,55.479 18.863,55.479L24.243,55.479L24.243,90.627C24.243,93.69 26.726,96.174 29.789,96.174L40.883,96.174C43.946,96.174 46.429,93.69 46.429,90.627L46.429,55.479L51.809,55.479C56.41,55.479 59.011,50.2 56.206,46.552L39.733,25.125C37.513,22.237 33.159,22.237 30.939,25.125Z" fill="#97D729"/>
<path d="M259.919,116.361L263.205,123.021C263.502,123.622 264.076,124.039 264.74,124.136L272.09,125.204C273.761,125.447 274.429,127.5 273.219,128.679L267.901,133.863C267.421,134.331 267.202,135.006 267.315,135.667L268.571,142.987C268.856,144.651 267.109,145.921 265.614,145.135L259.04,141.679C258.446,141.367 257.738,141.367 257.144,141.679L250.57,145.135C249.075,145.921 247.328,144.651 247.613,142.987L248.869,135.667C248.983,135.006 248.764,134.331 248.283,133.863L242.965,128.679C241.756,127.5 242.423,125.447 244.095,125.204L251.445,124.136C252.108,124.039 252.682,123.622 252.979,123.021L256.266,116.361C257.012,114.846 259.171,114.846 259.919,116.361Z" fill="#FFD15B"/>
<path d="M14.864,116.361L11.577,123.021C11.28,123.622 10.706,124.039 10.042,124.136L2.692,125.204C1.021,125.447 0.354,127.5 1.563,128.679L6.881,133.863C7.361,134.331 7.58,135.006 7.467,135.667L6.211,142.987C5.925,144.651 7.673,145.921 9.168,145.135L15.741,141.679C16.335,141.367 17.044,141.367 17.638,141.679L24.212,145.135C25.707,145.921 27.454,144.651 27.168,142.987L25.913,135.667C25.799,135.006 26.018,134.331 26.498,133.863L31.817,128.679C33.026,127.5 32.359,125.447 30.687,125.204L23.337,124.136C22.674,124.039 22.1,123.622 21.803,123.021L18.516,116.361C17.771,114.846 15.611,114.846 14.864,116.361Z" fill="#FFE177"/>
<path d="M199.717,73.345L196.505,73.345L196.505,68.468C196.505,66.26 194.715,64.471 192.507,64.471C190.299,64.471 188.51,66.26 188.51,68.468L188.51,73.345L185.296,73.345C183.089,73.345 181.299,75.135 181.299,77.343C181.299,79.551 183.089,81.34 185.296,81.34L188.51,81.34L188.51,86.217C188.51,88.425 190.299,90.214 192.507,90.214C194.715,90.214 196.505,88.425 196.505,86.217L196.505,81.34L199.717,81.34C201.925,81.34 203.715,79.551 203.715,77.343C203.715,75.135 201.925,73.345 199.717,73.345Z" fill="#FFD15B"/>
<path d="M89.485,73.345L86.272,73.345L86.272,68.468C86.272,66.26 84.482,64.471 82.274,64.471C80.066,64.471 78.277,66.26 78.277,68.468L78.277,73.345L75.064,73.345C72.856,73.345 71.066,75.135 71.066,77.343C71.066,79.551 72.856,81.34 75.064,81.34L78.277,81.34L78.277,86.217C78.277,88.425 80.066,90.214 82.274,90.214C84.482,90.214 86.272,88.425 86.272,86.217L86.272,81.34L89.485,81.34C91.693,81.34 93.482,79.551 93.482,77.343C93.482,75.135 91.693,73.345 89.485,73.345Z" fill="#FFE177"/>
</svg>
