<svg width="244" height="254" viewBox="0 0 244 254" fill="none" xmlns="http://www.w3.org/2000/svg" xmlns:xlink="http://www.w3.org/1999/xlink">
<path d="M144.023,198.748L144.023,149.851L121.738,149.851L121.738,165.204L71.725,165.204C66.374,165.251 62.048,169.578 62.048,174.928L62.048,198.795C62.048,211.775 72.562,222.289 85.542,222.289L85.589,222.289L120.575,222.289C133.555,222.243 144.07,211.728 144.023,198.748Z" fill="#10737F"/>
<path d="M121.784,223.778C121.411,214.892 114.154,207.913 105.268,207.913L100.848,207.913C91.962,207.913 84.704,214.938 84.378,223.824L121.784,223.778Z" fill="#EFCDB1"/>
<path d="M103.037,207.679C101.501,207.632 100.292,206.423 100.245,204.887L100.245,185.58C100.245,184.044 101.501,182.788 103.037,182.788C104.572,182.788 105.828,184.044 105.828,185.58L105.828,204.887C105.875,206.423 104.665,207.632 103.13,207.679L103.083,207.679L103.037,207.679Z" fill="#414042"/>
<path d="M121.83,236.522L121.83,223.774L84.378,223.774L84.378,236.522C84.332,245.641 91.729,253.038 100.848,253.085L100.894,253.085L105.314,253.085C114.433,253.038 121.83,245.641 121.83,236.522Z" fill="#8A5D3B"/>
<path d="M121.785,190.884C120.25,190.884 118.993,189.628 118.993,188.093L118.993,167.575C118.993,166.04 120.25,164.784 121.785,164.784C123.32,164.784 124.576,166.04 124.576,167.575L124.576,188.093C124.576,189.628 123.32,190.884 121.785,190.884Z" fill="#10626C"/>
<path d="M143.978,149.85L143.978,137.66C143.978,134.636 141.559,132.217 138.535,132.217L127.183,132.217C124.159,132.217 121.739,134.636 121.739,137.66L121.739,149.85L143.978,149.85Z" fill="#EFCDB1"/>
<path d="M204.038,134.033L157.98,117.517L150.443,138.499L164.912,143.663L148.023,190.792C146.209,195.817 148.814,201.353 153.839,203.167L176.31,211.216C188.546,215.589 201.991,209.262 206.365,197.026L218.182,164.087C222.555,151.898 216.228,138.452 204.038,134.033Z" fill="#128593"/>
<path d="M219.995,163.481C211.528,160.783 202.456,165.249 199.478,173.623L197.989,177.764C195.012,186.139 199.152,195.35 207.387,198.7L219.995,163.481Z" fill="#EFCDB1"/>
<path d="M195.897,177.486C195.571,177.486 195.246,177.439 194.966,177.3L176.776,170.786C175.333,170.275 174.589,168.646 175.101,167.204C175.612,165.762 177.148,165.017 178.59,165.529L178.636,165.529L196.827,172.042C198.27,172.508 199.107,174.09 198.595,175.578C198.223,176.741 197.107,177.532 195.897,177.486Z" fill="#414042"/>
<path d="M232.045,167.761L220.647,163.666L219.996,163.48L207.388,198.699L207.992,198.932L219.391,203.026C227.998,206.096 237.442,201.63 240.513,193.023L242.002,188.882C245.072,180.322 240.606,170.878 232.045,167.761Z" fill="#8A5D3B"/>
<path d="M186.407,154.181L185.477,154.041L166.169,147.109C164.727,146.598 163.983,144.969 164.494,143.527C165.006,142.085 166.635,141.34 168.077,141.852L187.384,148.784C188.827,149.296 189.571,150.831 189.059,152.274L189.059,152.32C188.64,153.437 187.617,154.181 186.407,154.181Z" fill="#10737F"/>
<path d="M157.979,117.516L146.488,113.422C143.65,112.398 140.533,113.887 139.509,116.678L139.509,116.725L135.694,127.379C134.671,130.217 136.16,133.334 138.951,134.358L138.997,134.358L150.442,138.498L157.979,117.516Z" fill="#EFCDB1"/>
<path d="M163.609,59.219L134.671,98.671L152.629,111.838L161.701,99.462L202.037,129.051C206.364,132.215 212.412,131.285 215.576,126.958L229.719,107.697C237.396,97.229 235.116,82.527 224.648,74.851L196.408,54.148C185.94,46.518 171.285,48.797 163.609,59.219Z" fill="#10737F"/>
<path d="M196.363,52.241C191.385,59.591 193.106,69.547 200.271,74.805L203.806,77.41C210.971,82.621 220.974,81.318 226.51,74.386L196.363,52.241Z" fill="#EFCDB1"/>
<path d="M188.825,96.905C188.22,96.905 187.662,96.719 187.197,96.393C185.941,95.463 185.661,93.742 186.592,92.485L197.99,76.9C198.921,75.644 200.642,75.365 201.898,76.295C203.154,77.226 203.434,78.947 202.503,80.203L191.058,95.789C190.546,96.486 189.709,96.905 188.825,96.905Z" fill="#414042"/>
<path d="M203.851,41.959L196.686,51.729L196.361,52.241L226.508,74.386L226.927,73.874L234.092,64.058C239.489,56.707 237.86,46.379 230.509,40.982L226.974,38.376C219.623,32.98 209.294,34.561 203.898,41.912C203.851,41.912 203.851,41.959 203.851,41.959Z" fill="#8A5D3B"/>
<path d="M163.098,97.554L175.241,81.038Z" fill="#10626C"/>
<path d="M163.097,100.345C162.492,100.345 161.934,100.159 161.422,99.833C160.166,98.902 159.933,97.181 160.864,95.925L172.96,79.362C173.891,78.106 175.612,77.827 176.868,78.757C178.124,79.688 178.403,81.409 177.473,82.665L165.33,99.228C164.818,99.926 163.981,100.345 163.097,100.345Z" fill="#10626C"/>
<path d="M134.671,98.671L127.46,108.487C125.692,110.906 126.203,114.303 128.623,116.117L137.788,122.817C140.207,124.585 143.604,124.073 145.418,121.653L152.629,111.837L134.671,98.671Z" fill="#EFCDB1"/>
<path d="M67.632,159.529L113.039,141.291L104.758,120.635L90.475,126.357L71.819,79.926C69.865,74.995 64.282,72.529 59.304,74.483C59.304,74.483 59.257,74.483 59.257,74.529L37.065,83.462C25.062,88.3 19.247,101.978 24.039,113.982L37.112,146.455C41.904,158.505 55.536,164.367 67.585,159.529L67.632,159.529Z" fill="#128593"/>
<path d="M36.134,148.177C44.229,144.548 48.044,135.15 44.741,126.915L43.066,122.821C39.763,114.586 30.551,110.446 22.223,113.423L36.134,148.177Z" fill="#EFCDB1"/>
<path d="M46.695,126.544C45.578,126.544 44.555,125.846 44.136,124.776C43.578,123.333 44.229,121.705 45.672,121.147L63.583,113.936C65.025,113.377 66.654,114.075 67.259,115.517C67.817,116.96 67.119,118.588 65.677,119.146L47.765,126.357C47.439,126.497 47.067,126.544 46.695,126.544Z" fill="#414042"/>
<path d="M24.317,152.92L35.575,148.408L36.134,148.175L22.223,113.421L21.572,113.654L10.359,118.167C1.892,121.563 -2.202,131.194 1.194,139.661L2.822,143.755C6.219,152.222 15.849,156.317 24.317,152.92Z" fill="#8A5D3B"/>
<path d="M69.306,137.662C67.771,137.708 66.468,136.499 66.468,134.963C66.422,133.8 67.166,132.73 68.236,132.265L87.265,124.635C88.707,124.077 90.335,124.728 90.894,126.17C91.498,127.566 90.847,129.194 89.451,129.753C89.405,129.753 89.405,129.753 89.358,129.799L70.33,137.476C70.004,137.615 69.679,137.662 69.306,137.662Z" fill="#10737F"/>
<path d="M113.037,141.291L124.343,136.731C127.134,135.615 128.483,132.451 127.367,129.66L123.133,119.099C122.017,116.307 118.853,114.958 116.061,116.075L104.756,120.634L113.037,141.291Z" fill="#EFCDB1"/>
<path d="M75.68,71.874L102.804,112.583L121.32,100.254L112.806,87.507L154.492,59.778C158.912,56.801 160.121,50.799 157.144,46.333L143.931,26.467C136.72,15.673 122.158,12.742 111.364,19.907L82.24,39.308C71.447,46.472 68.516,61.081 75.68,71.874Z" fill="#128593"/>
<path d="M80.38,38.747C85.59,45.911 95.5,47.726 102.897,42.794L106.573,40.375C113.97,35.49 116.203,25.58 111.551,17.997L80.38,38.747Z" fill="#EFCDB1"/>
<path d="M117.133,62.99C116.202,62.99 115.318,62.525 114.807,61.734L104.106,45.637C103.176,44.381 103.455,42.659 104.664,41.729C105.92,40.798 107.642,41.077 108.572,42.287C108.619,42.38 108.712,42.473 108.758,42.566L119.459,58.617C120.296,59.92 119.971,61.641 118.668,62.525C118.203,62.804 117.691,62.99 117.133,62.99Z" fill="#414042"/>
<path d="M73.308,28.095L80.007,38.191L80.379,38.749L111.55,17.999L111.178,17.441L104.479,7.345C99.408,-0.238 89.126,-2.285 81.542,2.786L77.913,5.205C70.33,10.23 68.236,20.418 73.261,28.048L73.308,28.095Z" fill="#8A5D3B"/>
<path d="M111.505,88.345C110.574,88.345 109.69,87.88 109.179,87.089L97.827,70.015C96.943,68.712 97.315,66.991 98.618,66.153C99.92,65.269 101.642,65.642 102.479,66.898L113.831,83.972C114.669,85.228 114.343,86.95 113.133,87.787C113.087,87.787 113.087,87.834 113.04,87.834C112.575,88.159 112.063,88.345 111.505,88.345Z" fill="#10737F"/>
<path d="M102.805,112.583L109.551,122.725C111.179,125.237 114.529,125.935 116.994,124.307C117.041,124.307 117.041,124.26 117.088,124.26L126.578,117.98C129.091,116.305 129.742,112.909 128.067,110.396L121.321,100.254L102.805,112.583Z" fill="#EFCDB1"/>
</svg>
