<svg width="280" height="274" viewBox="0 0 280 274" fill="none" xmlns="http://www.w3.org/2000/svg" xmlns:xlink="http://www.w3.org/1999/xlink">
<path d="M72.213,273.093C65.726,273.093 60.005,269.743 56.687,264.689C53.37,269.743 47.648,273.093 41.16,273.093C30.929,273.093 22.607,264.767 22.607,254.539L22.607,133.687C10.329,132.143 0.786,121.617 0.786,108.943L0.786,44.005C0.786,36.321 7.039,30.067 14.724,30.067C22.409,30.067 28.662,36.321 28.662,44.005L28.662,98.218L87.74,98.218C101.442,98.218 112.588,109.362 112.588,123.068L112.588,167.26C112.588,179.941 103.046,190.427 90.768,191.924L90.768,254.539C90.768,264.767 82.444,273.093 72.213,273.093Z" clip-rule="evenodd" fill-rule="evenodd" fill="#10737F"/>
<path d="M72.212,273.093C67.403,273.093 63.014,271.251 59.714,268.239L59.714,200.54C59.714,198.868 58.358,197.51 56.686,197.51C55.014,197.51 53.659,198.868 53.659,200.54L53.659,268.239C50.359,271.251 45.97,273.093 41.159,273.093C30.928,273.093 22.606,264.767 22.606,254.537L22.606,133.687C10.328,132.143 0.785,121.617 0.785,108.943L0.785,44.005C0.785,42.141 1.153,40.363 1.82,38.737C3.661,37.838 5.728,37.333 7.91,37.333C15.596,37.333 21.849,43.587 21.849,51.272L21.849,105.484L80.927,105.484C94.628,105.484 105.774,116.628 105.774,130.334L105.774,174.526C105.774,179.292 104.426,183.746 102.092,187.532C98.814,189.859 94.95,191.413 90.767,191.924L90.767,129.038C90.767,127.366 89.411,126.009 87.739,126.009C86.066,126.009 84.711,127.366 84.711,129.038L85.204,261.805C85.204,264.901 83.191,267.823 81.843,270.391C79.034,272.105 75.737,273.093 72.212,273.093Z" clip-rule="evenodd" fill-rule="evenodd" fill="#128593"/>
<path d="M56.687,104.272C43.524,104.272 32.815,93.564 32.815,80.4C32.815,67.24 43.524,56.531 56.687,56.531C69.849,56.531 80.557,67.24 80.557,80.4C80.557,93.564 69.849,104.272 56.687,104.272Z" clip-rule="evenodd" fill-rule="evenodd" fill="#D9B7A9"/>
<path d="M56.687,104.272C43.524,104.272 32.815,93.564 32.815,80.4C32.815,71.947 37.235,64.505 43.883,60.263C46.266,59.463 48.815,59.029 51.463,59.029C64.626,59.029 75.334,69.738 75.334,82.898C75.334,91.354 70.914,98.797 64.265,103.039C61.884,103.838 59.335,104.272 56.687,104.272Z" clip-rule="evenodd" fill-rule="evenodd" fill="#F1CBBC"/>
<path d="M70.607,49.11C70.088,49.11 69.567,48.976 69.097,48.707L56.687,41.567L44.276,48.707C43.241,49.301 41.953,49.232 40.987,48.532C40.021,47.83 39.558,46.627 39.804,45.458L42.758,31.447L32.133,21.849C31.247,21.049 30.915,19.802 31.282,18.666C31.652,17.53 32.654,16.72 33.841,16.592L48.078,15.072L53.922,2.003C54.41,0.912 55.492,0.209 56.686,0.209C57.88,0.209 58.962,0.912 59.451,2.003L65.295,15.072L79.532,16.592C80.719,16.72 81.721,17.53 82.091,18.666C82.459,19.802 82.126,21.049 81.24,21.849L70.616,31.447L73.569,45.457C73.816,46.626 73.353,47.829 72.386,48.531C71.859,48.915 71.234,49.11 70.607,49.11Z" clip-rule="evenodd" fill-rule="evenodd" fill="#E6BD5C"/>
<path d="M70.607,49.11C70.088,49.11 69.567,48.976 69.097,48.707L56.687,41.567L44.276,48.707C43.241,49.301 41.953,49.232 40.987,48.532C40.021,47.83 39.558,46.627 39.804,45.458L42.758,31.447L32.133,21.849C31.559,21.331 31.218,20.625 31.148,19.883C31.485,19.704 31.858,19.586 32.252,19.544L46.771,17.994L53.047,3.962C53.595,3.457 54.322,3.161 55.098,3.161C56.291,3.161 57.373,3.863 57.862,4.955L63.706,18.024L77.943,19.544C79.13,19.672 80.132,20.482 80.502,21.618C80.584,21.871 80.631,22.129 80.645,22.387L68.758,33.125L71.981,48.41C72.005,48.524 72.022,48.639 72.033,48.754C71.589,48.99 71.099,49.11 70.607,49.11Z" clip-rule="evenodd" fill-rule="evenodd" fill="#FFD266"/>
<path d="M276.304,270.521L199.244,270.521C197.572,270.521 196.217,269.163 196.217,267.494C196.217,244.58 214.859,225.934 237.773,225.934C260.689,225.934 279.331,244.58 279.331,267.494C279.331,269.163 277.976,270.521 276.304,270.521Z" clip-rule="evenodd" fill-rule="evenodd" fill="#10737F"/>
<path d="M185.088,270.521L108.028,270.521C106.357,270.521 105.001,269.163 105.001,267.494C105.001,244.58 123.643,225.934 146.559,225.934C169.473,225.934 188.116,244.58 188.116,267.494C188.116,269.163 186.76,270.521 185.088,270.521Z" clip-rule="evenodd" fill-rule="evenodd" fill="#10737F"/>
<path d="M212.718,234.361C218.171,231.727 224.283,230.249 230.735,230.249C253.219,230.249 271.587,248.2 272.27,270.521L199.244,270.521C197.572,270.521 196.217,269.163 196.217,267.494C196.217,253.983 202.7,241.957 212.718,234.361Z" clip-rule="evenodd" fill-rule="evenodd" fill="#128593"/>
<path d="M181.055,270.521L108.028,270.521C106.357,270.521 105.001,269.163 105.001,267.494C105.001,253.983 111.484,241.957 121.502,234.361C126.955,231.727 133.067,230.249 139.519,230.249C162.003,230.249 180.372,248.2 181.055,270.521Z" clip-rule="evenodd" fill-rule="evenodd" fill="#128593"/>
<path d="M237.774,231.99C225.73,231.99 215.931,222.193 215.931,210.148C215.931,198.104 225.73,188.306 237.774,188.306C249.819,188.306 259.618,198.103 259.618,210.148C259.618,222.193 249.819,231.99 237.774,231.99Z" clip-rule="evenodd" fill-rule="evenodd" fill="#D9B7A9"/>
<path d="M146.558,231.99C134.512,231.99 124.715,222.193 124.715,210.148C124.715,198.104 134.513,188.306 146.558,188.306C158.602,188.306 168.401,198.103 168.401,210.148C168.401,222.193 158.602,231.99 146.558,231.99Z" clip-rule="evenodd" fill-rule="evenodd" fill="#D9B7A9"/>
<path d="M228.578,190.338C229.58,190.197 230.602,190.122 231.642,190.122C243.687,190.122 253.486,199.919 253.486,211.964C253.486,220.726 248.3,228.297 240.838,231.774C239.836,231.915 238.813,231.99 237.773,231.99C225.728,231.99 215.93,222.192 215.93,210.147C215.93,201.386 221.115,193.815 228.578,190.338Z" clip-rule="evenodd" fill-rule="evenodd" fill="#F1CBBC"/>
<path d="M146.558,231.99C134.512,231.99 124.715,222.192 124.715,210.147C124.715,201.386 129.9,193.815 137.363,190.338C138.364,190.197 139.387,190.122 140.427,190.122C152.471,190.122 162.27,199.919 162.27,211.964C162.27,220.726 157.084,228.297 149.622,231.774C148.621,231.915 147.598,231.99 146.558,231.99Z" clip-rule="evenodd" fill-rule="evenodd" fill="#F1CBBC"/>
</svg>
