<svg width="110" height="100" viewBox="0 0 110 100" fill="none" xmlns="http://www.w3.org/2000/svg" xmlns:xlink="http://www.w3.org/1999/xlink">
<path d="M69.147,21.033L23.088,4.517L15.551,25.499L30.02,30.663L13.132,77.792C11.318,82.817 13.923,88.353 18.947,90.167L41.419,98.216C53.654,102.589 67.1,96.262 71.473,84.026L83.29,51.087C87.663,38.898 81.336,25.452 69.147,21.033Z" fill="#128593"/>
<path d="M85.105,50.481C76.637,47.782 67.565,52.249 64.587,60.623L63.099,64.764C60.121,73.138 64.262,82.35 72.496,85.7L85.105,50.481Z" fill="#EFCDB1"/>
<path d="M61.006,64.486C60.68,64.486 60.354,64.439 60.075,64.3L41.884,57.786C40.442,57.275 39.698,55.646 40.209,54.204C40.721,52.762 42.256,52.017 43.699,52.529L43.745,52.529L61.936,59.042C63.378,59.508 64.216,61.09 63.704,62.578C63.332,63.741 62.215,64.532 61.006,64.486Z" fill="#414042"/>
<path d="M97.155,54.76L85.756,50.666L85.105,50.48L72.497,85.699L73.102,85.931L84.5,90.025C93.107,93.096 102.552,88.63 105.622,80.023L107.111,75.882C110.182,67.322 105.715,57.877 97.155,54.76Z" fill="#8A5D3B"/>
<path d="M51.517,41.181L50.586,41.041L31.279,34.109C29.836,33.597 29.092,31.969 29.604,30.527C30.116,29.084 31.744,28.34 33.186,28.852L52.494,35.784C53.936,36.296 54.68,37.831 54.169,39.273L54.169,39.32C53.75,40.436 52.726,41.181 51.517,41.181Z" fill="#10737F"/>
<path d="M23.088,4.516L11.597,0.421C8.759,-0.602 5.642,0.887 4.618,3.678L4.618,3.725L0.803,14.379C-0.22,17.217 1.269,20.334 4.06,21.357L4.106,21.357L15.551,25.498L23.088,4.516Z" fill="#EFCDB1"/>
</svg>
