<svg width="274" height="274" viewBox="0 0 274 274" fill="none" xmlns="http://www.w3.org/2000/svg" xmlns:xlink="http://www.w3.org/1999/xlink">
<path d="M82.22,115.427L82.22,128.739L68.909,136.298L55.597,128.739L55.597,115.427C55.597,108.075 61.557,102.115 68.909,102.115C76.261,102.115 82.22,108.075 82.22,115.427Z" fill="#FFBD86"/>
<path d="M122.093,171.675L155.076,171.675C160.527,166.799 163.96,159.716 163.96,151.828C163.96,137.124 152.04,125.204 137.336,125.204C122.633,125.204 110.713,137.124 110.713,151.828C110.713,156.49 111.914,160.87 114.02,164.681L122.093,171.675Z" fill="#FFBD86"/>
<path d="M150.19,128.51C152.296,132.321 153.497,136.701 153.497,141.363C153.497,156.067 141.577,167.987 126.874,167.987C122.211,167.987 117.831,166.785 114.021,164.68C118.555,172.888 127.295,178.45 137.337,178.45C152.041,178.45 163.961,166.53 163.961,151.827C163.961,141.785 158.399,133.045 150.19,128.51Z" fill="#F6A96C"/>
<path d="M192.453,115.427L192.453,128.739L205.765,136.298L219.077,128.739L219.077,115.427C219.077,108.075 213.117,102.115 205.765,102.115C198.413,102.115 192.453,108.075 192.453,115.427Z" fill="#F6A96C"/>
<path d="M207.983,128.737L192.453,128.737L192.453,169.174L166.967,178.45L107.707,178.45L82.22,169.174L82.22,128.737L55.597,128.737L55.597,174.142C55.597,179.772 58.268,185.068 62.795,188.415L99.589,215.613C101.004,216.659 101.839,218.314 101.839,220.073L101.839,267.412C101.839,270.356 104.225,272.742 107.169,272.742L167.505,272.742C170.449,272.742 172.835,270.356 172.835,267.412L172.835,220.073C172.835,218.314 173.669,216.659 175.084,215.613L211.878,188.415C216.406,185.068 219.077,179.772 219.077,174.142L219.077,139.83L207.983,128.737Z" fill="#128593"/>
<path d="M207.984,128.737L207.984,174.142C207.984,176.244 206.975,178.245 205.285,179.494L166.241,208.355C163.411,210.447 161.742,213.757 161.742,217.276L161.742,267.412C161.742,270.356 159.356,272.742 156.412,272.742L167.505,272.742C170.449,272.742 172.835,270.356 172.835,267.412L172.835,220.073C172.835,218.314 173.67,216.659 175.085,215.613L211.879,188.415C216.406,185.068 219.077,179.772 219.077,174.142L219.077,128.737L207.984,128.737Z" fill="#107380"/>
<path d="M142.31,2.944L151.257,21.072C152.065,22.709 153.627,23.844 155.433,24.107L175.44,27.013C179.989,27.674 181.806,33.265 178.513,36.474L164.037,50.585C162.729,51.86 162.133,53.695 162.442,55.495L165.859,75.42C166.636,79.951 161.88,83.406 157.812,81.267L139.917,71.86C138.301,71.01 136.372,71.01 134.755,71.86L116.861,81.267C112.792,83.406 108.037,79.951 108.814,75.42L112.231,55.495C112.54,53.695 111.943,51.86 110.636,50.585L96.159,36.474C92.868,33.265 94.684,27.674 99.233,27.013L119.24,24.107C121.046,23.844 122.608,22.71 123.416,21.072L132.363,2.944C134.397,-1.179 140.276,-1.179 142.31,2.944Z" fill="#FFE177"/>
<path d="M178.515,36.475C181.806,33.266 179.99,27.675 175.44,27.014L160.114,24.788C154.581,45.059 136.047,59.965 114.021,59.965C113.168,59.965 112.32,59.94 111.477,59.896L108.815,75.421C108.038,79.952 112.793,83.407 116.862,81.268L134.756,71.861C136.372,71.011 138.302,71.011 139.918,71.861L157.812,81.268C161.882,83.407 166.637,79.952 165.86,75.421L162.442,55.496C162.134,53.696 162.73,51.861 164.038,50.586L178.515,36.475Z" fill="#FFD15B"/>
<path d="M234.996,24.203L218.524,45.63C215.72,49.278 218.32,54.557 222.921,54.557L228.3,54.557L228.3,89.705C228.3,92.768 230.783,95.252 233.847,95.252L244.94,95.252C248.003,95.252 250.487,92.768 250.487,89.705L250.487,54.557L255.866,54.557C260.468,54.557 263.068,49.278 260.264,45.63L243.791,24.203C241.571,21.315 237.217,21.315 234.996,24.203Z" fill="#8BC727"/>
<path d="M30.883,24.203L14.41,45.63C11.606,49.278 14.207,54.557 18.807,54.557L24.187,54.557L24.187,89.705C24.187,92.768 26.67,95.252 29.734,95.252L40.827,95.252C43.89,95.252 46.374,92.768 46.374,89.705L46.374,54.557L51.753,54.557C56.355,54.557 58.955,49.278 56.15,45.63L39.678,24.203C37.457,21.315 33.103,21.315 30.883,24.203Z" fill="#97D729"/>
<path d="M259.864,115.439L263.151,122.099C263.448,122.7 264.021,123.117 264.685,123.214L272.035,124.282C273.707,124.525 274.374,126.578 273.165,127.757L267.847,132.941C267.366,133.409 267.147,134.084 267.26,134.745L268.516,142.065C268.802,143.729 267.054,144.999 265.559,144.213L258.986,140.757C258.392,140.445 257.683,140.445 257.089,140.757L250.515,144.213C249.02,144.999 247.273,143.729 247.559,142.065L248.814,134.745C248.928,134.084 248.709,133.409 248.229,132.941L242.911,127.757C241.701,126.578 242.368,124.525 244.04,124.282L251.39,123.214C252.053,123.117 252.627,122.7 252.924,122.099L256.211,115.439C256.957,113.924 259.117,113.924 259.864,115.439Z" fill="#FFD15B"/>
<path d="M14.808,115.439L11.521,122.099C11.224,122.7 10.651,123.117 9.987,123.214L2.637,124.282C0.965,124.525 0.298,126.578 1.507,127.757L6.825,132.941C7.306,133.409 7.525,134.084 7.411,134.745L6.155,142.065C5.87,143.729 7.617,144.999 9.112,144.213L15.686,140.757C16.28,140.445 16.988,140.445 17.582,140.757L24.156,144.213C25.651,144.999 27.398,143.729 27.113,142.065L25.857,134.745C25.743,134.084 25.962,133.409 26.443,132.941L31.761,127.757C32.97,126.578 32.303,124.525 30.631,124.282L23.281,123.214C22.618,123.117 22.044,122.7 21.747,122.099L18.46,115.439C17.715,113.924 15.555,113.924 14.808,115.439Z" fill="#FFE177"/>
<path d="M199.663,72.423L196.45,72.423L196.45,67.547C196.45,65.338 194.66,63.549 192.452,63.549C190.245,63.549 188.455,65.338 188.455,67.547L188.455,72.423L185.242,72.423C183.034,72.423 181.244,74.213 181.244,76.421C181.244,78.629 183.034,80.418 185.242,80.418L188.455,80.418L188.455,85.295C188.455,87.503 190.245,89.293 192.452,89.293C194.66,89.293 196.45,87.503 196.45,85.295L196.45,80.418L199.663,80.418C201.87,80.418 203.66,78.629 203.66,76.421C203.66,74.213 201.87,72.423 199.663,72.423Z" fill="#FFD15B"/>
<path d="M89.43,72.423L86.217,72.423L86.217,67.547C86.217,65.338 84.427,63.549 82.219,63.549C80.012,63.549 78.222,65.338 78.222,67.547L78.222,72.423L75.009,72.423C72.801,72.423 71.012,74.213 71.012,76.421C71.012,78.629 72.801,80.418 75.009,80.418L78.222,80.418L78.222,85.295C78.222,87.503 80.012,89.293 82.219,89.293C84.427,89.293 86.217,87.503 86.217,85.295L86.217,80.418L89.43,80.418C91.638,80.418 93.428,78.629 93.428,76.421C93.428,74.213 91.638,72.423 89.43,72.423Z" fill="#FFE177"/>
</svg>
