<svg width="244" height="254" viewBox="0 0 244 254" fill="none" xmlns="http://www.w3.org/2000/svg" xmlns:xlink="http://www.w3.org/1999/xlink">
<path d="M143.487,199.201L143.487,150.305L121.202,150.305L121.202,165.657L71.189,165.657C65.838,165.704 61.512,170.031 61.512,175.381L61.512,199.248C61.512,212.228 72.026,222.743 85.006,222.743L85.053,222.743L120.039,222.743C133.019,222.696 143.534,212.182 143.487,199.201Z" fill="#10737F"/>
<path d="M121.247,224.231C120.875,215.345 113.617,208.366 104.731,208.366L100.311,208.366C91.425,208.366 84.167,215.391 83.842,224.277L121.247,224.231Z" fill="#EFCDB1"/>
<path d="M102.5,208.132C100.965,208.085 99.756,206.876 99.709,205.34L99.709,186.033C99.709,184.498 100.965,183.241 102.5,183.241C104.036,183.241 105.292,184.498 105.292,186.033L105.292,205.34C105.338,206.876 104.129,208.085 102.593,208.132L102.547,208.132L102.5,208.132Z" fill="#414042"/>
<path d="M121.294,236.975L121.294,224.228L83.842,224.228L83.842,236.975C83.795,246.094 91.193,253.491 100.312,253.538L100.358,253.538L104.778,253.538C113.897,253.491 121.294,246.094 121.294,236.975Z" fill="#8A5D3B"/>
<path d="M121.248,191.337C119.713,191.337 118.457,190.081 118.457,188.546L118.457,168.029C118.457,166.493 119.713,165.237 121.248,165.237C122.784,165.237 124.04,166.493 124.04,168.029L124.04,188.546C124.04,190.081 122.784,191.337 121.248,191.337Z" fill="#10626C"/>
<path d="M143.442,150.303L143.442,138.114C143.442,135.09 141.022,132.67 137.998,132.67L126.646,132.67C123.622,132.67 121.203,135.09 121.203,138.114L121.203,150.303L143.442,150.303Z" fill="#EFCDB1"/>
<path d="M203.504,134.486L157.446,117.97L149.909,138.952L164.378,144.116L147.489,191.245C145.675,196.27 148.28,201.806 153.305,203.621L175.776,211.669C188.012,216.043 201.457,209.715 205.831,197.479L217.648,164.54C222.021,152.351 215.694,138.906 203.504,134.486Z" fill="#128593"/>
<path d="M219.46,163.934C210.993,161.236 201.92,165.702 198.943,174.077L197.454,178.217C194.477,186.592 198.617,195.803 206.852,199.153L219.46,163.934Z" fill="#EFCDB1"/>
<path d="M195.362,177.939C195.036,177.939 194.711,177.892 194.431,177.753L176.241,171.239C174.798,170.728 174.054,169.099 174.566,167.657C175.078,166.215 176.613,165.47 178.055,165.982L178.102,165.982L196.292,172.496C197.735,172.961 198.572,174.543 198.06,176.031C197.688,177.195 196.572,177.985 195.362,177.939Z" fill="#414042"/>
<path d="M231.511,168.214L220.113,164.12L219.462,163.933L206.854,199.152L207.458,199.385L218.857,203.479C227.464,206.549 236.908,202.083 239.979,193.476L241.468,189.336C244.538,180.775 240.072,171.331 231.511,168.214Z" fill="#8A5D3B"/>
<path d="M185.873,154.634L184.943,154.495L165.635,147.562C164.193,147.051 163.449,145.422 163.96,143.98C164.472,142.538 166.1,141.793 167.543,142.305L186.85,149.237C188.292,149.749 189.037,151.284 188.525,152.727L188.525,152.773C188.106,153.89 187.083,154.634 185.873,154.634Z" fill="#10737F"/>
<path d="M157.445,117.969L145.953,113.875C143.115,112.851 139.998,114.34 138.975,117.132L138.975,117.178L135.16,127.832C134.136,130.67 135.625,133.787 138.416,134.811L138.463,134.811L149.908,138.951L157.445,117.969Z" fill="#EFCDB1"/>
<path d="M163.073,59.672L134.135,99.124L152.093,112.291L161.165,99.915L201.502,129.505C205.828,132.668 211.877,131.738 215.04,127.411L229.183,108.15C236.86,97.682 234.58,82.981 224.112,75.304L195.872,54.601C185.404,46.971 170.749,49.251 163.073,59.672Z" fill="#10737F"/>
<path d="M195.827,52.694C190.849,60.044 192.57,70.001 199.735,75.258L203.271,77.863C210.435,83.074 220.438,81.771 225.974,74.839L195.827,52.694Z" fill="#EFCDB1"/>
<path d="M188.29,97.358C187.685,97.358 187.127,97.172 186.662,96.847C185.405,95.916 185.126,94.195 186.057,92.939L197.455,77.353C198.386,76.097 200.107,75.818 201.363,76.748C202.619,77.679 202.898,79.4 201.968,80.656L190.523,96.242C190.011,96.94 189.174,97.358 188.29,97.358Z" fill="#414042"/>
<path d="M203.315,42.412L196.15,52.182L195.824,52.694L225.972,74.839L226.391,74.327L233.555,64.511C238.952,57.16 237.324,46.832 229.973,41.435L226.437,38.83C219.086,33.433 208.758,35.015 203.361,42.365C203.315,42.365 203.315,42.412 203.315,42.412Z" fill="#8A5D3B"/>
<path d="M162.563,98.007L174.705,81.491Z" fill="#10626C"/>
<path d="M162.562,100.798C161.958,100.798 161.399,100.612 160.888,100.286C159.631,99.355 159.399,97.634 160.329,96.378L172.426,79.815C173.356,78.559 175.077,78.28 176.334,79.211C177.59,80.141 177.869,81.862 176.938,83.119L164.796,99.681C164.284,100.379 163.446,100.798 162.562,100.798Z" fill="#10626C"/>
<path d="M134.135,99.124L126.924,108.94C125.156,111.359 125.668,114.756 128.087,116.57L137.252,123.27C139.672,125.038 143.068,124.526 144.882,122.106L152.094,112.29L134.135,99.124Z" fill="#EFCDB1"/>
<path d="M67.096,159.982L112.503,141.745L104.222,121.088L89.939,126.81L71.283,80.379C69.329,75.448 63.746,72.982 58.768,74.936C58.768,74.936 58.721,74.936 58.721,74.982L36.529,83.915C24.526,88.754 18.711,102.432 23.503,114.435L36.576,146.909C41.368,158.958 55,164.82 67.049,159.982L67.096,159.982Z" fill="#128593"/>
<path d="M35.598,148.63C43.693,145.001 47.508,135.603 44.205,127.368L42.53,123.274C39.227,115.039 30.015,110.899 21.688,113.876L35.598,148.63Z" fill="#EFCDB1"/>
<path d="M46.16,126.997C45.043,126.997 44.02,126.299 43.601,125.229C43.043,123.787 43.694,122.158 45.136,121.6L63.048,114.389C64.49,113.83 66.119,114.528 66.724,115.97C67.282,117.413 66.584,119.041 65.142,119.599L47.23,126.811C46.904,126.95 46.532,126.997 46.16,126.997Z" fill="#414042"/>
<path d="M23.781,153.374L35.04,148.861L35.598,148.628L21.688,113.875L21.036,114.107L9.824,118.62C1.357,122.016 -2.737,131.647 0.659,140.114L2.287,144.208C5.684,152.676 15.314,156.77 23.781,153.374Z" fill="#8A5D3B"/>
<path d="M68.772,138.115C67.236,138.161 65.934,136.952 65.934,135.416C65.887,134.253 66.632,133.183 67.702,132.718L86.73,125.088C88.172,124.53 89.801,125.181 90.359,126.623C90.964,128.019 90.312,129.647 88.917,130.206C88.87,130.206 88.87,130.206 88.824,130.252L69.795,137.929C69.47,138.068 69.144,138.115 68.772,138.115Z" fill="#10737F"/>
<path d="M112.502,141.744L123.807,137.185C126.599,136.068 127.948,132.904 126.831,130.113L122.598,119.552C121.481,116.76 118.318,115.411 115.526,116.528L104.221,121.087L112.502,141.744Z" fill="#EFCDB1"/>
<path d="M75.146,72.327L102.27,113.036L120.786,100.707L112.272,87.96L153.958,60.231C158.378,57.254 159.587,51.252 156.61,46.786L143.397,26.92C136.186,16.126 121.624,13.195 110.83,20.36L81.706,39.761C70.913,46.925 67.981,61.534 75.146,72.327Z" fill="#128593"/>
<path d="M79.846,39.2C85.056,46.364 94.966,48.179 102.363,43.247L106.039,40.828C113.436,35.943 115.669,26.033 111.017,18.45L79.846,39.2Z" fill="#EFCDB1"/>
<path d="M116.598,63.443C115.668,63.443 114.784,62.978 114.272,62.187L103.571,46.09C102.641,44.834 102.92,43.112 104.13,42.182C105.386,41.251 107.107,41.531 108.038,42.74C108.084,42.833 108.177,42.926 108.224,43.019L118.924,59.07C119.762,60.373 119.436,62.094 118.133,62.978C117.668,63.257 117.156,63.443 116.598,63.443Z" fill="#414042"/>
<path d="M72.773,28.548L79.473,38.644L79.845,39.202L111.016,18.452L110.644,17.894L103.944,7.798C98.873,0.215 88.591,-1.832 81.008,3.239L77.379,5.658C69.796,10.683 67.702,20.872 72.727,28.501L72.773,28.548Z" fill="#8A5D3B"/>
<path d="M110.97,88.799C110.04,88.799 109.156,88.333 108.644,87.542L97.292,70.468C96.408,69.165 96.781,67.444 98.083,66.606C99.386,65.723 101.107,66.095 101.945,67.351L113.297,84.425C114.134,85.681 113.808,87.403 112.599,88.24C112.552,88.24 112.552,88.287 112.506,88.287C112.04,88.612 111.529,88.799 110.97,88.799Z" fill="#10737F"/>
<path d="M102.27,113.036L109.016,123.178C110.644,125.691 113.994,126.388 116.459,124.76C116.506,124.76 116.506,124.714 116.552,124.714L126.043,118.433C128.556,116.758 129.207,113.362 127.532,110.849L120.786,100.707L102.27,113.036Z" fill="#EFCDB1"/>
</svg>
