<svg width="32" height="24" viewBox="0 0 32 24" fill="none" xmlns="http://www.w3.org/2000/svg" xmlns:xlink="http://www.w3.org/1999/xlink">
<path d="M20.005,12.758L17.481,15.29C16.458,16.317 14.657,16.339 13.612,15.29L11.088,12.758L2.023,21.852C2.361,22.008 2.733,22.101 3.128,22.101L27.965,22.101C28.36,22.101 28.732,22.008 29.069,21.852L20.005,12.758Z" fill="#128593"/>
<path d="M27.965,0.914L3.128,0.914C2.733,0.914 2.361,1.007 2.023,1.163L11.709,10.881C11.71,10.882 11.711,10.882 11.712,10.883C11.712,10.883 11.712,10.884 11.712,10.884L14.862,14.044C15.196,14.379 15.897,14.379 16.231,14.044L19.38,10.885C19.38,10.885 19.381,10.883 19.382,10.883C19.382,10.883 19.383,10.882 19.384,10.881L29.069,1.163C28.732,1.007 28.36,0.914 27.965,0.914Z" fill="#128593"/>
<path d="M0.758,2.398C0.584,2.751 0.477,3.143 0.477,3.563L0.477,19.454C0.477,19.873 0.584,20.265 0.758,20.618L9.838,11.509L0.758,2.398Z" fill="#128593"/>
<path d="M30.33,2.398L21.25,11.509L30.33,20.619C30.505,20.265 30.612,19.874 30.612,19.454L30.612,3.563C30.612,3.143 30.505,2.751 30.33,2.398Z" fill="#128593"/>
</svg>
