<svg width="280" height="272" viewBox="0 0 280 272" fill="none" xmlns="http://www.w3.org/2000/svg" xmlns:xlink="http://www.w3.org/1999/xlink">
<path d="M72.158,271.884C65.67,271.884 59.949,268.534 56.632,263.48C53.314,268.534 47.593,271.884 41.105,271.884C30.874,271.884 22.551,263.558 22.551,253.33L22.551,132.478C10.274,130.934 0.73,120.408 0.73,107.734L0.73,42.796C0.73,35.112 6.983,28.858 14.668,28.858C22.354,28.858 28.607,35.112 28.607,42.796L28.607,97.009L87.685,97.009C101.386,97.009 112.532,108.153 112.532,121.859L112.532,166.051C112.532,178.732 102.99,189.218 90.712,190.715L90.712,253.33C90.712,263.558 82.389,271.884 72.158,271.884Z" clip-rule="evenodd" fill-rule="evenodd" fill="#10737F"/>
<path d="M72.157,271.885C67.347,271.885 62.959,270.043 59.659,267.031L59.659,199.332C59.659,197.66 58.303,196.301 56.631,196.301C54.958,196.301 53.603,197.66 53.603,199.332L53.603,267.031C50.303,270.043 45.914,271.885 41.104,271.885C30.873,271.885 22.55,263.559 22.55,253.329L22.55,132.478C10.272,130.934 0.729,120.408 0.729,107.734L0.729,42.796C0.729,40.932 1.098,39.154 1.764,37.528C3.605,36.629 5.672,36.125 7.854,36.125C15.54,36.125 21.793,42.378 21.793,50.063L21.793,104.275L80.871,104.275C94.572,104.275 105.719,115.419 105.719,129.125L105.719,173.317C105.719,178.083 104.371,182.538 102.037,186.323C98.759,188.651 94.894,190.204 90.711,190.715L90.711,127.829C90.711,126.157 89.355,124.8 87.683,124.8C86.011,124.8 84.656,126.157 84.656,127.829L85.148,260.597C85.148,263.693 83.135,266.615 81.788,269.183C78.979,270.897 75.681,271.885 72.157,271.885Z" clip-rule="evenodd" fill-rule="evenodd" fill="#128593"/>
<path d="M56.631,103.063C43.468,103.063 32.76,92.355 32.76,79.191C32.76,66.031 43.468,55.322 56.631,55.322C69.794,55.322 80.501,66.031 80.501,79.191C80.501,92.355 69.794,103.063 56.631,103.063Z" clip-rule="evenodd" fill-rule="evenodd" fill="#D9B7A9"/>
<path d="M56.631,103.064C43.468,103.064 32.76,92.355 32.76,79.192C32.76,70.738 37.179,63.296 43.828,59.054C46.211,58.254 48.759,57.82 51.408,57.82C64.57,57.82 75.278,68.529 75.278,81.689C75.278,90.145 70.859,97.588 64.209,101.83C61.828,102.629 59.279,103.064 56.631,103.064Z" clip-rule="evenodd" fill-rule="evenodd" fill="#F1CBBC"/>
<path d="M70.552,47.901C70.032,47.901 69.511,47.767 69.041,47.498L56.631,40.358L44.22,47.498C43.185,48.092 41.897,48.023 40.931,47.323C39.965,46.621 39.502,45.418 39.748,44.249L42.702,30.238L32.077,20.64C31.191,19.84 30.859,18.593 31.227,17.457C31.597,16.321 32.598,15.511 33.786,15.383L48.022,13.863L53.867,0.794C54.354,-0.297 55.436,-1 56.631,-1C57.824,-1 58.906,-0.297 59.395,0.794L65.239,13.863L79.476,15.383C80.663,15.511 81.665,16.321 82.035,17.457C82.403,18.593 82.07,19.84 81.185,20.64L70.56,30.238L73.514,44.248C73.76,45.417 73.297,46.62 72.33,47.322C71.803,47.706 71.178,47.901 70.552,47.901Z" clip-rule="evenodd" fill-rule="evenodd" fill="#E6BD5C"/>
<path d="M70.551,47.901C70.032,47.901 69.511,47.767 69.041,47.498L56.631,40.358L44.22,47.498C43.185,48.092 41.897,48.023 40.931,47.323C39.965,46.621 39.502,45.418 39.748,44.249L42.702,30.238L32.077,20.64C31.503,20.122 31.162,19.416 31.092,18.674C31.429,18.495 31.802,18.377 32.196,18.335L46.715,16.785L52.991,2.753C53.539,2.248 54.267,1.952 55.042,1.952C56.235,1.952 57.317,2.654 57.806,3.746L63.65,16.816L77.887,18.335C79.074,18.463 80.076,19.273 80.446,20.409C80.528,20.662 80.575,20.92 80.589,21.178L68.703,31.916L71.925,47.201C71.949,47.315 71.966,47.43 71.977,47.545C71.533,47.781 71.043,47.901 70.551,47.901Z" clip-rule="evenodd" fill-rule="evenodd" fill="#FFD266"/>
<path d="M276.249,269.312L199.189,269.312C197.516,269.312 196.161,267.954 196.161,266.285C196.161,243.371 214.804,224.725 237.718,224.725C260.634,224.725 279.275,243.371 279.275,266.285C279.275,267.954 277.921,269.312 276.249,269.312Z" clip-rule="evenodd" fill-rule="evenodd" fill="#10737F"/>
<path d="M185.032,269.312L107.973,269.312C106.301,269.312 104.945,267.954 104.945,266.285C104.945,243.371 123.587,224.725 146.503,224.725C169.417,224.725 188.06,243.371 188.06,266.285C188.06,267.954 186.704,269.312 185.032,269.312Z" clip-rule="evenodd" fill-rule="evenodd" fill="#10737F"/>
<path d="M212.663,233.152C218.115,230.518 224.228,229.04 230.679,229.04C253.164,229.04 271.532,246.991 272.215,269.312L199.189,269.312C197.516,269.312 196.161,267.954 196.161,266.285C196.162,252.774 202.645,240.748 212.663,233.152Z" clip-rule="evenodd" fill-rule="evenodd" fill="#128593"/>
<path d="M180.999,269.312L107.973,269.312C106.301,269.312 104.945,267.954 104.945,266.285C104.945,252.774 111.428,240.748 121.446,233.152C126.899,230.518 133.011,229.04 139.463,229.04C161.947,229.04 180.316,246.991 180.999,269.312Z" clip-rule="evenodd" fill-rule="evenodd" fill="#128593"/>
<path d="M237.718,230.781C225.674,230.781 215.875,220.984 215.875,208.939C215.875,196.895 225.674,187.097 237.718,187.097C249.763,187.097 259.563,196.894 259.563,208.939C259.563,220.984 249.763,230.781 237.718,230.781Z" clip-rule="evenodd" fill-rule="evenodd" fill="#D9B7A9"/>
<path d="M146.503,230.781C134.457,230.781 124.659,220.984 124.659,208.939C124.659,196.895 134.457,187.097 146.503,187.097C158.546,187.097 168.346,196.894 168.346,208.939C168.346,220.984 158.546,230.781 146.503,230.781Z" clip-rule="evenodd" fill-rule="evenodd" fill="#D9B7A9"/>
<path d="M228.522,189.129C229.524,188.988 230.547,188.913 231.586,188.913C243.631,188.913 253.431,198.71 253.431,210.755C253.431,219.517 248.245,227.088 240.782,230.565C239.781,230.706 238.758,230.781 237.717,230.781C225.673,230.781 215.874,220.983 215.874,208.938C215.874,200.177 221.06,192.606 228.522,189.129Z" clip-rule="evenodd" fill-rule="evenodd" fill="#F1CBBC"/>
<path d="M146.503,230.781C134.457,230.781 124.659,220.983 124.659,208.938C124.659,200.177 129.844,192.606 137.307,189.129C138.309,188.988 139.331,188.913 140.372,188.913C152.415,188.913 162.215,198.71 162.215,210.755C162.215,219.517 157.028,227.088 149.566,230.565C148.565,230.706 147.542,230.781 146.503,230.781Z" clip-rule="evenodd" fill-rule="evenodd" fill="#F1CBBC"/>
</svg>
