<svg width="144" height="130" viewBox="0 0 144 130" fill="none" xmlns="http://www.w3.org/2000/svg" xmlns:xlink="http://www.w3.org/1999/xlink">
<path d="M143.116,95.457L130.869,43.291C130.303,40.911 127.891,39.413 125.495,39.98L115.428,42.343C113.032,42.892 111.55,45.321 112.1,47.7L113.513,53.713L110.236,54.906C106.026,56.42 101.833,56.171 97.839,54.157L92.214,51.33C99.031,42.568 103.858,30.108 103.858,13.521C103.858,11.576 102.582,9.861 100.719,9.301L72.88,0.932C72.053,0.683 71.17,0.683 70.343,0.932L42.503,9.301C40.641,9.861 39.365,11.576 39.365,13.521C39.365,29.638 43.921,41.862 50.432,50.58L30.77,50.58L31.446,47.701C32.011,45.321 30.514,42.892 28.117,42.343L18.05,39.98C15.671,39.414 13.258,40.912 12.693,43.291L0.429,95.457C-0.12,97.853 1.377,100.266 3.757,100.832L13.824,103.195C16.22,103.761 18.633,102.263 19.199,99.867L20.613,93.843L53.028,126.158C55.89,129.02 60.582,129.02 63.444,126.142C66.306,123.28 66.289,118.587 63.427,115.725C60.565,112.863 71.73,124.012 71.73,124.012C74.593,126.874 79.284,126.857 82.147,123.995C85.009,121.117 85.009,116.441 82.13,113.579L88.237,119.652C91.099,122.514 95.792,122.514 98.654,119.652C101.516,116.773 101.516,112.081 98.637,109.219C101.516,112.081 106.209,112.081 109.071,109.202C111.933,106.34 111.916,101.648 109.054,98.785L109.043,98.774C112.01,101.562 116.169,102.288 119.92,100.632L124.108,98.785L124.363,99.867C124.912,102.263 127.325,103.761 129.721,103.195L139.788,100.832C142.184,100.266 143.681,97.853 143.116,95.457L143.116,95.457Z" fill="#F6DCCD"/>
<path d="M100.72,9.301L72.881,0.932C72.054,0.683 71.171,0.683 70.344,0.932L42.504,9.301C40.642,9.861 39.366,11.576 39.366,13.521C39.366,43.614 55.241,60.151 70.096,65.593C70.586,65.772 71.099,65.861 71.612,65.861C72.125,65.861 72.638,65.772 73.127,65.593C87.983,60.151 103.857,43.614 103.857,13.521C103.857,11.576 102.582,9.861 100.719,9.301L100.72,9.301Z" fill="#8AC9FE"/>
<path d="M113.512,53.715L110.236,54.908C106.026,56.423 101.832,56.173 97.839,54.16L92.214,51.333C86.663,58.467 79.795,63.153 73.127,65.595C72.638,65.775 72.124,65.864 71.611,65.864C71.099,65.864 70.585,65.774 70.096,65.595C65.558,63.933 60.928,61.23 56.682,57.428L44.042,71.599C42.994,72.797 42.578,74.244 42.861,75.809C43.144,77.373 44.042,78.604 45.44,79.336C51.314,82.448 58.502,82.198 64.326,78.338L72.047,73.197C76.041,70.534 81.232,71.05 84.627,74.445L108.821,98.573C111.8,101.535 116.076,102.333 119.92,100.636L124.108,98.789L113.512,53.717L113.512,53.715Z" fill="#E2B8AA"/>
<path d="M12.692,43.29L0.429,95.457C-0.12,97.853 1.377,100.265 3.757,100.832L13.824,103.195C16.22,103.76 18.633,102.263 19.199,99.867L31.445,47.7C32.011,45.321 30.513,42.892 28.117,42.342L18.05,39.979C15.671,39.414 13.258,40.911 12.692,43.29Z" fill="#837683"/>
<path d="M28.117,42.343L26.586,41.983L14.792,92.22C14.227,94.616 11.813,96.114 9.417,95.548L0.879,93.544L0.429,95.458C-0.12,97.854 1.377,100.267 3.757,100.833L13.824,103.196C16.22,103.762 18.633,102.264 19.199,99.868L31.446,47.702C32.011,45.322 30.514,42.892 28.117,42.343Z" fill="#7A6D7A"/>
<path d="M130.868,43.29L143.115,95.457C143.681,97.853 142.183,100.265 139.787,100.832L129.719,103.195C127.323,103.76 124.911,102.263 124.361,99.867L112.098,47.7C111.549,45.321 113.03,42.892 115.425,42.342L125.493,39.979C127.889,39.414 130.302,40.911 130.867,43.291L130.868,43.29Z" fill="#837683"/>
<path d="M143.116,95.457L130.869,43.291C130.303,40.911 127.89,39.413 125.494,39.98L123.627,40.418L135.617,91.49C136.183,93.886 134.686,96.299 132.289,96.865L124.108,98.786L124.362,99.867C124.911,102.263 127.324,103.761 129.72,103.195L139.787,100.832C142.184,100.266 143.681,97.854 143.115,95.457L143.116,95.457Z" fill="#7A6D7A"/>
<path d="M91.93,116.148L75.296,99.563C74.466,98.737 73.179,98.583 72.178,99.192C70.769,100.049 70.536,102 71.705,103.165L88.236,119.647C91.098,122.509 95.791,122.509 98.653,119.647C99.233,119.064 99.689,118.404 100.034,117.702C97.349,118.842 94.109,118.327 91.93,116.148Z" fill="#F1CBBC"/>
<path d="M75.424,120.508L62.34,107.449C61.51,106.621 60.222,106.467 59.222,107.076C57.813,107.933 57.58,109.884 58.747,111.049L71.73,124.007C74.592,126.869 79.285,126.853 82.147,123.991C82.726,123.408 83.182,122.749 83.527,122.048C80.842,123.192 77.603,122.687 75.424,120.508Z" fill="#F1CBBC"/>
<path d="M102.332,105.717L88.261,91.68C87.431,90.852 86.144,90.699 85.142,91.307C83.733,92.164 83.5,94.115 84.668,95.28L98.637,109.216C101.516,112.079 106.208,112.079 109.07,109.2C109.649,108.621 110.105,107.964 110.448,107.266C107.763,108.411 104.522,107.896 102.331,105.718L102.332,105.717Z" fill="#F1CBBC"/>
<path d="M123.12,94.585L116.694,97.418C112.851,99.115 108.574,98.316 105.596,95.354L81.402,71.226C78.007,67.831 72.816,67.316 68.822,69.978L61.101,75.119C55.548,78.8 48.758,79.191 43.047,76.523C43.447,77.746 44.264,78.717 45.439,79.333C51.313,82.445 58.501,82.195 64.325,78.335L72.046,73.194C76.039,70.532 81.231,71.047 84.626,74.442L108.82,98.57C111.799,101.532 116.075,102.33 119.918,100.633L124.107,98.786L123.119,94.585L123.12,94.585Z" fill="#D3A69B"/>
<path d="M56.721,122.66L21.978,88.025L20.612,93.844L53.027,126.16C55.889,129.022 60.582,129.022 63.444,126.143C64.023,125.564 64.478,124.908 64.821,124.209C62.136,125.355 58.899,124.839 56.721,122.66Z" fill="#F1CBBC"/>
<path d="M71.612,65.861C71.098,65.861 70.586,65.772 70.096,65.593C55.241,60.151 39.366,43.614 39.366,13.521C39.366,11.576 40.641,9.861 42.504,9.301L70.344,0.932C71.171,0.683 72.054,0.683 72.881,0.932L100.72,9.301C102.583,9.861 103.858,11.576 103.858,13.521C103.858,43.614 87.984,60.151 73.128,65.593C72.639,65.772 72.126,65.861 71.613,65.861L71.612,65.861ZM48.251,16.776C49.249,39.228 60.536,51.949 71.612,56.714C82.687,51.949 93.975,39.228 94.973,16.776L71.612,9.753L48.251,16.776Z" fill="#60B7FF"/>
<path d="M100.719,9.299L99.224,8.85C100.24,9.712 100.876,11.019 100.876,12.456C100.876,39.703 89.155,56.394 76.431,64.193C90.242,57.622 103.856,41.388 103.856,13.519C103.856,11.574 102.582,9.859 100.719,9.299Z" fill="#49A9EA"/>
<path d="M68.754,44.33C67.616,44.33 66.519,43.889 65.697,43.097L59.311,36.945C57.558,35.257 57.507,32.468 59.195,30.714C60.883,28.961 63.673,28.909 65.426,30.598L68.55,33.607L77.583,23.698C79.223,21.9 82.01,21.77 83.809,23.411C85.607,25.051 85.736,27.838 84.096,29.636L72.011,42.892C71.21,43.772 70.086,44.289 68.897,44.328C68.85,44.33 68.802,44.33 68.754,44.33Z" fill="#D8ECFE"/>
</svg>
