<svg width="30" height="30" viewBox="0 0 30 30" fill="none" xmlns="http://www.w3.org/2000/svg" xmlns:xlink="http://www.w3.org/1999/xlink">
<path d="M27.747,20.582C27.669,20.52 21.973,16.414 20.409,16.709C19.663,16.841 19.236,17.35 18.38,18.369C18.242,18.534 17.911,18.928 17.654,19.208C17.112,19.032 16.584,18.817 16.074,18.565C13.438,17.282 11.309,15.153 10.025,12.517C9.774,12.006 9.559,11.478 9.382,10.937C9.664,10.679 10.058,10.348 10.226,10.206C11.241,9.355 11.751,8.928 11.883,8.179C12.153,6.629 8.05,0.894 8.007,0.842C7.821,0.576 7.578,0.355 7.296,0.195C7.014,0.034 6.7,-0.062 6.376,-0.086C4.713,-0.086 -0.035,6.073 -0.035,7.111C-0.035,7.171 0.052,13.299 7.608,20.985C15.287,28.533 21.414,28.62 21.474,28.62C22.512,28.62 28.671,23.872 28.671,22.209C28.647,21.886 28.552,21.573 28.392,21.292C28.232,21.011 28.012,20.768 27.747,20.582Z" fill="#128593"/>
</svg>
