<svg width="74" height="74" viewBox="0 0 74 74" fill="none" xmlns="http://www.w3.org/2000/svg" xmlns:xlink="http://www.w3.org/1999/xlink">
<path d="M36.546,-0.896C56.919,-0.896 73.44,15.625 73.44,35.998C73.44,56.37 56.919,72.892 36.546,72.892C16.174,72.892 -0.348,56.37 -0.348,35.998C-0.348,15.625 16.174,-0.896 36.546,-0.896ZM28.885,47.981L19.852,38.941C18.313,37.401 18.313,34.89 19.852,33.351C21.392,31.812 23.914,31.821 25.442,33.351L31.81,39.724L47.651,23.883C49.191,22.343 51.702,22.343 53.241,23.883C54.78,25.422 54.778,27.935 53.241,29.472L34.6,48.113C33.063,49.65 30.55,49.652 29.011,48.113C28.967,48.07 28.926,48.026 28.885,47.981Z" clip-rule="evenodd" fill-rule="evenodd" fill="#128593"/>
</svg>
