<svg width="76" height="76" viewBox="0 0 76 76" fill="none" xmlns="http://www.w3.org/2000/svg" xmlns:xlink="http://www.w3.org/1999/xlink">
<path d="M37.839,0.967C58.212,0.967 74.733,17.488 74.733,37.861C74.733,58.233 58.212,74.755 37.839,74.755C17.467,74.755 0.945,58.233 0.945,37.861C0.945,17.488 17.467,0.967 37.839,0.967ZM30.178,49.844L21.145,40.804C19.606,39.264 19.606,36.754 21.145,35.214C22.685,33.675 25.207,33.685 26.735,35.214L33.103,41.587L48.944,25.746C50.484,24.206 52.995,24.206 54.534,25.746C56.073,27.285 56.071,29.798 54.534,31.336L35.893,49.976C34.356,51.513 31.843,51.516 30.304,49.976C30.26,49.933 30.219,49.889 30.178,49.844Z" clip-rule="evenodd" fill-rule="evenodd" fill="#128593"/>
</svg>
