<svg width="74" height="76" viewBox="0 0 74 76" fill="none" xmlns="http://www.w3.org/2000/svg" xmlns:xlink="http://www.w3.org/1999/xlink">
<path d="M36.55,0.836C56.923,0.836 73.444,17.357 73.444,37.73C73.444,58.102 56.923,74.624 36.55,74.624C16.178,74.624 -0.344,58.102 -0.344,37.73C-0.344,17.357 16.178,0.836 36.55,0.836ZM28.889,49.713L19.856,40.673C18.317,39.134 18.317,36.623 19.856,35.083C21.396,33.544 23.918,33.554 25.446,35.083L31.814,41.456L47.655,25.615C49.194,24.076 51.706,24.076 53.245,25.615C54.784,27.154 54.782,29.668 53.245,31.205L34.604,49.845C33.067,51.383 30.554,51.385 29.014,49.845C28.971,49.802 28.929,49.758 28.889,49.713Z" clip-rule="evenodd" fill-rule="evenodd" fill="#128593"/>
</svg>
