<svg width="30" height="28" viewBox="0 0 30 28" fill="none" xmlns="http://www.w3.org/2000/svg" xmlns:xlink="http://www.w3.org/1999/xlink">
<path d="M27.357,19.817C27.278,19.755 21.582,15.649 20.019,15.943C19.272,16.075 18.846,16.584 17.989,17.604C17.851,17.768 17.52,18.162 17.263,18.443C16.722,18.266 16.194,18.051 15.683,17.8C13.047,16.517 10.918,14.387 9.635,11.751C9.383,11.241 9.168,10.713 8.992,10.172C9.273,9.913 9.667,9.582 9.836,9.441C10.85,8.589 11.36,8.162 11.492,7.414C11.763,5.864 7.66,0.128 7.617,0.077C7.431,-0.189 7.188,-0.411 6.905,-0.571C6.623,-0.732 6.309,-0.827 5.985,-0.852C4.322,-0.852 -0.426,5.308 -0.426,6.345C-0.426,6.405 -0.339,12.533 7.218,20.22C14.897,27.767 21.023,27.854 21.084,27.854C22.122,27.854 28.28,23.106 28.28,21.443C28.256,21.121 28.161,20.808 28.001,20.526C27.842,20.245 27.622,20.003 27.357,19.817Z" fill="#128593"/>
</svg>
