<svg width="76" height="76" viewBox="0 0 76 76" fill="none" xmlns="http://www.w3.org/2000/svg" xmlns:xlink="http://www.w3.org/1999/xlink">
<path d="M37.839,0.951C58.212,0.951 74.733,17.473 74.733,37.845C74.733,58.218 58.212,74.739 37.839,74.739C17.467,74.739 0.945,58.218 0.945,37.845C0.945,17.473 17.467,0.951 37.839,0.951ZM30.178,49.829L21.145,40.789C19.606,39.249 19.606,36.738 21.145,35.198C22.685,33.659 25.207,33.669 26.735,35.198L33.103,41.571L48.944,25.73C50.484,24.191 52.995,24.191 54.534,25.73C56.073,27.269 56.071,29.783 54.534,31.32L35.893,49.961C34.356,51.498 31.843,51.5 30.304,49.961C30.26,49.917 30.219,49.873 30.178,49.829Z" clip-rule="evenodd" fill-rule="evenodd" fill="#128593"/>
</svg>
