<svg width="74" height="74" viewBox="0 0 74 74" fill="none" xmlns="http://www.w3.org/2000/svg" xmlns:xlink="http://www.w3.org/1999/xlink">
<path d="M36.546,-0.217C56.919,-0.217 73.44,16.305 73.44,36.677C73.44,57.05 56.919,73.571 36.546,73.571C16.174,73.571 -0.348,57.05 -0.348,36.677C-0.348,16.305 16.174,-0.217 36.546,-0.217ZM28.885,48.661L19.852,39.621C18.313,38.081 18.313,35.57 19.852,34.03C21.392,32.491 23.914,32.501 25.442,34.03L31.81,40.403L47.651,24.562C49.191,23.023 51.702,23.023 53.241,24.562C54.78,26.101 54.778,28.615 53.241,30.152L34.6,48.793C33.063,50.33 30.55,50.332 29.011,48.793C28.967,48.749 28.926,48.705 28.885,48.661Z" clip-rule="evenodd" fill-rule="evenodd" fill="#128593"/>
</svg>
