<svg width="76" height="74" viewBox="0 0 76 74" fill="none" xmlns="http://www.w3.org/2000/svg" xmlns:xlink="http://www.w3.org/1999/xlink">
<path d="M37.839,-0.582C58.212,-0.582 74.733,15.94 74.733,36.312C74.733,56.684 58.212,73.206 37.839,73.206C17.467,73.206 0.945,56.684 0.945,36.312C0.945,15.94 17.467,-0.582 37.839,-0.582ZM30.178,48.295L21.145,39.255C19.606,37.716 19.606,35.205 21.145,33.665C22.685,32.126 25.207,32.136 26.735,33.665L33.103,40.038L48.944,24.197C50.484,22.658 52.995,22.658 54.534,24.197C56.073,25.736 56.071,28.25 54.534,29.787L35.893,48.427C34.356,49.965 31.843,49.967 30.304,48.427C30.26,48.384 30.219,48.34 30.178,48.295Z" clip-rule="evenodd" fill-rule="evenodd" fill="#128593"/>
</svg>
