<svg width="74" height="74" viewBox="0 0 74 74" fill="none" xmlns="http://www.w3.org/2000/svg" xmlns:xlink="http://www.w3.org/1999/xlink">
<path d="M36.546,-0.061C56.919,-0.061 73.44,16.461 73.44,36.833C73.44,57.206 56.919,73.727 36.546,73.727C16.174,73.727 -0.348,57.206 -0.348,36.833C-0.348,16.461 16.174,-0.061 36.546,-0.061ZM28.885,48.817L19.852,39.777C18.313,38.237 18.313,35.726 19.852,34.187C21.392,32.648 23.914,32.657 25.442,34.187L31.81,40.56L47.651,24.718C49.191,23.179 51.702,23.179 53.241,24.718C54.78,26.258 54.778,28.771 53.241,30.308L34.6,48.949C33.063,50.486 30.55,50.488 29.011,48.949C28.967,48.906 28.926,48.862 28.885,48.817Z" clip-rule="evenodd" fill-rule="evenodd" fill="#128593"/>
</svg>
