<svg width="106" height="236" viewBox="0 0 106 236" fill="none" xmlns="http://www.w3.org/2000/svg" xmlns:xlink="http://www.w3.org/1999/xlink">
<path d="M71.268,234.885C66.458,234.885 62.069,233.043 58.769,230.031L58.769,162.332C58.769,160.66 57.414,159.301 55.742,159.301C54.069,159.301 52.714,160.66 52.714,162.332L52.714,230.031C49.414,233.043 45.025,234.885 40.214,234.885C29.983,234.885 21.661,226.559 21.661,216.329L21.661,95.478C9.383,93.934 -0.16,83.408 -0.16,70.734L-0.16,5.796C-0.16,3.932 0.209,2.154 0.875,0.528C2.716,-0.371 4.783,-0.875 6.965,-0.875C14.651,-0.875 20.904,5.378 20.904,13.063L20.904,67.275L79.982,67.275C93.683,67.275 104.829,78.419 104.829,92.125L104.829,136.317C104.829,141.083 103.481,145.538 101.148,149.323C97.869,151.651 94.005,153.204 89.822,153.715L89.822,90.829C89.822,89.157 88.466,87.8 86.794,87.8C85.122,87.8 83.766,89.157 83.766,90.829L84.259,223.597C84.259,226.693 82.246,229.615 80.899,232.183C78.09,233.897 74.792,234.885 71.268,234.885Z" clip-rule="evenodd" fill-rule="evenodd" fill="#128593"/>
</svg>
