<svg width="74" height="74" viewBox="0 0 74 74" fill="none" xmlns="http://www.w3.org/2000/svg" xmlns:xlink="http://www.w3.org/1999/xlink">
<path d="M36.55,-0.332C56.923,-0.332 73.444,16.19 73.444,36.562C73.444,56.934 56.923,73.456 36.55,73.456C16.178,73.456 -0.344,56.934 -0.344,36.562C-0.344,16.19 16.178,-0.332 36.55,-0.332ZM28.889,48.545L19.856,39.505C18.317,37.966 18.317,35.455 19.856,33.915C21.396,32.376 23.918,32.386 25.446,33.915L31.814,40.288L47.655,24.447C49.194,22.908 51.706,22.908 53.245,24.447C54.784,25.986 54.782,28.5 53.245,30.037L34.604,48.677C33.067,50.215 30.554,50.217 29.014,48.677C28.971,48.634 28.929,48.59 28.889,48.545Z" clip-rule="evenodd" fill-rule="evenodd" fill="#128593"/>
</svg>
