<svg width="76" height="74" viewBox="0 0 76 74" fill="none" xmlns="http://www.w3.org/2000/svg" xmlns:xlink="http://www.w3.org/1999/xlink">
<path d="M37.839,-0.613C58.212,-0.613 74.733,15.908 74.733,36.281C74.733,56.653 58.212,73.175 37.839,73.175C17.467,73.175 0.945,56.653 0.945,36.281C0.945,15.908 17.467,-0.613 37.839,-0.613ZM30.178,48.264L21.145,39.224C19.606,37.684 19.606,35.174 21.145,33.634C22.685,32.095 25.207,32.105 26.735,33.634L33.103,40.007L48.944,24.166C50.484,22.626 52.995,22.626 54.534,24.166C56.073,25.705 56.071,28.218 54.534,29.756L35.893,48.396C34.356,49.933 31.843,49.936 30.304,48.396C30.26,48.353 30.219,48.309 30.178,48.264Z" clip-rule="evenodd" fill-rule="evenodd" fill="#128593"/>
</svg>
