<svg width="112" height="244" viewBox="0 0 112 244" fill="none" xmlns="http://www.w3.org/2000/svg" xmlns:xlink="http://www.w3.org/1999/xlink">
<path d="M71.268,242.884C64.781,242.884 59.06,239.534 55.742,234.48C52.425,239.534 46.703,242.884 40.215,242.884C29.984,242.884 21.662,234.558 21.662,224.33L21.662,103.478C9.384,101.934 -0.159,91.408 -0.159,78.734L-0.159,13.796C-0.159,6.112 6.094,-0.142 13.778,-0.142C21.464,-0.142 27.717,6.112 27.717,13.796L27.717,68.009L86.795,68.009C100.497,68.009 111.643,79.153 111.643,92.859L111.643,137.051C111.643,149.732 102.101,160.218 89.823,161.715L89.823,224.33C89.823,234.558 81.499,242.884 71.268,242.884Z" clip-rule="evenodd" fill-rule="evenodd" fill="#10737F"/>
</svg>
