<svg width="76" height="148" viewBox="0 0 76 148" fill="none" xmlns="http://www.w3.org/2000/svg" xmlns:xlink="http://www.w3.org/1999/xlink">
<path d="M13.575,146.124C5.599,146.124 -0.891,139.638 -0.891,131.66L-0.891,46.435C-0.891,46.363 -0.891,46.29 -0.882,46.218C-0.397,40.702 2.421,35.659 6.838,32.387L44.995,4.159C49.119,1.107 54.204,-0.153 59.311,0.61C64.418,1.376 68.912,4.065 71.964,8.193C75.462,12.917 76.726,18.296 75.428,22.948C75.398,23.063 75.36,23.169 75.317,23.271L51.468,77.97C49.689,82.058 46.34,84.661 42.279,85.117C38.088,85.595 33.751,83.697 31.232,80.296C28.806,77.004 28.436,72.782 30.21,68.705L35.496,56.581L28.044,64.42L28.044,131.66C28.044,139.638 21.55,146.124 13.575,146.124Z" clip-rule="evenodd" fill-rule="evenodd" fill="#10737F"/>
</svg>
