<svg width="74" height="76" viewBox="0 0 74 76" fill="none" xmlns="http://www.w3.org/2000/svg" xmlns:xlink="http://www.w3.org/1999/xlink">
<path d="M36.55,0.504C56.923,0.504 73.444,17.025 73.444,37.398C73.444,57.77 56.923,74.292 36.55,74.292C16.178,74.292 -0.344,57.77 -0.344,37.398C-0.344,17.025 16.178,0.504 36.55,0.504ZM28.889,49.381L19.856,40.341C18.317,38.802 18.317,36.291 19.856,34.751C21.396,33.212 23.918,33.222 25.446,34.751L31.814,41.124L47.655,25.283C49.194,23.744 51.706,23.744 53.245,25.283C54.784,26.822 54.782,29.336 53.245,30.873L34.604,49.513C33.067,51.051 30.554,51.053 29.014,49.513C28.971,49.47 28.929,49.426 28.889,49.381Z" clip-rule="evenodd" fill-rule="evenodd" fill="#128593"/>
</svg>
