<svg width="74" height="76" viewBox="0 0 74 76" fill="none" xmlns="http://www.w3.org/2000/svg" xmlns:xlink="http://www.w3.org/1999/xlink">
<path d="M36.55,0.348C56.923,0.348 73.444,16.869 73.444,37.242C73.444,57.614 56.923,74.136 36.55,74.136C16.178,74.136 -0.344,57.614 -0.344,37.242C-0.344,16.869 16.178,0.348 36.55,0.348ZM28.889,49.225L19.856,40.185C18.317,38.645 18.317,36.134 19.856,34.595C21.396,33.056 23.918,33.065 25.446,34.595L31.814,40.968L47.655,25.127C49.194,23.587 51.706,23.587 53.245,25.127C54.784,26.666 54.782,29.179 53.245,30.716L34.604,49.357C33.067,50.894 30.554,50.896 29.014,49.357C28.971,49.314 28.929,49.27 28.889,49.225Z" clip-rule="evenodd" fill-rule="evenodd" fill="#128593"/>
</svg>
