<svg width="72" height="144" viewBox="0 0 72 144" fill="none" xmlns="http://www.w3.org/2000/svg" xmlns:xlink="http://www.w3.org/1999/xlink">
<path d="M13.575,142.125C5.599,142.125 -0.891,135.64 -0.891,127.662L-0.891,42.436C-0.891,42.364 -0.891,42.292 -0.882,42.219C-0.397,36.704 2.421,31.661 6.838,28.388L44.191,0.755C47.367,-0.548 50.856,-0.974 54.356,-0.453C59.462,0.313 63.956,3.003 67.008,7.131C70.506,11.855 71.77,17.234 70.472,21.886L46.512,76.908C45.854,78.422 44.98,79.731 43.935,80.804C43.399,80.949 42.846,81.054 42.28,81.118C38.089,81.597 33.752,79.698 31.233,76.297C28.807,73.006 28.437,68.784 30.211,64.707L35.497,52.582L35.489,52.59L49.532,20.856C50.073,19.613 49.502,18.175 48.264,17.63C47.026,17.09 45.583,17.66 45.047,18.898L27.356,58.87L23.09,63.358L23.09,130.599C23.09,134.852 21.244,138.68 18.312,141.328C16.826,141.844 15.232,142.125 13.575,142.125Z" clip-rule="evenodd" fill-rule="evenodd" fill="#128593"/>
</svg>
