<svg width="74" height="76" viewBox="0 0 74 76" fill="none" xmlns="http://www.w3.org/2000/svg" xmlns:xlink="http://www.w3.org/1999/xlink">
<path d="M36.55,0.59C56.923,0.59 73.444,17.111 73.444,37.484C73.444,57.856 56.923,74.378 36.55,74.378C16.178,74.378 -0.344,57.856 -0.344,37.484C-0.344,17.111 16.178,0.59 36.55,0.59ZM28.889,49.467L19.856,40.427C18.317,38.887 18.317,36.377 19.856,34.837C21.396,33.298 23.918,33.308 25.446,34.837L31.814,41.21L47.655,25.369C49.194,23.829 51.706,23.829 53.245,25.369C54.784,26.908 54.782,29.421 53.245,30.959L34.604,49.599C33.067,51.136 30.554,51.139 29.014,49.599C28.971,49.556 28.929,49.512 28.889,49.467Z" clip-rule="evenodd" fill-rule="evenodd" fill="#128593"/>
</svg>
