<svg width="30" height="30" viewBox="0 0 30 30" fill="none" xmlns="http://www.w3.org/2000/svg" xmlns:xlink="http://www.w3.org/1999/xlink">
<path d="M27.357,20.549C27.278,20.487 21.582,16.381 20.019,16.676C19.272,16.808 18.846,17.317 17.989,18.336C17.851,18.501 17.52,18.895 17.263,19.175C16.722,18.999 16.194,18.784 15.683,18.532C13.047,17.249 10.918,15.119 9.635,12.484C9.383,11.973 9.168,11.445 8.992,10.904C9.273,10.646 9.667,10.315 9.836,10.173C10.85,9.321 11.36,8.895 11.492,8.146C11.763,6.596 7.66,0.861 7.617,0.809C7.431,0.543 7.188,0.322 6.905,0.161C6.623,0.001 6.309,-0.095 5.985,-0.119C4.322,-0.119 -0.426,6.04 -0.426,7.077C-0.426,7.138 -0.339,13.266 7.218,20.952C14.897,28.5 21.023,28.587 21.084,28.587C22.122,28.587 28.28,23.839 28.28,22.176C28.256,21.853 28.161,21.54 28.001,21.259C27.842,20.977 27.622,20.735 27.357,20.549Z" fill="#128593"/>
</svg>
