<svg width="38" height="38" viewBox="0 0 38 38" fill="none" xmlns="http://www.w3.org/2000/svg" xmlns:xlink="http://www.w3.org/1999/xlink">
<path d="M18.344,-0.469C28.835,-0.469 37.344,8.04 37.344,18.531C37.344,29.023 28.835,37.531 18.344,37.531C7.852,37.531 -0.656,29.023 -0.656,18.531C-0.656,8.04 7.852,-0.469 18.344,-0.469ZM14.398,24.703L9.746,20.047C8.954,19.254 8.954,17.961 9.746,17.168C10.539,16.376 11.838,16.381 12.625,17.168L15.905,20.45L24.063,12.292C24.855,11.499 26.149,11.499 26.941,12.292C27.734,13.085 27.733,14.379 26.941,15.171L17.342,24.771C16.55,25.562 15.256,25.563 14.463,24.771C14.441,24.748 14.419,24.726 14.398,24.703Z" clip-rule="evenodd" fill-rule="evenodd" fill="#128593"/>
</svg>
