<svg width="30" height="30" viewBox="0 0 30 30" fill="none" xmlns="http://www.w3.org/2000/svg" xmlns:xlink="http://www.w3.org/1999/xlink">
<path d="M27.747,20.018C27.669,19.956 21.973,15.85 20.409,16.145C19.663,16.277 19.236,16.786 18.38,17.805C18.242,17.969 17.911,18.364 17.654,18.644C17.112,18.467 16.584,18.253 16.074,18.001C13.438,16.718 11.309,14.588 10.025,11.953C9.774,11.442 9.559,10.914 9.382,10.373C9.664,10.114 10.058,9.783 10.226,9.642C11.241,8.79 11.751,8.363 11.883,7.615C12.153,6.065 8.05,0.329 8.007,0.278C7.821,0.012 7.578,-0.209 7.296,-0.37C7.014,-0.53 6.7,-0.626 6.376,-0.65C4.713,-0.65 -0.035,5.509 -0.035,6.546C-0.035,6.607 0.052,12.734 7.608,20.421C15.287,27.969 21.414,28.056 21.474,28.056C22.512,28.056 28.671,23.308 28.671,21.645C28.647,21.322 28.552,21.009 28.392,20.727C28.232,20.446 28.012,20.204 27.747,20.018Z" fill="#128593"/>
</svg>
