<svg width="30" height="30" viewBox="0 0 30 30" fill="none" xmlns="http://www.w3.org/2000/svg" xmlns:xlink="http://www.w3.org/1999/xlink">
<path d="M27.357,20.969C27.278,20.907 21.582,16.801 20.019,17.096C19.272,17.228 18.846,17.737 17.989,18.756C17.851,18.92 17.52,19.315 17.263,19.595C16.722,19.419 16.194,19.204 15.683,18.952C13.047,17.669 10.918,15.539 9.635,12.904C9.383,12.393 9.168,11.865 8.992,11.324C9.273,11.066 9.667,10.734 9.836,10.593C10.85,9.741 11.36,9.314 11.492,8.566C11.763,7.016 7.66,1.281 7.617,1.229C7.431,0.963 7.188,0.742 6.905,0.581C6.623,0.421 6.309,0.325 5.985,0.301C4.322,0.301 -0.426,6.46 -0.426,7.497C-0.426,7.558 -0.339,13.685 7.218,21.372C14.897,28.92 21.023,29.007 21.084,29.007C22.122,29.007 28.28,24.259 28.28,22.596C28.256,22.273 28.161,21.96 28.001,21.679C27.842,21.397 27.622,21.155 27.357,20.969Z" fill="#128593"/>
</svg>
