<svg width="76" height="76" viewBox="0 0 76 76" fill="none" xmlns="http://www.w3.org/2000/svg" xmlns:xlink="http://www.w3.org/1999/xlink">
<path d="M37.839,0.998C58.212,0.998 74.733,17.52 74.733,37.892C74.733,58.264 58.212,74.786 37.839,74.786C17.467,74.786 0.945,58.264 0.945,37.892C0.945,17.52 17.467,0.998 37.839,0.998ZM30.178,49.875L21.145,40.835C19.606,39.296 19.606,36.785 21.145,35.245C22.685,33.706 25.207,33.716 26.735,35.245L33.103,41.618L48.944,25.777C50.484,24.238 52.995,24.238 54.534,25.777C56.073,27.316 56.071,29.83 54.534,31.367L35.893,50.007C34.356,51.545 31.843,51.547 30.304,50.007C30.26,49.964 30.219,49.92 30.178,49.875Z" clip-rule="evenodd" fill-rule="evenodd" fill="#128593"/>
</svg>
