<svg width="74" height="74" viewBox="0 0 74 74" fill="none" xmlns="http://www.w3.org/2000/svg" xmlns:xlink="http://www.w3.org/1999/xlink">
<path d="M36.546,0.025C56.919,0.025 73.44,16.547 73.44,36.919C73.44,57.292 56.919,73.813 36.546,73.813C16.174,73.813 -0.348,57.292 -0.348,36.919C-0.348,16.547 16.174,0.025 36.546,0.025ZM28.885,48.903L19.852,39.863C18.313,38.323 18.313,35.812 19.852,34.273C21.392,32.734 23.914,32.743 25.442,34.273L31.81,40.646L47.651,24.804C49.191,23.265 51.702,23.265 53.241,24.804C54.78,26.344 54.778,28.857 53.241,30.394L34.6,49.035C33.063,50.572 30.55,50.574 29.011,49.035C28.967,48.992 28.926,48.948 28.885,48.903Z" clip-rule="evenodd" fill-rule="evenodd" fill="#128593"/>
</svg>
