<svg width="38" height="40" viewBox="0 0 38 40" fill="none" xmlns="http://www.w3.org/2000/svg" xmlns:xlink="http://www.w3.org/1999/xlink">
<path d="M18.344,-0.469C28.835,-0.469 37.344,8.487 37.344,19.531C37.344,30.575 28.835,39.531 18.344,39.531C7.852,39.531 -0.656,30.575 -0.656,19.531C-0.656,8.487 7.852,-0.469 18.344,-0.469ZM14.398,26.027L9.746,21.127C8.954,20.292 8.954,18.931 9.746,18.097C10.539,17.262 11.838,17.267 12.625,18.097L15.905,21.551L24.063,12.964C24.855,12.129 26.149,12.129 26.941,12.964C27.734,13.798 27.733,15.161 26.941,15.994L17.342,26.099C16.55,26.932 15.256,26.933 14.463,26.099C14.441,26.075 14.419,26.052 14.398,26.027Z" clip-rule="evenodd" fill-rule="evenodd" fill="#128593"/>
</svg>
