<svg width="40" height="40" viewBox="0 0 40 40" fill="none" xmlns="http://www.w3.org/2000/svg" xmlns:xlink="http://www.w3.org/1999/xlink">
<path d="M19.035,0C29.527,0 38.035,8.956 38.035,20C38.035,31.044 29.527,40 19.035,40C8.544,40 0.035,31.044 0.035,20C0.035,8.956 8.544,0 19.035,0ZM15.09,26.496L10.438,21.596C9.645,20.761 9.645,19.4 10.438,18.565C11.231,17.731 12.53,17.736 13.317,18.565L16.596,22.02L24.754,13.433C25.547,12.598 26.84,12.598 27.633,13.433C28.426,14.267 28.424,15.629 27.633,16.463L18.033,26.568C17.241,27.401 15.947,27.402 15.154,26.568C15.132,26.544 15.111,26.52 15.09,26.496Z" clip-rule="evenodd" fill-rule="evenodd" fill="#128593"/>
</svg>
