<svg width="38" height="40" viewBox="0 0 38 40" fill="none" xmlns="http://www.w3.org/2000/svg" xmlns:xlink="http://www.w3.org/1999/xlink">
<path d="M19,0C29.492,0 38,8.956 38,20C38,31.044 29.492,40 19,40C8.508,40 0,31.044 0,20C0,8.956 8.508,0 19,0ZM15.054,26.496L10.403,21.596C9.61,20.761 9.61,19.4 10.403,18.565C11.196,17.731 12.494,17.736 13.281,18.565L16.561,22.02L24.719,13.433C25.512,12.598 26.805,12.598 27.598,13.433C28.39,14.267 28.389,15.629 27.598,16.463L17.998,26.568C17.206,27.401 15.912,27.402 15.119,26.568C15.097,26.544 15.075,26.52 15.054,26.496Z" clip-rule="evenodd" fill-rule="evenodd" fill="#128593"/>
</svg>
