<svg width="74" height="76" viewBox="0 0 74 76" fill="none" xmlns="http://www.w3.org/2000/svg" xmlns:xlink="http://www.w3.org/1999/xlink">
<path d="M36.546,0.271C56.919,0.271 73.44,16.793 73.44,37.165C73.44,57.538 56.919,74.059 36.546,74.059C16.174,74.059 -0.348,57.538 -0.348,37.165C-0.348,16.793 16.174,0.271 36.546,0.271ZM28.885,49.149L19.852,40.109C18.313,38.569 18.313,36.058 19.852,34.519C21.392,32.98 23.914,32.989 25.442,34.519L31.81,40.892L47.651,25.05C49.191,23.511 51.702,23.511 53.241,25.05C54.78,26.59 54.778,29.103 53.241,30.64L34.6,49.281C33.063,50.818 30.55,50.82 29.011,49.281C28.967,49.238 28.926,49.194 28.885,49.149Z" clip-rule="evenodd" fill-rule="evenodd" fill="#128593"/>
</svg>
