<svg width="24" height="26" viewBox="0 0 24 26" fill="none" xmlns="http://www.w3.org/2000/svg" xmlns:xlink="http://www.w3.org/1999/xlink">
<path d="M18.541,8.572L15.327,8.572L15.327,3.695C15.327,1.487 13.537,-0.302 11.33,-0.302C9.122,-0.302 7.332,1.487 7.332,3.695L7.332,8.572L4.119,8.572C1.912,8.572 0.122,10.361 0.122,12.569C0.122,14.778 1.912,16.567 4.119,16.567L7.332,16.567L7.332,21.444C7.332,23.652 9.122,25.441 11.33,25.441C13.537,25.441 15.327,23.652 15.327,21.444L15.327,16.567L18.541,16.567C20.748,16.567 22.538,14.778 22.538,12.569C22.538,10.361 20.748,8.572 18.541,8.572Z" fill="#FFE177"/>
</svg>
