<svg width="1612" height="612" viewBox="0 0 1612 612" fill="none" xmlns="http://www.w3.org/2000/svg" xmlns:xlink="http://www.w3.org/1999/xlink">
<path d="M1313.237,-0.012L1123.152,-0.012L1284.146,160.982L1421.502,298.338L1284.146,435.696L1123.152,596.69L1313.237,596.69L1611.588,298.338L1313.237,-0.012Z" clip-rule="evenodd" fill-rule="evenodd" fill="#1D646A"/>
<path d="M1032.241,3.473L842.156,3.473L1003.315,164.466L1140.506,301.823L1003.315,439.181L842.156,600.175L1032.241,600.175L1330.758,301.823L1032.241,3.473Z" clip-rule="evenodd" fill-rule="evenodd" fill="#1D646A"/>
<path d="M751.409,6.965L561.324,6.965L722.318,167.959L859.674,305.315L722.318,442.673L561.324,603.667L751.409,603.667L1049.76,305.315L751.409,6.965Z" clip-rule="evenodd" fill-rule="evenodd" fill="#1D646A"/>
<path d="M470.413,10.387L280.328,10.387L441.322,171.381L578.678,308.737L441.322,446.095L280.328,607.089L470.413,607.089L768.764,308.737L470.413,10.387Z" clip-rule="evenodd" fill-rule="evenodd" fill="#1D646A"/>
<path d="M189.417,13.871L-0.668,13.871L160.326,174.865L297.682,312.221L160.326,449.579L-0.668,610.573L189.417,610.573L487.768,312.221L189.417,13.871Z" clip-rule="evenodd" fill-rule="evenodd" fill="#1D646A"/>
</svg>
