<svg width="1612" height="612" viewBox="0 0 1612 612" fill="none" xmlns="http://www.w3.org/2000/svg" xmlns:xlink="http://www.w3.org/1999/xlink">
<path d="M1313.597,0.836L1123.512,0.836L1284.506,161.83L1421.862,299.186L1284.506,436.544L1123.512,597.538L1313.597,597.538L1611.948,299.186L1313.597,0.836Z" clip-rule="evenodd" fill-rule="evenodd" fill="#1D646A"/>
<path d="M1032.601,4.32L842.516,4.32L1003.675,165.314L1140.866,302.67L1003.675,440.028L842.516,601.022L1032.601,601.022L1331.118,302.67L1032.601,4.32Z" clip-rule="evenodd" fill-rule="evenodd" fill="#1D646A"/>
<path d="M751.769,7.813L561.684,7.813L722.677,168.806L860.034,306.162L722.677,443.521L561.684,604.515L751.769,604.515L1050.12,306.162L751.769,7.813Z" clip-rule="evenodd" fill-rule="evenodd" fill="#1D646A"/>
<path d="M470.772,11.234L280.688,11.234L441.681,172.228L579.038,309.584L441.681,446.942L280.688,607.936L470.772,607.936L769.123,309.584L470.772,11.234Z" clip-rule="evenodd" fill-rule="evenodd" fill="#1D646A"/>
<path d="M189.776,14.719L-0.309,14.719L160.685,175.713L298.041,313.069L160.685,450.427L-0.309,611.421L189.776,611.421L488.127,313.069L189.776,14.719Z" clip-rule="evenodd" fill-rule="evenodd" fill="#1D646A"/>
</svg>
