<svg width="1612" height="612" viewBox="0 0 1612 612" fill="none" xmlns="http://www.w3.org/2000/svg" xmlns:xlink="http://www.w3.org/1999/xlink">
<path d="M1313.628,-0.398L1123.543,-0.398L1284.537,160.595L1421.893,297.952L1284.537,435.31L1123.543,596.304L1313.628,596.304L1611.979,297.952L1313.628,-0.398Z" clip-rule="evenodd" fill-rule="evenodd" fill="#1D646A"/>
<path d="M1032.632,3.086L842.547,3.086L1003.706,164.08L1140.897,301.436L1003.706,438.794L842.547,599.788L1032.632,599.788L1331.149,301.436L1032.632,3.086Z" clip-rule="evenodd" fill-rule="evenodd" fill="#1D646A"/>
<path d="M751.8,6.578L561.715,6.578L722.709,167.572L860.065,304.928L722.709,442.286L561.715,603.28L751.8,603.28L1050.151,304.928L751.8,6.578Z" clip-rule="evenodd" fill-rule="evenodd" fill="#1D646A"/>
<path d="M470.804,10L280.719,10L441.713,170.994L579.069,308.35L441.713,445.708L280.719,606.702L470.804,606.702L769.155,308.35L470.804,10Z" clip-rule="evenodd" fill-rule="evenodd" fill="#1D646A"/>
<path d="M189.808,13.484L-0.277,13.484L160.716,174.478L298.073,311.834L160.716,449.192L-0.277,610.186L189.808,610.186L488.159,311.834L189.808,13.484Z" clip-rule="evenodd" fill-rule="evenodd" fill="#1D646A"/>
</svg>
