<svg width="1612" height="612" viewBox="0 0 1612 612" fill="none" xmlns="http://www.w3.org/2000/svg" xmlns:xlink="http://www.w3.org/1999/xlink">
<path d="M1313.237,-0.432L1123.152,-0.432L1284.146,160.562L1421.502,297.918L1284.146,435.276L1123.152,596.27L1313.237,596.27L1611.588,297.918L1313.237,-0.432Z" clip-rule="evenodd" fill-rule="evenodd" fill="#1D646A"/>
<path d="M1032.241,3.053L842.156,3.053L1003.315,164.047L1140.506,301.403L1003.315,438.761L842.156,599.755L1032.241,599.755L1330.758,301.403L1032.241,3.053Z" clip-rule="evenodd" fill-rule="evenodd" fill="#1D646A"/>
<path d="M751.409,6.545L561.324,6.545L722.318,167.539L859.674,304.895L722.318,442.253L561.324,603.247L751.409,603.247L1049.76,304.895L751.409,6.545Z" clip-rule="evenodd" fill-rule="evenodd" fill="#1D646A"/>
<path d="M470.413,9.967L280.328,9.967L441.322,170.961L578.678,308.317L441.322,445.675L280.328,606.669L470.413,606.669L768.764,308.317L470.413,9.967Z" clip-rule="evenodd" fill-rule="evenodd" fill="#1D646A"/>
<path d="M189.417,13.451L-0.668,13.451L160.326,174.445L297.682,311.801L160.326,449.159L-0.668,610.153L189.417,610.153L487.768,311.801L189.417,13.451Z" clip-rule="evenodd" fill-rule="evenodd" fill="#1D646A"/>
</svg>
