<svg width="1612" height="610" viewBox="0 0 1612 610" fill="none" xmlns="http://www.w3.org/2000/svg" xmlns:xlink="http://www.w3.org/1999/xlink">
<path d="M1313.628,-0.963L1123.543,-0.963L1284.537,160.031L1421.893,297.387L1284.537,434.745L1123.543,595.739L1313.628,595.739L1611.979,297.387L1313.628,-0.963Z" clip-rule="evenodd" fill-rule="evenodd" fill="#1D646A"/>
<path d="M1032.632,2.521L842.547,2.521L1003.706,163.515L1140.897,300.871L1003.706,438.229L842.547,599.223L1032.632,599.223L1331.149,300.871L1032.632,2.521Z" clip-rule="evenodd" fill-rule="evenodd" fill="#1D646A"/>
<path d="M751.8,6.014L561.715,6.014L722.709,167.007L860.065,304.364L722.709,441.722L561.715,602.716L751.8,602.716L1050.151,304.364L751.8,6.014Z" clip-rule="evenodd" fill-rule="evenodd" fill="#1D646A"/>
<path d="M470.804,9.436L280.719,9.436L441.713,170.429L579.069,307.786L441.713,445.144L280.719,606.138L470.804,606.138L769.155,307.786L470.804,9.436Z" clip-rule="evenodd" fill-rule="evenodd" fill="#1D646A"/>
<path d="M189.808,12.92L-0.277,12.92L160.716,173.914L298.073,311.27L160.716,448.628L-0.277,609.622L189.808,609.622L488.159,311.27L189.808,12.92Z" clip-rule="evenodd" fill-rule="evenodd" fill="#1D646A"/>
</svg>
